<svg width="1440" height="927" viewBox="0 0 1440 927" fill="none" xmlns="http://www.w3.org/2000/svg">
<rect width="1440" height="927" fill="#2F2F2F"/>
<g style="mix-blend-mode:overlay" opacity="0.6">
<mask id="mask0_500_211" style="mask-type:alpha" maskUnits="userSpaceOnUse" x="0" y="5" width="1440" height="922">
<rect y="5" width="1440" height="922" fill="url(#paint0_linear_500_211)"/>
</mask>
<g mask="url(#mask0_500_211)">
<path d="M11.6737 843.29C16.8865 740.627 89.0579 665.818 147.059 605.685L151.171 601.492C157.889 595.069 173.417 577.898 172.206 557.166C171.471 544.52 164.57 533.106 151.721 523.189C143.976 517.265 137.038 511.708 130.063 506.55C101.31 483.278 71.096 461.534 39.5731 441.425C26.1374 432.972 12.9463 424.985 0 417.465V418.663C12.7016 426.05 25.6968 433.937 38.9491 442.257C70.4276 462.295 100.616 483.95 129.365 507.116L150.987 523.755C163.615 533.472 170.37 544.653 171.104 557.033C172.316 577.399 157.008 594.304 150.363 600.66L146.215 604.953C88.1034 665.286 15.7852 740.261 10.5724 843.223C9.98506 854.205 5.28621 860.927 0 863.19V864.388C5.72672 862.258 11.0129 855.47 11.6737 843.29Z" fill="#5D5D5D"/>
<path d="M37.3338 844.421C42.1428 749.912 111.047 678.497 166.405 621.092L170.554 616.8C180.483 606.598 189.82 595.934 198.526 584.853C207.153 573.671 223.195 552.873 185.311 519.728C144.573 484.068 100.735 451.439 54.2203 422.157C35.4005 410.398 17.327 399.749 0 390.21V391.374C17.1312 400.848 34.9966 411.43 53.5963 423.122C100.07 452.36 143.861 484.957 184.54 520.593C221.727 553.139 206.052 573.472 197.645 584.387C188.953 595.384 179.628 605.959 169.709 616.068L165.561 620.36C110.129 678.031 41.0415 749.446 36.2325 844.421C33.9932 888.415 25.2196 914.005 9.10402 924.987C6.47445 926.884 3.32936 928.102 0 928.515L0 929.513C3.58133 929.076 6.96023 927.752 9.7648 925.686C26.3209 914.505 35.0578 888.681 37.3338 844.421Z" fill="#5D5D5D"/>
<path d="M485.413 168.346C478.255 142.821 420.694 135.999 354.066 128.079C337.583 126.116 320.55 124.119 304.03 121.723C230.941 111.274 164.056 78.0292 99.3733 45.7495C66.9586 29.7761 33.8831 13.3035 0 -0.207397V2.48812C33.4059 15.7993 66.0776 32.1721 98.1252 48.079C162.991 80.3253 230.28 113.703 303.7 124.219C320.256 126.582 337.326 128.612 353.809 130.542C416.766 138.029 476.272 145.084 482.99 169.078C488.203 187.813 461.332 216.166 400.834 255.833C315.704 311.341 244.597 337.265 176.537 337.265C136.761 337.038 97.6238 328.172 62.4066 311.408C40.4879 300.77 19.6101 288.457 0 274.602L0 277.497C19.3049 291.052 39.8514 303.086 61.4154 313.471C96.9315 330.402 136.411 339.361 176.537 339.594C245.148 339.594 316.879 313.538 402.229 257.564C464.562 216.699 490.993 188.379 485.413 168.346Z" fill="#5D5D5D"/>
<path d="M9.50783 693.639C19.8746 678.151 31.6243 663.459 44.6391 649.712C62.5167 629.745 81.0185 609.112 91.0035 583.755C108.551 539.029 74.117 518.397 37.7009 496.533C34.3236 494.503 30.9463 492.473 27.569 490.377C21.5486 486.716 15.8953 483.222 10.3154 479.728C7.56221 477.997 4.18491 475.801 0 473.072V474.303C3.85453 476.832 7.08499 478.929 9.69138 480.56C15.2713 484.087 20.9246 487.548 26.9817 491.275L37.0769 497.398C73.1626 519.029 107.229 539.495 89.9389 583.455C80.064 608.647 61.599 629.212 43.7948 649.113C30.7347 662.898 18.9479 677.635 8.55338 693.173C5.29114 698.801 2.43405 704.614 0 710.577L0 713.273L0.881034 711.309C3.33698 705.258 6.21849 699.356 9.50783 693.639Z" fill="#5D5D5D"/>
<path d="M575.389 74.6348C569.075 74.6348 560.155 78.2954 553.62 95.6997C546.278 115.267 560.448 119.793 575.463 124.618C578.106 125.45 580.859 126.315 583.465 127.281C588.097 129.187 593.073 130.314 598.149 130.608C599.937 130.755 601.735 130.469 603.361 129.779C604.986 129.089 606.38 128.02 607.4 126.682C613.017 118.595 604.023 100.758 599.875 93.4035C593.34 81.6564 584.126 74.6348 575.389 74.6348ZM606.005 125.617C603.068 129.843 595.653 129.843 583.979 125.617C581.299 124.652 578.546 123.753 575.903 122.921C561.219 118.196 548.371 114.102 555.162 96.0991C560.081 83.0541 567.019 76.1323 575.206 76.1323C583.392 76.1323 591.835 82.7879 598.186 93.9693C606.703 108.978 609.382 120.625 606.005 125.617Z" fill="#5D5D5D"/>
<path d="M99.1164 620.36L104.072 615.036C127.713 589.811 152.162 563.788 124.373 532.606C102.897 508.513 70.4828 488.646 41.8858 471.109C35.9389 467.481 30.359 464.054 24.8525 460.559C21.1815 458.263 16.1156 454.935 10.1686 451.075L0 444.22V445.451L9.7648 451.907C15.6017 455.734 20.7777 459.062 24.4487 461.391C29.9919 464.719 35.4616 468.313 41.5187 471.941C70.0422 489.411 102.42 509.245 123.785 533.239C150.987 563.755 126.832 589.478 103.522 614.37L98.529 619.728C77.8614 641.891 51.6506 671.575 30.9096 704.654C18.3811 724.626 8.02898 745.657 0 767.449L0 770.777C8.1111 747.98 18.7887 726.001 31.8641 705.186C52.5317 672.141 78.7057 642.49 99.1164 620.36Z" fill="#5D5D5D"/>
<path d="M78.3019 283.554C106.201 296.499 129.916 302.555 152.896 302.555C176.978 302.555 198.38 295.9 223.159 288.412C237.219 284.086 253.151 279.228 271.248 275.101C278.564 273.479 286.074 272.696 293.605 272.772C297.276 272.772 300.469 272.772 303.7 273.005C306.93 273.237 309.684 273.237 312.584 273.237C327.268 273.237 339.272 269.91 352.23 254.169C358.759 246.203 363.806 237.323 367.171 227.88C371.503 216.964 374.917 208.345 393.932 195.999C399.797 192.682 406.052 189.97 412.581 187.913C423.594 184.052 432.845 180.691 433.249 175.034C433.542 170.408 427.632 165.284 414.637 158.861C399.072 151.207 376.826 150.175 357.113 150.175C348.339 150.175 339.125 150.408 330.204 150.641C321.284 150.874 311.849 151.141 303.076 151.141C287.968 151.595 272.86 150.241 258.143 147.114C194.268 131.373 134.358 101.623 81.5324 75.3333C53.7798 61.5562 26.8715 48.1784 0 36.6975V38.5278C26.5779 49.9422 53.1925 63.1535 80.7615 76.7975C133.697 103.12 193.681 132.937 257.776 148.711C272.648 151.879 287.917 153.255 303.186 152.804C312.106 152.804 321.541 152.538 330.351 152.305C339.162 152.072 348.486 151.839 357.223 151.839C376.716 151.839 398.631 152.838 413.866 160.325C425.833 166.249 431.78 171.141 431.523 174.901C431.193 179.527 421.869 182.854 411.994 186.382C405.322 188.453 398.941 191.222 392.978 194.635C373.485 207.281 369.814 216.565 365.556 227.314C362.239 236.597 357.28 245.33 350.872 253.171C338.354 268.512 326.974 271.574 312.694 271.574C309.83 271.574 306.967 271.574 303.883 271.341C300.8 271.108 297.239 271.108 293.715 271.108C286.024 271.045 278.353 271.85 270.881 273.504C252.747 277.63 236.778 282.522 222.681 286.815C198.049 294.369 176.794 300.892 152.933 300.892C130.246 300.892 106.825 294.901 79.183 282.056C53.9266 270.342 31.2033 254.735 9.21415 239.627L0 233.337V235.434L8.07615 240.991C30.102 256.099 52.8988 271.74 78.3019 283.554Z" fill="#5D5D5D"/>
<path d="M95.2251 253.637C120.25 265.773 148.157 272.203 176.537 272.373C191.992 272.373 225.325 266.649 254.435 257.098C279.912 248.712 310.308 234.802 310.344 216.099C310.344 194.036 263.503 181.823 235.456 174.502C229.363 172.905 224.076 171.54 220.773 170.375C166.671 152.257 114.213 130.338 63.875 104.818C42.0327 94.0358 20.8511 83.5199 0 74.069V75.1671C20.6676 84.5515 41.6656 95.1339 63.1775 105.683C113.568 131.242 166.089 153.183 220.259 171.307C223.93 172.472 229.106 173.87 235.236 175.467C262.989 182.688 309.427 194.802 309.353 216.099C309.353 248.412 208.622 271.374 176.574 271.374C148.385 271.188 120.669 264.793 95.8125 252.739C73.3828 242.322 51.981 227.614 31.24 213.371C21.2182 206.482 10.9028 199.394 0.110129 192.505V193.737C10.6458 200.392 20.741 207.414 30.5792 214.169C51.3937 228.446 72.6853 243.188 95.2251 253.637Z" fill="#5D5D5D"/>
<path d="M106.936 232.905C128.389 243.355 152.33 248.906 176.684 249.078C197.021 249.078 223.636 243.587 233.841 231.574C236.028 229.033 237.504 226.051 238.143 222.881C238.783 219.711 238.566 216.448 237.512 213.371C232.887 197.231 195.59 185.816 168.388 177.497C159.577 174.801 151.978 172.472 147.316 170.509C115.856 157.197 84.9097 141.79 54.6241 126.848L51.3937 125.151C33.8097 116.532 16.7764 108.046 0 100.192V101.324C16.5928 108.978 33.4426 117.497 50.6595 126.049L54.0368 127.713C84.1388 142.688 115.305 158.162 146.766 171.407C151.501 173.404 159.137 175.733 167.947 178.429C193.424 186.216 231.896 197.996 236.374 213.637C237.346 216.581 237.52 219.695 236.881 222.713C236.242 225.732 234.809 228.566 232.703 230.975C222.681 242.722 196.471 248.08 176.317 248.08C152.262 247.884 128.618 242.403 107.413 232.106C87.0022 222.622 66.4814 208.545 46.6581 194.901C32.3046 184.918 16.8865 174.469 0 164.452V165.55C16.6295 175.534 31.8274 185.883 45.9973 195.5C65.8573 209.244 86.4148 223.387 106.936 232.905Z" fill="#5D5D5D"/>
<path d="M651.524 -108.161C653.359 -114.817 655.195 -121.472 656.847 -128.128H654.938C653.286 -121.672 651.524 -115.183 649.725 -108.594C646.348 -96.281 642.86 -83.5023 640.034 -70.4906C630.636 -27.0628 622.523 29.8759 643.705 85.1506C652.221 107.58 673.439 125.949 692.161 142.123C708.864 156.532 723.255 168.978 721.933 179.427C721.346 184.219 717.491 188.512 710.112 192.505C704.688 194.702 698.749 195.651 692.822 195.268C664.629 195.268 614.924 183.986 578.141 172.805C538.127 160.658 488.863 141.291 481.227 118.063C478.768 110.675 480.787 103.187 487.174 95.8662C495.165 86.9144 503.656 78.3396 512.614 70.1755C529.317 54.435 545.102 39.5598 555.528 17.4965C570.406 -13.3511 572.325 -48.0664 560.924 -80.1079C558.171 -88.1612 555.418 -95.5822 552.958 -102.138C549.287 -111.822 546.24 -120.308 544.074 -128.128H542.165C544.331 -120.141 547.562 -111.489 551.233 -101.506C553.656 -94.8501 556.409 -87.5622 559.162 -79.5089C570.461 -47.8319 568.567 -13.5 553.839 16.9973C543.56 38.7944 527.885 53.6031 511.292 69.1772C502.776 77.2305 493.965 85.5167 485.596 95.0009C478.841 102.788 476.712 110.775 479.355 118.695C487.211 142.622 537.026 162.289 577.443 174.569C614.373 185.783 664.299 197.098 692.712 197.098C699.01 197.506 705.321 196.476 711.067 194.103C718.996 189.81 723.144 185.151 723.805 179.793C725.2 168.512 710.516 155.8 693.483 141.091C674.908 125.018 653.836 106.848 645.467 84.7513C624.652 29.8759 632.692 -26.7633 642.053 -69.9914C644.659 -83.1029 648.146 -95.8484 651.524 -108.161Z" fill="#5D5D5D"/>
<path d="M347.384 670.144C345.548 672.906 343.713 675.502 342.318 677.432C323.743 701.159 301.937 722.191 277.048 745.286L266.806 754.571C246.395 773.273 225.25 792.607 212.622 815.469C207.74 824.354 206.235 831.243 208.254 835.436C208.652 836.372 209.278 837.214 210.085 837.9C210.892 838.586 211.86 839.097 212.916 839.396C213.934 839.643 214.983 839.766 216.036 839.762C222.271 839.218 228.249 837.236 233.4 834.005C246.944 826.211 259.951 817.676 272.349 808.448C282.591 801.16 293.164 793.639 304.03 787.083C348.081 760.694 377.045 743.223 390.591 693.905C393.418 683.722 395.07 660.46 386.37 650.377C385.031 648.714 383.246 647.389 381.184 646.527C379.121 645.665 376.85 645.295 374.586 645.452C363.426 646.084 354.175 659.995 347.384 670.144ZM375.577 646.55C377.531 646.515 379.466 646.909 381.218 647.697C382.969 648.485 384.484 649.644 385.635 651.076C394.115 660.893 392.463 683.722 389.674 693.772C376.201 742.624 347.31 759.995 303.589 786.251C292.576 792.907 282.077 800.361 271.835 807.682C259.461 816.889 246.479 825.402 232.96 833.173C224.737 837.666 217.725 839.563 213.357 838.431C212.441 838.197 211.598 837.775 210.891 837.198C210.185 836.62 209.634 835.904 209.282 835.103C207.41 831.21 208.951 824.421 213.613 815.968C226.168 793.24 247.24 773.938 267.614 755.303L277.819 745.885C302.598 722.757 324.624 701.692 343.236 677.898C344.741 675.968 346.503 673.339 348.338 670.577C354.983 660.594 364.05 646.95 374.769 646.45L375.577 646.55Z" fill="#5D5D5D"/>
<path d="M118.462 212.472C131.937 218.093 146.457 221.366 161.266 222.123C165.459 222.353 169.64 221.524 173.344 219.727C179.18 216.399 181.75 213.071 181.199 209.743C180.025 202.722 163.175 198.495 149.666 195.101C145.215 194.097 140.838 192.841 136.56 191.341C104.366 177.796 72.8322 162.122 42.3998 146.981L39.0225 145.284C25.6968 138.728 12.8117 132.272 0 126.116V128.013C12.518 134.036 25.2196 140.325 38.1414 146.748L41.5187 148.412C71.9879 163.587 103.522 179.261 135.789 192.838C140.158 194.388 144.634 195.678 149.188 196.698C161.486 199.793 178.556 204.053 179.401 210.01C179.804 212.439 177.418 215.168 172.352 218.163C168.966 219.775 165.156 220.512 161.339 220.292C146.838 219.561 132.612 216.402 119.38 210.975C101.025 202.455 81.4223 189.011 62.48 175.966C42.4774 161.79 21.6184 148.636 0 136.565L0 138.495C21.2099 150.421 41.6876 163.385 61.342 177.331C80.321 190.376 99.9607 203.853 118.462 212.472Z" fill="#5D5D5D"/>
<path d="M63.3611 845.453C67.7662 759.196 133.33 691.209 186.008 636.567L190.157 632.274C252.82 567.249 250.287 544.553 220.883 518.264C174.096 475.853 123.304 437.236 69.0878 402.856C45.5935 388.113 22.393 374.636 0 362.623V364.553C22.0259 376.433 44.9328 389.711 68.0232 404.253C122.155 438.566 172.874 477.104 219.598 519.428C248.158 544.986 250.471 567.182 188.798 631.176L184.65 635.502C131.751 690.311 65.9307 758.631 61.5256 845.353C57.3774 926.884 23.531 950.911 0 957.567V959.297C24.0816 952.608 59.1394 928.581 63.3611 845.453Z" fill="#5D5D5D"/>
<path d="M468.563 -99.3096C493.71 -28.2944 503.952 10.3081 441.508 43.0204C430.731 48.5598 419.062 52.5348 406.928 54.8008C395.344 56.9444 383.546 57.9928 371.723 57.9289C255.684 57.9289 96.3998 -29.9916 10.6091 -77.213L7.67234 -78.8436L0 -83.07V-81.1066L6.71789 -77.3794L9.65467 -75.7821C95.4454 -28.494 255.17 59.5928 371.723 59.5928C383.676 59.6093 395.598 58.494 407.295 56.265C419.624 53.9615 431.479 49.919 442.426 44.2849C506.081 11.0069 495.765 -28.128 470.289 -100.008C467.058 -109.093 463.718 -118.578 460.671 -128.261H458.872C461.846 -118.245 465.26 -108.594 468.563 -99.3096Z" fill="#5D5D5D"/>
<path d="M433.946 -89.2595C444.151 -60.5074 453.88 -24.434 438.645 -0.606979C431.303 11.2067 417.904 18.9938 399.366 22.6876C390.28 24.3514 381.028 25.1544 371.76 25.0836C265.852 24.9838 112.112 -59.8085 29.3678 -105.366L14.2434 -113.752C9.58125 -116.315 4.80898 -118.711 0 -120.973V-119.842C4.62543 -117.679 9.17744 -115.383 13.6927 -112.92L28.9273 -104.534C111.598 -58.91 265.558 25.9821 371.76 25.9821C381.103 26.0421 390.427 25.228 399.586 23.5529C418.418 19.9256 431.89 11.9388 439.599 -0.107803C455.201 -24.1345 445.253 -60.7403 435.011 -89.5591C430.606 -101.972 426.237 -114.85 422.529 -128.095H421.355C425.136 -114.75 429.504 -101.772 433.946 -89.2595Z" fill="#5D5D5D"/>
<path d="M369.519 614.803C353.404 618.397 339.344 638.63 328 654.737C324.073 660.394 320.328 665.785 316.988 669.612C298.649 690.297 279.04 710.029 258.252 728.714C253.076 733.539 246.541 738.997 239.64 744.787C219.156 761.992 193.679 783.423 185.934 803.023C179.436 819.662 183.254 835.237 186.962 850.411C190.008 862.891 193.165 875.802 190.633 889.214C189.091 897.5 183.548 905.686 177.674 914.372C170.626 924.754 163.357 935.47 162.99 946.984C162.837 950.902 163.51 954.809 164.972 958.498C169.818 970.844 174.884 976.602 180.904 976.602C186.925 976.602 193.349 970.978 202.93 957.201C212.108 944.089 215.705 928.848 219.193 914.139C222.68 899.43 226.314 884.189 235.565 870.877C253.186 845.686 284.242 827.15 311.628 810.777L318.493 806.684C364.013 779.363 399.915 757.765 415.957 699.662C420.215 684.254 419.077 645.086 401.824 625.053C398.297 620.498 393.283 617.059 387.489 615.221C381.694 613.382 375.41 613.236 369.519 614.803ZM400.466 626.217C415.92 644.154 418.82 682.158 414.268 699.429C398.41 756.933 362.875 778.365 317.538 805.519L310.71 809.613C283.141 826.052 251.975 844.688 234.097 870.178C224.662 883.656 221.028 899.064 217.467 914.006C213.907 928.947 210.456 943.623 201.462 956.535C195.038 965.72 187.586 975.137 180.978 975.137C175.912 975.137 171.25 969.58 166.771 958.165C165.368 954.672 164.732 950.965 164.899 947.25C165.303 936.169 172.461 925.62 179.363 915.437C185.346 906.618 191 898.298 192.615 889.679C195.148 875.969 191.954 862.891 188.944 850.278C185.273 834.604 181.602 819.829 187.843 803.689C195.441 784.488 220.881 763.19 241.072 746.118C248.01 740.294 254.544 734.837 259.757 729.945C280.551 711.231 300.161 691.465 318.493 670.743C321.833 666.817 325.578 661.426 329.506 655.702C340.518 639.728 354.505 619.828 369.886 616.4C372.525 615.782 375.237 615.458 377.962 615.435C382.386 615.474 386.736 616.469 390.65 618.339C394.564 620.208 397.929 622.898 400.466 626.184V626.217Z" fill="#5D5D5D"/>
<path d="M386.407 542.523C383.818 538.598 380.278 535.257 376.055 532.755C371.832 530.253 367.036 528.654 362.031 528.081C355.562 527.217 349.425 524.932 344.154 521.425L343.603 520.893C324.881 501.891 262.107 439.927 240.816 439.927C239.708 439.875 238.602 440.065 237.592 440.482C236.582 440.899 235.699 441.531 235.015 442.323C232.189 445.651 232.336 452.307 235.456 462.989C237.328 469.245 255.096 477.898 273.928 487.049C289.603 494.703 305.829 502.59 311.335 508.513C316.254 513.804 322.752 521.159 322.348 523.721C322.348 524.387 321.357 524.819 319.925 525.452C316.621 526.949 311.665 529.179 314.309 539.661C316.892 547.33 320.808 554.575 325.909 561.126C330.321 566.852 333.818 573.115 336.298 579.728C340.997 596.068 311.408 626.317 291.842 646.018C285.381 652.674 279.801 658.231 276.24 662.657C261.144 679.833 244.704 696.004 227.049 711.043C193.607 740.993 159.026 771.775 146.875 814.438C128.484 877.999 124.813 934.272 135.826 981.527C141.699 1006.75 161.963 1041.89 181.603 1041.89C193.827 1041.89 202.748 1028.58 208.07 1002.29C228.628 901.061 284.72 867.383 338.941 834.804C386.994 805.952 432.367 778.697 451.897 707.882C459.239 681.259 447.932 640.128 433.211 617.366C427.324 608.881 419.547 601.604 410.378 596.001C403.035 591.552 396.663 585.911 391.583 579.362C387.912 574.171 388.609 568.147 389.27 561.791C389.931 555.435 390.848 548.247 386.407 542.523ZM389.527 580.527C394.737 587.363 401.326 593.246 408.946 597.865C417.792 603.305 425.293 610.354 430.972 618.564C445.436 640.893 456.669 681.193 449.327 707.316C430.054 777.2 385.085 804.255 337.436 832.874C282.958 865.719 226.425 899.663 205.574 1001.89C200.582 1026.55 192.285 1039.6 181.639 1039.6C164.936 1039.6 144.673 1008.12 138.359 981.061C127.346 934.139 131.017 878.232 149.115 814.871C161.082 772.84 195.406 742.158 228.591 712.541C246.34 697.419 262.865 681.16 278.039 663.888C281.527 659.695 287.07 654.071 293.494 647.549C314.639 626.084 343.566 596.667 338.537 579.096C336 572.251 332.39 565.773 327.818 559.861C322.893 553.525 319.091 546.529 316.548 539.129C314.382 530.41 317.796 528.879 320.806 527.515C322.458 526.75 324.183 525.984 324.477 524.187C325.064 521.758 323.339 518.031 313.097 507.016C307.297 500.759 290.851 492.739 274.956 485.019C258.253 476.899 239.347 467.681 237.769 462.39C234.098 450.343 235.309 445.585 236.888 443.721C237.326 443.229 237.888 442.839 238.527 442.584C239.165 442.33 239.862 442.217 240.559 442.257C256.601 442.257 303.185 483.655 341.437 522.423C341.665 522.692 341.923 522.937 342.208 523.156C347.803 526.931 354.331 529.41 361.224 530.377C365.917 530.891 370.418 532.377 374.377 534.72C378.336 537.063 381.648 540.2 384.057 543.888C387.728 548.946 387.288 555.069 386.59 561.525C385.893 567.981 385.452 574.87 389.527 580.527Z" fill="#5D5D5D"/>
<path d="M0 326.482C123.785 390.01 257.189 491.042 281.49 541.259C296.174 571.408 260.713 607.448 215.964 653.073C165.084 704.92 101.759 769.546 97.8315 846.884C93.0225 941.293 41.4086 979.996 0 991.776V994.172C42.3631 982.492 95.4454 943.19 100.401 846.95C104.292 770.411 167.286 706.151 217.872 654.57C263.246 608.347 299.074 571.808 283.95 540.294C259.354 489.711 124.813 387.814 0 324.02V326.482Z" fill="#5D5D5D"/>
<path d="M623.589 -127.928H622.084C619.477 -125.652 617.36 -122.954 615.843 -119.975C611.291 -110.258 612.576 -100.008 613.824 -90.3575C614.698 -84.8481 615.078 -79.2836 614.962 -73.7185C614.305 -64.8757 612.931 -56.0887 610.85 -47.4289C609.309 -40.2408 607.693 -32.7866 606.923 -25.5652C602.224 18.4615 606.482 58.262 619.551 92.7381C622.267 99.8928 632.913 110.908 644.183 122.688C658.573 137.597 673.551 153.004 674.065 162.356C674.185 163.261 674.086 164.18 673.776 165.048C673.465 165.915 672.95 166.711 672.266 167.381C668.375 171.141 657.949 171.807 641.246 169.411C629.111 167.167 617.334 163.556 606.188 158.662C599.617 156.066 592.789 153.371 585.998 151.307L580.051 149.51C555.639 142.222 522.196 132.206 517.424 114.702C515.148 106.349 519.627 96.798 530.75 86.3154C548.26 69.6764 566.358 52.7379 578.472 26.8143C590.22 1.95566 603.729 -46.3973 598.553 -72.587C597.538 -77.0675 595.527 -81.3135 592.642 -85.0663C590.589 -87.473 589.101 -90.2347 588.267 -93.1818C587.434 -96.1289 587.274 -99.1992 587.797 -102.204C588.612 -106.702 590.601 -110.957 593.597 -114.617C595.259 -116.464 596.501 -118.592 597.251 -120.876C598.001 -123.161 598.244 -125.558 597.965 -127.928H596.864C597.141 -125.669 596.913 -123.381 596.194 -121.203C595.475 -119.025 594.28 -117 592.679 -115.249C589.579 -111.467 587.539 -107.059 586.732 -102.404C586.165 -99.2871 586.312 -96.0975 587.165 -93.0344C588.017 -89.9712 589.557 -87.1002 591.688 -84.6004C594.516 -80.9531 596.49 -76.8193 597.488 -72.4539C602.627 -46.4971 589.155 1.62288 577.445 26.3484C565.257 52.1056 547.196 69.1107 529.722 85.55C518.305 96.2988 513.753 106.149 516.139 114.868C521.058 132.905 554.831 143.021 579.464 150.409L585.447 152.173C592.165 154.236 598.956 156.898 605.528 159.494C616.754 164.431 628.618 168.076 640.842 170.342C646.411 171.202 652.044 171.68 657.692 171.773C665.254 171.773 670.21 170.542 672.853 168.013C673.627 167.24 674.214 166.328 674.574 165.336C674.935 164.344 675.061 163.295 674.946 162.256C674.322 152.539 659.307 136.998 644.77 121.956C633.757 110.409 623.038 99.4602 620.395 92.4718C607.326 58.1289 603.105 18.4615 607.804 -25.3988C608.574 -32.5869 610.153 -40.0079 611.732 -47.1627C613.867 -55.9316 615.303 -64.8289 616.027 -73.785C616.137 -79.35 615.757 -84.9141 614.889 -90.424C613.604 -100.407 612.392 -110.091 616.834 -119.542C618.477 -122.702 620.769 -125.548 623.589 -127.928Z" fill="#5D5D5D"/>
<path d="M503.144 -109.393C526.381 -43.8018 550.39 23.9855 459.68 71.5397C445.605 78.8137 430.355 84.0356 414.49 87.014C400.422 89.6506 386.088 90.9444 371.723 90.8743C249.076 90.8743 95.6656 8.17844 0 -44.5006V-41.7718C95.996 11.0736 248.966 93.2037 371.723 93.2037C386.26 93.2808 400.767 91.9758 415.004 89.3102C431.146 86.282 446.658 80.9583 460.965 73.5364C553.473 25.0836 529.135 -43.6354 505.604 -110.092C503.474 -116.148 501.345 -122.171 499.326 -128.095H496.61C498.702 -121.905 500.941 -115.682 503.144 -109.393Z" fill="#5D5D5D"/>
<path d="M34.2865 564.686C32.4877 553.971 24.3382 544.354 9.32388 535.368C6.27697 533.538 3.15664 531.608 -0.000399612 529.711V530.909L8.73652 536.2C23.4204 545.019 31.4599 554.403 33.2219 564.819C36.122 582.091 21.6584 599.895 3.85413 619.695C2.67941 621.026 1.35786 622.69 -0.0371094 624.454V626.184C1.68825 623.954 3.26677 621.925 4.73516 620.327C22.6862 600.327 37.2967 582.357 34.2865 564.686Z" fill="#5D5D5D"/>
<path d="M66.7751 575.934C76.3196 551.641 66.7751 541.891 23.4942 516.034L13.1054 509.644C8.59008 506.882 4.25833 504.22 0 501.658V502.856L12.518 510.61L22.9069 516.866C65.5269 542.457 75.0348 552.074 65.7472 575.701C57.3407 597.132 41.0782 615.269 23.8613 634.503C15.8219 643.422 7.67234 652.573 0 662.324V664.054C7.8926 653.871 16.3726 644.387 24.7057 635.102C41.996 615.735 58.2951 597.532 66.7751 575.934Z" fill="#5D5D5D"/>
<path d="M356.341 701.326H356.084C350.871 701.326 345.585 707.316 341.73 711.708C340.886 712.674 340.152 713.505 339.491 714.171C335.82 717.931 332.369 721.925 328.955 725.752C326.789 728.214 324.587 730.71 322.347 733.14L322.054 733.439C314.712 741.326 311.738 746.451 312.913 749.146C313.201 749.682 313.643 750.137 314.192 750.465C314.741 750.793 315.377 750.981 316.033 751.01H317.098C331.782 750.71 343.676 738.664 349.476 731.509C354.614 725.507 358.36 718.624 360.489 711.276C361.33 708.41 361.017 705.366 359.608 702.69C359.211 702.255 358.711 701.906 358.146 701.67C357.58 701.434 356.963 701.316 356.341 701.326ZM358.506 710.976C356.49 718.077 352.906 724.734 347.971 730.544C342.391 737.466 330.974 749.113 317.061 749.379V750.211V749.379H316.4C315.079 749.379 314.859 748.714 314.785 748.547C314.381 747.649 314.418 744.421 323.632 734.537L323.889 734.238C326.165 731.808 328.331 729.313 330.534 726.817C333.911 722.99 337.398 719.03 341.033 715.303C341.693 714.637 342.464 713.738 343.309 712.773C346.723 708.913 351.899 703.023 356.414 703.023C356.742 703.019 357.067 703.086 357.361 703.219C357.655 703.353 357.909 703.548 358.103 703.788C359.196 706.084 359.34 708.66 358.506 711.043V710.976Z" fill="#5D5D5D"/>
<path d="M743.63 1038.5C792.344 1033.47 844.582 982.359 845.242 939.031C846.27 872.475 804.164 819.529 763.416 768.215C756.478 759.496 749.32 750.511 742.565 741.592L738.527 736.301C719.328 711.276 697.596 683.056 690.547 652.241C684.564 626.217 675.423 565.718 685.371 544.886C692.713 529.611 713.454 520.826 733.535 512.373C747.411 506.516 760.553 500.992 769.767 493.438L770.171 493.072C801.668 467.215 801.668 467.215 823.143 466.45C829.641 466.25 837.827 465.984 849.134 465.019C859.576 464.191 869.926 462.589 880.08 460.227C883.318 459.345 886.655 458.798 890.028 458.596C896.636 458.596 902.179 462.856 920.497 476.899C974.644 518.463 973.616 590.776 972.625 660.66C971.377 748.647 970.092 839.596 1079.93 868.415C1094.77 872.415 1110.15 874.51 1125.63 874.638C1166.93 874.638 1202.06 857.999 1227.28 826.285C1264.28 779.862 1274.12 707.449 1251.77 646.051C1200.12 504.32 1076.7 423.321 943.918 346.116C823.29 275.933 708.352 256.599 610.116 243.986C603.456 243.088 596.733 242.621 589.999 242.589C550.169 242.589 531.264 260.958 507.255 284.219C497.627 293.861 487.458 303.047 476.786 311.74C463.277 322.489 446.097 329.844 429.504 336.965C402.412 348.579 376.826 359.561 366.253 383.954C343.824 435.668 398.925 476.001 447.565 511.575C470.068 528.047 491.323 543.588 503.768 559.129C553.179 620.793 538.385 724.72 493.599 783.09C479.613 801.326 452.815 823.889 424.475 847.749C377.486 887.283 324.221 932.109 314.823 969.746C310.381 987.45 311.556 999.696 318.494 1007.55C324.184 1013.97 333.765 1017.1 347.862 1017.1C370.952 1017.1 404.028 1008.48 439.012 999.364C481.779 988.215 530.273 975.57 571.608 975.57C588.642 975.179 605.57 978.118 621.239 984.189C636.443 991.079 650.699 999.568 663.713 1009.48C685.261 1024.65 705.598 1039 734.379 1039C737.471 1038.99 740.559 1038.83 743.63 1038.5ZM622.01 982.691C606.009 976.53 588.728 973.578 571.351 974.039C529.722 974.039 481.118 986.718 438.241 997.899C403.367 1006.98 370.438 1015.57 347.605 1015.57C334.206 1015.57 325.102 1012.64 319.779 1006.65C313.355 999.33 312.437 987.45 316.585 970.245C325.873 933.107 378.992 888.481 425.723 849.113C454.136 825.153 481.008 802.524 495.105 784.188C540.258 725.319 555.125 620.494 505.273 558.297C492.682 542.59 471.317 526.949 448.703 510.41C400.577 475.202 345.916 435.302 367.942 384.686C378.257 360.925 403.514 350.077 430.349 338.596C447.088 331.441 464.378 324.02 478.071 313.138C488.771 304.392 498.977 295.162 508.65 285.484C532.328 262.522 551.05 244.386 590.073 244.386C596.72 244.422 603.356 244.878 609.933 245.75C707.984 258.362 822.849 277.664 943.037 347.647C1075.49 424.686 1198.65 505.518 1250.08 646.683C1272.29 707.615 1262.56 779.463 1225.89 825.453C1201.03 856.634 1166.38 873.107 1125.7 873.107C1110.4 872.982 1095.19 870.91 1080.52 866.95C1031.84 854.172 1001.08 827.982 986.391 786.817C973.286 749.978 973.91 704.654 974.534 660.827C975.525 590.543 976.553 517.731 921.745 475.768C895.535 455.801 894.837 455.368 879.713 458.729C869.657 461.076 859.405 462.668 849.06 463.488C837.68 464.453 829.641 464.719 823.18 464.919C801.154 465.618 801.154 465.618 769.033 491.874L768.592 492.24C759.598 499.628 746.566 505.119 732.837 510.909C712.426 519.495 691.318 528.38 683.756 544.187C673.624 565.452 682.802 626.384 688.822 652.54C695.944 683.522 717.786 712.041 737.095 737.2L741.133 742.524C747.888 751.376 755.046 760.394 761.985 769.146C802.365 820.261 844.508 873.107 843.48 938.864C842.82 981.493 791.426 1031.78 743.483 1036.73C740.484 1037.04 737.469 1037.19 734.452 1037.2C706.296 1037.2 686.179 1023.02 664.924 1008.05C651.776 998.087 637.371 989.575 622.01 982.691Z" fill="#5D5D5D"/>
<path d="M1519.97 4.78407H1505.84H1492.73C1467.69 4.78407 1447.8 6.01536 1425.81 12.0387C1414.53 15.4777 1403.61 19.8094 1393.17 24.9838C1375.77 33.0038 1359.36 40.5912 1339.72 40.5912C1336.44 40.586 1333.17 40.3636 1329.92 39.9256C1315.42 38.0288 1304.56 30.3083 1294.06 22.8207C1282.27 14.4014 1271.15 6.44797 1255.51 6.44797C1254.06 6.44897 1252.62 6.51561 1251.18 6.64764C1241.56 7.54615 1226.11 15.3997 1211.2 23.0204C1203.12 27.3991 1194.74 31.29 1186.09 34.6677C1179.08 36.9961 1171.91 38.9081 1164.62 40.3915C1149.16 43.7193 1147.22 44.9506 1139.73 70.7078C1137.67 77.8293 1136.06 84.4849 1134.7 90.9408C1129.3 114.801 1125.04 133.67 1096.96 151.706C1077.98 163.853 1053.94 169.743 1023.54 169.743C993.146 169.743 961.686 163.986 933.787 158.928C919.103 156.299 905.41 153.77 895.205 152.805C889.258 152.206 880.08 151.873 870.683 151.873C843.738 151.873 812.167 160.825 809.965 173.67C808.9 179.727 814.15 188.845 845.059 197.796L848.473 198.795C966.201 233.038 1048.32 277.697 1131.91 353.005C1154.93 373.77 1172.55 383.421 1187.3 383.421C1190.74 383.432 1194.15 382.879 1197.36 381.79C1213.04 376.499 1224.45 358.496 1237.74 337.797C1244.57 327.081 1252.43 314.935 1261.49 303.221C1304.96 247.152 1368.11 206.094 1440.64 186.748C1460.43 181.454 1480.94 178.687 1501.58 178.528C1564.97 178.528 1609.72 206.648 1652.09 235.6V233.537C1609.8 204.685 1565.05 176.964 1501.58 176.964C1480.77 177.112 1460.08 179.902 1440.12 185.251C1367.21 204.59 1303.67 245.736 1259.84 301.99C1250.63 313.77 1242.85 325.95 1236.02 336.699C1222.95 357.198 1211.68 374.869 1196.63 379.96C1193.61 380.983 1190.42 381.502 1187.19 381.491C1172.95 381.491 1155.77 371.973 1133.08 351.541C1049.28 276.066 966.972 231.274 848.95 196.965L845.5 195.966C822.373 189.311 810.332 181.324 811.653 173.637C813.489 162.988 841.572 153.27 870.572 153.27C879.897 153.27 888.927 153.603 894.874 154.169C905.043 155.167 918.772 157.497 933.31 160.292C961.282 165.384 993 171.141 1023.43 171.141C1053.86 171.141 1078.75 165.151 1098.03 152.805C1126.7 134.402 1131.07 115.234 1136.5 91.0074C1137.97 84.5847 1139.43 77.9624 1141.53 71.0406C1148.87 45.3832 1150.48 45.0504 1165.02 41.9223C1172.39 40.427 1179.63 38.4927 1186.72 36.1319C1195.46 32.7294 1203.93 28.7935 1212.08 24.3515C1226.18 17.1968 1242.11 9.04366 1251.36 8.21171C1252.74 8.07973 1254.13 8.01308 1255.51 8.01204C1270.49 8.01204 1281.39 15.7658 1292.96 24.0188C1303.64 31.6394 1314.65 39.5263 1329.66 41.4897C1333.01 41.9252 1336.38 42.1476 1339.76 42.1553C1359.84 42.1553 1377.2 34.1353 1394.02 26.3815C1404.37 21.2447 1415.21 16.9463 1426.4 13.5362C1448.13 7.54615 1467.91 6.34814 1492.77 6.34814H1505.84H1520.01C1540.73 6.13835 1561.38 8.58063 1581.35 13.6027C1605.59 20.1583 1629.2 28.4943 1651.94 38.528V36.6977C1629.34 26.7963 1605.89 18.5719 1581.82 12.1052C1561.69 7.04767 1540.86 4.58314 1519.97 4.78407Z" fill="#5D5D5D"/>
<path d="M1442.14 754.171C1444.2 756.634 1448.13 759.995 1457.93 760.827C1494.64 763.556 1550.07 767.482 1596.87 806.318L1597.42 806.751C1614 820.765 1627.15 837.768 1636.04 856.667C1638.72 862.158 1643.05 865.286 1647.9 865.286C1649.3 865.236 1650.67 864.93 1651.94 864.388V863.19C1650.68 863.766 1649.31 864.085 1647.9 864.122C1643.5 864.122 1639.53 861.193 1637.07 856.102C1628.1 837.096 1614.85 820.002 1598.16 805.919L1597.61 805.486C1550.51 766.584 1494.82 762.457 1458.11 759.729C1448.75 759.03 1445.08 755.868 1443.1 753.572C1439.47 748.679 1437.81 742.804 1438.4 736.933C1443.5 716.567 1449.85 691.209 1447.46 663.455C1443.43 616.5 1422.72 576.134 1402.68 536.999C1386.6 505.651 1368.39 470.177 1374.71 453.97C1385.98 425.185 1432.01 383.887 1451.28 367.448C1462.85 357.357 1478.32 351.778 1494.38 351.907C1502.09 351.958 1509.74 353.08 1517.07 355.235C1550.84 365.218 1598.64 387.714 1651.94 418.762V417.564C1598.82 386.649 1551.13 364.12 1517.4 354.336C1509.96 352.161 1502.2 351.039 1494.38 351.008C1477.95 350.868 1462.12 356.608 1450.33 366.982C1431.02 383.621 1384.84 424.886 1373.49 453.871C1367.03 470.51 1385.35 506.15 1401.5 537.631C1421.51 576.6 1442.18 616.866 1446.18 663.655C1448.53 691.243 1442.22 716.501 1437.11 736.867C1436.58 742.985 1438.35 749.086 1442.14 754.171Z" fill="#5D5D5D"/>
<path d="M1511.23 724.021C1519.6 728.148 1531.05 729.945 1542.18 731.642C1550.18 732.647 1558.08 734.261 1565.78 736.467C1570.66 738.202 1575.44 740.168 1580.1 742.358C1590.6 747.05 1602.53 752.341 1613.43 752.341C1615.44 752.35 1617.45 752.149 1619.41 751.742L1620.92 751.409C1636.48 747.183 1644.78 729.512 1651.94 713.239V710.544V710.843C1644.6 727.482 1636.45 746.185 1620.74 750.444L1619.34 750.777C1617.45 751.153 1615.52 751.343 1613.58 751.343C1602.97 751.343 1591.15 746.085 1580.72 741.359C1576.03 739.159 1571.21 737.182 1566.3 735.436C1558.53 733.21 1550.57 731.574 1542.51 730.544C1531.49 728.847 1520.11 727.216 1511.93 723.023C1493.79 714.005 1495.67 697.532 1497.69 680.061C1498.68 673.301 1499.02 666.476 1498.71 659.662C1493.98 604.32 1471.29 560.094 1449.34 517.332C1444.43 508.024 1441.71 497.891 1441.35 487.578C1441 477.265 1443.02 466.998 1447.28 457.431C1452.29 446.818 1459.65 437.248 1468.9 429.315C1478.15 421.382 1489.09 415.253 1501.06 411.308C1508.71 408.684 1516.82 407.331 1525 407.315C1560.42 407.315 1593.68 431.94 1623.01 453.671C1631.35 459.827 1639.2 465.618 1646.73 470.609L1652.09 474.17V472.939L1647.35 469.811C1640.01 464.852 1632.04 459.029 1623.71 452.906C1594.34 431.075 1560.83 406.316 1525 406.316C1516.68 406.319 1508.43 407.695 1500.66 410.376C1488.56 414.36 1477.49 420.55 1468.13 428.563C1458.78 436.576 1451.33 446.242 1446.25 456.966C1441.93 466.666 1439.89 477.075 1440.25 487.531C1440.61 497.988 1443.37 508.261 1448.35 517.698C1470.37 560.36 1492.91 604.487 1497.61 659.695C1497.92 666.432 1497.57 673.179 1496.58 679.861C1494.49 697.066 1492.47 714.637 1511.23 724.021Z" fill="#5D5D5D"/>
<path d="M1519.97 38.3949C1489.1 38.3949 1456.24 43.4865 1421.44 48.8442C1382.27 54.9008 1341.74 61.1903 1298.61 61.1903C1295.49 61.1903 1292.4 61.1903 1289.43 61.1903C1276.35 60.7146 1263.34 59.1889 1250.56 56.6312C1241.98 54.8423 1233.24 53.7839 1224.45 53.4698C1205.4 53.4698 1191.42 62.5547 1176.07 84.8843C1168.84 96.361 1162.82 108.427 1158.08 120.924C1148.87 142.921 1139.36 165.683 1118.29 179.161C1110.95 183.82 1097.18 187.381 1082.5 191.207C1056.8 197.863 1027.73 205.351 1023.76 221.158C1018.84 240.858 1063.45 267.747 1087.42 282.289C1091.9 284.985 1095.75 287.281 1098.43 288.945C1126.51 307.647 1149.82 320.093 1171.85 320.093C1174.84 320.102 1177.83 319.857 1180.77 319.361C1198.43 316.499 1214.43 305.218 1231.17 283.82C1279.51 221.516 1349.71 175.897 1430.32 154.402C1453.41 148.195 1477.35 144.935 1501.43 144.718C1564.75 144.718 1611.56 168.013 1651.94 193.737V192.505C1611.56 166.748 1564.75 143.72 1501.43 143.72C1477.23 143.871 1453.17 147.086 1429.96 153.271C1349.1 174.826 1278.68 220.573 1230.18 283.055C1213.63 304.22 1197.84 315.401 1180.51 318.23C1177.63 318.696 1174.71 318.93 1171.78 318.928C1149.97 318.928 1126.88 306.549 1098.94 287.98C1096.41 286.283 1092.56 283.953 1087.93 281.324C1064.18 266.981 1019.94 240.293 1024.72 221.257C1028.39 206.116 1057.28 198.695 1082.64 192.106C1097.33 188.279 1111.39 184.685 1118.77 179.96C1140.1 166.282 1149.68 143.354 1158.96 121.257C1163.69 108.825 1169.68 96.816 1176.84 85.3835C1191.93 63.3867 1205.7 54.4349 1224.31 54.4349C1233.03 54.8074 1241.7 55.9216 1250.19 57.7627C1263.05 60.3212 1276.13 61.8469 1289.28 62.3218C1292.26 62.3218 1295.34 62.3218 1298.46 62.3218C1341.71 62.3218 1382.27 56.0322 1421.51 49.9756C1456.24 44.5846 1489.02 39.5264 1519.82 39.5264C1537.18 39.3299 1554.48 41.3464 1571.22 45.5164C1599.09 53.2293 1626.13 63.2551 1651.98 75.4666V74.3684C1626.26 62.2738 1599.38 52.3484 1571.66 44.7177C1554.84 40.417 1537.44 38.2884 1519.97 38.3949Z" fill="#5D5D5D"/>
<path d="M1487.48 741.925C1494.82 743.656 1502.16 745.253 1509.51 746.684C1547.9 754.737 1581.05 761.726 1614.2 788.914L1614.86 789.446C1622.46 795.702 1628.48 798.764 1633.22 798.764C1633.93 798.756 1634.65 798.678 1635.35 798.531C1642.69 797.033 1646.14 787.915 1650.03 776.168C1650.62 774.338 1651.28 772.541 1651.94 770.744V767.416C1650.91 770.211 1649.92 773.04 1648.97 775.835C1645.11 787.283 1641.62 796.135 1635.05 797.533C1630.28 798.531 1624.04 795.669 1615.49 788.681L1614.83 788.148C1581.46 760.76 1548.2 753.772 1509.65 745.686C1502.57 744.188 1495.23 742.624 1487.63 740.927C1460.68 734.804 1465.23 711.875 1469.64 689.679C1471.95 680.457 1473.03 671.015 1472.83 661.559C1468.46 610.411 1446.77 568.114 1425.77 527.182C1423.27 522.29 1420.59 517.532 1417.99 512.906C1404.48 488.913 1392.84 468.214 1409.51 442.723C1422.03 423.555 1440.79 407.847 1458.96 392.806C1462.22 390.044 1465.49 387.348 1468.68 384.619C1476.47 378.385 1486.65 375.16 1497.02 375.634C1542.25 375.634 1611.82 419.262 1651.83 445.518V444.287C1611.45 417.897 1542.32 374.603 1497.02 374.603C1486.36 374.13 1475.92 377.45 1467.91 383.854C1464.72 386.583 1461.45 389.278 1458.19 392.04C1439.83 407.248 1421.15 422.989 1408.55 442.323C1391.59 468.28 1403.93 490.21 1417 513.472C1419.6 518.064 1422.28 522.856 1424.78 527.715C1445.74 568.547 1467.4 610.743 1471.77 661.725C1471.92 671.092 1470.85 680.442 1468.57 689.579C1464.21 712.175 1459.54 735.569 1487.48 741.925Z" fill="#5D5D5D"/>
<path d="M714.922 1221.19C705.635 1233.87 694.108 1249.68 698.072 1260.6C699.109 1263 700.75 1265.16 702.866 1266.89C704.981 1268.63 707.513 1269.89 710.26 1270.58C711.533 1270.99 712.875 1271.19 714.225 1271.18C728.431 1271.18 750.935 1251.21 770.684 1233.81C783.313 1222.66 795.207 1212.11 802.365 1209.18C836.615 1195.1 883.787 1188.42 925.416 1182.56C941.862 1180.23 957.354 1178.03 971.707 1175.5C1002.58 1169.85 1033.97 1166.92 1065.46 1166.75C1162.12 1166.75 1243.32 1198.3 1306.76 1260.5C1313.84 1267.45 1324.19 1270.98 1337.48 1270.98C1378.89 1270.98 1449.93 1234.37 1499.96 1166.72C1529.88 1126.22 1573.38 1043.42 1528.15 943.922C1510.02 903.989 1483.11 885.486 1443.46 885.486C1413.25 885.486 1378.82 895.47 1338.95 907.184C1289.91 921.526 1234.29 937.766 1174.49 937.766C1128.83 937.973 1083.84 927.741 1043.69 908.016C915.982 846.252 912.237 733.606 923.287 642.357C927.545 606.883 920.607 578.796 903.133 561.159C897.039 554.988 889.541 550.087 881.157 546.795C872.773 543.503 863.701 541.898 854.566 542.091C817.856 542.091 771.712 568.014 755.119 617.598C739.518 664.188 776.521 706.684 819.398 755.802C867.708 811.143 922.479 873.772 911.87 957.566C906.584 999.097 889.844 1038.93 867.121 1064.06C849.867 1083.19 834.633 1084.89 818.48 1086.69C806.146 1088.05 793.408 1089.48 778.467 1098.07C767.05 1104.72 763.489 1115.8 759.671 1127.62C757.584 1135.95 753.933 1143.9 748.879 1151.11C745.869 1154.91 740.619 1155.74 735.076 1156.6C727.734 1157.73 719.511 1159.06 715.106 1167.62C712.059 1173.57 716.097 1180.6 719.988 1187.38C723.219 1193.04 726.596 1198.87 725.605 1203.76C724.797 1207.72 720.208 1213.81 714.922 1221.19ZM721.86 1186.55C718.189 1179.9 714.518 1173.61 717.015 1168.48C720.943 1160.83 728.321 1159.66 735.37 1158.5C741.096 1157.6 747.007 1156.67 750.531 1152.24C755.676 1144.83 759.4 1136.69 761.544 1128.15C765.215 1116.7 768.665 1105.85 779.421 1099.7C794.105 1091.34 806.44 1089.95 818.554 1088.58C835.11 1086.75 850.785 1084.99 868.553 1065.29C891.57 1039.8 908.456 999.597 913.779 957.733C924.498 873.173 869.434 810.078 820.867 754.404C778.357 705.719 741.684 663.655 756.955 617.964C773.254 569.279 818.297 543.821 854.383 543.821C863.216 543.631 871.99 545.178 880.101 548.355C888.213 551.532 895.469 556.263 901.371 562.224C918.441 579.462 925.196 607.016 920.974 642.091C909.961 733.938 913.632 847.35 1042.52 909.646C1082.97 929.513 1128.3 939.814 1174.31 939.596C1234.44 939.596 1290.24 923.29 1339.5 908.914C1379.19 897.333 1413.47 887.317 1443.35 887.317C1482.56 887.317 1508.07 904.954 1526.06 944.555C1570.88 1043.22 1527.79 1125.39 1498.09 1165.55C1450.37 1230.28 1378.82 1268.98 1337.37 1268.98C1324.71 1268.98 1314.87 1265.65 1308.19 1259C1244.35 1196.37 1162.63 1164.62 1065.35 1164.62C1033.73 1164.8 1002.2 1167.74 971.193 1173.41C956.913 1175.94 941.385 1178.13 924.975 1180.46C883.2 1186.39 835.881 1193.11 801.374 1207.28C794.032 1210.38 782.395 1220.6 769.106 1232.28C749.576 1249.55 727.44 1269.12 714.041 1269.12C712.932 1269.12 711.828 1268.96 710.774 1268.65C708.309 1268.1 706.024 1267.02 704.109 1265.51C702.193 1264 700.703 1262.1 699.761 1259.96C696.09 1249.98 707.323 1234.57 716.354 1222.23C721.787 1214.81 726.449 1208.42 727.367 1204.12C728.799 1198.63 725.274 1192.51 721.86 1186.55Z" fill="#5D5D5D"/>
<path d="M1602.16 994.172C1608.81 997.302 1616.26 998.761 1623.75 998.399C1633.32 998.249 1642.82 996.825 1651.94 994.172V991.743C1642.82 994.411 1633.32 995.824 1623.75 995.936C1616.76 996.275 1609.8 994.944 1603.56 992.076C1582.19 979.63 1572.46 957.567 1562.37 934.272C1553.67 914.139 1544.67 893.307 1527.16 878.631V877.932H1526.39C1506.31 861.859 1479.22 854.039 1443.61 854.039C1408.88 854.039 1372.36 861.593 1343.03 867.649C1322.95 871.809 1305.66 875.403 1294.5 875.403C1287.96 875.403 1283.96 874.172 1282.31 871.643C1280.14 868.315 1281.79 862.059 1287.23 853.04C1312.59 811.044 1363.8 710.943 1360.28 669.546C1357.49 636.833 1340.16 602.989 1323.39 570.444C1299.12 523.156 1274.05 474.27 1292.29 427.581C1313.14 374.336 1404.96 279.095 1470.3 271.008C1474.35 270.517 1478.43 270.272 1482.52 270.276C1525 270.276 1587.18 293.238 1651.98 326.483V324.02C1587.15 290.742 1525.03 267.947 1482.52 267.947C1478.31 267.943 1474.11 268.188 1469.93 268.679C1403.85 276.865 1310.9 373.038 1289.87 426.816C1271.26 474.403 1296.59 523.721 1321.07 571.409C1337.74 603.888 1354.96 637.432 1357.78 669.712C1360.94 706.65 1316.26 800.262 1285.06 851.942C1278.97 861.926 1277.43 868.581 1280.18 872.841C1282.34 876.169 1287.04 877.733 1294.57 877.733C1306.02 877.733 1323.46 874.105 1343.65 869.946C1373.02 863.889 1409.25 856.368 1443.68 856.368C1478.85 856.368 1505.5 864.089 1525.14 879.962C1542.47 894.305 1551.43 915.037 1560.09 935.071C1570.22 958.798 1579.91 981.161 1602.16 994.172Z" fill="#5D5D5D"/>
<path d="M767.235 1186.22C771.154 1186.89 775.143 1187.17 779.129 1187.05C790.325 1187.05 831.771 1185.55 896.38 1166.22C953.899 1149.55 1013.93 1141.09 1074.31 1141.13C1174.24 1141.13 1240.64 1154.71 1326.14 1228.88C1332.72 1234.32 1341.4 1237.18 1350.3 1236.84C1387.48 1236.84 1443.69 1200.23 1478.27 1153.34C1505.28 1116.74 1544.53 1042.09 1503.96 952.808C1486.45 914.305 1464.72 909.081 1443.47 909.081C1417.4 909.081 1384.73 918.598 1346.99 929.646C1296.11 944.522 1238.44 961.36 1174.46 961.36C1124.47 961.592 1075.24 950.398 1031.29 928.814C888.12 859.563 886.175 730.611 897.151 639.629C900.565 611.442 895.719 589.146 883.568 576.833C879.911 573.166 875.414 570.268 870.392 568.342C865.37 566.417 859.944 565.51 854.494 565.685C827.292 565.685 793.005 585.652 780.12 624.321C768.483 659.096 801.559 697 839.847 740.794C888.781 796.867 949.683 866.618 937.825 960.129C934.607 986.344 926.683 1011.91 914.368 1035.8C896.338 1071.51 870.484 1103.52 838.379 1129.88C820.901 1143.56 802.117 1155.81 782.249 1166.49C768.557 1174.21 760.223 1178.83 760.884 1182.39C761.215 1184.12 763.197 1185.29 767.235 1186.22ZM782.983 1167.48C802.899 1156.81 821.731 1144.56 839.26 1130.88C871.466 1104.41 897.417 1072.29 915.542 1036.47C927.883 1012.47 935.831 986.81 939.073 960.495C950.784 866.418 889.846 796.468 840.655 740.261C802.55 696.601 769.658 658.897 781.111 624.62C793.85 586.583 827.623 566.683 854.531 566.683C859.828 566.506 865.103 567.383 869.986 569.251C874.87 571.12 879.242 573.935 882.797 577.499C894.728 589.578 899.464 611.608 896.086 639.495C885.073 730.777 887.019 860.162 1030.81 929.68C1074.9 951.355 1124.3 962.595 1174.46 962.359C1238.59 962.359 1296.33 945.487 1347.36 930.578C1385.02 919.563 1417.51 910.079 1443.43 910.079C1464.13 910.079 1485.65 915.303 1502.86 953.174C1543.24 1042.03 1504.11 1116.24 1477.17 1152.84C1443.32 1198.6 1386.35 1235.87 1350.11 1235.87C1341.51 1236.22 1333.1 1233.46 1326.73 1228.22C1285.28 1192.24 1246.7 1169.38 1205.37 1156.27C1169.76 1144.99 1130.51 1140.16 1074.13 1140.16C1013.63 1140.12 953.492 1148.59 895.866 1165.29C831.367 1184.59 790.069 1186.12 778.945 1186.12C775.045 1186.23 771.143 1185.95 767.308 1185.29C763.931 1184.49 762.132 1183.52 761.949 1182.39C761.582 1179.46 770.502 1174.44 782.91 1167.48H782.983Z" fill="#5D5D5D"/>
<path d="M854.568 588.647C834.891 588.647 813.269 606.683 806.184 622.89C801.485 633.638 805.046 651.975 815.729 672.008C825.824 690.877 839.223 705.286 849.135 708.081C850.601 708.473 852.121 708.675 853.65 708.68C855.326 708.688 856.991 708.429 858.569 707.915C871.344 703.888 871.05 696.767 870.426 681.293C869.64 667.718 870.057 654.108 871.674 640.594C874.611 616.401 870.426 597.965 864.773 592.274C863.512 590.978 861.928 589.973 860.154 589.343C858.379 588.712 856.464 588.473 854.568 588.647ZM870.022 640.327C868.405 653.919 867.988 667.607 868.774 681.259C869.398 696.9 869.655 702.724 858.128 706.351C855.449 707.168 852.548 707.168 849.869 706.351C840.398 703.755 827.439 689.712 817.564 671.143C807.102 651.542 803.541 633.672 808.056 623.356C814.921 607.682 835.809 590.078 854.751 590.078C856.378 589.912 858.026 590.093 859.562 590.607C861.098 591.122 862.481 591.954 863.598 593.039C868.774 598.697 872.702 616.6 870.022 640.327Z" fill="#5D5D5D"/>
<path d="M682.361 -128.095H679.645C673.721 -108.747 669.728 -88.956 667.714 -68.96C663.639 -31.4224 660.042 17.7292 668.522 65.1171C674.689 99.6263 687.097 115.034 708.902 115.034C722.705 115.034 738.747 108.977 757.323 101.956C770.529 96.681 784.075 92.1358 797.887 88.3451L801.998 87.3135C842.636 77.3301 888.45 76.0655 937.053 83.187C950.22 85.351 963.246 88.1616 976.076 91.6063C994.725 96.2652 1014 101.091 1033.56 101.889C1041.54 102.672 1049.62 101.655 1057.06 98.9275C1072.7 91.8726 1065.1 74.2685 1057.06 55.6661C1052.32 44.6178 1047.4 33.2367 1046.6 22.9871C1042.3 -31.2893 1075.74 -80.8069 1120.02 -128.062H1116.64C1072.77 -80.8735 1039.73 -31.3559 1044.06 23.1535C1044.87 33.7359 1049.86 45.3166 1054.71 56.4315C1062.64 74.8342 1069.39 90.7078 1055.96 96.7977C1048.89 99.3143 1041.26 100.25 1033.71 99.5265C1014.44 98.7611 995.312 93.9691 976.81 89.3434C963.885 85.8689 950.76 83.0361 937.494 80.8576C888.523 73.6695 842.342 75.0672 801.374 85.0506L797.226 86.0822C783.262 89.89 769.568 94.4687 756.221 99.7927C737.866 106.715 722.081 112.705 708.792 112.705C688.675 112.705 677.038 97.8959 671.091 64.7177C662.685 17.6293 666.246 -31.3226 670.32 -68.727C672.323 -88.8085 676.354 -108.681 682.361 -128.095Z" fill="#5D5D5D"/>
<path d="M649.434 803.156C647.679 801.441 645.286 800.374 642.716 800.161C637.576 800.161 633.979 806.085 628.546 815.036C621.373 827.679 612.387 839.406 601.821 849.912L597.893 853.705C582.585 868.414 575.574 875.136 577.299 878.73C578.07 880.361 580.456 881.093 584.971 881.093C591.319 880.892 597.645 880.325 603.914 879.396C607.818 878.903 611.755 878.658 615.697 878.664C647.525 878.664 674.066 894.837 693.449 906.651C704.792 913.572 713.749 919.03 720.173 919.03C721.439 919.058 722.693 918.809 723.83 918.305C724.968 917.801 725.955 917.057 726.708 916.135C747.045 892.474 675.938 824.953 649.434 803.156ZM725.276 915.137C724.684 915.851 723.912 916.426 723.024 916.814C722.136 917.202 721.159 917.391 720.173 917.366C714.3 917.366 705.489 912.042 694.477 905.286C674.91 893.339 648.075 877 615.697 877C611.669 876.987 607.644 877.243 603.657 877.765C597.472 878.668 591.232 879.224 584.971 879.429C581.3 879.429 579.428 878.997 578.988 878.065C577.739 875.469 586.33 867.249 599.215 854.77L603.143 851.076C613.833 840.492 622.92 828.663 630.161 815.902C635.3 807.449 638.678 801.858 642.716 801.858C644.834 802.078 646.791 802.989 648.222 804.421C681.114 831.476 743.301 894.138 725.276 915.137Z" fill="#5D5D5D"/>
<path d="M649.946 830.91C637.098 830.91 620.578 849.28 620.578 857.999C620.523 858.795 620.662 859.593 620.986 860.336C621.31 861.078 621.81 861.746 622.452 862.293C623.094 862.84 623.861 863.251 624.698 863.498C625.535 863.746 626.422 863.822 627.296 863.722C646.202 864.022 666.209 874.904 680.819 882.857C689.483 887.55 695.723 890.944 699.431 890.944C699.953 890.97 700.476 890.894 700.963 890.722C701.451 890.55 701.892 890.285 702.258 889.946C702.717 889.403 703.046 888.779 703.223 888.114C703.4 887.449 703.421 886.758 703.285 886.085C701.927 870.112 668.411 838.065 654.829 831.909C653.314 831.224 651.639 830.881 649.946 830.91ZM700.606 886.285C700.606 887.683 700.606 888.182 700.238 888.382C699.871 888.581 699.982 888.614 699.321 888.614C696.347 888.614 689.703 885.02 682.03 880.861C667.347 872.774 646.826 861.726 627.223 861.393C624.286 861.393 623.001 860.328 623.038 858.065C623.038 850.278 638.493 833.273 649.946 833.273C651.216 833.257 652.472 833.508 653.617 834.005C668.117 840.628 699.394 871.776 700.606 886.285Z" fill="#5D5D5D"/>
<path d="M604.537 529.079C607.694 529.079 610.19 525.019 612.687 515.768C621.901 481.824 652.333 436.832 699.579 412.939C747.301 388.746 779.312 382.456 796.419 379.095C804.936 377.398 809.194 376.566 810.222 374.536C810.409 374.083 810.473 373.595 810.409 373.114C810.345 372.634 810.155 372.174 809.855 371.774C806.551 366.283 747.448 336.233 662.061 330.01L658.39 329.744C650.718 329.178 644.073 328.679 637.723 328.679C615.513 328.679 597.562 334.303 555.713 366.35C549.105 371.408 542.351 376.1 535.816 380.659C515.589 394.736 498.115 406.849 499.107 420.593C499.988 431.175 511.514 441.658 535.486 453.638C561.99 466.949 578.143 493.172 588.825 510.543C595.837 521.791 600.315 529.079 604.537 529.079ZM536.22 453.006C512.946 441.358 501.236 430.809 500.428 420.726C499.327 407.415 516.58 395.501 536.551 381.624C543.122 377.065 549.876 372.373 556.521 367.281C598.076 335.434 615.844 329.844 637.796 329.844C644.11 329.844 650.718 330.343 658.39 330.909L662.061 331.175C745.319 337.265 805.817 367.215 808.9 372.406C809.561 373.438 809.414 373.97 809.267 374.27C808.46 375.867 803.871 376.766 796.235 378.263C779.055 381.591 747.044 387.947 699.101 412.24C651.158 436.533 620.873 481.691 611.585 515.701C609.346 524.021 607.033 528.081 604.537 528.081C600.866 528.081 596.13 520.227 589.853 510.277C579.281 492.806 563.018 466.383 536.22 453.006Z" fill="#5D5D5D"/>
<path d="M611.474 586.217C614.668 586.217 616.871 582.889 618.412 575.302C627.957 529.478 648.588 464.586 717.529 429.944C740.795 418.568 765.531 409.86 791.169 404.02C797.514 401.984 803.471 399.065 808.826 395.368C816.425 390.709 824.317 385.917 831.586 385.917C832.411 385.917 833.234 385.984 834.046 386.117C837.792 386.934 841.251 388.593 844.104 390.942C846.998 393.541 850.802 395.142 854.86 395.468C856.602 395.452 858.324 395.124 859.926 394.503C862.602 393.378 864.804 391.498 866.203 389.145C867.077 387.355 868.572 385.873 870.461 384.924C872.349 383.975 874.528 383.611 876.666 383.887C882.869 384.353 886.21 388.646 889.734 393.171C891.911 396.471 894.871 399.29 898.398 401.424C901.985 403.162 905.969 404.119 910.035 404.22C911.178 404.335 912.335 404.206 913.412 403.841C914.49 403.477 915.458 402.889 916.239 402.123C916.805 401.289 917.149 400.346 917.245 399.37C917.341 398.394 917.185 397.411 916.789 396.499C914.403 388.646 895.828 381.325 883.567 376.532C879.896 375.102 876.776 373.837 874.793 372.872C856.438 364.087 838.084 356.666 822.812 350.542C757.763 324.752 698.476 309.011 641.54 302.422C635.905 301.736 630.228 301.369 624.543 301.324C596.497 301.324 574.764 312.439 531.52 348.912C520.911 357.83 509.972 365.551 499.436 372.972C475.758 389.611 457.073 402.922 457.513 419.295C457.881 432.34 470.399 446.25 496.866 463.055C539.523 490.144 567.863 531.242 586.585 558.43C598.369 575.136 605.931 586.217 611.474 586.217ZM497.674 462.223C471.463 445.584 459.129 431.94 458.762 419.228C458.358 403.188 476.823 390.176 500.244 373.704C510.816 366.283 521.756 358.562 532.401 349.611C575.425 313.338 596.974 302.289 624.69 302.289C630.326 302.334 635.954 302.7 641.54 303.387C698.366 310.043 757.579 325.65 822.519 351.408C837.937 357.531 856.145 364.952 874.426 373.737C876.445 374.702 879.602 375.967 883.273 377.398C895.351 382.19 913.632 389.378 915.872 396.766C916.22 397.531 916.368 398.358 916.304 399.184C916.241 400.01 915.967 400.811 915.504 401.524C914.805 402.138 913.967 402.608 913.048 402.901C912.129 403.194 911.151 403.303 910.182 403.221C906.336 403.099 902.571 402.189 899.169 400.559C895.79 398.496 892.956 395.779 890.872 392.606C887.201 388.08 883.53 383.388 876.996 382.889C874.661 382.598 872.285 382.994 870.217 384.018C868.148 385.042 866.497 386.641 865.506 388.579C864.544 390.342 863.058 391.828 861.217 392.868C859.375 393.908 857.25 394.463 855.08 394.469C851.274 394.121 847.713 392.607 844.985 390.176C841.996 387.717 838.373 385.977 834.449 385.118C833.576 384.984 832.692 384.917 831.806 384.919C824.171 384.919 816.168 389.81 808.422 394.536C803.197 398.194 797.36 401.07 791.132 403.055C765.391 408.914 740.556 417.656 717.198 429.078C647.743 463.921 626.966 529.112 617.384 575.102C615.99 581.758 614.081 585.086 611.548 585.086C606.592 585.086 598.699 573.605 587.76 557.731C569.001 530.61 540.478 489.411 497.674 462.223Z" fill="#5D5D5D"/>
<path d="M747.081 1003.76C759.981 1002.12 772.233 997.615 782.749 990.648C793.266 983.681 801.719 974.466 807.359 963.823C817.858 944.089 823.548 910.578 790.95 863.223C776.963 842.857 761.582 822.325 746.898 802.458C704.682 745.619 664.815 691.975 648.332 638.131C629.72 577.232 644.661 526.983 695.394 480.027C739.446 439.362 797.374 416.034 854.678 416.034C897.738 416.034 936.173 429.778 962.861 454.703C992.229 482.091 1006.91 522.191 1005.26 570.61C1004.89 581.858 1004.31 593.472 1003.68 605.785C1001.44 649.512 998.947 698.963 1006.73 740.295C1015.69 787.716 1036.94 817 1071.67 829.846C1088.25 836.317 1106.05 839.831 1124.09 840.195C1138.26 840.336 1152.26 837.346 1164.87 831.485C1177.49 825.623 1188.34 817.065 1196.48 806.551C1226.99 769.113 1234.29 705.02 1214.65 647.016C1172.55 522.623 1071.49 448.38 921.673 368.879C808.02 308.646 712.17 289.943 625.132 278.695C619.053 277.885 612.92 277.463 606.777 277.431C570.544 277.431 553.254 294.07 531.411 315.368C523.005 323.488 514.341 332.007 503.585 340.493C493.399 348.45 482.439 355.556 470.84 361.724C455.532 370.243 442.317 377.598 427.78 397.298C398.926 436.4 437.545 460.526 478.403 485.784C500.025 499.096 522.454 513.106 534.312 529.512C609.493 632.674 579.171 742.924 525.685 811.576C510.413 831.21 488.094 849.746 464.453 869.347C435.562 893.34 405.717 918.165 388.611 945.886C381.269 957.799 379.176 965.853 382.223 970.612C384.462 973.939 389.565 975.736 397.311 975.736C411.407 975.736 433.8 970.445 459.717 964.322C496.097 955.703 541.36 945.021 581.373 945.021C599.927 944.583 618.371 947.725 635.484 954.239C649.39 960.534 662.426 968.298 674.323 977.367C693.926 991.211 712.464 1004.26 738.675 1004.26C741.485 1004.24 744.292 1004.07 747.081 1003.76ZM635.924 953.274C618.705 946.751 600.135 943.675 581.484 944.255C541.323 944.255 495.987 954.971 459.534 963.59C433.653 969.713 411.334 974.971 397.384 974.971C390.042 974.971 385.27 973.473 383.251 970.345C380.388 965.953 382.48 958.199 389.638 946.618C406.635 919.064 436.443 894.305 465.297 870.345C488.975 850.711 511.331 832.142 526.676 812.441C557.482 773.383 575.927 727.434 580.015 679.562C584.163 626.317 569.002 575.668 535.156 529.079C523.078 512.44 500.649 498.563 478.953 485.086C438.573 459.961 400.358 436.234 428.624 397.964C443.051 378.463 456.156 371.142 471.318 362.689C483.03 356.514 494.09 349.374 504.356 341.358C514.138 333.388 523.462 324.969 532.293 316.133C553.951 295.135 571.095 278.529 606.85 278.529C612.932 278.551 619.004 278.962 625.021 279.76C711.767 290.909 807.652 309.711 921.159 369.844C1070.6 449.212 1171.67 523.355 1213.7 647.416C1233.23 705.12 1226 768.847 1195.67 806.052C1187.63 816.446 1176.92 824.908 1164.46 830.706C1152 836.505 1138.17 839.464 1124.16 839.33C1106.27 838.971 1088.62 835.48 1072.18 829.047C1037.82 816.335 1016.79 787.316 1007.9 740.261C1000.12 699.13 1002.62 649.645 1004.86 605.951C1005.48 593.672 1006.07 582.024 1006.44 570.776C1008.05 522.091 993.294 481.725 963.742 454.303C936.834 429.179 898.142 415.335 854.751 415.335C797.154 415.335 738.822 438.63 694.697 479.628C667.752 504.587 651.085 530.31 643.817 558.33C637.319 583.322 638.457 609.612 647.488 638.697C664.007 692.674 703.911 746.418 746.2 803.29C760.884 823.257 776.229 843.723 790.252 864.055C822.593 911.044 816.977 944.189 806.588 963.69C801.023 974.165 792.689 983.231 782.327 990.082C771.964 996.933 759.895 1001.36 747.191 1002.96C744.438 1003.25 741.668 1003.39 738.895 1003.39C713.198 1003.39 694.843 990.445 675.204 976.768C663.182 967.555 649.997 959.668 635.924 953.274Z" fill="#5D5D5D"/>
<path d="M771.161 962.492C775.868 959.431 779.797 955.493 782.685 950.941C785.572 946.389 787.351 941.329 787.901 936.102C792.306 903.356 760.295 855.636 731.515 824.721C695.649 786.118 660.041 744.853 642.64 704.92C641.087 700.134 639.8 695.28 638.786 690.377C633.206 666.683 623.808 627.149 610.262 627.149C608.959 627.191 607.692 627.548 606.591 628.181C600.975 631.209 599.249 637.166 601.525 646.384C603.921 654.619 607.141 662.639 611.143 670.344C614.998 678.464 618.485 685.485 618.302 689.479C618.302 699.762 612.869 704.288 607.766 708.68C603.081 711.994 599.707 716.594 598.148 721.792C596.239 729.712 599.837 735.669 603.324 741.426C606.812 747.183 609.895 752.208 608.831 759.296C606.885 772.308 561.438 819.196 521.351 860.594C488.312 894.837 459.532 924.421 460.046 930.079C460.054 930.268 460.104 930.453 460.193 930.625C460.281 930.796 460.406 930.95 460.56 931.077C463.313 933.14 468.269 934.139 475.794 934.139C491.728 933.409 507.588 931.686 523.26 928.981C546.424 925.653 572.671 921.793 595.468 921.793C613.272 921.793 626.598 924.089 636.179 928.814C641.429 931.377 647.192 934.438 653.359 937.666C680.745 952.109 714.812 970.046 743.666 970.046C753.487 970.265 763.127 967.617 771.161 962.492ZM636.546 927.982C626.782 923.157 613.309 920.827 595.321 920.827C572.451 920.827 546.13 924.654 522.93 928.016C507.321 930.734 491.522 932.458 475.648 933.174C468.306 933.174 463.643 932.242 460.964 930.345C460.964 930.345 460.964 930.345 460.964 930.046C460.486 924.788 490.331 893.939 522.012 861.293C562.209 819.796 607.729 772.774 609.712 759.462C610.85 752.075 607.436 746.418 604.132 740.96C600.828 735.502 597.23 729.579 599.029 722.025C600.539 717.03 603.799 712.615 608.317 709.446C613.603 704.92 619.073 700.228 619.33 689.479C619.33 685.253 615.989 678.164 611.988 669.911C608.037 662.263 604.843 654.311 602.443 646.151C600.351 637.399 601.819 631.775 607.032 628.979C608.005 628.436 609.12 628.137 610.262 628.114C622.927 628.114 632.545 668.813 637.721 690.644C638.735 695.605 640.034 700.514 641.612 705.352C659.086 745.286 694.768 786.617 730.67 825.153C759.304 855.935 791.168 903.357 786.836 935.769C786.289 940.864 784.549 945.794 781.731 950.23C778.914 954.666 775.085 958.506 770.5 961.493C762.613 966.515 753.154 969.105 743.519 968.881C714.958 968.881 681.112 951.011 653.763 936.668C647.633 933.606 641.796 930.545 636.546 927.982Z" fill="#5D5D5D"/>
<path d="M758.607 920.728C761.874 893.34 729.459 850.311 713.27 833.772C691.872 811.763 671.752 788.759 652.993 764.853C640.181 748.913 633.133 740.128 628.581 740.128C625.46 740.128 623.735 743.788 622.671 752.774C614.668 820.528 566.321 857.233 537.43 879.23C524.802 888.814 516.432 895.17 516.102 900.395C516.053 901.149 516.181 901.904 516.479 902.61C516.776 903.315 517.236 903.956 517.827 904.488C520.471 907.05 524.655 908.215 531.006 908.215C539.927 907.769 548.792 906.656 557.511 904.887C572.166 902.091 587.069 900.498 602.04 900.128C623.405 900.128 640.622 904.954 654.755 914.871C674.578 928.847 703.983 943.789 726.963 943.789C734.503 944.006 741.92 942.011 748.108 938.099C751.137 936.061 753.644 933.454 755.456 930.455C757.268 927.457 758.343 924.138 758.607 920.728ZM726.853 942.791C704.166 942.791 675.019 927.982 655.306 914.105C640.989 904.122 623.552 899.13 601.93 899.13C586.894 899.499 571.928 901.114 557.217 903.955C548.56 905.721 539.756 906.834 530.896 907.283C528.692 907.527 526.457 907.358 524.329 906.785C522.201 906.213 520.225 905.249 518.525 903.955C518.035 903.528 517.653 903.009 517.406 902.434C517.158 901.86 517.052 901.243 517.093 900.628C517.387 895.836 526.05 889.247 538.055 880.162C567.055 858.132 615.586 821.293 623.662 753.14C624.616 744.987 626.121 741.359 628.471 741.359C632.472 741.359 639.814 750.511 651.965 765.685C670.817 789.528 691.01 812.476 712.463 834.438C728.542 850.877 760.736 893.539 757.506 920.628C757.25 923.894 756.219 927.072 754.483 929.944C752.747 932.816 750.347 935.314 747.447 937.267C741.415 941.066 734.194 943.003 726.853 942.791Z" fill="#5D5D5D"/>
<path d="M1072.26 646.916C1068.58 698.963 1084.96 734.77 1101.62 750.943C1109.26 758.364 1117.67 762.424 1125.23 762.424C1135.91 762.424 1143.95 754.803 1147.84 740.993C1172.91 651.875 1087.53 557.964 1077.06 550.111C1074.02 547.848 1071.96 547.581 1070.6 548.913C1068.14 551.342 1068.91 559.295 1070.31 573.705C1073.08 598.024 1073.73 622.504 1072.26 646.916ZM1071.93 550.044C1072 549.957 1072.09 549.887 1072.2 549.84C1072.31 549.794 1072.43 549.772 1072.55 549.778C1073.06 549.778 1074.05 550.044 1075.85 551.408C1086.24 559.195 1170.89 652.274 1146.04 740.561C1142.37 753.605 1135.03 760.76 1125.19 760.76C1118.14 760.76 1110.21 756.867 1102.94 749.812C1086.5 733.905 1070.27 698.53 1074.02 647.016C1075.5 622.527 1074.86 597.97 1072.11 573.572C1070.97 560.992 1070.09 551.908 1071.93 550.044Z" fill="#5D5D5D"/>
<path d="M1519.97 61.6896C1491.26 61.6896 1459.43 66.6147 1425.77 71.673C1385.39 77.896 1343.95 84.3519 1298.61 84.3519C1295.27 84.3519 1291.96 84.3519 1288.84 84.3519L1280.84 84.1523C1273.98 84.1523 1267.52 83.8195 1261.28 83.8195C1222.22 83.8195 1198.06 91.0408 1182.09 129.078C1172.03 153.138 1160.62 180.425 1133.19 197.996C1125.45 202.988 1117.7 207.214 1110.84 210.975C1094.98 219.66 1082.46 226.516 1081.98 236C1081.58 244.719 1091.27 255.168 1113.52 269.977C1134.81 284.153 1152.36 291.042 1167.11 291.042C1168.44 291.042 1169.79 291.042 1171.08 290.875C1192.52 289.045 1206.91 273.005 1225.12 252.672C1234.07 242.325 1243.63 232.416 1253.75 222.988C1300.81 180.104 1359.1 148.733 1423.17 131.806C1448.59 125.061 1474.94 121.567 1501.43 121.424C1563.84 121.424 1612.07 141.89 1651.94 165.55V164.352C1612.07 140.758 1563.84 120.425 1501.43 120.425C1474.84 120.588 1448.4 124.105 1422.87 130.875C1358.62 147.837 1300.16 179.301 1252.98 222.322C1242.83 231.763 1233.24 241.695 1224.27 252.073C1206.21 272.206 1191.97 288.146 1170.97 289.91C1169.72 289.91 1168.4 289.91 1167.11 289.91C1152.61 289.91 1135.29 283.055 1114.14 269.012C1092.12 254.469 1082.68 244.253 1083.09 235.9C1083.53 226.948 1095.86 220.226 1111.43 211.707C1118.29 207.946 1126.11 203.687 1133.86 198.695C1161.53 180.925 1172.99 153.504 1183.12 129.31C1198.83 91.8062 1222.73 84.6847 1261.28 84.6847C1267.52 84.6847 1273.98 84.6847 1280.8 85.0175L1288.81 85.2171C1291.96 85.2171 1295.23 85.2171 1298.61 85.2171C1344.02 85.2171 1385.68 78.7612 1425.96 72.5382C1459.58 67.3469 1491.34 62.5548 1519.97 62.5548C1534.93 62.366 1549.84 64.0798 1564.28 67.6464C1592.73 75.0341 1621.88 87.114 1651.94 101.191V100.059C1621.99 86.0491 1592.95 74.0357 1564.57 66.7811C1550.04 63.2127 1535.03 61.499 1519.97 61.6896Z" fill="#5D5D5D"/>
<path d="M1043.84 643.921C1039.58 694.404 1050.6 735.269 1074.82 758.963C1087.49 771.376 1103.05 778.198 1118.66 778.198C1140.9 778.198 1158.71 764.188 1163.99 742.524C1179.45 679.296 1155.51 622.157 1132.72 585.518C1105.95 542.423 1071.67 511.974 1055.19 501.991C1049.13 498.363 1044.91 496.1 1042.3 496.1C1041.88 496.089 1041.46 496.16 1041.08 496.31C1040.69 496.459 1040.34 496.683 1040.06 496.966C1037.93 499.129 1038.81 505.285 1040.54 517.565C1046.75 559.446 1047.86 601.82 1043.84 643.921ZM1040.87 497.498C1041.05 497.316 1041.27 497.174 1041.52 497.082C1041.76 496.989 1042.03 496.95 1042.3 496.966C1044.61 496.966 1048.87 499.262 1054.56 502.689C1091.82 525.219 1190.79 627.848 1162.89 742.291C1157.72 763.489 1140.35 777.2 1118.84 777.2C1103.57 777.2 1088.26 770.544 1075.82 758.298C1051.77 734.77 1040.91 694.204 1045.13 643.988C1049.15 601.853 1048.03 559.444 1041.79 517.531C1040.06 506.217 1039.11 499.461 1040.87 497.631V497.498Z" fill="#5D5D5D"/>
<path d="M1022.73 647.182C1018.48 710.011 1031.76 759.662 1060.07 786.95C1074.75 801.06 1092.52 808.547 1111.46 808.547C1147.8 808.547 1178.57 781.925 1188.07 742.224C1202.06 683.688 1190.02 626.117 1152.32 571.009C1114.1 515.202 1061.24 479.128 1033.12 462.589C1018.81 454.17 1012.68 450.643 1010.33 453.205C1007.98 455.767 1009.67 461.391 1012.16 473.438C1017.67 499.561 1029.01 553.871 1022.73 647.182ZM1011.21 453.837C1011.37 453.674 1011.58 453.546 1011.81 453.466C1012.04 453.385 1012.28 453.353 1012.53 453.371C1015.5 453.371 1021.93 457.165 1032.57 463.355C1126.26 518.463 1216.12 620.627 1187.01 741.925C1177.65 781.126 1147.29 807.482 1111.5 807.482C1092.81 807.482 1075.3 800.128 1060.88 786.218C1032.76 759.13 1019.61 709.678 1023.84 647.182C1030.11 553.771 1018.77 499.328 1013.3 473.172C1010.99 462.257 1009.52 455.601 1011.21 453.837Z" fill="#5D5D5D"/>
<path d="M600.278 438.43C610.667 438.43 618.119 429.345 625.975 415.701C639.924 391.874 668.962 380.326 684.71 374.137C692.603 371.009 695.723 369.844 695.173 367.88C694.622 365.917 692.823 365.518 682.03 364.852C649.506 362.855 576.527 390.975 568.23 412.14C567.241 414.397 567.116 416.889 567.875 419.218C568.634 421.547 570.232 423.578 572.415 424.985C584.933 434.403 593.303 438.297 600.425 438.297L600.278 438.43ZM570.506 412.939C578.179 393.604 646.018 367.082 678.543 367.082C679.681 367.082 680.782 367.082 681.81 367.082C685.292 367.17 688.757 367.549 692.162 368.213C689.409 369.6 686.565 370.834 683.646 371.907C667.714 378.23 638.126 389.944 623.809 414.503C614.778 429.977 608.17 436 600.278 436C593.817 436 585.924 432.14 573.884 423.089C572.13 421.99 570.841 420.384 570.227 418.533C569.614 416.683 569.712 414.699 570.506 412.906V412.939Z" fill="#5D5D5D"/>
<path d="M632.217 437.198C657.216 395.9 702.92 381.491 739.923 373.538C743.594 372.772 743.814 371.108 743.594 370.21C742.75 363.554 708.096 350.609 656.372 350.609C650.535 350.609 644.551 350.609 638.604 351.108C615 352.406 559.274 382.29 539.231 404.353C534.018 410.11 531.668 414.869 532.219 418.563C533.614 427.747 542.645 431.874 553.07 436.533C564.083 441.525 576.675 447.182 582.768 460.36C586.439 468.047 590.991 471.941 596.608 471.941C606.299 471.974 618.23 460.26 632.217 437.198ZM584.494 459.761C578.143 446.017 565.295 440.193 553.951 435.069C543.966 430.576 535.339 426.683 534.091 418.43C533.614 415.268 535.89 410.809 540.699 405.518C560.486 383.654 615.477 354.103 638.788 352.839C644.661 352.506 650.608 352.34 656.408 352.34C707.251 352.34 741.134 365.085 741.832 370.476C741.832 371.308 740.4 371.774 739.446 371.974C702.075 380.027 655.931 394.603 630.565 436.466C609.383 471.175 593.708 479.595 584.53 459.761H584.494Z" fill="#5D5D5D"/>
<path d="M1115.21 722.557C1117.11 722.557 1118.88 721.359 1120.24 718.93C1127.39 706.783 1127.25 664.72 1108.3 639.063C1105.81 635.735 1102.25 636.168 1099.57 640.361C1092.45 651.475 1089.47 686.95 1108.86 717.665C1110.91 720.927 1113.04 722.557 1115.21 722.557ZM1101.84 641.592C1102.76 640.128 1103.79 639.229 1104.56 639.229C1105.33 639.229 1105.88 639.995 1106.18 640.427C1124.35 664.92 1124.71 706.417 1118 717.832C1117.11 719.396 1116.12 720.228 1115.24 720.228C1114.36 720.228 1112.6 718.897 1111.13 716.567C1092.48 686.95 1095.16 652.008 1101.84 641.592Z" fill="#5D5D5D"/>
<path d="M1354 824.687C1356.61 828.015 1363.03 829.546 1375.41 829.546C1383.11 829.546 1392.37 829.014 1403.05 828.348C1416.26 827.549 1431.28 826.651 1446.77 826.651C1495.89 826.651 1528.96 836.102 1551.03 856.601C1571.55 870.911 1582.89 894.238 1592.87 914.838C1604.99 939.863 1615.49 961.427 1638.65 961.427C1641.24 961.406 1643.83 961.15 1646.36 960.661C1648.12 960.328 1650.03 959.896 1651.94 959.363V957.566C1649.99 958.137 1648 958.603 1645.99 958.964C1643.58 959.442 1641.12 959.687 1638.65 959.696C1616.63 959.696 1606.42 938.531 1594.6 914.072C1584.5 893.307 1573.09 869.746 1552.31 855.27C1529.95 834.638 1496.44 825.02 1446.81 825.02C1431.24 825.02 1416.23 825.919 1402.97 826.717C1392.29 827.383 1383.11 827.915 1375.44 827.915C1364.03 827.915 1357.71 826.584 1355.55 823.756C1354.96 822.762 1354.65 821.654 1354.65 820.528C1354.65 819.402 1354.96 818.293 1355.55 817.3C1378.93 760.727 1398.46 689.08 1396.59 667.016C1393.28 628.381 1374.56 591.875 1356.43 556.567C1334.4 513.305 1313.33 472.639 1326.62 438.629C1344.97 391.375 1429.41 309.344 1475.29 303.687C1477.73 303.406 1480.18 303.272 1482.63 303.288C1518.24 303.288 1580.98 326.383 1652.09 364.586V362.656C1581.05 324.619 1518.35 301.624 1482.63 301.624C1480.11 301.611 1477.58 301.745 1475.07 302.023C1428.82 307.747 1343.58 390.443 1324.93 438.064C1311.38 472.706 1332.45 513.804 1354.77 557.265C1372.84 592.44 1391.48 628.813 1394.79 667.083C1396.44 686.417 1378.93 755.968 1353.89 816.667C1353.16 817.904 1352.79 819.288 1352.81 820.69C1352.83 822.092 1353.24 823.467 1354 824.687Z" fill="#5D5D5D"/>
<path d="M1519.97 84.6513C1493.43 84.6513 1462.63 89.4101 1430.03 94.6347C1388.77 100.991 1346.07 107.613 1298.61 107.613C1295.12 107.613 1291.67 107.613 1288.26 107.613H1280.14C1273.5 107.613 1267.18 107.28 1261.27 107.28C1209.88 107.28 1207.31 132.904 1204.59 160.026C1203.13 174.935 1201.62 190.309 1192.55 203.287C1189.32 207.946 1180.66 213.87 1171.48 220.126C1151.92 233.437 1129.74 248.545 1140.39 262.689C1142.03 265.35 1144.4 267.588 1147.27 269.189C1150.13 270.791 1153.4 271.703 1156.76 271.84C1160.62 271.721 1164.4 270.774 1167.77 269.078C1185.14 260.958 1203.68 236.931 1218.58 217.63C1227.06 206.682 1234.37 197.231 1238.37 195.068C1242.32 193.153 1246.78 192.255 1251.25 192.472H1255.95C1257.53 192.472 1259.14 192.472 1260.76 192.472C1264.06 192.722 1267.38 192.375 1270.54 191.449C1273.69 190.523 1276.6 189.039 1279.11 187.081C1286.05 181.324 1286.93 173.77 1287.78 166.715C1288.55 160.259 1289.25 154.169 1293.98 149.011C1308.3 133.537 1358.52 122.688 1391.74 115.5C1401.54 113.404 1410.1 111.573 1416.26 109.943C1443.92 102.54 1472.59 98.6753 1501.43 98.4617C1562.81 98.4617 1611.89 116.698 1651.94 138.395V136.465C1611.85 114.735 1562.77 96.5316 1501.43 96.5316C1472.4 96.6906 1443.54 100.521 1415.67 107.913C1409.43 109.543 1400.99 111.24 1391.26 113.47C1355.8 121.124 1307.23 131.607 1292.51 147.513C1287.41 153.038 1286.64 159.693 1285.87 166.116C1285.02 173.304 1284.25 180.093 1277.79 185.417C1273.09 189.038 1266.99 190.82 1260.83 190.376C1259.24 190.376 1257.66 190.376 1256.1 190.376H1251.33C1246.51 190.135 1241.72 191.114 1237.49 193.204C1233.15 195.534 1226.11 204.685 1217.15 216.266C1203.16 234.402 1184.11 259.228 1167.04 267.148C1156.69 271.973 1148.5 270.11 1141.89 261.291C1132.24 248.479 1153.68 233.903 1172.58 221.025C1182.31 214.369 1190.72 208.678 1194.13 203.753C1203.38 190.442 1204.92 174.735 1206.43 159.66C1209.18 132.172 1211.53 108.412 1261.27 108.412C1267.18 108.412 1273.46 108.578 1280.11 108.745H1288.18C1291.63 108.745 1295.12 108.745 1298.61 108.745C1346.33 108.745 1388.99 102.089 1430.36 95.7329C1462.85 90.7079 1493.57 85.9492 1519.97 85.9492C1532.51 85.7627 1545.01 87.1741 1557.12 90.1422C1587.11 97.8959 1618.79 111.706 1651.94 127.646V125.75C1618.9 110.309 1587.51 96.6647 1557.63 89.0107C1545.36 85.9704 1532.69 84.5031 1519.97 84.6513Z" fill="#5D5D5D"/>
<path d="M1409.43 781.193C1416.26 790.078 1430.69 791.177 1450.66 792.474L1457.34 792.94C1463.66 793.406 1470.26 793.639 1477.24 793.839C1509.69 794.837 1546.47 796.002 1579.69 823.423L1580.1 823.756C1598.45 838.365 1609.47 864.122 1619.16 886.984C1628.85 909.846 1637.29 929.646 1650.69 929.646C1651.1 929.646 1651.54 929.646 1651.94 929.646V928.648C1651.54 928.648 1651.1 928.648 1650.69 928.648C1638.06 928.648 1629.77 909.18 1620.19 886.618C1610.6 864.055 1599.44 837.766 1580.83 823.123L1580.43 822.791C1546.91 795.137 1509.91 793.972 1477.27 792.84C1470.3 792.641 1463.69 792.408 1457.41 791.942L1450.73 791.476C1431.06 790.112 1416.89 789.146 1410.35 780.627C1403.82 772.108 1405.03 757.333 1413.18 731.709C1420.44 710.173 1423.34 687.624 1421.73 665.153C1418.06 622.391 1398.35 583.988 1379.26 546.816C1359.36 508.047 1340.57 471.408 1350.41 446.25C1366.78 404.353 1445.85 330.409 1478.6 326.449C1479.89 326.316 1481.19 326.249 1482.49 326.25C1509.84 326.25 1571.69 346.915 1651.94 391.441V390.276C1571.77 345.784 1509.91 325.285 1482.49 325.285C1481.14 325.267 1479.79 325.334 1478.45 325.484C1445.41 329.544 1365.82 403.887 1349.34 446.017C1339.36 471.541 1358.26 508.347 1378.3 547.349C1397.32 584.42 1417 622.757 1420.63 665.352C1422.24 687.723 1419.36 710.173 1412.11 731.609C1403.78 757.899 1402.97 772.874 1409.43 781.193Z" fill="#5D5D5D"/>
<path d="M740.069 1082.26C794.73 1076.63 859.816 1017.73 877.253 972.741C907.575 894.638 853.722 831.742 801.631 770.91C751.339 712.208 703.873 656.766 726.963 589.245C747.08 530.443 812.057 498.696 862.973 498.696C890.432 498.696 914.146 507.515 929.822 523.555C948.433 542.59 955.739 571.475 950.966 607.149C934.557 729.745 929.675 863.822 1080.41 903.323C1096.89 907.741 1113.98 910.038 1131.17 910.145C1194.61 910.145 1235.14 877.2 1257.93 849.546C1301.65 796.534 1316.85 717.266 1295.71 652.241C1277.79 597.132 1242.52 543.654 1187.93 488.812C1106.73 407.281 996.193 337.198 849.941 274.535L843.627 271.807C782.101 245.417 718.483 218.162 651.488 203.121C647.523 202.222 643.118 201.157 638.419 200.026C617.715 195.034 591.982 188.845 569.882 188.845C562.159 188.687 554.462 189.722 547.122 191.906C537.578 195.001 532.218 200.924 527.005 206.648C523.252 211.278 518.644 215.286 513.386 218.495C507.376 221.304 501.157 223.728 494.774 225.75C482.403 230.109 469.555 234.602 465.406 238.895C457.587 247.214 459.716 252.206 461.735 257.064C462.761 258.843 463.384 260.79 463.567 262.791C463.749 264.791 463.489 266.804 462.8 268.712L461.368 272.539C450.355 302.223 450.355 302.223 424.658 308.945C419.703 310.243 413.646 311.84 406.304 313.937C385.195 320.06 376.532 329.444 368.162 338.496C361.783 346.323 353.588 352.786 344.154 357.431H343.126C329.911 357.431 229.693 363.421 221.984 385.75C219.891 391.774 224.407 398.296 235.383 405.185C244.222 411.315 255.017 414.678 266.146 414.769C269.139 414.746 272.129 414.58 275.103 414.27C277.526 414.07 279.802 413.87 281.968 413.87C290.044 413.87 298.193 415.934 309.39 440.925C312.143 447.082 314.272 452.107 316.034 456.3C324.698 476.866 324.955 477.132 346.981 485.651C352.45 487.747 359.242 490.376 367.868 494.004C396.208 505.851 402.009 519.295 409.351 536.333C413.615 547.091 419.193 557.382 425.98 567.016C434.654 578.396 444.486 589.014 455.348 598.73C473.299 615.668 490.259 631.675 495.729 658.397C505.09 704.687 477.374 748.88 446.024 789.745C430.826 809.546 399.586 832.607 366.51 857.033C310.565 898.464 246.91 945.486 246.69 989.014C246.69 1013.87 253.591 1032.97 267.614 1045.59C282.885 1059.5 306.086 1066.25 338.574 1066.25C385.636 1066.25 443.527 1051.88 494.591 1039.16C534.971 1029.18 569.478 1020.53 591.688 1020.53C595.95 1020.44 600.203 1020.91 604.316 1021.93C625.718 1027.68 642.715 1040 659.124 1051.88C680.893 1067.65 701.487 1082.59 730.891 1082.59C733.955 1082.64 737.02 1082.53 740.069 1082.26ZM605.05 1019.8C600.695 1018.74 596.196 1018.25 591.688 1018.33C569.148 1018.33 534.274 1027.02 493.893 1037.07C442.977 1049.71 385.452 1064.06 338.574 1064.06C306.82 1064.06 284.17 1057.4 269.413 1044.09C255.904 1031.78 249.112 1013.24 249.259 989.047C249.479 946.584 312.62 899.962 368.346 858.797C401.384 834.271 432.918 811.11 448.3 791.043C479.98 749.745 507.953 705.053 498.445 657.931C492.902 630.51 475.685 614.27 457.477 597.099C446.628 587.481 436.796 576.964 428.109 565.685C421.43 556.195 415.939 546.06 411.737 535.468C404.174 517.931 398.227 504.087 368.933 491.874C360.27 488.247 353.478 485.584 348.008 483.488C326.79 475.268 326.79 475.268 318.42 455.435C316.658 451.242 314.529 446.183 311.776 440.027C301.093 416.166 292.76 411.508 281.968 411.508C279.587 411.542 277.21 411.687 274.846 411.94C272.093 412.173 269.229 412.406 266.146 412.406C255.512 412.339 245.195 409.113 236.778 403.221C226.866 396.998 222.681 391.341 224.37 386.582C231.088 367.148 324.478 359.96 343.053 359.96H343.97L344.264 358.862L344.815 359.893C354.741 355.119 363.359 348.387 370.034 340.193C378.551 330.975 386.59 322.256 407.001 316.366C414.343 314.269 420.437 312.672 425.356 311.374C452.044 304.386 452.374 304.02 463.828 273.504L465.296 269.643C466.084 267.466 466.39 265.169 466.194 262.885C465.999 260.6 465.307 258.373 464.158 256.332C462.213 251.773 460.487 247.813 467.315 240.559C470.986 236.665 484.018 232.106 495.545 228.079C502.081 226.002 508.447 223.511 514.597 220.625C520.096 217.273 524.914 213.085 528.841 208.246C534.054 202.522 538.973 197.097 547.82 194.236C554.926 192.137 562.374 191.147 569.846 191.307C591.615 191.307 617.165 197.464 637.722 202.422C642.421 203.553 646.826 204.618 650.827 205.517C717.566 220.492 781.074 247.713 842.489 274.036L848.803 276.765C994.724 339.294 1105.04 409.211 1185.98 490.51C1240.31 545.085 1275.41 598.264 1293.21 653.039C1314.14 717.366 1299.09 795.835 1255.84 848.281C1233.37 875.503 1193.43 907.949 1131.03 907.949C1114.08 907.864 1097.22 905.623 1080.96 901.293C932.171 862.291 937.09 729.246 953.353 607.648C958.235 571.275 950.709 541.758 931.584 522.19C915.431 505.551 891.019 496.566 862.826 496.566C810.992 496.566 744.841 528.879 724.357 588.746C700.863 657.432 750.972 715.935 799.465 772.541C851.116 832.874 904.529 895.27 874.684 972.208C857.467 1016.57 793.408 1074.64 739.628 1080.2C736.679 1080.5 733.713 1080.65 730.744 1080.66C702.221 1080.66 681.994 1065.99 660.592 1050.45C644.109 1038.17 626.929 1025.72 605.05 1019.8Z" fill="#5D5D5D"/>
<path d="M1087.45 -128.095H1084.92C1080.86 -124.271 1077.05 -120.238 1073.5 -116.015C1033.12 -66.0981 1015.06 -20.0746 1018.62 24.7841C1019.98 42.2218 1017.63 53.7693 1011.28 60.0588C1009.05 62.1392 1006.34 63.7529 1003.35 64.7874C1000.35 65.8219 997.147 66.2524 993.953 66.0488C983.27 66.0488 970.091 62.355 956.178 58.4615C943.792 54.5815 931.036 51.7518 918.073 50.0089C908.638 49.0757 899.152 48.6202 889.66 48.6445C858.53 48.6445 828.979 53.137 797.886 57.8958L782.027 60.2585H781.623C769.895 62.2267 758.012 63.3395 746.088 63.5863C723.181 63.7859 708.497 56.8974 701.155 42.721C686.031 13.1368 690.142 -22.5039 693.997 -53.7852C694.474 -58.0115 694.988 -62.2045 695.429 -66.331C697.452 -87.2443 701.919 -107.904 708.754 -127.962H706.809C700.135 -107.984 695.779 -87.4285 693.813 -66.6305C693.373 -62.504 692.896 -58.3443 692.382 -54.0847C688.711 -22.4373 684.342 13.4031 699.724 43.4198C707.323 58.2285 722.52 65.4498 746.198 65.4498C758.22 65.2066 770.201 64.0938 782.027 62.122H782.431L798.289 59.726C829.493 55.0005 859.007 50.508 890.064 50.508C899.495 50.4845 908.919 50.94 918.294 51.8724C931.131 53.5932 943.764 56.3895 956.031 60.2252C970.091 64.1853 983.38 67.9124 994.356 67.9124C997.819 68.1186 1001.29 67.629 1004.52 66.4784C1007.75 65.3279 1010.66 63.5449 1013.04 61.2568C1019.65 54.6012 1022.15 42.6544 1020.71 24.651C1017.04 -19.7751 1035.07 -65.4658 1075.26 -115.117C1079.03 -119.666 1083.1 -124 1087.45 -128.095Z" fill="#5D5D5D"/>
<path d="M1075.59 124.152C1063.15 132.106 1046.23 135.999 1023.5 135.999C996.926 135.999 967.228 130.608 941.017 125.849C925.599 123.054 910.988 120.392 899.094 119.194C885.531 117.946 871.906 117.324 858.273 117.33C822.518 117.33 776.631 121.723 761.249 142.655C754.531 151.74 754.274 163.187 760.405 176.632C763.305 182.954 770.794 186.382 778.026 189.71C783.709 191.8 788.811 195.005 792.966 199.094C796.79 204.672 799.626 210.758 801.373 217.131C804.346 225.783 807.393 234.735 814.332 240.026C822.582 246.494 833.199 249.936 844.103 249.677C852.325 249.413 860.5 248.432 868.515 246.748C876.408 245.082 884.461 244.113 892.56 243.853C899.563 243.73 906.494 245.158 912.75 248.013C927.434 254.835 933.491 264.02 939.438 272.905C947.184 284.452 954.489 295.401 978.571 300.492C1029.01 311.208 1042.81 322.389 1076.18 349.378C1080.48 352.706 1085.1 356.599 1090.17 360.626C1101.19 369.951 1111.04 380.353 1119.54 391.641C1127.19 401.646 1135.79 411.032 1145.23 419.694C1155.66 428.467 1167.78 435.417 1180.99 440.193C1196.19 446.45 1210.54 452.373 1223.57 472.673L1225.63 476C1242.04 501.691 1258.67 525.485 1268.8 525.485C1269.59 525.485 1270.38 525.33 1271.1 525.032C1271.82 524.733 1272.46 524.298 1272.98 523.754C1276.65 520.094 1277.65 510.443 1276.03 494.137C1275.08 484.586 1267.48 476.067 1260.1 467.814C1252.17 458.929 1244.68 450.509 1245.12 441.192C1245.67 430.077 1253.09 424.553 1260.94 418.796C1267.27 414.813 1272.48 409.535 1276.14 403.388C1284.51 387.048 1286.53 372.439 1288.51 358.296C1291.23 338.596 1293.8 319.993 1313.22 298.962C1349.33 260.635 1397.13 232.847 1450.62 219.094C1467.1 214.545 1484.2 212.136 1501.43 211.94C1556.49 211.94 1595.85 239.028 1637.62 267.747L1651.94 277.497V274.602C1647.64 271.707 1643.38 268.778 1639.16 265.883C1597.06 236.931 1557.26 209.61 1501.43 209.61C1484.02 209.748 1466.72 212.101 1450.03 216.598C1396.05 230.554 1347.83 258.665 1311.42 297.397C1291.49 318.962 1288.88 337.897 1286.09 357.93C1284.14 371.874 1282.16 386.316 1273.97 402.323C1270.44 408.137 1265.48 413.135 1259.47 416.932C1251.54 422.789 1243.29 428.879 1242.7 441.025C1242.22 451.208 1250.37 460.327 1258.26 469.178C1265.38 477.165 1272.73 485.418 1273.61 494.237C1275.52 513.405 1273.39 519.961 1271.26 522.09C1270.97 522.393 1270.62 522.636 1270.22 522.802C1269.82 522.969 1269.38 523.055 1268.95 523.055C1258.81 523.055 1237.23 489.179 1227.98 474.736L1225.96 471.408C1212.52 450.476 1197.77 444.386 1182.2 438.13C1169.26 433.491 1157.37 426.722 1147.14 418.163C1137.8 409.596 1129.27 400.322 1121.67 390.443C1113.06 378.992 1103.06 368.455 1091.86 359.028C1086.79 355.002 1082.17 351.275 1077.87 347.814C1044.13 320.526 1030.15 309.244 979.122 298.396C956.068 293.504 949.056 282.988 941.604 271.773C935.474 262.622 929.16 253.171 913.888 246.049C907.275 243.009 899.938 241.489 892.523 241.624C884.253 241.888 876.029 242.868 867.964 244.552C860.119 246.205 852.116 247.163 844.066 247.414C833.778 247.669 823.753 244.443 815.947 238.362C809.596 233.504 806.622 225.051 803.796 216.532C801.991 209.908 799.016 203.592 794.985 197.83C790.614 193.458 785.204 190.044 779.164 187.846C771.822 184.518 765.287 181.49 762.754 175.966C756.954 163.287 757.138 152.671 763.342 144.186C778.026 124.219 823.105 119.893 858.236 119.893C871.723 119.89 885.201 120.512 898.617 121.756C910.438 122.888 924.975 125.55 940.356 128.412C966.677 133.204 996.485 138.628 1023.32 138.628C1046.45 138.628 1063.99 134.601 1076.88 126.349C1109 105.749 1099.79 74.7011 1090.9 44.6843C1081.47 12.4712 1071.63 -20.8068 1111.2 -42.504C1116.97 -45.3311 1123.48 -46.6881 1130.04 -46.4308C1153.71 -46.4308 1187.05 -34.717 1219.28 -23.3692C1247.36 -13.3858 1273.86 -4.16775 1291.12 -3.8017C1293.61 -3.8017 1296.07 -3.8017 1298.46 -3.8017C1335.54 -3.8017 1373.02 -9.59207 1409.25 -15.216C1445.48 -20.84 1482.85 -26.5971 1519.82 -26.5971C1543.92 -26.8035 1567.93 -23.9357 1591.15 -18.078C1611.91 -12.5007 1632.22 -5.62907 1651.94 2.48784V-0.0412788C1632.49 -7.94197 1612.46 -14.6135 1591.99 -20.0081C1568.55 -25.931 1544.3 -28.8325 1519.97 -28.6271C1482.78 -28.6271 1445.26 -22.8367 1408.99 -17.2127C1372.72 -11.5887 1335.57 -5.83165 1298.61 -5.83165C1296.07 -5.83165 1293.65 -5.83165 1291.26 -5.83165C1274.45 -6.16444 1248.13 -15.449 1220.3 -25.2327C1187.82 -36.6471 1154.23 -48.5273 1130.11 -48.5273C1123.09 -48.8165 1116.11 -47.3425 1109.96 -44.2677C1068.73 -21.7385 1078.83 12.3048 1088.59 45.2168C1097.62 75.6994 1106.17 104.485 1075.59 124.152Z" fill="#5D5D5D"/>
<path d="M763.307 39.0937C773.535 38.8865 783.727 37.907 793.776 36.1652C829.142 30.8713 864.941 28.3219 900.785 28.5445C910.513 28.5445 920.498 28.5445 931.364 28.9771C935.035 28.9771 938.413 28.9771 941.386 28.9771C959.337 28.9771 969.799 27.0137 977.508 22.1552C986.759 16.3648 992.192 6.24828 995.863 -11.7218C1004.16 -52.9865 1022.44 -90.0915 1053.28 -128.195H1051.92C1021.27 -90.025 1003.06 -52.9865 994.799 -11.7218C991.128 5.98206 985.878 15.9322 976.921 21.5562C969.396 26.2484 959.117 28.2118 941.423 28.2118C938.449 28.2118 935.182 28.2118 931.438 28.2118C920.425 27.9123 910.55 27.7791 900.822 27.7791C864.918 27.5746 829.059 30.1239 793.629 35.3998C783.642 37.1399 773.511 38.1195 763.344 38.3283C741.318 38.3283 725.349 31.6727 719.806 -1.20599C714.52 -32.5539 719.219 -65.7653 724.064 -88.0948C726.974 -101.749 731.313 -115.121 737.023 -128.028H735.848C730.172 -115.222 725.869 -101.949 723 -88.3943C718.117 -65.965 713.418 -32.6537 718.705 -1.13943C723.514 27.4464 736.435 39.0937 763.307 39.0937Z" fill="#5D5D5D"/>
<path d="M778.429 14.1352C782.12 14.1078 785.802 13.8185 789.442 13.27C820.147 8.69293 851.171 6.09074 882.281 5.48293C889.623 5.48293 896.965 5.48293 904.014 5.64932C908.676 5.64932 913.081 5.88226 917.376 5.88226C930.555 5.88226 944.247 4.95047 954.783 -1.77168C963.557 -7.32911 969.761 -16.5471 973.836 -29.9914C984.074 -64.793 1000.33 -97.9046 1022 -128.095H1020.68C999.164 -97.9581 983.01 -64.9426 972.808 -30.2577C968.806 -16.9464 962.712 -7.99467 954.196 -2.57035C943.88 4.08525 930.408 4.88391 917.486 4.88391C913.191 4.88391 908.823 4.88391 904.16 4.65097C897.222 4.65097 889.954 4.31819 882.355 4.65097C851.164 5.21573 820.056 7.76219 789.259 12.2716C772.482 14.834 759.891 11.7725 752.219 3.18674C734.488 -16.3475 744.032 -60.2078 749.172 -83.7354C752.37 -99.0868 757.75 -113.998 765.177 -128.095H763.929C756.643 -114.072 751.351 -99.2669 748.181 -84.0349C743.004 -60.341 733.497 -16.1811 751.448 3.71919C754.757 7.22113 758.914 9.98305 763.594 11.7897C768.274 13.5965 773.351 14.3991 778.429 14.1352Z" fill="#5D5D5D"/>
</g>
</g>
<defs>
<linearGradient id="paint0_linear_500_211" x1="720" y1="5" x2="720" y2="927" gradientUnits="userSpaceOnUse">
<stop stop-color="#27ABF6"/>
<stop offset="1" stop-color="#1A4CFF"/>
</linearGradient>
</defs>
</svg>
