<svg width="1440" height="1017" viewBox="0 0 1440 1017" fill="none" xmlns="http://www.w3.org/2000/svg">
<rect width="1440" height="1017" fill="url(#paint0_linear_500_211)"/>
<g style="mix-blend-mode:overlay" opacity="0.6">
<mask id="mask0_500_211" style="mask-type:alpha" maskUnits="userSpaceOnUse" x="0" y="1" width="1440" height="1016">
<rect y="1" width="1440" height="1016" fill="url(#paint1_linear_500_211)"/>
</mask>
<g mask="url(#mask0_500_211)">
<path d="M11.6737 924.755C16.8865 811.626 89.0579 729.19 147.059 662.926L151.171 658.305C157.889 651.228 173.417 632.306 172.206 609.46C171.471 595.525 164.57 582.947 151.721 572.019C143.976 565.492 137.038 559.368 130.063 553.684C101.31 528.04 71.096 504.078 39.5731 481.919C26.1374 472.605 12.9463 463.804 0 455.516V456.836C12.7016 464.977 25.6968 473.668 38.9491 482.836C70.4276 504.917 100.616 528.78 129.365 554.307L150.987 572.642C163.615 583.35 170.37 595.672 171.104 609.313C172.316 631.756 157.008 650.384 150.363 657.389L146.215 662.119C88.1034 728.603 15.7852 811.223 10.5724 924.682C9.98506 936.783 5.28621 944.191 0 946.684V948.004C5.72672 945.658 11.0129 938.177 11.6737 924.755Z" fill="#5D5D5D"/>
<path d="M37.3338 926.002C42.1428 821.857 111.047 743.162 166.405 679.905L170.554 675.174C180.483 663.932 189.82 652.181 198.526 639.97C207.153 627.649 223.195 604.73 185.311 568.205C144.573 528.91 100.735 492.954 54.2203 460.687C35.4005 447.73 17.327 435.995 0 425.483V426.766C17.1312 437.205 34.9966 448.867 53.5963 461.75C100.07 493.97 143.861 529.889 184.54 569.159C221.727 605.023 206.052 627.429 197.645 639.457C188.953 651.575 179.628 663.228 169.709 674.367L165.561 679.098C110.129 742.648 41.0415 821.344 36.2325 926.002C33.9932 974.481 25.2196 1002.68 9.10402 1014.78C6.47445 1016.87 3.32936 1018.21 0 1018.67L0 1019.77C3.58133 1019.29 6.96023 1017.83 9.7648 1015.55C26.3209 1003.23 35.0578 974.774 37.3338 926.002Z" fill="#5D5D5D"/>
<path d="M485.413 181C478.255 152.873 420.694 145.356 354.066 136.628C337.583 134.465 320.55 132.264 304.03 129.624C230.941 118.11 164.056 81.4754 99.3733 45.9048C66.9586 28.3028 33.8831 10.1508 0 -4.73755V-1.76721C33.4059 12.9011 66.0776 30.9431 98.1252 48.4717C162.991 84.0057 230.28 120.786 303.7 132.374C320.256 134.978 337.326 137.215 353.809 139.342C416.766 147.593 476.273 155.367 482.99 181.807C488.203 202.452 461.332 233.696 400.834 277.407C315.704 338.574 244.597 367.141 176.537 367.141C136.761 366.891 97.6238 357.12 62.4066 338.647C40.4879 326.925 19.6101 313.357 0 298.09L0 301.28C19.3049 316.216 39.8514 329.478 61.4154 340.921C96.9315 359.578 136.411 369.45 176.537 369.708V369.708C245.148 369.708 316.879 340.994 402.229 279.314C464.562 234.282 490.993 203.076 485.413 181Z" fill="#5D5D5D"/>
<path d="M9.50783 759.848C19.8746 742.781 31.6243 726.591 44.6391 711.442C62.5167 689.44 81.0185 666.704 91.0035 638.761C108.551 589.475 74.117 566.739 37.7009 542.647C34.3236 540.41 30.9463 538.173 27.569 535.863C21.5486 531.829 15.8953 527.978 10.3154 524.128C7.56221 522.221 4.18491 519.801 0 516.794V518.151C3.85453 520.938 7.08499 523.248 9.69138 525.045C15.2713 528.932 20.9246 532.746 26.9817 536.853L37.0769 543.6C73.1626 567.436 107.229 589.989 89.9389 638.431C80.064 666.191 61.599 688.853 43.7948 710.782C30.7347 725.974 18.9479 742.212 8.55338 759.334C5.29114 765.536 2.43405 771.943 0 778.513L0 781.483L0.881034 779.32C3.33698 772.652 6.21849 766.148 9.50783 759.848V759.848Z" fill="#5D5D5D"/>
<path d="M575.389 77.7341C569.075 77.7341 560.155 81.7679 553.62 100.947C546.278 122.509 560.448 127.496 575.463 132.814C578.106 133.73 580.859 134.684 583.465 135.747C588.097 137.848 593.073 139.09 598.149 139.414C599.937 139.576 601.735 139.261 603.361 138.501C604.986 137.74 606.38 136.562 607.4 135.087C613.017 126.176 604.023 106.521 599.875 98.4164C593.34 85.4717 584.126 77.7341 575.389 77.7341ZM606.005 133.914C603.068 138.571 595.653 138.571 583.979 133.914C581.299 132.85 578.546 131.86 575.903 130.943C561.219 125.736 548.371 121.226 555.162 101.387C560.081 87.0118 567.019 79.3843 575.206 79.3843C583.392 79.3843 591.835 86.7185 598.186 99.0398C606.703 115.578 609.382 128.413 606.005 133.914Z" fill="#5D5D5D"/>
<path d="M99.1164 679.098L104.072 673.23C127.713 645.434 152.162 616.757 124.373 582.397C102.897 555.847 70.4828 533.955 41.8858 514.629C35.9389 510.632 30.359 506.855 24.8525 503.005C21.1815 500.474 16.1156 496.807 10.1686 492.553L0 484.999V486.356L9.7648 493.47C15.6017 497.687 20.7777 501.354 24.4487 503.921C29.9919 507.588 35.4616 511.549 41.5188 515.546C70.0422 534.798 102.42 556.654 123.785 583.093C150.987 616.721 126.832 645.067 103.522 672.497L98.529 678.401C77.8614 702.824 51.6506 735.534 30.9096 771.985C18.3811 793.993 8.02898 817.168 0 841.182L0 844.849C8.1111 819.729 18.7887 795.508 31.8641 772.571C52.5317 736.157 78.7057 703.484 99.1164 679.098Z" fill="#5D5D5D"/>
<path d="M78.3019 307.953C106.201 322.218 129.916 328.892 152.896 328.892C176.978 328.892 198.38 321.558 223.159 313.307C237.219 308.54 253.151 303.186 271.248 298.639C278.564 296.851 286.074 295.989 293.605 296.072C297.276 296.072 300.469 296.072 303.7 296.329C306.93 296.585 309.684 296.585 312.584 296.585C327.268 296.585 339.272 292.918 352.23 275.573C358.759 266.795 363.806 257.009 367.171 246.603C371.503 234.575 374.917 225.077 393.932 211.473C399.797 207.818 406.052 204.829 412.581 202.562C423.594 198.308 432.845 194.604 433.249 188.37C433.542 183.273 427.632 177.625 414.637 170.548C399.072 162.114 376.826 160.977 357.113 160.977C348.339 160.977 339.125 161.234 330.204 161.49C321.284 161.747 311.849 162.04 303.076 162.04C287.968 162.542 272.86 161.05 258.143 157.603C194.268 140.258 134.358 107.474 81.5324 78.5044C53.7798 63.3227 26.8715 48.5811 0 35.9297V37.9466C26.5779 50.5247 53.1925 65.083 80.7615 80.118C133.697 109.125 193.681 141.982 257.776 159.363C272.648 162.854 287.917 164.37 303.186 163.874C312.106 163.874 321.541 163.581 330.351 163.324C339.162 163.067 348.486 162.81 357.223 162.81C376.716 162.81 398.631 163.911 413.866 172.162C425.833 178.689 431.78 184.08 431.523 188.223C431.193 193.321 421.869 196.988 411.994 200.875C405.322 203.157 398.941 206.209 392.978 209.969C373.485 223.904 369.814 234.135 365.556 245.98C362.239 256.21 357.28 265.833 350.872 274.473C338.354 291.378 326.974 294.752 312.694 294.752C309.83 294.752 306.967 294.752 303.883 294.495C300.8 294.238 297.239 294.239 293.715 294.239C286.024 294.169 278.353 295.056 270.881 296.879C252.747 301.426 236.778 306.817 222.681 311.547C198.049 319.871 176.794 327.059 152.933 327.059C130.246 327.059 106.825 320.458 79.183 306.303C53.9266 293.395 31.2033 276.196 9.21415 259.548L0 252.617V254.927L8.07615 261.051C30.102 277.7 52.8988 294.935 78.3019 307.953Z" fill="#5D5D5D"/>
<path d="M95.2251 274.987C120.25 288.36 148.157 295.446 176.537 295.632C191.992 295.632 225.325 289.325 254.435 278.8C279.912 269.559 310.308 254.231 310.344 233.622C310.344 209.309 263.503 195.851 235.456 187.783C229.363 186.023 224.076 184.52 220.773 183.236C166.671 163.271 114.213 139.117 63.875 110.995C42.0327 99.1135 20.8511 87.5256 0 77.1111V78.3212C20.6676 88.6624 41.6656 100.324 63.1775 111.948C113.568 140.112 166.089 164.291 220.259 184.263C223.93 185.547 229.106 187.087 235.236 188.847C262.989 196.804 309.427 210.153 309.353 233.622C309.353 269.229 208.622 294.532 176.574 294.532C148.385 294.327 120.669 287.279 95.8125 273.996C73.3828 262.518 51.981 246.31 31.24 230.615C21.2182 223.024 10.9028 215.213 0.110129 207.622V208.979C10.6458 216.313 20.741 224.051 30.5792 231.495C51.3937 247.227 72.6853 263.472 95.2251 274.987Z" fill="#5D5D5D"/>
<path d="M106.936 252.14C128.389 263.656 152.33 269.773 176.684 269.962C197.021 269.962 223.636 263.911 233.841 250.673C236.028 247.874 237.504 244.587 238.143 241.094C238.783 237.601 238.566 234.005 237.512 230.614C232.887 212.829 195.59 200.251 168.388 191.083C159.577 188.113 151.978 185.546 147.316 183.382C115.856 168.714 84.9097 151.735 54.6241 135.27L51.3937 133.4C33.8097 123.902 16.7764 114.551 0 105.897V107.144C16.5928 115.578 33.4426 124.966 50.6595 134.39L54.0368 136.224C84.1388 152.725 115.305 169.777 146.766 184.372C151.501 186.573 159.137 189.14 167.947 192.11C193.424 200.691 231.896 213.672 236.374 230.907C237.346 234.152 237.52 237.583 236.881 240.909C236.242 244.235 234.809 247.358 232.703 250.013C222.681 262.958 196.471 268.862 176.317 268.862C152.262 268.647 128.618 262.607 107.413 251.26C87.0022 240.809 66.4814 225.297 46.6581 210.262C32.3046 199.261 16.8865 187.746 0 176.708V177.918C16.6295 188.919 31.8274 200.324 45.9973 210.922C65.8573 226.067 86.4148 241.652 106.936 252.14Z" fill="#5D5D5D"/>
<path d="M651.524 -123.698C653.359 -131.032 655.195 -138.366 656.847 -145.7H654.938C653.286 -138.586 651.524 -131.435 649.725 -124.174C646.348 -110.606 642.86 -96.5246 640.034 -82.1863C630.636 -34.331 622.523 28.4127 643.705 89.3229C652.221 114.039 673.439 134.281 692.161 152.103C708.864 167.982 723.255 181.697 721.933 193.211C721.346 198.492 717.491 203.222 710.112 207.623C704.688 210.044 698.749 211.089 692.822 210.666C664.629 210.666 614.924 198.235 578.141 185.914C538.127 172.529 488.863 151.186 481.227 125.59C478.768 117.449 480.787 109.198 487.174 101.131C495.165 91.2664 503.656 81.8174 512.614 72.821C529.317 55.4757 545.102 39.0839 555.528 14.7712C570.406 -19.2213 572.325 -57.4759 560.924 -92.7842C558.171 -101.658 555.418 -109.836 552.958 -117.06C549.287 -127.731 546.24 -137.082 544.074 -145.7H542.165C544.331 -136.899 547.562 -127.365 551.233 -116.363C553.656 -109.029 556.409 -100.998 559.162 -92.1241C570.461 -57.2175 568.567 -19.3855 553.839 14.2211C543.56 38.2405 527.885 54.559 511.292 71.7209C502.776 80.5952 493.965 89.7263 485.596 100.177C478.841 108.758 476.712 117.559 479.355 126.287C487.211 152.653 537.026 174.326 577.443 187.857C614.373 200.215 664.299 212.683 692.712 212.683C699.01 213.133 705.321 211.998 711.067 209.383C718.996 204.652 723.144 199.519 723.805 193.615C725.2 181.183 710.516 167.175 693.483 150.966C674.908 133.254 653.836 113.232 645.467 88.8828C624.652 28.4127 632.692 -34.0009 642.053 -81.6362C644.659 -96.0845 648.146 -110.129 651.524 -123.698Z" fill="#5D5D5D"/>
<path d="M347.384 733.957C345.548 737 343.713 739.861 342.318 741.987C323.743 768.134 301.937 791.31 277.048 816.759L266.806 826.99C246.395 847.599 225.25 868.905 212.622 894.098C207.74 903.889 206.235 911.48 208.254 916.1C208.652 917.131 209.278 918.059 210.085 918.815C210.892 919.571 211.86 920.134 212.916 920.464C213.934 920.736 214.983 920.871 216.036 920.867C222.271 920.267 228.249 918.083 233.4 914.523C246.944 905.935 259.951 896.53 272.349 886.36C282.591 878.329 293.164 870.042 304.03 862.817C348.081 833.738 377.045 814.485 390.591 760.139C393.418 748.918 395.07 723.285 386.37 712.174C385.031 710.341 383.246 708.881 381.184 707.931C379.121 706.981 376.85 706.573 374.586 706.747C363.426 707.444 354.175 722.772 347.384 733.957ZM375.577 707.957C377.531 707.919 379.466 708.352 381.218 709.22C382.969 710.088 384.484 711.366 385.635 712.944C394.115 723.762 392.463 748.918 389.674 759.993C376.201 813.825 347.31 832.967 303.589 861.901C292.576 869.235 282.077 877.449 271.835 885.517C259.461 895.662 246.479 905.043 232.96 913.606C224.737 918.557 217.725 920.647 213.357 919.4C212.441 919.142 211.598 918.677 210.891 918.041C210.185 917.405 209.634 916.616 209.282 915.733C207.41 911.443 208.951 903.962 213.613 894.648C226.168 869.602 247.24 848.333 267.614 827.797L277.819 817.419C302.598 791.933 324.624 768.72 343.236 742.501C344.741 740.374 346.503 737.477 348.338 734.433C354.983 723.432 364.05 708.397 374.769 707.847L375.577 707.957Z" fill="#5D5D5D"/>
<path d="M118.462 229.624C131.937 235.818 146.457 239.425 161.266 240.259C165.459 240.512 169.64 239.598 173.344 237.618C179.18 233.951 181.75 230.284 181.199 226.617C180.025 218.88 163.175 214.222 149.666 210.482C145.215 209.376 140.838 207.992 136.56 206.338C104.366 191.413 72.8322 174.141 42.3998 157.456L39.0225 155.586C25.6968 148.362 12.8117 141.248 0 134.464V136.554C12.518 143.191 25.2196 150.122 38.1414 157.199L41.5187 159.033C71.9879 175.755 103.522 193.027 135.789 207.988C140.158 209.697 144.634 211.118 149.188 212.242C161.486 215.653 178.556 220.346 179.401 226.91C179.804 229.587 177.418 232.594 172.352 235.895C168.966 237.671 165.156 238.483 161.339 238.242C146.838 237.435 132.612 233.954 119.38 227.974C101.025 218.586 81.4223 203.771 62.48 189.396C42.4774 173.775 21.6184 159.279 0 145.978L0 148.105C21.2099 161.247 41.6876 175.533 61.342 190.9C80.321 205.275 99.9607 220.126 118.462 229.624Z" fill="#5D5D5D"/>
<path d="M63.3611 927.139C67.7662 832.089 133.33 757.17 186.008 696.957L190.157 692.226C252.82 620.572 250.287 595.562 220.883 566.592C174.096 519.857 123.304 477.303 69.0878 439.418C45.5935 423.173 22.393 408.321 0 395.083V397.21C22.0259 410.301 44.9328 424.933 68.0232 440.958C122.155 478.769 172.874 521.237 219.598 567.876C248.158 596.039 250.471 620.498 188.798 691.016L184.65 695.783C131.751 756.18 65.9307 831.465 61.5256 927.029C57.3774 1016.87 23.531 1043.35 0 1050.68V1052.59C24.0816 1045.22 59.1394 1018.74 63.3611 927.139Z" fill="#5D5D5D"/>
<path d="M468.563 -113.944C493.71 -35.6884 503.952 6.84965 441.508 42.897C430.731 49.0012 419.062 53.3815 406.928 55.8785C395.344 58.2407 383.546 59.3959 371.723 59.3255C255.684 59.3255 96.3999 -37.5586 10.6091 -89.5945L7.67234 -91.3913L0 -96.0485V-93.8849L6.71789 -89.7778L9.65467 -88.0176C95.4454 -35.9085 255.17 61.1591 371.723 61.1591C383.676 61.1772 395.598 59.9482 407.295 57.492C419.624 54.9536 431.479 50.499 442.426 44.2905C506.081 7.61973 495.765 -35.5051 470.289 -114.714C467.058 -124.725 463.718 -135.176 460.671 -145.847H458.872C461.846 -134.81 465.26 -124.175 468.563 -113.944Z" fill="#5D5D5D"/>
<path d="M433.946 -102.869C444.151 -71.1859 453.88 -31.4348 438.645 -5.1785C431.303 7.83962 417.904 16.4206 399.366 20.491C390.28 22.3244 381.028 23.2093 371.76 23.1313C265.852 23.0213 112.112 -70.4158 29.3678 -120.618L14.2434 -129.859C9.58125 -132.683 4.80898 -135.323 0 -137.817V-136.57C4.62543 -134.186 9.17744 -131.656 13.6927 -128.942L28.9273 -119.701C111.598 -69.4257 265.558 24.1214 371.76 24.1214C381.103 24.1875 390.427 23.2904 399.586 21.4445C418.418 17.4474 431.89 8.64638 439.599 -4.62843C455.201 -31.1047 445.253 -71.4426 435.011 -103.199C430.606 -116.878 426.237 -131.069 422.529 -145.664H421.355C425.136 -130.959 429.504 -116.658 433.946 -102.869Z" fill="#5D5D5D"/>
<path d="M369.519 672.973C353.404 676.934 339.344 699.23 328 716.978C324.073 723.212 320.328 729.153 316.988 733.37C298.649 756.164 279.04 777.908 258.252 798.498C253.076 803.815 246.541 809.829 239.64 816.209C219.156 835.168 193.679 858.784 185.934 880.383C179.436 898.719 183.254 915.881 186.962 932.602C190.008 946.354 193.165 960.582 190.633 975.361C189.091 984.492 183.548 993.513 177.674 1003.08C170.626 1014.52 163.357 1026.33 162.99 1039.02C162.837 1043.34 163.51 1047.64 164.972 1051.71C169.818 1065.31 174.884 1071.66 180.904 1071.66C186.925 1071.66 193.349 1065.46 202.93 1050.28C212.108 1035.83 215.705 1019.04 219.193 1002.83C222.68 986.619 226.314 969.823 235.565 955.155C253.186 927.395 284.242 906.97 311.628 888.928L318.493 884.417C364.013 854.31 399.915 830.511 415.957 766.484C420.215 749.505 419.077 706.344 401.824 684.268C398.297 679.249 393.283 675.46 387.489 673.434C381.694 671.408 375.41 671.247 369.519 672.973V672.973ZM400.466 685.552C415.92 705.317 418.82 747.195 414.268 766.227C398.41 829.594 362.875 853.21 317.538 883.134L310.71 887.644C283.141 905.76 251.975 926.295 234.097 954.385C224.662 969.237 221.028 986.215 217.467 1002.68C213.907 1019.15 210.456 1035.32 201.462 1049.55C195.038 1059.67 187.586 1070.04 180.978 1070.04C175.912 1070.04 171.25 1063.92 166.771 1051.34C165.368 1047.49 164.732 1043.41 164.899 1039.31C165.303 1027.1 172.461 1015.48 179.363 1004.26C185.346 994.539 191 985.372 192.615 975.874C195.148 960.766 191.954 946.354 188.944 932.456C185.273 915.184 181.602 898.902 187.843 881.117C195.441 859.958 220.881 836.488 241.072 817.676C248.01 811.259 254.544 805.245 259.757 799.854C280.551 779.232 300.161 757.452 318.493 734.617C321.833 730.29 325.578 724.349 329.506 718.042C340.518 700.44 354.505 678.511 369.886 674.734C372.525 674.052 375.237 673.695 377.962 673.67C382.386 673.713 386.736 674.81 390.65 676.87C394.564 678.93 397.929 681.894 400.466 685.515V685.552Z" fill="#5D5D5D"/>
<path d="M386.407 593.325C383.818 589 380.278 585.319 376.055 582.561C371.832 579.804 367.036 578.043 362.031 577.41C355.562 576.459 349.425 573.941 344.154 570.076L343.603 569.489C324.881 548.55 262.107 480.269 240.816 480.269C239.708 480.211 238.602 480.421 237.592 480.881C236.582 481.34 235.699 482.036 235.015 482.91C232.189 486.577 232.336 493.911 235.456 505.682C237.328 512.576 255.096 522.111 273.928 532.195C289.603 540.63 305.829 549.321 311.335 555.848C316.254 561.679 322.752 569.783 322.348 572.606C322.348 573.34 321.357 573.817 319.925 574.513C316.621 576.164 311.665 578.62 314.309 590.172C316.892 598.622 320.808 606.606 325.909 613.824C330.321 620.135 333.818 627.036 336.298 634.323C340.997 652.329 311.408 685.662 291.842 707.372C285.381 714.706 279.801 720.83 276.24 725.707C261.144 744.634 244.704 762.453 227.049 779.026C193.607 812.03 159.026 845.95 146.875 892.962C128.484 963.003 124.813 1025.01 135.826 1077.09C141.699 1104.88 161.963 1143.61 181.603 1143.61C193.827 1143.61 202.748 1128.94 208.07 1099.97C228.628 988.416 284.72 951.305 338.941 915.405C386.994 883.611 432.367 853.578 451.897 775.542C459.239 746.206 447.932 700.881 433.211 675.798C427.324 666.448 419.547 658.429 410.378 652.255C403.035 647.353 396.663 641.137 391.583 633.92C387.912 628.199 388.609 621.562 389.27 614.558C389.931 607.554 390.848 599.633 386.407 593.325ZM389.527 635.203C394.737 642.737 401.326 649.219 408.946 654.309C417.792 660.304 425.293 668.072 430.972 677.118C445.436 701.724 456.669 746.132 449.327 774.919C430.054 851.928 385.085 881.741 337.436 913.278C282.958 949.472 226.425 986.876 205.574 1099.53C200.582 1126.7 192.285 1141.08 181.639 1141.08C164.936 1141.08 144.673 1106.39 138.359 1076.57C127.346 1024.87 131.017 963.26 149.115 893.439C161.082 847.124 195.406 813.313 228.591 780.676C246.34 764.014 262.865 746.096 278.039 727.064C281.527 722.443 287.07 716.246 293.494 709.058C314.639 685.406 343.566 652.989 338.537 633.627C336 626.084 332.39 618.946 327.818 612.431C322.893 605.448 319.091 597.74 316.548 589.585C314.382 579.977 317.796 578.29 320.806 576.787C322.458 575.944 324.183 575.1 324.477 573.12C325.064 570.443 323.339 566.336 313.097 554.198C307.297 547.304 290.851 538.466 274.956 529.958C258.253 521.011 239.347 510.853 237.769 505.022C234.098 491.747 235.309 486.504 236.888 484.45C237.326 483.908 237.888 483.478 238.527 483.198C239.165 482.917 239.862 482.793 240.559 482.836C256.601 482.836 303.185 528.455 341.437 571.176C341.665 571.472 341.923 571.742 342.208 571.983C347.803 576.144 354.331 578.875 361.224 579.941C365.917 580.508 370.418 582.145 374.377 584.727C378.336 587.308 381.648 590.765 384.057 594.829C387.728 600.403 387.288 607.15 386.59 614.264C385.893 621.379 385.452 628.969 389.527 635.203Z" fill="#5D5D5D"/>
<path d="M0 355.258C123.785 425.262 257.189 536.595 281.49 591.931C296.174 625.155 260.713 664.869 215.964 715.145C165.084 772.278 101.759 843.492 97.8315 928.715C93.0225 1032.75 41.4086 1075.4 0 1088.38V1091.02C42.3631 1078.15 95.4454 1034.84 100.401 928.789C104.292 844.446 167.286 773.634 217.872 716.795C263.246 665.859 299.074 625.595 283.95 590.867C259.354 535.128 124.813 422.842 0 352.544V355.258Z" fill="#5D5D5D"/>
<path d="M623.589 -145.481H622.084C619.477 -142.972 617.36 -140 615.843 -136.717C611.291 -126.009 612.576 -114.714 613.824 -104.08C614.698 -98.0084 615.078 -91.8766 614.962 -85.7442C614.305 -75.9998 612.931 -66.317 610.85 -56.7743C609.309 -48.8534 607.693 -40.6391 606.923 -32.6816C602.224 15.8339 606.482 59.6921 619.551 97.683C622.267 105.567 632.913 117.705 644.183 130.687C658.573 147.115 673.551 164.094 674.065 174.398C674.185 175.396 674.086 176.409 673.776 177.365C673.465 178.321 672.95 179.198 672.266 179.936C668.375 184.079 657.949 184.813 641.246 182.172C629.111 179.7 617.334 175.721 606.188 170.328C599.617 167.467 592.789 164.497 585.998 162.224L580.051 160.243C555.639 152.212 522.196 141.175 517.424 121.886C515.148 112.681 519.627 102.157 530.75 90.6056C548.26 72.2702 566.358 53.6048 578.472 25.0382C590.22 -2.35483 603.729 -55.6375 598.553 -84.4974C597.538 -89.4346 595.527 -94.1135 592.642 -98.2489C590.589 -100.901 589.101 -103.944 588.267 -107.192C587.434 -110.439 587.274 -113.823 587.797 -117.134C588.612 -122.09 590.601 -126.78 593.597 -130.813C595.259 -132.848 596.501 -135.192 597.251 -137.71C598.001 -140.228 598.244 -142.869 597.965 -145.481H596.864C597.141 -142.991 596.913 -140.47 596.194 -138.07C595.475 -135.67 594.28 -133.438 592.679 -131.509C589.579 -127.341 587.539 -122.484 586.732 -117.354C586.165 -113.92 586.312 -110.405 587.165 -107.029C588.017 -103.654 589.557 -100.49 591.688 -97.7355C594.516 -93.7163 596.49 -89.1611 597.488 -84.3507C602.627 -55.7475 589.155 -2.72154 577.445 24.5248C565.257 52.908 547.196 71.6468 529.722 89.7621C518.305 101.607 513.753 112.461 516.139 122.069C521.058 141.945 554.831 153.093 579.464 161.233L585.447 163.177C592.165 165.451 598.956 168.384 605.528 171.245C616.754 176.686 628.618 180.702 640.842 183.199C646.411 184.146 652.044 184.673 657.692 184.776C665.254 184.776 670.21 183.419 672.853 180.632C673.627 179.78 674.214 178.775 674.574 177.682C674.935 176.589 675.061 175.433 674.946 174.288C674.322 163.58 659.307 146.455 644.77 129.88C633.757 117.155 623.038 105.091 620.395 97.3897C607.326 59.5454 603.105 15.8339 607.804 -32.4982C608.574 -40.4191 610.153 -48.5967 611.732 -56.4809C613.867 -66.1439 615.303 -75.9482 616.027 -85.8175C616.137 -91.9498 615.757 -98.0812 614.889 -104.153C613.604 -115.154 612.392 -125.825 616.834 -136.24C618.477 -139.721 620.769 -142.858 623.589 -145.481V-145.481Z" fill="#5D5D5D"/>
<path d="M503.144 -125.055C526.381 -52.7771 550.39 21.9212 459.68 74.3237C445.605 82.3393 430.355 88.0936 414.49 91.3757C400.422 94.281 386.088 95.7067 371.723 95.6295C249.076 95.6295 95.6656 4.50261 0 -53.5472V-50.5402C95.996 7.69297 248.966 98.1964 371.723 98.1964C386.261 98.2814 400.767 96.8433 415.004 93.9059C431.146 90.569 446.658 84.7026 460.965 76.524C553.473 23.1313 529.135 -52.5938 505.604 -125.825C503.474 -132.499 501.345 -139.137 499.326 -145.664H496.61C498.702 -138.843 500.941 -131.986 503.144 -125.055Z" fill="#5D5D5D"/>
<path d="M34.2865 617.747C32.4877 605.939 24.3382 595.341 9.32388 585.44C6.27697 583.423 3.15664 581.296 -0.000399612 579.206V580.526L8.73652 586.357C23.4204 596.075 31.4599 606.416 33.2219 617.894C36.122 636.926 21.6584 656.545 3.85413 678.364C2.67941 679.831 1.35786 681.664 -0.0371094 683.608V685.515C1.68825 683.058 3.26677 680.821 4.73516 679.061C22.6862 657.022 37.2967 637.219 34.2865 617.747Z" fill="#5D5D5D"/>
<path d="M66.7751 630.143C76.3196 603.373 66.7751 592.629 23.4942 564.135L13.1054 557.095C8.59008 554.051 4.25833 551.117 0 548.294V549.614L12.518 558.158L22.9069 565.052C65.5269 593.252 75.0348 603.85 65.7472 629.886C57.3407 653.502 41.0782 673.488 23.8613 694.683C15.8219 704.511 7.67234 714.595 0 725.34V727.247C7.8926 716.026 16.3726 705.574 24.7057 695.343C41.996 674.001 58.2951 653.942 66.7751 630.143Z" fill="#5D5D5D"/>
<path d="M356.341 768.318H356.084C350.871 768.318 345.585 774.919 341.73 779.76C340.886 780.823 340.152 781.74 339.491 782.473C335.82 786.617 332.369 791.017 328.955 795.235C326.789 797.948 324.587 800.699 322.347 803.376L322.054 803.706C314.712 812.397 311.738 818.044 312.913 821.014C313.201 821.604 313.643 822.106 314.192 822.467C314.741 822.828 315.377 823.036 316.033 823.068H317.098C331.782 822.738 343.676 809.463 349.476 801.579C354.614 794.965 358.36 787.381 360.489 779.283C361.33 776.125 361.017 772.771 359.608 769.822C359.211 769.342 358.711 768.958 358.146 768.698C357.58 768.438 356.963 768.308 356.341 768.318V768.318ZM358.506 778.953C356.49 786.778 352.906 794.113 347.971 800.515C342.391 808.143 330.974 820.978 317.061 821.271V822.188V821.271H316.4C315.079 821.271 314.859 820.538 314.785 820.354C314.381 819.364 314.418 815.807 323.632 804.916L323.889 804.586C326.165 801.909 328.331 799.158 330.534 796.408C333.911 792.191 337.398 787.827 341.033 783.72C341.693 782.987 342.464 781.996 343.309 780.933C346.723 776.679 351.899 770.189 356.414 770.189C356.742 770.184 357.067 770.258 357.361 770.405C357.655 770.552 357.909 770.767 358.103 771.032C359.196 773.561 359.34 776.4 358.506 779.026V778.953Z" fill="#5D5D5D"/>
<path d="M743.63 1139.87C792.344 1134.33 844.582 1078 845.242 1030.26C846.27 956.917 804.164 898.573 763.416 842.027C756.478 832.419 749.32 822.518 742.565 812.691L738.527 806.86C719.328 779.284 697.596 748.187 690.547 714.23C684.564 685.553 675.423 618.886 685.371 595.93C692.713 579.098 713.454 569.417 733.535 560.102C747.411 553.648 760.553 547.561 769.767 539.237L770.171 538.833C801.668 510.34 801.668 510.34 823.143 509.497C829.641 509.277 837.827 508.983 849.134 507.92C859.576 507.008 869.926 505.242 880.08 502.639C883.318 501.668 886.655 501.065 890.028 500.842C896.636 500.842 902.179 505.536 920.497 521.011C974.644 566.813 973.616 646.499 972.625 723.507C971.377 820.465 970.092 920.686 1079.93 952.443C1094.77 956.851 1110.15 959.16 1125.63 959.3C1166.93 959.3 1202.06 940.965 1227.28 906.018C1264.28 854.862 1274.12 775.066 1251.77 707.409C1200.12 551.228 1076.7 461.971 943.918 376.895C823.29 299.556 708.352 278.251 610.116 264.353C603.456 263.362 596.733 262.848 589.999 262.812C550.169 262.812 531.264 283.055 507.255 308.688C497.627 319.313 487.458 329.435 476.786 339.014C463.277 350.859 446.097 358.963 429.504 366.811C402.412 379.609 376.826 391.71 366.253 418.59C343.824 475.576 398.925 520.021 447.565 559.222C470.068 577.374 491.323 594.499 503.768 611.625C553.179 679.576 538.385 794.098 493.599 858.419C479.613 878.515 452.815 903.377 424.475 929.67C377.486 973.235 324.221 1022.63 314.823 1064.11C310.381 1083.61 311.556 1097.11 318.494 1105.76C324.184 1112.84 333.765 1116.29 347.862 1116.29C370.952 1116.29 404.028 1106.79 439.012 1096.74C481.779 1084.46 530.273 1070.52 571.608 1070.52C588.642 1070.09 605.57 1073.33 621.239 1080.02C636.443 1087.61 650.699 1096.97 663.713 1107.89C685.261 1124.61 705.598 1140.42 734.379 1140.42C737.471 1140.41 740.559 1140.23 743.63 1139.87V1139.87ZM622.01 1078.37C606.009 1071.58 588.728 1068.33 571.351 1068.84C529.722 1068.84 481.118 1082.81 438.241 1095.13C403.367 1105.14 370.438 1114.6 347.605 1114.6C334.206 1114.6 325.102 1111.37 319.779 1104.77C313.355 1096.71 312.437 1083.61 316.585 1064.66C325.873 1023.73 378.992 974.555 425.723 931.174C454.136 904.771 481.008 879.835 495.105 859.629C540.258 794.759 555.125 679.246 505.273 610.708C492.682 593.399 471.317 576.164 448.703 557.939C400.577 519.141 345.916 475.173 367.942 419.397C378.257 393.214 403.514 381.259 430.349 368.608C447.088 360.723 464.378 352.546 478.071 340.554C488.771 330.917 498.977 320.746 508.65 310.081C532.328 284.778 551.05 264.793 590.073 264.793C596.72 264.833 603.356 265.335 609.933 266.296C707.984 280.194 822.849 301.463 943.037 378.582C1075.49 463.475 1198.65 552.548 1250.08 708.106C1272.29 775.25 1262.56 854.422 1225.89 905.101C1201.03 939.461 1166.38 957.613 1125.7 957.613C1110.4 957.476 1095.19 955.193 1080.52 950.829C1031.84 936.748 1001.08 907.888 986.391 862.526C973.286 821.932 973.91 771.986 974.534 723.691C975.525 646.242 976.553 566.006 921.745 519.764C895.535 497.762 894.837 497.285 879.713 500.989C869.657 503.575 859.405 505.329 849.06 506.233C837.68 507.296 829.641 507.59 823.18 507.81C801.154 508.58 801.154 508.58 769.033 537.513L768.592 537.916C759.598 546.057 746.566 552.108 732.837 558.489C712.426 567.95 691.318 577.741 683.756 595.16C673.624 618.592 682.802 685.736 688.822 714.56C695.944 748.7 717.786 780.127 737.095 807.85L741.133 813.717C747.888 823.472 755.046 833.41 761.985 843.054C802.365 899.38 844.508 957.613 843.48 1030.07C842.82 1077.05 791.426 1132.46 743.483 1137.92C740.484 1138.26 737.469 1138.43 734.452 1138.44C706.296 1138.44 686.179 1122.82 664.924 1106.31C651.776 1095.34 637.371 1085.96 622.01 1078.37V1078.37Z" fill="#5D5D5D"/>
<path d="M1519.97 0.762278H1505.84H1492.73C1467.69 0.762278 1447.8 2.1191 1425.81 8.75651C1414.53 12.5461 1403.61 17.3195 1393.17 23.0214C1375.77 31.8591 1359.36 40.22 1339.72 40.22C1336.44 40.2143 1333.17 39.9692 1329.92 39.4866C1315.42 37.3964 1304.56 28.8888 1294.06 20.6378C1282.27 11.3601 1271.15 2.59582 1255.51 2.59582C1254.06 2.59692 1252.62 2.67035 1251.18 2.81585C1241.56 3.80596 1226.11 12.4602 1211.2 20.8579C1203.12 25.683 1194.74 29.9706 1186.09 33.6926C1179.08 36.2584 1171.91 38.3653 1164.62 40C1149.16 43.6671 1147.22 45.0239 1139.73 73.4071C1137.67 81.2546 1136.06 88.5888 1134.7 95.7029C1129.3 121.996 1125.04 142.788 1096.96 162.664C1077.98 176.049 1053.94 182.539 1023.54 182.539C993.146 182.539 961.686 176.195 933.787 170.621C919.103 167.724 905.41 164.937 895.205 163.874C889.258 163.214 880.08 162.847 870.683 162.847C843.738 162.847 812.167 172.712 809.965 186.866C808.9 193.54 814.15 203.588 845.059 213.453L848.473 214.553C966.201 252.287 1048.32 301.499 1131.91 384.485C1154.93 407.368 1172.55 418.002 1187.3 418.002C1190.74 418.014 1194.15 417.405 1197.36 416.205C1213.04 410.375 1224.45 390.536 1237.74 367.727C1244.57 355.919 1252.43 342.534 1261.49 329.626C1304.96 267.84 1368.11 222.597 1440.64 201.278C1460.43 195.444 1480.94 192.395 1501.58 192.22C1564.97 192.22 1609.72 223.207 1652.09 255.111V252.837C1609.8 221.044 1565.05 190.497 1501.58 190.497C1480.77 190.66 1460.08 193.733 1440.12 199.628C1367.21 220.939 1303.67 266.28 1259.84 328.269C1250.63 341.25 1242.85 354.672 1236.02 366.516C1222.95 389.106 1211.68 408.578 1196.63 414.188C1193.61 415.316 1190.42 415.887 1187.19 415.875C1172.95 415.875 1155.77 405.387 1133.08 382.872C1049.28 299.702 966.972 250.344 848.95 212.536L845.5 211.436C822.373 204.102 810.332 195.301 811.653 186.83C813.489 175.095 841.572 164.387 870.572 164.387C879.897 164.387 888.927 164.754 894.874 165.377C905.043 166.477 918.772 169.044 933.31 172.125C961.282 177.735 993 184.079 1023.43 184.079C1053.86 184.079 1078.75 177.479 1098.03 163.874C1126.7 143.595 1131.07 122.473 1136.5 95.7762C1137.97 88.6988 1139.43 81.4013 1141.53 73.7738C1148.87 45.5006 1150.48 45.1339 1165.02 41.6869C1172.39 40.0391 1179.63 37.9076 1186.72 35.3061C1195.46 31.5567 1203.93 27.2196 1212.08 22.3247C1226.18 14.4405 1242.11 5.45615 1251.36 4.53938C1252.74 4.39394 1254.13 4.32049 1255.51 4.31935C1270.49 4.31935 1281.39 12.8636 1292.96 21.958C1303.64 30.3556 1314.65 39.0466 1329.66 41.2101C1333.01 41.6901 1336.38 41.9351 1339.76 41.9435C1359.84 41.9435 1377.2 33.1059 1394.02 24.5616C1404.37 18.9012 1415.21 14.1645 1426.4 10.4067C1448.13 3.80596 1467.91 2.48581 1492.77 2.48581H1505.84H1520.01C1540.73 2.25463 1561.38 4.94591 1581.35 10.48C1605.59 17.704 1629.2 26.8899 1651.94 37.9464V35.9295C1629.34 25.0187 1605.89 15.9558 1581.82 8.82985C1561.69 3.25666 1540.86 0.540865 1519.97 0.762278V0.762278Z" fill="#5D5D5D"/>
<path d="M1442.14 826.55C1444.2 829.264 1448.13 832.968 1457.93 833.884C1494.64 836.891 1550.07 841.219 1596.87 884.013L1597.42 884.49C1614 899.933 1627.15 918.67 1636.04 939.496C1638.72 945.547 1643.05 948.994 1647.9 948.994C1649.3 948.938 1650.67 948.601 1651.94 948.004V946.684C1650.68 947.319 1649.31 947.67 1647.9 947.711C1643.5 947.711 1639.53 944.484 1637.07 938.873C1628.1 917.93 1614.85 899.093 1598.16 883.573L1597.61 883.097C1550.51 840.228 1494.82 835.681 1458.11 832.674C1448.75 831.904 1445.08 828.421 1443.1 825.89C1439.47 820.498 1437.81 814.024 1438.4 807.555C1443.5 785.112 1449.85 757.169 1447.46 726.586C1443.43 674.843 1422.72 630.362 1402.68 587.237C1386.6 552.693 1368.39 513.602 1374.71 495.743C1385.98 464.023 1432.01 418.515 1451.28 400.399C1462.85 389.28 1478.32 383.132 1494.38 383.274C1502.09 383.33 1509.74 384.567 1517.07 386.941C1550.84 397.942 1598.64 422.732 1651.94 456.946V455.625C1598.82 421.558 1551.13 396.732 1517.4 385.951C1509.96 383.554 1502.2 382.317 1494.38 382.284C1477.95 382.129 1462.12 388.454 1450.33 399.886C1431.02 418.221 1384.84 463.693 1373.49 495.633C1367.03 513.969 1385.35 553.243 1401.5 587.934C1421.51 630.875 1442.18 675.247 1446.18 726.806C1448.53 757.206 1442.22 785.039 1437.11 807.481C1436.58 814.223 1438.35 820.947 1442.14 826.55V826.55Z" fill="#5D5D5D"/>
<path d="M1511.23 793.326C1519.6 797.874 1531.05 799.854 1542.18 801.724C1550.18 802.831 1558.08 804.61 1565.78 807.041C1570.66 808.952 1575.44 811.119 1580.1 813.532C1590.6 818.703 1602.53 824.533 1613.43 824.533C1615.44 824.544 1617.45 824.322 1619.41 823.873L1620.92 823.506C1636.48 818.849 1644.78 799.377 1651.94 781.445V778.475V778.805C1644.6 797.14 1636.45 817.749 1620.74 822.443L1619.34 822.81C1617.45 823.224 1615.52 823.433 1613.58 823.433C1602.97 823.433 1591.15 817.639 1580.72 812.432C1576.03 810.008 1571.21 807.829 1566.3 805.905C1558.53 803.452 1550.57 801.649 1542.51 800.514C1531.49 798.644 1520.11 796.847 1511.93 792.226C1493.79 782.289 1495.67 764.136 1497.69 744.884C1498.68 737.435 1499.02 729.914 1498.71 722.405C1493.98 661.422 1471.29 612.686 1449.34 565.564C1444.43 555.307 1441.71 544.141 1441.35 532.777C1441 521.412 1443.02 510.099 1447.28 499.557C1452.29 487.861 1459.65 477.316 1468.9 468.574C1478.15 459.832 1489.09 453.079 1501.06 448.731C1508.71 445.839 1516.82 444.348 1525 444.331C1560.42 444.331 1593.68 471.467 1623.01 495.413C1631.35 502.197 1639.2 508.578 1646.73 514.079L1652.09 518.002V516.646L1647.35 513.198C1640.01 507.735 1632.04 501.317 1623.71 494.57C1594.34 470.514 1560.83 443.231 1525 443.231C1516.68 443.234 1508.43 444.75 1500.66 447.705C1488.56 452.095 1477.49 458.915 1468.13 467.745C1458.78 476.575 1451.33 487.227 1446.25 499.044C1441.93 509.733 1439.89 521.203 1440.25 532.726C1440.61 544.248 1443.37 555.569 1448.35 565.968C1470.37 612.98 1492.91 661.605 1497.61 722.442C1497.92 729.865 1497.57 737.301 1496.58 744.664C1494.49 763.623 1492.47 782.985 1511.23 793.326Z" fill="#5D5D5D"/>
<path d="M1519.97 37.7994C1489.1 37.7994 1456.24 43.41 1421.44 49.314C1382.27 55.9881 1341.74 62.9188 1298.61 62.9188C1295.49 62.9188 1292.4 62.9188 1289.43 62.9188C1276.35 62.3946 1263.34 60.7134 1250.56 57.8949C1241.98 55.9235 1233.24 54.7572 1224.45 54.4112C1205.4 54.4112 1191.42 64.4223 1176.07 89.0284C1168.84 101.675 1162.82 114.972 1158.08 128.743C1148.87 152.982 1139.36 178.065 1118.29 192.917C1110.95 198.051 1097.18 201.974 1082.5 206.191C1056.8 213.526 1027.73 221.777 1023.76 239.195C1018.84 260.904 1063.45 290.534 1087.42 306.559C1091.9 309.53 1095.75 312.06 1098.43 313.894C1126.51 334.502 1149.82 348.217 1171.85 348.217C1174.84 348.227 1177.83 347.957 1180.77 347.411C1198.43 344.257 1214.43 331.825 1231.17 308.246C1279.51 239.59 1349.71 189.32 1430.32 165.634C1453.41 158.793 1477.35 155.202 1501.43 154.962C1564.75 154.962 1611.56 180.632 1651.94 208.978V207.622C1611.56 179.238 1564.75 153.862 1501.43 153.862C1477.23 154.029 1453.17 157.572 1429.96 164.387C1349.1 188.14 1278.68 238.551 1230.18 307.403C1213.63 330.725 1197.84 343.047 1180.51 346.164C1177.63 346.678 1174.71 346.936 1171.78 346.934C1149.97 346.934 1126.88 333.292 1098.94 312.83C1096.41 310.96 1092.56 308.393 1087.93 305.496C1064.18 289.691 1019.94 260.281 1024.72 239.305C1028.39 222.62 1057.28 214.442 1082.64 207.182C1097.33 202.964 1111.39 199.004 1118.77 193.797C1140.1 178.725 1149.68 153.459 1158.96 129.11C1163.69 115.41 1169.68 102.177 1176.84 89.5785C1191.93 65.3391 1205.7 55.4747 1224.31 55.4747C1233.03 55.8852 1241.7 57.1129 1250.19 59.1417C1263.05 61.9611 1276.13 63.6423 1289.28 64.1656C1292.26 64.1656 1295.34 64.1656 1298.46 64.1656C1341.71 64.1656 1382.27 57.2348 1421.51 50.5608C1456.24 44.6201 1489.02 39.0462 1519.82 39.0462C1537.18 38.8297 1554.48 41.0517 1571.22 45.6469C1599.09 54.1462 1626.13 65.1941 1651.98 78.6506V77.4404C1626.26 64.1127 1599.38 53.1755 1571.66 44.7668C1554.84 40.0276 1537.44 37.682 1519.97 37.7994V37.7994Z" fill="#5D5D5D"/>
<path d="M1487.48 813.056C1494.82 814.963 1502.16 816.723 1509.51 818.3C1547.9 827.174 1581.05 834.875 1614.2 864.835L1614.86 865.422C1622.46 872.316 1628.48 875.69 1633.22 875.69C1633.93 875.681 1634.65 875.595 1635.35 875.433C1642.69 873.783 1646.14 863.735 1650.03 850.79C1650.62 848.773 1651.28 846.793 1651.94 844.813V841.146C1650.91 844.226 1649.92 847.343 1648.97 850.424C1645.11 863.038 1641.62 872.793 1635.05 874.333C1630.28 875.433 1624.04 872.279 1615.49 864.578L1614.83 863.992C1581.46 833.812 1548.2 826.111 1509.65 817.2C1502.57 815.55 1495.23 813.826 1487.63 811.956C1460.68 805.208 1465.23 779.942 1469.64 755.483C1471.95 745.321 1473.03 734.916 1472.83 724.496C1468.46 668.133 1446.77 621.525 1425.77 576.42C1423.27 571.029 1420.59 565.785 1417.99 560.688C1404.48 534.248 1392.84 511.439 1409.51 483.349C1422.03 462.227 1440.79 444.918 1458.96 428.343C1462.22 425.299 1465.49 422.329 1468.68 419.322C1476.47 412.452 1486.65 408.898 1497.02 409.421C1542.25 409.421 1611.82 457.496 1651.83 486.43V485.073C1611.45 455.993 1542.32 408.284 1497.02 408.284C1486.36 407.764 1475.92 411.421 1467.91 418.479C1464.72 421.486 1461.45 424.456 1458.19 427.5C1439.83 444.258 1421.15 461.603 1408.55 482.909C1391.59 511.512 1403.93 535.678 1417 561.311C1419.6 566.372 1422.28 571.652 1424.78 577.006C1445.74 622.001 1467.4 668.5 1471.77 724.679C1471.92 735.001 1470.85 745.304 1468.57 755.373C1464.21 780.272 1459.54 806.052 1487.48 813.056Z" fill="#5D5D5D"/>
<path d="M714.922 1341.19C705.635 1355.16 694.108 1372.58 698.072 1384.61C699.109 1387.26 700.75 1389.64 702.866 1391.55C704.981 1393.46 707.513 1394.85 710.26 1395.61C711.533 1396.06 712.875 1396.28 714.225 1396.27C728.431 1396.27 750.935 1374.27 770.684 1355.09C783.313 1342.8 795.207 1331.18 802.365 1327.95C836.615 1312.44 883.787 1305.07 925.416 1298.61C941.862 1296.05 957.354 1293.63 971.707 1290.84C1002.58 1284.61 1033.97 1281.38 1065.46 1281.2C1162.12 1281.2 1243.32 1315.96 1306.76 1384.5C1313.84 1392.16 1324.19 1396.05 1337.48 1396.05C1378.89 1396.05 1449.93 1355.71 1499.96 1281.16C1529.88 1236.53 1573.38 1145.29 1528.15 1035.65C1510.02 991.643 1483.11 971.254 1443.46 971.254C1413.25 971.254 1378.82 982.256 1338.95 995.164C1289.91 1010.97 1234.29 1028.86 1174.49 1028.86C1128.83 1029.09 1083.84 1017.82 1043.69 996.081C915.982 928.02 912.237 803.889 923.287 703.338C927.545 664.247 920.607 633.297 903.133 613.861C897.039 607.061 889.541 601.661 881.157 598.033C872.773 594.406 863.701 592.637 854.566 592.849C817.856 592.849 771.712 621.415 755.119 676.055C739.518 727.394 776.521 774.222 819.398 828.348C867.708 889.332 922.479 958.346 911.87 1050.68C906.584 1096.45 889.844 1140.34 867.121 1168.03C849.867 1189.12 834.633 1190.99 818.48 1192.97C806.146 1194.47 793.408 1196.05 778.467 1205.51C767.05 1212.84 763.489 1225.05 759.671 1238.07C757.584 1247.25 753.933 1256.01 748.879 1263.96C745.869 1268.14 740.619 1269.06 735.076 1270.01C727.734 1271.26 719.511 1272.72 715.106 1282.15C712.059 1288.71 716.097 1296.45 719.988 1303.93C723.219 1310.17 726.596 1316.58 725.605 1321.97C724.797 1326.34 720.208 1333.05 714.922 1341.19ZM721.86 1303.01C718.189 1295.68 714.518 1288.75 717.015 1283.1C720.943 1274.67 728.321 1273.38 735.37 1272.1C741.096 1271.11 747.007 1270.08 750.531 1265.21C755.676 1257.04 759.4 1248.07 761.544 1238.66C765.215 1226.04 768.665 1214.09 779.421 1207.3C794.105 1198.1 806.44 1196.56 818.554 1195.06C835.11 1193.04 850.785 1191.1 868.553 1169.39C891.57 1141.3 908.456 1097 913.779 1050.87C924.498 957.686 869.434 888.159 820.867 826.808C778.357 773.159 741.684 726.807 756.955 676.458C773.254 622.809 818.297 594.756 854.383 594.756C863.216 594.547 871.99 596.251 880.101 599.752C888.213 603.252 895.469 608.466 901.371 615.035C918.441 634.03 925.196 664.393 920.974 703.044C909.961 804.256 913.632 929.23 1042.52 997.878C1082.97 1019.77 1128.3 1031.12 1174.31 1030.88C1234.44 1030.88 1290.24 1012.91 1339.5 997.071C1379.19 984.309 1413.47 973.271 1443.35 973.271C1482.56 973.271 1508.07 992.707 1526.06 1036.35C1570.88 1145.07 1527.79 1235.61 1498.09 1279.88C1450.37 1351.2 1378.82 1393.85 1337.37 1393.85C1324.71 1393.85 1314.87 1390.18 1308.19 1382.85C1244.35 1313.83 1162.63 1278.85 1065.35 1278.85C1033.73 1279.05 1002.2 1282.29 971.193 1288.53C956.913 1291.32 941.385 1293.74 924.975 1296.3C883.2 1302.83 835.881 1310.24 801.374 1325.86C794.032 1329.27 782.395 1340.53 769.106 1353.4C749.576 1372.43 727.44 1394 714.041 1394C712.932 1394 711.828 1393.83 710.774 1393.48C708.309 1392.88 706.024 1391.69 704.109 1390.03C702.193 1388.36 700.703 1386.27 699.761 1383.91C696.09 1372.91 707.323 1355.93 716.354 1342.33C721.787 1334.15 726.449 1327.11 727.367 1322.38C728.799 1316.33 725.274 1309.58 721.86 1303.01Z" fill="#5D5D5D"/>
<path d="M1602.16 1091.02C1608.81 1094.47 1616.26 1096.08 1623.75 1095.68C1633.32 1095.51 1642.82 1093.94 1651.94 1091.02V1088.34C1642.82 1091.28 1633.32 1092.84 1623.75 1092.96C1616.76 1093.34 1609.8 1091.87 1603.56 1088.71C1582.19 1075 1572.46 1050.68 1562.37 1025.01C1553.67 1002.83 1544.67 979.872 1527.16 963.7V962.93H1526.39C1506.31 945.218 1479.22 936.6 1443.61 936.6C1408.88 936.6 1372.36 944.925 1343.03 951.599C1322.95 956.183 1305.66 960.143 1294.5 960.143C1287.96 960.143 1283.96 958.786 1282.31 955.999C1280.14 952.332 1281.79 945.438 1287.23 935.5C1312.59 889.222 1363.8 778.916 1360.28 733.298C1357.49 697.25 1340.16 659.956 1323.39 624.092C1299.12 571.983 1274.05 518.113 1292.29 466.664C1313.14 407.991 1404.96 303.039 1470.3 294.128C1474.35 293.587 1478.43 293.317 1482.52 293.322C1525 293.322 1587.18 318.624 1651.98 355.259V352.545C1587.15 315.874 1525.03 290.755 1482.52 290.755C1478.31 290.751 1474.11 291.021 1469.93 291.561C1403.85 300.582 1310.9 406.561 1289.87 465.821C1271.26 518.26 1296.59 572.606 1321.07 625.155C1337.74 660.946 1354.96 697.91 1357.78 733.481C1360.94 774.185 1316.26 877.34 1285.06 934.29C1278.97 945.291 1277.43 952.625 1280.18 957.319C1282.34 960.986 1287.04 962.71 1294.57 962.71C1306.02 962.71 1323.46 958.713 1343.65 954.129C1373.02 947.455 1409.25 939.167 1443.68 939.167C1478.85 939.167 1505.5 947.675 1525.14 965.167C1542.47 980.972 1551.43 1003.82 1560.09 1025.89C1570.22 1052.04 1579.91 1076.68 1602.16 1091.02Z" fill="#5D5D5D"/>
<path d="M767.235 1302.65C771.154 1303.39 775.143 1303.7 779.129 1303.56C790.325 1303.56 831.771 1301.91 896.38 1280.61C953.899 1262.24 1013.93 1252.91 1074.31 1252.96C1174.24 1252.96 1240.64 1267.92 1326.14 1349.66C1332.72 1355.66 1341.4 1358.81 1350.3 1358.42C1387.48 1358.42 1443.69 1318.09 1478.27 1266.42C1505.28 1226.08 1544.53 1143.83 1503.96 1045.44C1486.45 1003.01 1464.72 997.253 1443.47 997.253C1417.4 997.253 1384.73 1007.74 1346.99 1019.92C1296.11 1036.31 1238.44 1054.86 1174.46 1054.86C1124.47 1055.12 1075.24 1042.78 1031.29 1019C888.12 942.687 886.175 800.588 897.151 700.33C900.565 669.27 895.719 644.701 883.568 631.133C879.911 627.092 875.414 623.899 870.392 621.776C865.37 619.654 859.944 618.655 854.494 618.848C827.292 618.848 793.005 640.85 780.12 683.462C768.483 721.783 801.559 763.551 839.847 811.809C888.781 873.6 949.683 950.462 937.825 1053.51C934.607 1082.39 926.683 1110.56 914.368 1136.9C896.338 1176.24 870.484 1211.51 838.379 1240.56C820.901 1255.64 802.117 1269.14 782.249 1280.9C768.557 1289.41 760.223 1294.51 760.884 1298.43C761.215 1300.34 763.197 1301.62 767.235 1302.65ZM782.983 1282C802.899 1270.24 821.731 1256.75 839.26 1241.66C871.466 1212.49 897.417 1177.1 915.542 1137.63C927.883 1111.18 935.831 1082.91 939.073 1053.91C950.784 950.242 889.846 873.16 840.655 811.223C802.55 763.111 769.658 721.563 781.111 683.792C793.85 641.877 827.623 619.948 854.531 619.948C859.828 619.753 865.103 620.719 869.986 622.778C874.87 624.837 879.242 627.939 882.797 631.866C894.728 645.177 899.464 669.454 896.086 700.184C885.073 800.772 887.019 943.347 1030.81 1019.95C1074.9 1043.84 1124.3 1056.22 1174.46 1055.96C1238.59 1055.96 1296.33 1037.37 1347.36 1020.94C1385.02 1008.8 1417.51 998.354 1443.43 998.354C1464.13 998.354 1485.65 1004.11 1502.86 1045.84C1543.24 1143.75 1504.11 1225.53 1477.17 1265.87C1443.32 1316.29 1386.35 1357.36 1350.11 1357.36C1341.51 1357.74 1333.1 1354.71 1326.73 1348.93C1285.28 1309.29 1246.7 1284.09 1205.37 1269.64C1169.76 1257.21 1130.51 1251.9 1074.13 1251.9C1013.63 1251.84 953.492 1261.18 895.866 1279.58C831.367 1300.85 790.069 1302.54 778.945 1302.54C775.045 1302.66 771.143 1302.35 767.308 1301.62C763.931 1300.74 762.132 1299.68 761.949 1298.43C761.582 1295.2 770.502 1289.67 782.91 1282H782.983Z" fill="#5D5D5D"/>
<path d="M854.568 644.152C834.891 644.152 813.269 664.027 806.184 681.886C801.485 693.73 805.046 713.936 815.729 736.012C825.824 756.804 839.223 772.683 849.135 775.763C850.601 776.195 852.121 776.417 853.65 776.423C855.326 776.432 856.991 776.146 858.569 775.58C871.344 771.142 871.05 763.295 870.426 746.243C869.64 731.284 870.057 716.287 871.674 701.395C874.611 674.735 870.426 654.419 864.773 648.149C863.512 646.721 861.928 645.614 860.154 644.919C858.379 644.224 856.464 643.961 854.568 644.152V644.152ZM870.022 701.101C868.405 716.079 867.988 731.162 868.774 746.206C869.398 763.442 869.655 769.859 858.128 773.856C855.449 774.756 852.548 774.756 849.869 773.856C840.398 770.996 827.439 755.521 817.564 735.058C807.102 713.459 803.541 693.767 808.056 682.399C814.921 665.127 835.809 645.728 854.751 645.728C856.378 645.546 858.026 645.745 859.562 646.312C861.098 646.879 862.481 647.797 863.598 648.992C868.774 655.226 872.702 674.955 870.022 701.101Z" fill="#5D5D5D"/>
<path d="M682.361 -145.664H679.645C673.721 -124.344 669.728 -102.535 667.714 -80.5002C663.639 -39.1356 660.042 15.0271 668.522 67.2462C674.689 105.274 687.097 122.252 708.902 122.252C722.705 122.252 738.747 115.578 757.323 107.841C770.529 102.028 784.075 97.0197 797.887 92.8424L801.998 91.7056C842.636 80.7044 888.45 79.3109 937.054 87.1585C950.22 89.5431 963.246 92.6403 976.076 96.4362C994.725 101.57 1014 106.887 1033.56 107.767C1041.54 108.63 1049.62 107.509 1057.06 104.504C1072.7 96.7296 1065.1 77.3307 1057.06 56.8318C1052.32 44.6571 1047.4 32.1157 1046.6 20.8211C1042.3 -38.9889 1075.74 -93.555 1120.02 -145.628H1116.64C1072.77 -93.6284 1039.73 -39.0623 1044.06 21.0044C1044.87 32.6657 1049.86 45.4271 1054.71 57.6752C1062.64 77.9541 1069.39 95.446 1055.96 102.157C1048.89 104.93 1041.26 105.961 1033.71 105.164C1014.44 104.32 995.312 99.0398 976.81 93.9426C963.885 90.1138 950.76 86.9922 937.494 84.5915C888.523 76.6706 842.342 78.2108 801.374 89.212L797.226 90.3488C783.262 94.5448 769.568 99.5903 756.221 105.457C737.866 113.085 722.081 119.685 708.792 119.685C688.675 119.685 677.038 103.367 671.091 66.8062C662.685 14.9171 666.246 -39.0256 670.32 -80.2436C672.323 -102.372 676.354 -124.271 682.361 -145.664V-145.664Z" fill="#5D5D5D"/>
<path d="M649.434 880.531C647.679 878.641 645.286 877.465 642.716 877.23C637.576 877.23 633.979 883.758 628.546 893.622C621.373 907.554 612.387 920.476 601.821 932.053L597.893 936.234C582.585 952.442 575.574 959.85 577.299 963.81C578.07 965.607 580.456 966.414 584.971 966.414C591.319 966.192 597.645 965.567 603.914 964.543C607.818 964 611.755 963.73 615.697 963.737C647.525 963.737 674.066 981.559 693.449 994.577C704.792 1002.2 713.749 1008.22 720.173 1008.22C721.439 1008.25 722.693 1007.97 723.83 1007.42C724.968 1006.86 725.955 1006.04 726.708 1005.03C747.045 978.955 675.938 904.55 649.434 880.531ZM725.276 1003.93C724.684 1004.71 723.912 1005.35 723.024 1005.78C722.136 1006.2 721.159 1006.41 720.173 1006.38C714.3 1006.38 705.489 1000.52 694.477 993.073C674.91 979.908 648.075 961.903 615.697 961.903C611.669 961.889 607.644 962.171 603.657 962.747C597.472 963.741 591.232 964.354 584.971 964.58C581.3 964.58 579.428 964.103 578.988 963.077C577.739 960.216 586.33 951.159 599.215 937.407L603.143 933.337C613.833 921.673 622.92 908.638 630.161 894.576C635.3 885.261 638.678 879.101 642.716 879.101C644.834 879.342 646.791 880.346 648.222 881.924C681.114 911.738 743.301 980.789 725.276 1003.93Z" fill="#5D5D5D"/>
<path d="M649.946 911.114C637.098 911.114 620.578 931.356 620.578 940.964C620.523 941.842 620.662 942.721 620.986 943.539C621.31 944.357 621.81 945.094 622.452 945.696C623.094 946.299 623.861 946.752 624.698 947.025C625.535 947.297 626.422 947.381 627.296 947.271C646.202 947.601 666.209 959.593 680.819 968.357C689.483 973.528 695.723 977.268 699.431 977.268C699.953 977.297 700.476 977.213 700.963 977.023C701.451 976.834 701.892 976.542 702.258 976.168C702.717 975.57 703.046 974.883 703.223 974.15C703.4 973.417 703.421 972.656 703.285 971.914C701.927 954.312 668.411 918.998 654.829 912.214C653.314 911.46 651.639 911.082 649.946 911.114V911.114ZM700.606 972.134C700.606 973.674 700.606 974.224 700.238 974.444C699.871 974.665 699.982 974.701 699.321 974.701C696.347 974.701 689.703 970.741 682.03 966.157C667.347 957.246 646.826 945.071 627.223 944.705C624.286 944.705 623.001 943.531 623.038 941.037C623.038 932.456 638.493 913.718 649.946 913.718C651.216 913.7 652.472 913.976 653.617 914.524C668.117 921.822 699.394 956.146 700.606 972.134V972.134Z" fill="#5D5D5D"/>
<path d="M604.537 578.511C607.694 578.511 610.19 574.037 612.687 563.843C621.901 526.438 652.333 476.86 699.579 450.53C747.301 423.87 779.312 416.94 796.419 413.236C804.936 411.366 809.194 410.449 810.222 408.212C810.409 407.712 810.473 407.175 810.409 406.645C810.345 406.116 810.155 405.609 809.855 405.168C806.551 399.118 747.448 366.004 662.061 359.146L658.39 358.853C650.718 358.23 644.073 357.68 637.723 357.68C615.513 357.68 597.562 363.877 555.713 399.191C549.105 404.765 542.351 409.935 535.816 414.959C515.589 430.471 498.115 443.819 499.107 458.964C499.988 470.626 511.514 482.177 535.486 495.378C561.99 510.047 578.143 538.943 588.825 558.085C595.837 570.48 600.315 578.511 604.537 578.511ZM536.22 494.682C512.946 481.847 501.236 470.222 500.428 459.111C499.327 444.443 516.58 431.314 536.551 416.023C543.122 410.999 549.876 405.828 556.521 400.218C598.076 365.124 615.844 358.963 637.796 358.963C644.11 358.963 650.718 359.513 658.39 360.137L662.061 360.43C745.319 367.141 805.817 400.144 808.9 405.865C809.561 407.002 809.414 407.589 809.267 407.919C808.46 409.679 803.871 410.669 796.235 412.319C779.055 415.986 747.044 422.99 699.101 449.76C651.158 476.53 620.873 526.292 611.585 563.769C609.346 572.937 607.033 577.411 604.537 577.411C600.866 577.411 596.13 568.756 589.853 557.792C579.281 538.54 563.018 509.423 536.22 494.682Z" fill="#5D5D5D"/>
<path d="M611.474 641.475C614.668 641.475 616.871 637.808 618.412 629.447C627.957 578.951 648.588 507.443 717.529 469.269C740.795 456.734 765.531 447.138 791.169 440.702C797.514 438.458 803.471 435.241 808.826 431.168C816.425 426.034 824.317 420.753 831.586 420.753C832.411 420.754 833.234 420.827 834.046 420.973C837.792 421.874 841.251 423.702 844.104 426.291C846.998 429.155 850.802 430.919 854.86 431.278C856.602 431.26 858.324 430.899 859.926 430.214C862.602 428.975 864.804 426.904 866.203 424.31C867.077 422.338 868.572 420.705 870.461 419.659C872.349 418.613 874.528 418.212 876.666 418.516C882.869 419.03 886.21 423.76 889.734 428.748C891.911 432.383 894.871 435.49 898.398 437.842C901.985 439.757 905.969 440.811 910.035 440.922C911.178 441.049 912.335 440.907 913.412 440.505C914.49 440.104 915.458 439.456 916.239 438.612C916.805 437.692 917.149 436.654 917.245 435.578C917.341 434.503 917.185 433.42 916.789 432.415C914.403 423.76 895.828 415.693 883.567 410.412C879.896 408.835 876.776 407.442 874.793 406.378C856.438 396.697 838.084 388.52 822.812 381.772C757.763 353.352 698.476 336.007 641.54 328.746C635.905 327.99 630.228 327.586 624.543 327.536C596.497 327.536 574.764 339.784 531.52 379.975C520.911 389.803 509.972 398.311 499.436 406.488C475.758 424.824 457.073 439.492 457.513 457.534C457.881 471.909 470.399 487.237 496.866 505.756C539.523 535.606 567.863 580.895 586.585 610.855C598.369 629.263 605.931 641.475 611.474 641.475ZM497.674 504.839C471.463 486.504 459.129 471.469 458.762 457.461C458.358 439.785 476.823 425.447 500.244 407.295C510.816 399.118 521.756 390.61 532.401 380.746C575.425 340.774 596.974 328.6 624.69 328.6C630.326 328.649 635.954 329.053 641.54 329.81C698.366 337.144 757.579 354.343 822.519 382.726C837.937 389.473 856.145 397.651 874.426 407.332C876.445 408.395 879.602 409.789 883.273 411.366C895.351 416.646 913.632 424.567 915.872 432.708C916.22 433.551 916.368 434.463 916.304 435.373C916.241 436.283 915.967 437.166 915.504 437.952C914.805 438.629 913.967 439.146 913.048 439.469C912.129 439.792 911.151 439.912 910.182 439.822C906.336 439.688 902.571 438.685 899.169 436.888C895.79 434.614 892.956 431.621 890.872 428.124C887.201 423.137 883.53 417.966 876.996 417.416C874.661 417.096 872.285 417.532 870.217 418.661C868.148 419.789 866.497 421.551 865.506 423.687C864.544 425.63 863.058 427.267 861.217 428.413C859.375 429.56 857.25 430.171 855.08 430.178C851.274 429.794 847.713 428.125 844.985 425.447C841.996 422.736 838.373 420.82 834.449 419.873C833.576 419.726 832.692 419.652 831.806 419.653C824.171 419.653 816.168 425.044 808.422 430.251C803.197 434.282 797.36 437.452 791.132 439.639C765.391 446.095 740.556 455.728 717.198 468.315C647.743 506.71 626.966 578.548 617.384 629.227C615.99 636.561 614.081 640.228 611.548 640.228C606.592 640.228 598.699 627.576 587.76 610.084C569.001 580.198 540.478 534.799 497.674 504.839Z" fill="#5D5D5D"/>
<path d="M747.081 1101.58C759.981 1099.78 772.233 1094.81 782.749 1087.14C793.266 1079.46 801.719 1069.31 807.359 1057.58C817.858 1035.83 823.548 998.903 790.95 946.721C776.963 924.278 761.582 901.653 746.898 879.76C704.682 817.126 664.815 758.013 648.332 698.68C629.72 631.572 644.661 576.2 695.394 524.457C739.446 479.645 797.374 453.939 854.678 453.939C897.738 453.939 936.173 469.084 962.861 496.551C992.229 526.731 1006.91 570.919 1005.26 624.275C1004.89 636.67 1004.31 649.468 1003.68 663.036C1001.44 711.221 998.947 765.714 1006.73 811.259C1015.69 863.515 1036.94 895.785 1071.67 909.94C1088.25 917.071 1106.05 920.943 1124.09 921.345C1138.26 921.5 1152.26 918.206 1164.87 911.746C1177.49 905.287 1188.34 895.857 1196.48 884.271C1226.99 843.016 1234.29 772.388 1214.65 708.471C1172.55 571.396 1071.49 489.583 921.673 401.977C808.02 335.603 712.17 314.994 625.132 302.599C619.053 301.706 612.92 301.241 606.777 301.205C570.544 301.205 553.254 319.541 531.411 343.01C523.005 351.958 514.341 361.346 503.585 370.697C493.399 379.465 482.439 387.296 470.84 394.092C455.532 403.48 442.317 411.584 427.78 433.294C398.926 476.382 437.545 502.968 478.403 530.801C500.025 545.469 522.454 560.908 534.312 578.986C609.493 692.666 579.171 814.156 525.685 889.808C510.414 911.444 488.094 931.869 464.453 953.468C435.562 979.908 405.717 1007.26 388.611 1037.81C381.269 1050.94 379.176 1059.81 382.223 1065.06C384.462 1068.72 389.565 1070.7 397.311 1070.7C411.407 1070.7 433.8 1064.87 459.717 1058.13C496.097 1048.63 541.36 1036.86 581.373 1036.86C599.927 1036.37 618.371 1039.84 635.484 1047.02C649.39 1053.95 662.426 1062.51 674.323 1072.5C693.926 1087.76 712.464 1102.13 738.675 1102.13C741.485 1102.11 744.292 1101.93 747.081 1101.58V1101.58ZM635.924 1045.95C618.705 1038.76 600.135 1035.37 581.484 1036.01C541.323 1036.01 495.987 1047.82 459.534 1057.32C433.653 1064.07 411.334 1069.86 397.384 1069.86C390.042 1069.86 385.27 1068.21 383.251 1064.76C380.388 1059.92 382.48 1051.38 389.638 1038.62C406.635 1008.25 436.443 980.971 465.297 954.568C488.975 932.933 511.331 912.47 526.676 890.761C557.482 847.721 575.927 797.088 580.015 744.335C584.163 685.662 569.002 629.849 535.156 578.51C523.078 560.174 500.649 544.883 478.953 530.031C438.573 502.345 400.358 476.198 428.624 434.027C443.051 412.538 456.156 404.47 471.318 395.156C483.03 388.351 494.09 380.483 504.356 371.65C514.138 362.868 523.462 353.59 532.293 343.854C553.951 320.714 571.095 302.416 606.85 302.416C612.932 302.44 619.004 302.893 625.021 303.772C711.767 316.057 807.652 336.776 921.159 403.04C1070.6 490.5 1171.67 572.202 1213.7 708.911C1233.23 772.498 1226 842.723 1195.67 883.721C1187.63 895.175 1176.92 904.499 1164.46 910.889C1152 917.278 1138.17 920.54 1124.16 920.391C1106.27 919.996 1088.62 916.148 1072.18 909.06C1037.82 895.052 1016.79 863.075 1007.9 811.222C1000.12 765.897 1002.62 711.368 1004.86 663.219C1005.48 649.688 1006.07 636.853 1006.44 624.458C1008.05 570.809 993.294 526.327 963.742 496.111C936.834 468.424 898.142 453.169 854.751 453.169C797.154 453.169 738.822 478.839 694.697 524.017C667.752 551.52 651.085 579.867 643.817 610.743C637.319 638.283 638.457 667.253 647.488 699.303C664.007 758.783 703.911 818.007 746.2 880.677C760.884 902.679 776.229 925.232 790.252 947.638C822.593 999.417 816.977 1035.94 806.588 1057.43C801.023 1068.97 792.689 1078.96 782.327 1086.51C771.964 1094.06 759.895 1098.94 747.191 1100.7C744.438 1101.02 741.668 1101.18 738.895 1101.18C713.198 1101.18 694.843 1086.91 675.204 1071.84C663.182 1061.69 649.997 1053 635.924 1045.95V1045.95Z" fill="#5D5D5D"/>
<path d="M771.161 1056.11C775.868 1052.74 779.797 1048.4 782.685 1043.38C785.572 1038.37 787.351 1032.79 787.901 1027.03C792.306 990.947 760.295 938.361 731.515 904.294C695.649 861.755 660.041 816.284 642.64 772.279C641.087 767.005 639.8 761.657 638.786 756.254C633.206 730.144 623.808 686.579 610.262 686.579C608.959 686.626 607.692 687.018 606.591 687.716C600.975 691.053 599.249 697.617 601.525 707.775C603.921 716.85 607.141 725.687 611.143 734.178C614.998 743.126 618.485 750.863 618.302 755.264C618.302 766.595 612.869 771.582 607.766 776.423C603.081 780.074 599.707 785.143 598.148 790.871C596.239 799.599 599.837 806.163 603.324 812.507C606.812 818.851 609.895 824.388 608.831 832.199C606.885 846.537 561.438 898.206 521.351 943.825C488.312 981.559 459.532 1014.16 460.046 1020.39C460.054 1020.6 460.104 1020.81 460.193 1020.99C460.281 1021.18 460.406 1021.35 460.56 1021.49C463.313 1023.77 468.269 1024.87 475.794 1024.87C491.728 1024.06 507.588 1022.16 523.26 1019.18C546.424 1015.52 572.671 1011.26 595.468 1011.26C613.272 1011.26 626.598 1013.79 636.179 1019C641.429 1021.82 647.192 1025.2 653.359 1028.75C680.745 1044.67 714.812 1064.43 743.666 1064.43C753.487 1064.68 763.127 1061.76 771.161 1056.11V1056.11ZM636.546 1018.08C626.782 1012.77 613.309 1010.2 595.321 1010.2C572.451 1010.2 546.13 1014.42 522.93 1018.12C507.321 1021.12 491.522 1023.01 475.648 1023.8V1023.8C468.306 1023.8 463.643 1022.78 460.964 1020.69C460.964 1020.69 460.964 1020.69 460.964 1020.36C460.486 1014.56 490.331 980.569 522.012 944.595C562.209 898.866 607.729 847.051 609.712 832.382C610.85 824.241 607.436 818.007 604.132 811.993C600.828 805.979 597.23 799.452 599.029 791.128C600.539 785.624 603.799 780.759 608.317 777.266C613.603 772.279 619.073 767.108 619.33 755.264C619.33 750.606 615.989 742.796 611.988 733.701C608.037 725.273 604.843 716.511 602.443 707.518C600.351 697.874 601.819 691.676 607.032 688.596C608.005 687.997 609.12 687.668 610.262 687.643C622.927 687.643 632.545 732.491 637.721 756.547C638.735 762.014 640.034 767.424 641.612 772.756C659.086 816.76 694.768 862.306 730.67 904.77C759.304 938.691 791.168 990.947 786.836 1026.66C786.289 1032.28 784.549 1037.71 781.731 1042.6C778.914 1047.49 775.085 1051.72 770.5 1055.01C762.613 1060.54 753.154 1063.4 743.519 1063.15C714.958 1063.15 681.112 1043.46 653.763 1027.65C647.633 1024.28 641.796 1020.91 636.546 1018.08Z" fill="#5D5D5D"/>
<path d="M758.607 1010.09C761.874 979.908 729.459 932.493 713.27 914.267C691.872 890.014 671.752 864.665 652.993 838.322C640.181 820.757 633.133 811.076 628.581 811.076C625.46 811.076 623.735 815.11 622.671 825.011C614.668 899.672 566.321 940.12 537.43 964.36C524.802 974.921 516.432 981.925 516.102 987.682C516.053 988.513 516.181 989.345 516.479 990.123C516.776 990.901 517.236 991.606 517.827 992.193C520.471 995.016 524.655 996.3 531.006 996.3C539.927 995.808 548.792 994.582 557.511 992.633C572.166 989.551 587.069 987.796 602.04 987.389C623.405 987.389 640.622 992.706 654.755 1003.63C674.578 1019.04 703.983 1035.5 726.963 1035.5C734.503 1035.74 741.92 1033.54 748.108 1029.23C751.137 1026.99 753.644 1024.11 755.456 1020.81C757.268 1017.5 758.343 1013.85 758.607 1010.09V1010.09ZM726.853 1034.4C704.166 1034.4 675.019 1018.08 655.306 1002.79C640.989 991.789 623.552 986.289 601.93 986.289C586.894 986.695 571.928 988.475 557.217 991.606C548.56 993.551 539.756 994.778 530.896 995.273C528.692 995.542 526.457 995.355 524.329 994.724C522.201 994.093 520.225 993.032 518.525 991.606C518.035 991.135 517.653 990.563 517.406 989.93C517.158 989.296 517.052 988.617 517.093 987.939C517.387 982.658 526.05 975.397 538.055 965.386C567.055 941.11 615.586 900.516 623.662 825.414C624.616 816.43 626.121 812.433 628.471 812.433C632.472 812.433 639.814 822.517 651.965 839.239C670.817 865.512 691.01 890.8 712.463 915.001C728.542 933.116 760.736 980.128 757.506 1009.98C757.25 1013.58 756.219 1017.08 754.483 1020.24C752.747 1023.41 750.347 1026.16 747.447 1028.31C741.415 1032.5 734.194 1034.63 726.853 1034.4Z" fill="#5D5D5D"/>
<path d="M1072.26 708.361C1068.58 765.714 1084.96 805.172 1101.62 822.994C1109.26 831.172 1117.67 835.645 1125.23 835.645C1135.91 835.645 1143.95 827.248 1147.84 812.029C1172.91 713.825 1087.53 610.34 1077.06 601.686C1074.02 599.192 1071.96 598.899 1070.6 600.366C1068.14 603.043 1068.91 611.807 1070.31 627.685C1073.08 654.485 1073.73 681.46 1072.26 708.361V708.361ZM1071.93 601.613C1072 601.516 1072.09 601.439 1072.2 601.388C1072.31 601.337 1072.43 601.313 1072.55 601.319C1073.06 601.319 1074.05 601.613 1075.85 603.116C1086.24 611.697 1170.89 714.265 1146.04 811.553C1142.37 825.928 1135.03 833.812 1125.19 833.812C1118.14 833.812 1110.21 829.521 1102.94 821.747C1086.5 804.219 1070.27 765.237 1074.02 708.471C1075.5 681.485 1074.86 654.425 1072.11 627.539C1070.97 613.677 1070.09 603.666 1071.93 601.613Z" fill="#5D5D5D"/>
<path d="M1519.97 63.4691C1491.26 63.4691 1459.43 68.8964 1425.77 74.4704C1385.39 81.3278 1343.95 88.4419 1298.61 88.4419C1295.27 88.4419 1291.96 88.4419 1288.84 88.4419L1280.84 88.2219C1273.98 88.2219 1267.52 87.8552 1261.28 87.8552C1222.22 87.8552 1198.06 95.8128 1182.09 137.727C1172.03 164.24 1160.62 194.31 1133.19 213.673C1125.45 219.173 1117.7 223.83 1110.84 227.974C1094.98 237.545 1082.46 245.099 1081.98 255.551C1081.58 265.158 1091.27 276.673 1113.52 292.991C1134.81 308.613 1152.36 316.204 1167.11 316.204C1168.44 316.204 1169.79 316.204 1171.08 316.021C1192.52 314.004 1206.91 296.328 1225.12 273.923C1234.07 262.521 1243.63 251.602 1253.75 241.212C1300.81 193.956 1359.1 159.387 1423.17 140.734C1448.59 133.302 1474.94 129.451 1501.43 129.293C1563.84 129.293 1612.07 151.846 1651.94 177.919V176.598C1612.07 150.599 1563.84 128.193 1501.43 128.193C1474.84 128.372 1448.4 132.247 1422.87 139.708C1358.62 158.399 1300.16 193.071 1252.98 240.479C1242.83 250.882 1233.24 261.826 1224.27 273.263C1206.21 295.448 1191.97 313.014 1170.97 314.957C1169.72 314.957 1168.4 314.957 1167.11 314.957C1152.61 314.957 1135.29 307.403 1114.14 291.928C1092.12 275.903 1082.68 264.645 1083.09 255.441C1083.53 245.576 1095.86 238.169 1111.43 228.781C1118.29 224.637 1126.11 219.943 1133.86 214.443C1161.53 194.86 1172.99 164.644 1183.12 137.984C1198.83 96.6562 1222.73 88.8086 1261.28 88.8086C1267.52 88.8086 1273.98 88.8087 1280.8 89.1754L1288.81 89.3954C1291.96 89.3954 1295.23 89.3954 1298.61 89.3954C1344.02 89.3954 1385.68 82.2813 1425.96 75.4238C1459.58 69.7032 1491.34 64.4226 1519.97 64.4226C1534.93 64.2145 1549.84 66.1031 1564.28 70.0332C1592.73 78.1741 1621.88 91.4856 1651.94 106.997V105.751C1621.99 90.3121 1592.95 77.074 1564.57 69.0798C1550.04 65.1475 1535.03 63.2591 1519.97 63.4691V63.4691Z" fill="#5D5D5D"/>
<path d="M1043.84 705.061C1039.58 760.691 1050.6 805.722 1074.82 831.832C1087.49 845.51 1103.05 853.028 1118.66 853.028C1140.9 853.028 1158.71 837.589 1163.99 813.717C1179.45 744.042 1155.51 681.078 1132.72 640.704C1105.95 593.215 1071.67 559.662 1055.19 548.66C1049.13 544.663 1044.91 542.17 1042.3 542.17C1041.88 542.157 1041.46 542.236 1041.08 542.4C1040.69 542.565 1040.34 542.811 1040.06 543.123C1037.93 545.507 1038.81 552.291 1040.54 565.822C1046.75 611.973 1047.86 658.668 1043.84 705.061V705.061ZM1040.87 543.71C1041.05 543.51 1041.27 543.353 1041.52 543.251C1041.76 543.149 1042.03 543.106 1042.3 543.123C1044.61 543.123 1048.87 545.653 1054.56 549.43C1091.82 574.257 1190.79 687.349 1162.89 813.46C1157.72 836.819 1140.35 851.928 1118.84 851.928C1103.57 851.928 1088.26 844.593 1075.82 831.099C1051.77 805.172 1040.91 760.471 1045.13 705.134C1049.15 658.704 1048.03 611.971 1041.79 565.786C1040.06 553.318 1039.11 545.873 1040.87 543.856V543.71Z" fill="#5D5D5D"/>
<path d="M1022.73 708.655C1018.48 777.889 1031.76 832.602 1060.07 862.672C1074.75 878.22 1092.52 886.471 1111.46 886.471C1147.8 886.471 1178.57 857.135 1188.07 813.386C1202.06 748.883 1190.02 685.442 1152.32 624.715C1114.1 563.218 1061.24 523.467 1033.12 505.242C1018.81 495.964 1012.68 492.077 1010.33 494.901C1007.98 497.724 1009.67 503.922 1012.16 517.197C1017.67 545.983 1029.01 605.83 1022.73 708.655ZM1011.21 495.598C1011.37 495.417 1011.58 495.277 1011.81 495.188C1012.04 495.099 1012.28 495.064 1012.53 495.084C1015.5 495.084 1021.93 499.265 1032.57 506.085C1126.26 566.812 1216.12 679.391 1187.01 813.056C1177.65 856.255 1147.29 885.298 1111.5 885.298C1092.81 885.298 1075.3 877.194 1060.88 861.865C1032.76 832.015 1019.61 777.522 1023.84 708.655C1030.11 605.72 1018.77 545.727 1013.3 516.903C1010.99 504.875 1009.52 497.541 1011.21 495.598V495.598Z" fill="#5D5D5D"/>
<path d="M600.278 478.619C610.667 478.619 618.119 468.608 625.975 453.573C639.924 427.317 668.962 414.592 684.71 407.771C692.603 404.324 695.723 403.041 695.173 400.877C694.622 398.713 692.823 398.273 682.03 397.54C649.506 395.34 576.527 426.327 568.23 449.649C567.241 452.136 567.116 454.882 567.875 457.449C568.634 460.015 570.232 462.253 572.415 463.804C584.933 474.182 593.303 478.472 600.425 478.472L600.278 478.619ZM570.506 450.529C578.179 429.224 646.018 399.997 678.543 399.997C679.681 399.997 680.782 399.997 681.81 399.997C685.292 400.094 688.757 400.512 692.162 401.244C689.409 402.772 686.565 404.132 683.646 405.314C667.714 412.282 638.126 425.19 623.809 452.253C614.778 469.305 608.17 475.942 600.278 475.942C593.817 475.942 585.924 471.688 573.884 461.714C572.13 460.503 570.841 458.733 570.227 456.694C569.614 454.655 569.712 452.468 570.506 450.493V450.529Z" fill="#5D5D5D"/>
<path d="M632.217 477.262C657.216 431.754 702.92 415.876 739.923 407.111C743.594 406.268 743.814 404.434 743.594 403.444C742.75 396.11 708.096 381.845 656.372 381.845C650.535 381.845 644.551 381.845 638.604 382.395C615 383.825 559.274 416.756 539.231 441.068C534.018 447.412 531.668 452.656 532.219 456.727C533.614 466.848 542.645 471.395 553.07 476.529C564.083 482.03 576.675 488.264 582.768 502.785C586.439 511.256 590.991 515.547 596.608 515.547C606.299 515.583 618.23 502.675 632.217 477.262ZM584.494 502.125C578.143 486.98 565.295 480.563 553.951 474.916C543.966 469.965 535.339 465.674 534.091 456.58C533.614 453.096 535.89 448.183 540.699 442.352C560.486 418.259 615.477 385.696 638.788 384.302C644.661 383.935 650.608 383.752 656.408 383.752C707.251 383.752 741.134 397.797 741.832 403.738C741.832 404.654 740.4 405.168 739.446 405.388C702.075 414.262 655.931 430.324 630.565 476.456C609.383 514.703 593.708 523.981 584.53 502.125H584.494Z" fill="#5D5D5D"/>
<path d="M1115.21 791.714C1117.11 791.714 1118.88 790.393 1120.24 787.717C1127.39 774.332 1127.25 727.98 1108.3 699.707C1105.81 696.04 1102.25 696.516 1099.57 701.137C1092.45 713.385 1089.47 752.476 1108.86 786.323C1110.91 789.917 1113.04 791.714 1115.21 791.714ZM1101.84 702.494C1102.76 700.88 1103.79 699.89 1104.56 699.89C1105.33 699.89 1105.88 700.734 1106.18 701.21C1124.35 728.2 1124.71 773.928 1118 786.506C1117.11 788.23 1116.12 789.147 1115.24 789.147C1114.36 789.147 1112.6 787.68 1111.13 785.113C1092.48 752.476 1095.16 713.972 1101.84 702.494V702.494Z" fill="#5D5D5D"/>
<path d="M1354 904.256C1356.61 907.924 1363.03 909.61 1375.41 909.61C1383.11 909.61 1392.37 909.024 1403.05 908.29C1416.26 907.41 1431.28 906.42 1446.77 906.42C1495.89 906.42 1528.96 916.835 1551.03 939.424C1571.55 955.192 1582.89 980.898 1592.87 1003.6C1604.99 1031.17 1615.49 1054.94 1638.65 1054.94C1641.24 1054.91 1643.83 1054.63 1646.36 1054.09C1648.12 1053.73 1650.03 1053.25 1651.94 1052.66V1050.68C1649.99 1051.31 1648 1051.83 1645.99 1052.22C1643.58 1052.75 1641.12 1053.02 1638.65 1053.03C1616.63 1053.03 1606.42 1029.71 1594.6 1002.75C1584.5 979.872 1573.09 953.909 1552.31 937.957C1529.95 915.221 1496.44 904.623 1446.81 904.623C1431.24 904.623 1416.23 905.613 1402.97 906.493C1392.29 907.227 1383.11 907.814 1375.44 907.814C1364.03 907.814 1357.71 906.347 1355.55 903.23C1354.96 902.135 1354.65 900.913 1354.65 899.673C1354.65 898.432 1354.96 897.21 1355.55 896.116C1378.93 833.775 1398.46 754.823 1396.59 730.51C1393.28 687.936 1374.56 647.708 1356.43 608.8C1334.4 561.128 1313.33 516.316 1326.62 478.839C1344.97 426.766 1429.41 336.373 1475.29 330.139C1477.73 329.829 1480.18 329.682 1482.63 329.699C1518.24 329.699 1580.98 355.148 1652.09 397.246V395.12C1581.05 353.205 1518.35 327.865 1482.63 327.865C1480.11 327.852 1477.58 327.999 1475.07 328.305C1428.82 334.613 1343.58 425.74 1324.93 478.216C1311.38 516.39 1332.45 561.678 1354.77 609.57C1372.84 648.331 1391.48 688.412 1394.79 730.584C1396.44 751.889 1378.93 828.531 1353.89 895.419C1353.16 896.782 1352.79 898.307 1352.81 899.852C1352.83 901.397 1353.24 902.912 1354 904.256V904.256Z" fill="#5D5D5D"/>
<path d="M1519.97 88.7721C1493.43 88.7721 1462.63 94.016 1430.03 99.7733C1388.77 106.777 1346.07 114.075 1298.61 114.075C1295.12 114.075 1291.67 114.075 1288.26 114.075H1280.14C1273.5 114.075 1267.18 113.708 1261.27 113.708C1209.88 113.708 1207.31 141.945 1204.59 171.831C1203.13 188.26 1201.62 205.202 1192.55 219.503C1189.32 224.637 1180.66 231.165 1171.48 238.059C1151.92 252.727 1129.74 269.376 1140.39 284.961C1142.03 287.894 1144.4 290.359 1147.27 292.124C1150.13 293.889 1153.4 294.894 1156.76 295.045C1160.62 294.914 1164.4 293.871 1167.77 292.001C1185.14 283.054 1203.68 256.578 1218.58 235.308C1227.06 223.244 1234.37 212.829 1238.37 210.446C1242.32 208.336 1246.78 207.346 1251.25 207.585H1255.95C1257.53 207.585 1259.14 207.585 1260.76 207.585C1264.06 207.861 1267.38 207.478 1270.54 206.458C1273.69 205.438 1276.6 203.802 1279.11 201.645C1286.05 195.301 1286.93 186.976 1287.78 179.202C1288.55 172.088 1289.25 165.377 1293.98 159.693C1308.3 142.641 1358.52 130.687 1391.74 122.766C1401.54 120.456 1410.1 118.439 1416.26 116.642C1443.92 108.484 1472.59 104.226 1501.43 103.99C1562.81 103.99 1611.89 124.086 1651.94 147.995V145.868C1611.85 121.922 1562.77 101.864 1501.43 101.864C1472.4 102.039 1443.54 106.26 1415.67 114.405C1409.43 116.202 1400.99 118.072 1391.26 120.529C1355.8 128.963 1307.23 140.515 1292.51 158.043C1287.41 164.131 1286.64 171.465 1285.87 178.542C1285.02 186.463 1284.25 193.944 1277.79 199.811C1273.09 203.801 1266.99 205.765 1260.83 205.275C1259.24 205.275 1257.66 205.275 1256.1 205.275H1251.33C1246.51 205.01 1241.72 206.089 1237.49 208.392C1233.15 210.959 1226.11 221.044 1217.15 233.805C1203.16 253.791 1184.11 281.147 1167.04 289.875C1156.69 295.192 1148.5 293.138 1141.89 283.421C1132.24 269.302 1153.68 253.24 1172.58 239.049C1182.31 231.715 1190.72 225.444 1194.13 220.017C1203.38 205.348 1204.92 188.04 1206.43 171.428C1209.18 141.138 1211.53 114.955 1261.27 114.955C1267.18 114.955 1273.46 115.138 1280.11 115.322H1288.18C1291.63 115.322 1295.12 115.322 1298.61 115.322C1346.33 115.322 1388.99 107.988 1430.36 100.983C1462.85 95.4462 1493.57 90.2023 1519.97 90.2023C1532.51 89.9968 1545.01 91.5521 1557.12 94.8228C1587.11 103.367 1618.79 118.585 1651.94 136.151V134.061C1618.9 117.045 1587.51 102.01 1557.63 93.576C1545.36 90.2257 1532.69 88.6087 1519.97 88.7721Z" fill="#5D5D5D"/>
<path d="M1409.43 856.328C1416.26 866.119 1430.69 867.329 1450.66 868.759L1457.34 869.272C1463.66 869.786 1470.26 870.042 1477.24 870.262C1509.69 871.363 1546.47 872.646 1579.69 902.863L1580.1 903.23C1598.45 919.328 1609.47 947.711 1619.16 972.904C1628.85 998.097 1637.29 1019.92 1650.69 1019.92C1651.1 1019.92 1651.54 1019.92 1651.94 1019.92V1018.82C1651.54 1018.82 1651.1 1018.82 1650.69 1018.82C1638.06 1018.82 1629.77 997.363 1620.19 972.501C1610.6 947.638 1599.44 918.668 1580.83 902.533L1580.43 902.166C1546.91 871.693 1509.91 870.409 1477.27 869.162C1470.3 868.942 1463.69 868.686 1457.41 868.172L1450.73 867.659C1431.06 866.155 1416.89 865.092 1410.35 855.704C1403.82 846.316 1405.03 830.035 1413.18 801.798C1420.44 778.067 1423.34 753.219 1421.73 728.457C1418.06 681.335 1398.35 639.017 1379.26 598.055C1359.36 555.334 1340.57 514.959 1350.41 487.236C1366.78 441.068 1445.85 359.585 1478.6 355.222C1479.89 355.075 1481.19 355.001 1482.49 355.002C1509.84 355.002 1571.69 377.774 1651.94 426.84V425.556C1571.77 376.527 1509.91 353.938 1482.49 353.938C1481.14 353.919 1479.79 353.992 1478.45 354.158C1445.41 358.632 1365.82 440.554 1349.34 486.98C1339.36 515.106 1358.26 555.664 1378.3 598.642C1397.32 639.493 1417 681.738 1420.63 728.677C1422.24 753.328 1419.36 778.067 1412.11 801.688C1403.78 830.658 1402.97 847.16 1409.43 856.328Z" fill="#5D5D5D"/>
<path d="M740.069 1188.09C794.73 1181.89 859.816 1116.98 877.253 1067.4C907.575 981.339 853.722 912.031 801.631 844.997C751.339 780.309 703.873 719.216 726.963 644.811C747.08 580.014 812.057 545.03 862.973 545.03C890.432 545.03 914.146 554.748 929.822 572.423C948.433 593.399 955.739 625.229 950.966 664.54C934.557 799.635 929.675 947.381 1080.41 990.91C1096.89 995.778 1113.98 998.309 1131.17 998.427C1194.61 998.427 1235.14 962.123 1257.93 931.65C1301.65 873.233 1316.85 785.883 1295.71 714.229C1277.79 653.502 1242.52 594.572 1187.93 534.139C1106.73 444.295 996.193 367.067 849.941 298.016L843.627 295.008C782.101 265.929 718.483 235.895 651.488 219.32C647.523 218.33 643.118 217.156 638.419 215.91C617.715 210.409 591.982 203.588 569.882 203.588C562.159 203.414 554.462 204.555 547.122 206.962C537.578 210.372 532.218 216.9 527.005 223.207C523.252 228.309 518.644 232.726 513.386 236.262C507.376 239.357 501.157 242.028 494.774 244.256C482.403 249.06 469.555 254.011 465.406 258.741C457.587 267.909 459.716 273.409 461.735 278.763C462.761 280.724 463.384 282.869 463.567 285.073C463.749 287.278 463.489 289.496 462.8 291.598L461.368 295.815C450.355 328.526 450.355 328.526 424.658 335.933C419.703 337.363 413.646 339.123 406.304 341.434C385.195 348.181 376.532 358.522 368.162 368.497C361.783 377.122 353.588 384.244 344.154 389.362H343.126C329.911 389.362 229.693 395.963 221.984 420.569C219.891 427.207 224.407 434.394 235.383 441.985C244.222 448.74 255.017 452.446 266.146 452.546C269.139 452.521 272.129 452.338 275.103 451.996C277.526 451.776 279.802 451.556 281.968 451.556C290.044 451.556 298.193 453.83 309.39 481.369C312.143 488.153 314.272 493.691 316.034 498.311C324.698 520.974 324.955 521.267 346.981 530.655C352.45 532.965 359.242 535.862 367.868 539.859C396.208 552.914 402.009 567.729 409.351 586.504C413.615 598.358 419.193 609.699 425.98 620.315C434.654 632.856 444.486 644.556 455.348 655.262C473.299 673.927 490.259 691.566 495.729 721.013C505.09 772.022 477.374 820.721 446.024 865.752C430.826 887.571 399.586 912.984 366.51 939.901C310.565 985.556 246.91 1037.37 246.69 1085.34C246.69 1112.73 253.591 1133.78 267.614 1147.68C282.885 1163.01 306.086 1170.45 338.574 1170.45C385.636 1170.45 443.527 1154.61 494.591 1140.6C534.971 1129.6 569.478 1120.06 591.688 1120.06C595.95 1119.96 600.203 1120.48 604.316 1121.6C625.718 1127.95 642.715 1141.52 659.124 1154.61C680.893 1171.99 701.487 1188.45 730.891 1188.45C733.955 1188.51 737.02 1188.39 740.069 1188.09V1188.09ZM605.05 1119.26C600.695 1118.09 596.196 1117.55 591.688 1117.64C569.148 1117.64 534.274 1127.21 493.893 1138.29C442.977 1152.22 385.452 1168.03 338.574 1168.03C306.82 1168.03 284.17 1160.7 269.413 1146.03C255.904 1132.46 249.112 1112.03 249.259 1085.37C249.479 1038.58 312.62 987.206 368.346 941.844C401.384 914.818 432.918 889.295 448.3 867.182C479.98 821.674 507.953 772.425 498.445 720.499C492.902 690.283 475.685 672.387 457.477 653.465C446.628 642.867 436.796 631.277 428.109 618.848C421.43 608.391 415.939 597.223 411.737 585.551C404.174 566.225 398.227 550.97 368.933 537.512C360.27 533.515 353.478 530.581 348.008 528.271C326.79 519.214 326.79 519.214 318.42 497.358C316.658 492.737 314.529 487.163 311.776 480.379C301.093 454.086 292.76 448.952 281.968 448.952C279.587 448.991 277.21 449.15 274.846 449.429C272.093 449.686 269.229 449.942 266.146 449.942C255.512 449.869 245.195 446.314 236.778 439.821C226.866 432.964 222.681 426.73 224.37 421.486C231.088 400.07 324.478 392.149 343.053 392.149H343.97L344.264 390.939L344.815 392.076C354.741 386.815 363.359 379.397 370.034 370.367C378.551 360.209 386.59 350.601 407.001 344.111C414.343 341.8 420.437 340.04 425.356 338.61C452.044 330.909 452.374 330.506 463.828 296.879L465.296 292.625C466.084 290.226 466.39 287.695 466.194 285.177C465.999 282.66 465.307 280.206 464.158 277.957C462.213 272.933 460.487 268.569 467.315 260.575C470.986 256.284 484.018 251.26 495.545 246.823C502.081 244.534 508.447 241.79 514.597 238.609C520.096 234.915 524.914 230.3 528.841 224.967C534.054 218.66 538.973 212.683 547.82 209.529C554.926 207.217 562.374 206.126 569.846 206.302C591.614 206.302 617.165 213.086 637.722 218.55C642.421 219.797 646.826 220.97 650.827 221.96C717.566 238.462 781.074 268.459 842.489 297.465L848.803 300.472C994.724 369.377 1105.04 446.422 1185.98 536.009C1240.31 596.149 1275.41 654.749 1293.21 715.109C1314.14 785.993 1299.09 872.463 1255.84 930.256C1233.37 960.253 1193.43 996.007 1131.03 996.007C1114.08 995.913 1097.22 993.444 1080.96 988.673C932.171 945.695 937.09 799.085 953.353 665.09C958.235 625.009 950.709 592.482 931.584 570.919C915.431 552.584 891.019 542.683 862.826 542.683C810.992 542.683 744.841 578.29 724.357 644.261C700.863 719.949 750.972 784.416 799.465 846.793C851.116 913.278 904.529 982.035 874.684 1066.82C857.467 1115.7 793.408 1179.69 739.628 1185.81C736.679 1186.15 733.713 1186.32 730.744 1186.33C702.221 1186.33 681.994 1170.16 660.592 1153.03C644.109 1139.5 626.929 1125.78 605.05 1119.26Z" fill="#5D5D5D"/>
<path d="M1087.45 -145.664H1084.92C1080.86 -141.451 1077.05 -137.006 1073.5 -132.353C1033.12 -77.3466 1015.06 -26.6309 1018.62 22.8013C1019.98 42.0168 1017.63 54.7415 1011.28 61.6723C1009.05 63.9648 1006.34 65.743 1003.35 66.883C1000.35 68.023 997.147 68.4974 993.953 68.273C983.27 68.273 970.091 64.2026 956.178 59.9121C943.792 55.6365 931.036 52.5184 918.073 50.5977C908.638 49.5694 899.152 49.0675 889.66 49.0942C858.53 49.0942 828.979 54.0448 797.886 59.2887L782.027 61.8923H781.623C769.895 64.0612 758.012 65.2875 746.088 65.5594C723.181 65.7794 708.497 58.1886 701.155 42.5668C686.031 9.9665 690.142 -29.3079 693.997 -63.7784C694.474 -68.4356 694.988 -73.0561 695.429 -77.6033C697.452 -100.649 701.919 -123.414 708.754 -145.518H706.809C700.135 -123.502 695.779 -100.852 693.813 -77.9333C693.373 -73.3861 692.896 -68.8023 692.382 -64.1084C688.711 -29.2345 684.342 10.2599 699.724 43.3369C707.323 59.6554 722.52 67.6129 746.198 67.6129C758.22 67.3449 770.201 66.1186 782.027 63.9459H782.431L798.289 61.3056C829.493 56.0983 859.007 51.1478 890.064 51.1478C899.495 51.1219 908.919 51.6239 918.294 52.6513C931.131 54.5475 943.764 57.6289 956.031 61.8556C970.091 66.2195 983.38 70.3266 994.356 70.3266C997.819 70.5538 1001.29 70.0142 1004.52 68.7464C1007.75 67.4786 1010.66 65.5138 1013.04 62.9925C1019.65 55.6583 1022.15 42.4935 1020.71 22.6546C1017.04 -26.3009 1035.07 -76.6498 1075.26 -131.363C1079.03 -136.376 1083.1 -141.152 1087.45 -145.664V-145.664Z" fill="#5D5D5D"/>
<path d="M1075.59 132.3C1063.15 141.065 1046.23 145.355 1023.5 145.355C996.926 145.355 967.228 139.415 941.017 134.171C925.599 131.09 910.988 128.157 899.094 126.837C885.531 125.462 871.906 124.776 858.273 124.783C822.518 124.783 776.631 129.624 761.249 152.689C754.531 162.701 754.274 175.315 760.405 190.13C763.305 197.098 770.794 200.875 778.026 204.542C783.709 206.845 788.811 210.377 792.966 214.883C796.79 221.03 799.626 227.736 801.373 234.759C804.346 244.293 807.393 254.157 814.332 259.988C822.582 267.116 833.199 270.908 844.103 270.623C852.325 270.332 860.5 269.251 868.515 267.396C876.408 265.56 884.461 264.491 892.56 264.205C899.563 264.07 906.494 265.643 912.75 268.789C927.434 276.307 933.491 286.428 939.438 296.219C947.184 308.944 954.489 321.008 978.571 326.619C1029.01 338.427 1042.81 350.748 1076.18 380.488C1080.48 384.155 1085.1 388.446 1090.17 392.883C1101.19 403.159 1111.04 414.621 1119.54 427.06C1127.19 438.085 1135.79 448.428 1145.23 457.974C1155.66 467.641 1167.78 475.3 1180.99 480.563C1196.19 487.457 1210.54 493.984 1223.57 516.353L1225.63 520.02C1242.04 548.33 1258.67 574.55 1268.8 574.55C1269.59 574.55 1270.38 574.38 1271.1 574.051C1271.82 573.722 1272.46 573.242 1272.98 572.643C1276.65 568.609 1277.65 557.975 1276.03 540.006C1275.08 529.482 1267.48 520.094 1260.1 510.999C1252.17 501.208 1244.68 491.931 1245.12 481.663C1245.67 469.415 1253.09 463.328 1260.94 456.983C1267.27 452.595 1272.48 446.778 1276.14 440.005C1284.51 422 1286.53 405.901 1288.51 390.316C1291.23 368.607 1293.8 348.108 1313.22 324.932C1349.33 282.698 1397.13 252.077 1450.62 236.922C1467.1 231.909 1484.2 229.255 1501.43 229.038C1556.49 229.038 1595.85 258.888 1637.62 290.535L1651.94 301.279V298.089C1647.64 294.899 1643.38 291.672 1639.16 288.481C1597.06 256.578 1557.26 226.471 1501.43 226.471C1484.02 226.623 1466.72 229.216 1450.03 234.172C1396.05 249.55 1347.83 280.527 1311.42 323.208C1291.49 346.971 1288.88 367.837 1286.09 389.913C1284.14 405.278 1282.16 421.193 1273.97 438.831C1270.44 445.238 1265.48 450.746 1259.47 454.93C1251.54 461.384 1243.29 468.095 1242.7 481.48C1242.22 492.701 1250.37 502.749 1258.26 512.503C1265.38 521.304 1272.73 530.398 1273.61 540.116C1275.52 561.238 1273.39 568.463 1271.26 570.81C1270.97 571.143 1270.62 571.411 1270.22 571.594C1269.82 571.778 1269.38 571.873 1268.95 571.873C1258.81 571.873 1237.23 534.542 1227.98 518.627L1225.96 514.96C1212.52 491.894 1197.77 485.183 1182.2 478.289C1169.26 473.178 1157.37 465.718 1147.14 456.287C1137.8 446.846 1129.27 436.627 1121.67 425.74C1113.06 413.122 1103.06 401.51 1091.86 391.123C1086.79 386.686 1082.17 382.579 1077.87 378.765C1044.13 348.695 1030.15 336.263 979.122 324.309C956.068 318.918 949.056 307.33 941.604 294.972C935.474 284.888 929.16 274.473 913.888 266.626C907.275 263.275 899.938 261.6 892.523 261.748C884.253 262.039 876.029 263.12 867.964 264.975C860.119 266.797 852.116 267.853 844.066 268.129C833.778 268.411 823.753 264.855 815.947 258.155C809.596 252.801 806.622 243.486 803.796 234.099C801.991 226.799 799.016 219.839 794.985 213.49C790.614 208.672 785.204 204.91 779.164 202.488C771.822 198.821 765.287 195.484 762.754 189.397C756.954 175.425 757.138 163.727 763.342 154.376C778.026 132.374 823.105 127.607 858.236 127.607C871.723 127.604 885.201 128.29 898.617 129.66C910.438 130.907 924.975 133.841 940.356 136.994C966.677 142.275 996.485 148.252 1023.32 148.252C1046.45 148.252 1063.99 143.815 1076.88 134.721C1109 112.022 1099.79 77.8077 1090.9 44.7307C1081.47 9.23338 1071.63 -27.4374 1111.2 -51.3467C1116.97 -54.4621 1123.48 -55.9574 1130.04 -55.6739C1153.71 -55.6739 1187.05 -42.7658 1219.28 -30.261C1247.36 -19.2598 1273.86 -9.102 1291.12 -8.69862C1293.61 -8.69862 1296.07 -8.69862 1298.46 -8.69862C1335.54 -8.69862 1373.02 -15.0793 1409.25 -21.2767C1445.48 -27.4741 1482.85 -33.8181 1519.82 -33.8181C1543.92 -34.0455 1567.93 -30.8853 1591.15 -24.4304C1611.91 -18.2845 1632.22 -10.7123 1651.94 -1.76785V-4.55482C1632.49 -13.261 1612.46 -20.6127 1591.99 -26.5573C1568.55 -33.0841 1544.3 -36.2814 1519.97 -36.055C1482.78 -36.055 1445.26 -29.6743 1408.99 -23.4769C1372.72 -17.2796 1335.57 -10.9355 1298.61 -10.9355C1296.07 -10.9355 1293.65 -10.9355 1291.26 -10.9355C1274.45 -11.3022 1248.13 -21.5334 1220.3 -32.3146C1187.82 -44.8927 1154.23 -57.9841 1130.11 -57.9841C1123.09 -58.3028 1116.11 -56.6785 1109.96 -53.2903C1068.73 -28.4642 1078.83 9.05001 1088.59 45.3174C1097.62 78.9078 1106.17 110.628 1075.59 132.3Z" fill="#5D5D5D"/>
<path d="M763.307 38.5695C773.535 38.3413 783.727 37.2619 793.776 35.3425C829.142 29.5089 864.941 26.6995 900.785 26.9449C910.513 26.9449 920.498 26.9449 931.364 27.4216C935.035 27.4216 938.413 27.4216 941.386 27.4216C959.337 27.4216 969.799 25.2581 977.508 19.9041C986.759 13.5234 992.192 2.37549 995.863 -17.4267C1004.16 -62.8985 1022.44 -103.786 1053.28 -145.774H1051.92C1021.27 -103.713 1003.06 -62.8985 994.799 -17.4267C991.128 2.08212 985.878 13.0467 976.921 19.244C969.396 24.4146 959.117 26.5782 941.423 26.5782C938.449 26.5782 935.182 26.5782 931.438 26.5782C920.425 26.2482 910.55 26.1015 900.822 26.1015C864.918 25.8761 829.059 28.6853 793.629 34.4991C783.642 36.4166 773.511 37.496 763.344 37.7261C741.318 37.7261 725.349 30.392 719.806 -5.83876C714.52 -40.3826 719.219 -76.98 724.064 -101.586C726.974 -116.633 731.313 -131.368 737.023 -145.591H735.848C730.172 -131.478 725.869 -116.853 723 -101.916C718.117 -77.2001 713.418 -40.4926 718.705 -5.76542C723.514 25.7348 736.435 38.5695 763.307 38.5695Z" fill="#5D5D5D"/>
<path d="M778.429 11.0667C782.12 11.0364 785.802 10.7177 789.442 10.1132C820.147 5.06954 851.171 2.20205 882.281 1.53227C889.623 1.53227 896.965 1.53228 904.014 1.71563C908.676 1.71563 913.081 1.97233 917.376 1.97233C930.555 1.97233 944.247 0.945534 954.783 -6.46196C963.557 -12.586 969.761 -22.7438 973.836 -37.5588C984.074 -75.9085 1000.33 -112.396 1022 -145.664H1020.68C999.164 -112.455 983.01 -76.0733 972.808 -37.8521C968.806 -23.1838 962.712 -13.3194 954.196 -7.34205C943.88 -0.00789803 930.408 0.872193 917.486 0.872193C913.191 0.872193 908.823 0.872194 904.16 0.615498C897.222 0.615498 889.954 0.248791 882.355 0.615498C851.164 1.23783 820.056 4.04391 789.259 9.01311C772.482 11.8368 759.891 8.46303 752.219 -0.998024C734.488 -22.5238 744.032 -70.8558 749.172 -96.7821C752.37 -113.699 757.75 -130.13 765.177 -145.664H763.929C756.643 -130.212 751.351 -113.897 748.181 -97.1121C743.004 -71.0025 733.497 -22.3404 751.448 -0.411279C754.757 3.44768 758.914 6.4912 763.594 8.48209C768.274 10.473 773.351 11.3575 778.429 11.0667V11.0667Z" fill="#5D5D5D"/>
</g>
</g>
<defs>
<linearGradient id="paint0_linear_500_211" x1="720" y1="0" x2="720" y2="1017" gradientUnits="userSpaceOnUse">
<stop stop-color="#6927F6"/>
<stop offset="1" stop-color="#490EC6"/>
</linearGradient>
<linearGradient id="paint1_linear_500_211" x1="720" y1="1" x2="720" y2="1017" gradientUnits="userSpaceOnUse">
<stop stop-color="#27ABF6"/>
<stop offset="1" stop-color="#1A4CFF"/>
</linearGradient>
</defs>
</svg>
