<svg width="1440" height="1009" viewBox="0 0 1440 1009" fill="none" xmlns="http://www.w3.org/2000/svg">
<rect x="-1" width="1440" height="1009" fill="url(#paint0_linear_500_211)"/>
<g style="mix-blend-mode:overlay" opacity="0.6">
<mask id="mask0_500_211" style="mask-type:alpha" maskUnits="userSpaceOnUse" x="0" y="5" width="1440" height="999">
<rect y="5" width="1440" height="999" fill="url(#paint1_linear_500_211)"/>
</mask>
<g mask="url(#mask0_500_211)">
<path d="M11.6737 913.299C16.8865 802.063 89.0579 721.006 147.059 655.851L151.171 651.307C157.889 644.348 173.417 625.743 172.206 603.279C171.471 589.577 164.57 577.21 151.721 566.465C143.976 560.047 137.038 554.025 130.063 548.436C101.31 523.221 71.096 499.661 39.5731 477.872C26.1374 468.714 12.9463 460.06 0 451.911V453.209C12.7016 461.214 25.6968 469.759 38.9491 478.774C70.4276 500.486 100.616 523.95 129.365 549.049L150.987 567.078C163.615 577.607 170.37 589.722 171.104 603.135C172.316 625.202 157.008 643.519 150.363 650.406L146.215 655.057C88.1034 720.429 15.7852 801.666 10.5724 913.227C9.98506 925.126 5.28621 932.409 0 934.861V936.159C5.72672 933.852 11.0129 926.496 11.6737 913.299Z" fill="#5D5D5D"/>
<path d="M37.3338 914.525C42.1428 812.122 111.047 734.744 166.405 672.545L170.554 667.894C180.483 656.84 189.82 645.286 198.526 633.279C207.153 621.163 223.195 598.628 185.311 562.715C144.573 524.077 100.735 488.722 54.2203 456.995C35.4005 444.255 17.327 432.717 0 422.38V423.642C17.1312 433.907 34.9966 445.373 53.5963 458.041C100.07 489.721 143.861 525.04 184.54 563.652C221.727 598.916 206.052 620.947 197.645 632.774C188.953 644.689 179.628 656.147 169.709 667.1L165.561 671.752C110.129 734.239 41.0415 811.617 36.2325 914.525C33.9932 962.192 25.2196 989.92 9.10402 1001.82C6.47445 1003.87 3.32936 1005.19 0 1005.64L0 1006.72C3.58133 1006.25 6.96023 1004.81 9.7648 1002.58C26.3209 990.461 35.0578 962.481 37.3338 914.525Z" fill="#5D5D5D"/>
<path d="M485.413 181.987C478.255 154.331 420.694 146.94 354.066 138.358C337.583 136.231 320.55 134.067 304.03 131.471C230.941 120.149 164.056 84.128 99.3733 49.1525C66.9586 31.8451 33.8831 13.9968 0 -0.642456V2.27818C33.4059 16.7011 66.0776 34.4412 98.1252 51.6765C162.991 86.6159 230.28 122.781 303.7 134.175C320.256 136.735 337.326 138.935 353.809 141.026C416.766 149.139 476.272 156.783 482.99 182.78C488.203 203.081 461.332 233.801 400.834 276.781C315.704 336.925 244.597 365.013 176.537 365.013C136.761 364.768 97.6238 355.161 62.4066 336.997C40.4879 325.471 19.6101 312.129 0 297.118L0 300.255C19.3049 314.941 39.8514 327.981 61.4154 339.232C96.9315 357.577 136.411 367.284 176.537 367.537C245.148 367.537 316.879 339.305 402.229 278.656C464.562 234.378 490.993 203.694 485.413 181.987Z" fill="#5D5D5D"/>
<path d="M9.50783 751.15C19.8746 734.368 31.6243 718.45 44.6391 703.554C62.5167 681.92 81.0185 659.564 91.0035 632.089C108.551 583.628 74.117 561.273 37.7009 537.583C34.3236 535.384 30.9463 533.184 27.569 530.912C21.5486 526.946 15.8953 523.16 10.3154 519.374C7.56221 517.499 4.18491 515.119 0 512.163V513.497C3.85453 516.237 7.08499 518.509 9.69138 520.276C15.2713 524.098 20.9246 527.848 26.9817 531.886L37.0769 538.52C73.1626 561.958 107.229 584.133 89.9389 631.764C80.064 659.06 61.599 681.343 43.7948 702.905C30.7347 717.842 18.9479 733.809 8.55338 750.645C5.29114 756.743 2.43405 763.042 0 769.503L0 772.423L0.881034 770.296C3.33698 763.739 6.21849 757.344 9.50783 751.15Z" fill="#5D5D5D"/>
<path d="M575.389 80.4501C569.075 80.4501 560.155 84.4164 553.62 103.274C546.278 124.476 560.448 129.38 575.463 134.608C578.106 135.509 580.859 136.447 583.465 137.493C588.097 139.558 593.073 140.78 598.149 141.098C599.937 141.257 601.735 140.947 603.361 140.2C604.986 139.452 606.38 138.294 607.4 136.844C613.017 128.082 604.023 108.755 599.875 100.786C593.34 88.0582 584.126 80.4501 575.389 80.4501ZM606.005 135.69C603.068 140.269 595.653 140.269 583.979 135.69C581.299 134.644 578.546 133.671 575.903 132.769C561.219 127.649 548.371 123.214 555.162 103.707C560.081 89.5726 567.019 82.0727 575.206 82.0727C583.392 82.0727 591.835 89.2841 598.186 101.399C606.703 117.661 609.382 130.281 606.005 135.69Z" fill="#5D5D5D"/>
<path d="M99.1164 671.752L104.072 665.983C127.713 638.651 152.162 610.455 124.373 576.669C102.897 550.564 70.4828 529.037 41.8858 510.035C35.9389 506.105 30.359 502.391 24.8525 498.605C21.1815 496.117 16.1156 492.512 10.1686 488.329L0 480.901V482.235L9.7648 489.23C15.6017 493.377 20.7777 496.983 24.4487 499.507C29.9919 503.112 35.4616 507.007 41.5187 510.937C70.0422 529.867 102.42 551.357 123.785 577.354C150.987 610.419 126.832 638.291 103.522 665.261L98.529 671.067C77.8614 695.081 51.6506 727.244 30.9096 763.085C18.3811 784.725 8.02898 807.512 0 831.124L0 834.73C8.1111 810.03 18.7887 786.215 31.8641 763.662C52.5317 727.857 78.7057 695.73 99.1164 671.752Z" fill="#5D5D5D"/>
<path d="M78.3019 306.817C106.201 320.843 129.916 327.406 152.896 327.406C176.978 327.406 198.38 320.194 223.159 312.081C237.219 307.394 253.151 302.129 271.248 297.658C278.564 295.901 286.074 295.053 293.605 295.134C297.276 295.134 300.469 295.134 303.7 295.387C306.93 295.639 309.684 295.639 312.584 295.639C327.268 295.639 339.272 292.033 352.23 274.978C358.759 266.347 363.806 256.725 367.171 246.493C371.503 234.667 374.917 225.328 393.932 211.95C399.797 208.357 406.052 205.418 412.581 203.189C423.594 199.006 432.845 195.364 433.249 189.234C433.542 184.223 427.632 178.67 414.637 171.711C399.072 163.418 376.826 162.3 357.113 162.3C348.339 162.3 339.125 162.552 330.204 162.805C321.284 163.057 311.849 163.345 303.076 163.345C287.968 163.838 272.86 162.371 258.143 158.982C194.268 141.927 134.358 109.692 81.5324 81.2072C53.7798 66.2795 26.8715 51.7845 0 39.3448V41.3279C26.5779 53.6955 53.1925 68.0102 80.7615 82.7937C133.697 111.315 193.681 143.622 257.776 160.713C272.648 164.145 287.917 165.636 303.186 165.148C312.106 165.148 321.541 164.86 330.351 164.607C339.162 164.355 348.486 164.103 357.223 164.103C376.716 164.103 398.631 165.184 413.866 173.297C425.833 179.715 431.78 185.016 431.523 189.09C431.193 194.102 421.869 197.708 411.994 201.53C405.322 203.774 398.941 206.775 392.978 210.472C373.485 224.174 369.814 234.234 365.556 245.88C362.239 255.939 357.28 265.401 350.872 273.897C338.354 290.519 326.974 293.836 312.694 293.836C309.83 293.836 306.967 293.836 303.883 293.584C300.8 293.331 297.239 293.332 293.715 293.332C286.024 293.263 278.353 294.135 270.881 295.928C252.747 300.399 236.778 305.699 222.681 310.351C198.049 318.535 176.794 325.603 152.933 325.603C130.246 325.603 106.825 319.112 79.183 305.194C53.9266 292.502 31.2033 275.591 9.21415 259.221L0 252.407V254.678L8.07615 260.7C30.102 277.07 52.8988 294.017 78.3019 306.817Z" fill="#5D5D5D"/>
<path d="M95.2251 274.402C120.25 287.551 148.157 294.519 176.537 294.702C191.992 294.702 225.325 288.5 254.435 278.152C279.912 269.065 310.308 253.993 310.344 233.729C310.344 209.823 263.503 196.59 235.456 188.658C229.363 186.927 224.076 185.449 220.773 184.187C166.671 164.555 114.213 140.806 63.875 113.154C42.0327 101.471 20.8511 90.0774 0 79.8371V81.027C20.6676 91.1951 41.6656 102.661 63.1775 114.091C113.568 141.784 166.089 165.559 220.259 185.196C223.93 186.458 229.106 187.973 235.236 189.703C262.989 197.528 309.427 210.653 309.353 233.729C309.353 268.741 208.622 293.62 176.574 293.62C148.385 293.419 120.669 286.489 95.8125 273.428C73.3828 262.142 51.981 246.205 31.24 230.772C21.2182 223.309 10.9028 215.628 0.110129 208.165V209.499C10.6458 216.71 20.741 224.318 30.5792 231.638C51.3937 247.106 72.6853 263.08 95.2251 274.402Z" fill="#5D5D5D"/>
<path d="M106.936 251.938C128.389 263.261 152.33 269.276 176.684 269.462C197.021 269.462 223.636 263.512 233.841 250.496C236.028 247.743 237.504 244.512 238.143 241.077C238.783 237.643 238.566 234.107 237.512 230.773C232.887 213.285 195.59 200.917 168.388 191.903C159.577 188.982 151.978 186.458 147.316 184.331C115.856 169.908 84.9097 153.214 54.6241 137.024L51.3937 135.185C33.8097 125.846 16.7764 116.652 0 108.142V109.368C16.5928 117.661 33.4426 126.892 50.6595 136.158L54.0368 137.961C84.1388 154.187 115.305 170.954 146.766 185.304C151.501 187.468 159.137 189.992 167.947 192.912C193.424 201.35 231.896 214.114 236.374 231.061C237.346 234.251 237.52 237.625 236.881 240.895C236.242 244.166 234.809 247.237 232.703 249.847C222.681 262.575 196.471 268.38 176.317 268.38C152.262 268.169 128.618 262.23 107.413 251.073C87.0022 240.796 66.4814 225.544 46.6581 210.761C32.3046 199.944 16.8865 188.622 0 177.768V178.958C16.6295 189.776 31.8274 200.989 45.9973 211.41C65.8573 226.301 86.4148 241.626 106.936 251.938Z" fill="#5D5D5D"/>
<path d="M651.524 -117.612C653.359 -124.823 655.195 -132.035 656.847 -139.246H654.938C653.286 -132.251 651.524 -125.22 649.725 -118.081C646.348 -104.739 642.86 -90.8935 640.034 -76.7951C630.636 -29.7405 622.523 31.9533 643.705 91.8443C652.221 116.147 673.439 136.05 692.161 153.574C708.864 169.187 723.255 182.672 721.933 193.994C721.346 199.187 717.491 203.838 710.112 208.165C704.688 210.545 698.749 211.573 692.822 211.158C664.629 211.158 614.924 198.934 578.141 186.819C538.127 173.658 488.863 152.673 481.227 127.505C478.768 119.5 480.787 111.387 487.174 103.455C495.165 93.7554 503.656 84.4645 512.614 75.6186C529.317 58.5635 545.102 42.446 555.528 18.5401C570.406 -14.8837 572.325 -52.4982 560.924 -87.2156C558.171 -95.9415 555.418 -103.982 552.958 -111.085C549.287 -121.578 546.24 -130.773 544.074 -139.246H542.165C544.331 -130.592 547.562 -121.218 551.233 -110.4C553.656 -103.189 556.409 -95.2924 559.162 -86.5666C570.461 -52.2441 568.567 -15.0451 553.839 17.9992C543.56 41.6167 527.885 57.6621 511.292 74.5369C502.776 83.2627 493.965 92.241 485.596 102.517C478.841 110.955 476.712 119.608 479.355 128.19C487.211 154.115 537.026 175.425 577.443 188.73C614.373 200.881 664.299 213.141 692.712 213.141C699.01 213.583 705.321 212.467 711.067 209.896C718.996 205.244 723.144 200.196 723.805 194.391C725.2 182.168 710.516 168.394 693.483 152.456C674.908 135.041 653.836 115.354 645.467 91.4116C624.652 31.9534 632.692 -29.416 642.053 -76.2543C644.659 -90.4608 648.146 -104.271 651.524 -117.612Z" fill="#5D5D5D"/>
<path d="M347.384 725.693C345.548 728.686 343.713 731.498 342.318 733.59C323.743 759.299 301.937 782.087 277.048 807.11L266.806 817.17C246.395 837.434 225.25 858.384 212.622 883.155C207.74 892.782 206.235 900.246 208.254 904.789C208.652 905.803 209.278 906.716 210.085 907.459C210.892 908.202 211.86 908.756 212.916 909.08C213.934 909.347 214.983 909.481 216.036 909.477C222.271 908.886 228.249 906.739 233.4 903.239C246.944 894.794 259.951 885.546 272.349 875.547C282.591 867.65 293.164 859.501 304.03 852.398C348.081 823.805 377.045 804.875 390.591 751.438C393.418 740.405 395.07 715.201 386.37 704.275C385.031 702.473 383.246 701.037 381.184 700.103C379.121 699.169 376.85 698.768 374.586 698.939C363.426 699.624 354.175 714.696 347.384 725.693ZM375.577 700.129C377.531 700.091 379.466 700.517 381.218 701.371C382.969 702.225 384.484 703.481 385.635 705.032C394.115 715.669 392.463 740.405 389.674 751.294C376.201 804.226 347.31 823.048 303.589 851.497C292.576 858.708 282.077 866.785 271.835 874.717C259.461 884.693 246.479 893.917 232.96 902.337C224.737 907.205 217.725 909.26 213.357 908.034C212.441 907.78 211.598 907.323 210.891 906.698C210.185 906.073 209.634 905.296 209.282 904.429C207.41 900.21 208.951 892.854 213.613 883.696C226.168 859.069 247.24 838.156 267.614 817.964L277.819 807.759C302.598 782.7 324.624 759.875 343.236 734.095C344.741 732.003 346.503 729.155 348.338 726.162C354.983 715.345 364.05 700.561 374.769 700.021L375.577 700.129Z" fill="#5D5D5D"/>
<path d="M118.462 229.799C131.937 235.889 146.457 239.436 161.266 240.255C165.459 240.505 169.64 239.606 173.344 237.659C179.18 234.054 181.75 230.448 181.199 226.842C180.025 219.234 163.175 214.655 149.666 210.977C145.215 209.889 140.838 208.529 136.56 206.903C104.366 192.227 72.8322 175.244 42.3998 158.838L39.0225 156.999C25.6968 149.896 12.8117 142.901 0 136.231V138.286C12.518 144.812 25.2196 151.627 38.1414 158.586L41.5187 160.389C71.9879 176.831 103.522 193.814 135.789 208.525C140.158 210.205 144.634 211.602 149.188 212.708C161.486 216.061 178.556 220.676 179.401 227.131C179.804 229.763 177.418 232.719 172.352 235.965C168.966 237.711 165.156 238.51 161.339 238.272C146.838 237.479 132.612 234.056 119.38 228.176C101.025 218.946 81.4223 204.379 62.48 190.244C42.4774 174.884 21.6184 160.631 0 147.552L0 149.644C21.2099 162.566 41.6876 176.613 61.342 191.722C80.321 205.857 99.9607 220.46 118.462 229.799Z" fill="#5D5D5D"/>
<path d="M63.3611 915.643C67.7662 822.182 133.33 748.518 186.008 689.312L190.157 684.66C252.82 614.205 250.287 589.614 220.883 561.128C174.096 515.175 123.304 473.334 69.0878 436.082C45.5935 420.109 22.393 405.506 0 392.489V394.58C22.0259 407.453 44.9328 421.84 68.0232 437.596C122.155 474.775 172.874 516.532 219.598 562.39C248.158 590.082 250.471 614.132 188.798 683.47L184.65 688.158C131.751 747.544 65.9307 821.569 61.5256 915.534C57.3774 1003.87 23.531 1029.91 0 1037.12V1038.99C24.0816 1031.75 59.1394 1005.71 63.3611 915.643Z" fill="#5D5D5D"/>
<path d="M468.563 -108.021C493.71 -31.0748 503.952 10.7515 441.508 46.1957C430.731 52.1978 419.062 56.5047 406.928 58.96C395.344 61.2827 383.546 62.4185 371.723 62.3493C255.684 62.3493 96.3998 -32.9137 10.6091 -84.0789L7.67234 -85.8456L0 -90.4249V-88.2975L6.71789 -84.2591L9.65467 -82.5284C95.4454 -31.2911 255.17 64.1522 371.723 64.1522C383.676 64.17 395.598 62.9616 407.295 60.5465C419.624 58.0506 431.479 53.6705 442.426 47.5659C506.081 11.5087 495.765 -30.8945 470.289 -108.778C467.058 -118.622 463.718 -128.898 460.671 -139.391H458.872C461.846 -128.537 465.26 -118.081 468.563 -108.021Z" fill="#5D5D5D"/>
<path d="M433.946 -97.1315C444.151 -65.9781 453.88 -26.8921 438.645 -1.07516C431.303 11.7251 417.904 20.1625 399.366 24.1649C390.28 25.9676 381.028 26.8376 371.76 26.761C265.852 26.6528 112.112 -65.2209 29.3678 -114.583L14.2434 -123.67C9.58125 -126.446 4.80898 -129.042 0 -131.494V-130.268C4.62543 -127.924 9.17744 -125.436 13.6927 -122.768L28.9273 -113.682C111.598 -64.2473 265.558 27.7345 371.76 27.7345C381.103 27.7995 390.427 26.9174 399.586 25.1024C418.418 21.1721 431.89 12.5184 439.599 -0.534302C455.201 -26.5676 445.253 -66.2305 435.011 -97.456C430.606 -110.905 426.237 -124.859 422.529 -139.21H421.355C425.136 -124.751 429.504 -110.689 433.946 -97.1315Z" fill="#5D5D5D"/>
<path d="M369.519 665.73C353.404 669.624 339.344 691.547 328 708.999C324.073 715.129 320.328 720.97 316.988 725.116C298.649 747.529 279.04 768.909 258.252 789.154C253.076 794.382 246.541 800.296 239.64 806.57C219.156 825.211 193.679 848.432 185.934 869.67C179.436 887.698 183.254 904.573 186.962 921.015C190.008 934.536 193.165 948.527 190.633 963.058C189.091 972.036 183.548 980.906 177.674 990.317C170.626 1001.57 163.357 1013.18 162.99 1025.65C162.837 1029.9 163.51 1034.13 164.972 1038.13C169.818 1051.51 174.884 1057.74 180.904 1057.74C186.925 1057.74 193.349 1051.65 202.93 1036.72C212.108 1022.52 215.705 1006 219.193 990.065C222.68 974.127 226.314 957.613 235.565 943.19C253.186 915.895 284.242 895.811 311.628 878.071L318.493 873.636C364.013 844.033 399.915 820.632 415.957 757.676C420.215 740.982 419.077 698.542 401.824 676.836C398.297 671.9 393.283 668.175 387.489 666.183C381.694 664.191 375.41 664.033 369.519 665.73ZM400.466 678.098C415.92 697.533 418.82 738.71 414.268 757.424C398.41 819.73 362.875 842.951 317.538 872.374L310.71 876.809C283.141 894.621 251.975 914.813 234.097 942.433C224.662 957.036 221.028 973.731 217.467 989.92C213.907 1006.11 210.456 1022.01 201.462 1036C195.038 1045.95 187.586 1056.16 180.978 1056.16C175.912 1056.16 171.25 1050.14 166.771 1037.77C165.368 1033.98 164.732 1029.97 164.899 1025.94C165.303 1013.93 172.461 1002.5 179.363 991.471C185.346 981.916 191 972.901 192.615 963.563C195.148 948.707 191.954 934.537 188.944 920.871C185.273 903.888 181.602 887.879 187.843 870.391C195.441 849.586 220.881 826.509 241.072 808.012C248.01 801.702 254.544 795.788 259.757 790.488C280.551 770.211 300.161 748.795 318.493 726.342C321.833 722.088 325.578 716.246 329.506 710.044C340.518 692.737 354.505 671.175 369.886 667.461C372.525 666.791 375.237 666.44 377.962 666.415C382.386 666.457 386.736 667.536 390.65 669.561C394.564 671.587 397.929 674.501 400.466 678.062V678.098Z" fill="#5D5D5D"/>
<path d="M386.407 587.414C383.818 583.161 380.278 579.541 376.055 576.83C371.832 574.119 367.036 572.387 362.031 571.765C355.562 570.829 349.425 568.354 344.154 564.554L343.603 563.977C324.881 543.388 262.107 476.25 240.816 476.25C239.708 476.193 238.602 476.399 237.592 476.851C236.582 477.303 235.699 477.987 235.015 478.846C232.189 482.452 232.336 489.663 235.456 501.237C237.328 508.016 255.096 517.391 273.928 527.307C289.603 535.6 305.829 544.145 311.335 550.564C316.254 556.297 322.752 564.265 322.348 567.042C322.348 567.763 321.357 568.232 319.925 568.917C316.621 570.539 311.665 572.955 314.309 584.313C316.892 592.622 320.808 600.472 325.909 607.57C330.321 613.775 333.818 620.56 336.298 627.726C340.997 645.43 311.408 678.206 291.842 699.552C285.381 706.763 279.801 712.785 276.24 717.58C261.144 736.191 244.704 753.712 227.049 770.008C193.607 802.459 159.026 835.812 146.875 882.037C128.484 950.906 124.813 1011.88 135.826 1063.08C141.699 1090.41 161.963 1128.49 181.603 1128.49C193.827 1128.49 202.748 1114.07 208.07 1085.58C228.628 975.894 284.72 939.404 338.941 904.104C386.994 872.843 432.367 843.312 451.897 766.582C459.239 737.736 447.932 693.17 433.211 668.507C427.324 659.313 419.547 651.428 410.378 645.358C403.035 640.537 396.663 634.425 391.583 627.329C387.912 621.704 388.609 615.178 389.27 608.291C389.931 601.404 390.848 593.616 386.407 587.414ZM389.527 628.591C394.737 635.999 401.326 642.373 408.946 647.377C417.792 653.272 425.293 660.91 430.972 669.805C445.436 693.999 456.669 737.664 449.327 765.969C430.054 841.689 385.085 871.004 337.436 902.013C282.958 937.601 226.425 974.38 205.574 1085.15C200.582 1111.87 192.285 1126 181.639 1126C164.936 1126 144.673 1091.89 138.359 1062.58C127.346 1011.73 131.017 951.159 149.115 882.506C161.082 836.966 195.406 803.721 228.591 771.63C246.34 755.246 262.865 737.629 278.039 718.915C281.527 714.371 287.07 708.278 293.494 701.21C314.639 677.954 343.566 646.079 338.537 627.041C336 619.625 332.39 612.606 327.818 606.2C322.893 599.334 319.091 591.755 316.548 583.736C314.382 574.289 317.796 572.631 320.806 571.152C322.458 570.323 324.183 569.494 324.477 567.547C325.064 564.914 323.339 560.876 313.097 548.941C307.297 542.162 290.851 533.472 274.956 525.107C258.253 516.309 239.347 506.321 237.769 500.588C234.098 487.536 235.309 482.379 236.888 480.36C237.326 479.827 237.888 479.405 238.527 479.129C239.165 478.853 239.862 478.731 240.559 478.774C256.601 478.774 303.185 523.629 341.437 565.636C341.665 565.926 341.923 566.192 342.208 566.429C347.803 570.52 354.331 573.206 361.224 574.253C365.917 574.811 370.418 576.421 374.377 578.959C378.336 581.497 381.648 584.896 384.057 588.892C387.728 594.373 387.288 601.008 386.59 608.003C385.893 614.998 385.452 622.462 389.527 628.591Z" fill="#5D5D5D"/>
<path d="M0 353.331C123.785 422.164 257.189 531.633 281.49 586.044C296.174 618.712 260.713 657.761 215.964 707.196C165.084 763.373 101.759 833.396 97.8315 917.193C93.0225 1019.49 41.4086 1061.42 0 1074.19V1076.78C42.3631 1064.13 95.4454 1021.54 100.401 917.265C104.292 834.333 167.286 764.707 217.872 708.818C263.246 658.735 299.074 619.144 283.95 584.998C259.354 530.191 124.813 419.784 0 350.662V353.331Z" fill="#5D5D5D"/>
<path d="M623.589 -139.03H622.084C619.477 -136.563 617.36 -133.64 615.843 -130.412C611.291 -119.883 612.576 -108.778 613.824 -98.3213C614.698 -92.3518 615.078 -86.3226 614.962 -80.2927C614.305 -70.7114 612.931 -61.1906 610.85 -51.8075C609.309 -44.0192 607.693 -35.9424 606.923 -28.118C602.224 19.5857 606.482 62.7101 619.551 100.065C622.267 107.818 632.913 119.753 644.183 132.517C658.573 148.67 673.551 165.365 674.065 175.497C674.185 176.478 674.086 177.474 673.776 178.414C673.465 179.354 672.95 180.216 672.266 180.942C668.375 185.016 657.949 185.737 641.246 183.141C629.111 180.71 617.334 176.798 606.188 171.495C599.617 168.682 592.789 165.761 585.998 163.526L580.051 161.579C555.639 153.682 522.196 142.829 517.424 123.863C515.148 114.813 519.627 104.464 530.75 93.1063C548.26 75.0777 566.358 56.7246 578.472 28.636C590.22 1.70131 603.729 -50.6898 598.553 -79.0668C597.538 -83.9214 595.527 -88.522 592.642 -92.5882C590.589 -95.1959 589.101 -98.1882 588.267 -101.381C587.434 -104.575 587.274 -107.901 587.797 -111.158C588.612 -116.03 590.601 -120.641 593.597 -124.607C595.259 -126.608 596.501 -128.913 597.251 -131.389C598.001 -133.864 598.244 -136.462 597.965 -139.03H596.864C597.141 -136.581 596.913 -134.103 596.194 -131.743C595.475 -129.383 594.28 -127.189 592.679 -125.292C589.579 -121.194 587.539 -116.418 586.732 -111.374C586.165 -107.997 586.312 -104.541 587.165 -101.222C588.017 -97.9028 589.557 -94.792 591.688 -92.0834C594.516 -88.1315 596.49 -83.6525 597.488 -78.9225C602.627 -50.7979 589.155 1.34074 577.445 28.1312C565.257 56.0395 547.196 74.4647 529.722 92.2769C518.305 103.923 513.753 114.596 516.139 124.043C521.058 143.586 554.831 154.548 579.464 162.552L585.447 164.463C592.165 166.699 598.956 169.584 605.528 172.396C616.754 177.746 628.618 181.695 640.842 184.151C646.411 185.082 652.044 185.6 657.692 185.701C665.254 185.701 670.21 184.367 672.853 181.627C673.627 180.789 674.214 179.801 674.574 178.726C674.935 177.651 675.061 176.514 674.946 175.389C674.322 164.86 659.307 148.021 644.77 131.724C633.757 119.212 623.038 107.349 620.395 99.7768C607.326 62.5658 603.105 19.5857 607.804 -27.9377C608.574 -35.726 610.153 -43.7668 611.732 -51.5191C613.867 -61.0204 615.303 -70.6607 616.027 -80.3648C616.137 -86.3945 615.757 -92.4233 614.889 -98.3934C613.604 -109.211 612.392 -119.703 616.834 -129.943C618.477 -133.367 620.769 -136.451 623.589 -139.03Z" fill="#5D5D5D"/>
<path d="M503.144 -118.946C526.381 -47.8774 550.39 25.5711 459.68 77.0968C445.605 84.9782 430.355 90.6362 414.49 93.8634C400.422 96.7202 386.088 98.122 371.723 98.046C249.076 98.046 95.6656 8.44395 0 -48.6346V-45.6779C95.996 11.5809 248.966 100.57 371.723 100.57C386.26 100.654 400.767 99.2396 415.004 96.3513C431.146 93.0703 446.658 87.302 460.965 79.2602C553.473 26.761 529.135 -47.6971 505.604 -119.703C503.474 -126.266 501.345 -132.792 499.326 -139.21H496.61C498.702 -132.504 500.941 -125.761 503.144 -118.946Z" fill="#5D5D5D"/>
<path d="M34.2865 611.428C32.4877 599.818 24.3382 589.397 9.32388 579.662C6.27697 577.679 3.15664 575.587 -0.000399612 573.532V574.83L8.73652 580.563C23.4204 590.118 31.4599 600.286 33.2219 611.572C36.122 630.286 21.6584 649.577 3.85413 671.031C2.67941 672.473 1.35786 674.276 -0.0371094 676.187V678.062C1.68825 675.646 3.26677 673.446 4.73516 671.716C22.6862 650.045 37.2967 630.574 34.2865 611.428Z" fill="#5D5D5D"/>
<path d="M66.7751 623.616C76.3196 597.294 66.7751 586.729 23.4942 558.713L13.1054 551.79C8.59008 548.797 4.25833 545.912 0 543.136V544.434L12.518 552.835L22.9069 559.614C65.5269 587.342 75.0348 597.762 65.7472 623.363C57.3407 646.584 41.0782 666.235 23.8613 687.076C15.8219 696.739 7.67234 706.655 0 717.22V719.095C7.8926 708.061 16.3726 697.785 24.7057 687.725C41.996 666.74 58.2951 647.017 66.7751 623.616Z" fill="#5D5D5D"/>
<path d="M356.341 759.479H356.084C350.871 759.479 345.585 765.969 341.73 770.729C340.886 771.774 340.152 772.676 339.491 773.397C335.82 777.471 332.369 781.798 328.955 785.945C326.789 788.613 324.587 791.317 322.347 793.95L322.054 794.274C314.712 802.82 311.738 808.372 312.913 811.293C313.201 811.873 313.643 812.367 314.192 812.722C314.741 813.077 315.377 813.281 316.033 813.312H317.098C331.782 812.988 343.676 799.935 349.476 792.183C354.614 785.679 358.36 778.222 360.489 770.26C361.33 767.155 361.017 763.857 359.608 760.957C359.211 760.486 358.711 760.108 358.146 759.852C357.58 759.596 356.963 759.469 356.341 759.479ZM358.506 769.935C356.49 777.629 352.906 784.842 347.971 791.137C342.391 798.637 330.974 811.257 317.061 811.545V812.447V811.545H316.4C315.079 811.545 314.859 810.824 314.785 810.644C314.381 809.671 314.418 806.173 323.632 795.464L323.889 795.139C326.165 792.507 328.331 789.803 330.534 787.099C333.911 782.952 337.398 778.661 341.033 774.623C341.693 773.902 342.464 772.928 343.309 771.883C346.723 767.7 351.899 761.318 356.414 761.318C356.742 761.313 357.067 761.386 357.361 761.531C357.655 761.675 357.909 761.886 358.103 762.147C359.196 764.634 359.34 767.425 358.506 770.008V769.935Z" fill="#5D5D5D"/>
<path d="M743.63 1124.81C792.344 1119.37 844.582 1063.98 845.242 1017.04C846.27 944.921 804.164 887.554 763.416 831.954C756.478 822.507 749.32 812.772 742.565 803.108L738.527 797.375C719.328 770.26 697.596 739.684 690.547 706.295C684.564 678.098 675.423 612.546 685.371 589.974C692.713 573.424 713.454 563.905 733.535 554.746C747.411 548.4 760.553 542.415 769.767 534.23L770.171 533.833C801.668 505.817 801.668 505.817 823.143 504.987C829.641 504.771 837.827 504.483 849.134 503.437C859.576 502.541 869.926 500.804 880.08 498.245C883.318 497.29 886.655 496.697 890.028 496.478C896.636 496.478 902.179 501.093 920.497 516.309C974.644 561.345 973.616 639.697 972.625 715.417C971.377 810.752 970.092 909.297 1079.93 940.522C1094.77 944.857 1110.15 947.127 1125.63 947.265C1166.93 947.265 1202.06 929.236 1227.28 894.874C1264.28 844.574 1274.12 766.114 1251.77 699.588C1200.12 546.021 1076.7 458.257 943.918 374.605C823.29 298.56 708.352 277.611 610.116 263.945C603.456 262.972 596.733 262.465 589.999 262.431C550.169 262.431 531.264 282.334 507.255 307.538C497.627 317.986 487.458 327.939 476.786 337.358C463.277 349.004 446.097 356.973 429.504 364.689C402.412 377.273 376.826 389.172 366.253 415.602C343.824 471.635 398.925 515.336 447.565 553.881C470.068 571.729 491.323 588.568 503.768 605.407C553.179 672.221 538.385 784.827 493.599 848.072C479.613 867.831 452.815 892.278 424.475 918.131C377.486 960.967 324.221 1009.54 314.823 1050.32C310.381 1069.5 311.556 1082.77 318.494 1091.28C324.184 1098.24 333.765 1101.63 347.862 1101.63C370.952 1101.63 404.028 1092.29 439.012 1082.41C481.779 1070.33 530.273 1056.63 571.608 1056.63C588.642 1056.2 605.57 1059.39 621.239 1065.97C636.443 1073.43 650.699 1082.63 663.713 1093.37C685.261 1109.81 705.598 1125.35 734.379 1125.35C737.471 1125.35 740.559 1125.17 743.63 1124.81ZM622.01 1064.34C606.009 1057.67 588.728 1054.47 571.351 1054.97C529.722 1054.97 481.118 1068.71 438.241 1080.82C403.367 1090.66 370.438 1099.97 347.605 1099.97C334.206 1099.97 325.102 1096.79 319.779 1090.3C313.355 1082.37 312.437 1069.5 316.585 1050.86C325.873 1010.62 378.992 962.265 425.723 919.609C454.136 893.648 481.008 869.129 495.105 849.261C540.258 785.476 555.125 671.896 505.273 604.505C492.682 587.486 471.317 570.539 448.703 552.619C400.577 514.47 345.916 471.238 367.942 416.395C378.257 390.65 403.514 378.895 430.349 366.456C447.088 358.703 464.378 350.663 478.071 338.872C488.771 329.396 498.977 319.395 508.65 308.908C532.328 284.029 551.05 264.378 590.073 264.378C596.72 264.417 603.356 264.911 609.933 265.856C707.984 279.522 822.849 300.435 943.037 376.263C1075.49 459.736 1198.65 547.319 1250.08 700.273C1272.29 766.294 1262.56 844.141 1225.89 893.972C1201.03 927.758 1166.38 945.606 1125.7 945.606C1110.4 945.471 1095.19 943.226 1080.52 938.936C1031.84 925.09 1001.08 896.713 986.391 852.11C973.286 812.195 973.91 763.085 974.534 715.597C975.525 639.445 976.553 560.552 921.745 515.083C895.535 493.449 894.837 492.98 879.713 496.622C869.657 499.165 859.405 500.89 849.06 501.778C837.68 502.824 829.641 503.112 823.18 503.329C801.154 504.086 801.154 504.086 769.033 532.535L768.592 532.932C759.598 540.936 746.566 546.886 732.837 553.16C712.426 562.463 691.318 572.09 683.756 589.217C673.624 612.258 682.802 678.278 688.822 706.619C695.944 740.188 717.786 771.089 737.095 798.349L741.133 804.118C747.888 813.709 755.046 823.481 761.985 832.964C802.365 888.347 844.508 945.606 843.48 1016.86C842.82 1063.04 791.426 1117.53 743.483 1122.9C740.484 1123.23 737.469 1123.39 734.452 1123.4C706.296 1123.4 686.179 1108.04 664.924 1091.82C651.776 1081.02 637.371 1071.8 622.01 1064.34Z" fill="#5D5D5D"/>
<path d="M1519.97 4.76601H1505.84H1492.73C1467.69 4.76601 1447.8 6.10012 1425.81 12.6265C1414.53 16.3527 1403.61 21.0462 1393.17 26.6527C1375.77 35.3425 1359.36 43.5635 1339.72 43.5635C1336.44 43.5579 1333.17 43.3169 1329.92 42.8424C1315.42 40.7871 1304.56 32.4219 1294.06 24.309C1282.27 15.1865 1271.15 6.56886 1255.51 6.56886C1254.06 6.56994 1252.62 6.64215 1251.18 6.78521C1241.56 7.75876 1226.11 16.2682 1211.2 24.5253C1203.12 29.2698 1194.74 33.4856 1186.09 37.1454C1179.08 39.6682 1171.91 41.7399 1164.62 43.3472C1149.16 46.9529 1147.22 48.287 1139.73 76.1953C1137.67 83.9115 1136.06 91.123 1134.7 98.118C1129.3 123.971 1125.04 144.415 1096.96 163.958C1077.98 177.119 1053.94 183.501 1023.54 183.501C993.146 183.501 961.686 177.264 933.787 171.783C919.103 168.934 905.41 166.194 895.205 165.148C889.258 164.499 880.08 164.139 870.683 164.139C843.738 164.139 812.167 173.838 809.965 187.756C808.9 194.319 814.15 204.198 845.059 213.898L848.473 214.979C966.201 252.082 1048.32 300.471 1131.91 382.068C1154.93 404.568 1172.55 415.025 1187.3 415.025C1190.74 415.036 1194.15 414.437 1197.36 413.258C1213.04 407.525 1224.45 388.018 1237.74 365.59C1244.57 353.98 1252.43 340.819 1261.49 328.127C1304.96 267.375 1368.11 222.889 1440.64 201.927C1460.43 196.19 1480.94 193.193 1501.58 193.021C1564.97 193.021 1609.72 223.489 1652.09 254.859V252.623C1609.8 221.361 1565.05 191.326 1501.58 191.326C1480.77 191.486 1460.08 194.508 1440.12 200.304C1367.21 221.258 1303.67 265.841 1259.84 326.793C1250.63 339.557 1242.85 352.754 1236.02 364.4C1222.95 386.612 1211.68 405.758 1196.63 411.275C1193.61 412.383 1190.42 412.945 1187.19 412.933C1172.95 412.933 1155.77 402.621 1133.08 380.482C1049.28 298.704 966.972 250.171 848.95 212.996L845.5 211.915C822.373 204.703 810.332 196.049 811.653 187.72C813.489 176.182 841.572 165.653 870.572 165.653C879.897 165.653 888.927 166.014 894.874 166.627C905.043 167.708 918.772 170.232 933.31 173.261C961.282 178.778 993 185.016 1023.43 185.016C1053.86 185.016 1078.75 178.526 1098.03 165.148C1126.7 145.209 1131.07 124.44 1136.5 98.1902C1137.97 91.2311 1139.43 84.0557 1141.53 76.5558C1148.87 48.7558 1150.48 48.3952 1165.02 45.0058C1172.39 43.3856 1179.63 41.2898 1186.72 38.7319C1195.46 35.0451 1203.93 30.7806 1212.08 25.9676C1226.18 18.2153 1242.11 9.38133 1251.36 8.4799C1252.74 8.3369 1254.13 8.26468 1255.51 8.26356C1270.49 8.26356 1281.39 16.6649 1292.96 25.6071C1303.64 33.8642 1314.65 42.4097 1329.66 44.5371C1333.01 45.009 1336.38 45.25 1339.76 45.2582C1359.84 45.2582 1377.2 36.5684 1394.02 28.1671C1404.37 22.6014 1415.21 17.944 1426.4 14.249C1448.13 7.75876 1467.91 6.4607 1492.77 6.4607H1505.84H1520.01C1540.73 6.23339 1561.38 8.87964 1581.35 14.3212C1605.59 21.4242 1629.2 30.4564 1651.94 41.328V39.3448C1629.34 28.6166 1605.89 19.7053 1581.82 12.6986C1561.69 7.21865 1540.86 4.5483 1519.97 4.76601Z" fill="#5D5D5D"/>
<path d="M1442.14 816.738C1444.2 819.406 1448.13 823.048 1457.93 823.949C1494.64 826.906 1550.07 831.16 1596.87 873.239L1597.42 873.708C1614 888.893 1627.15 907.316 1636.04 927.794C1638.72 933.743 1643.05 937.133 1647.9 937.133C1649.3 937.078 1650.67 936.747 1651.94 936.159V934.861C1650.68 935.486 1649.31 935.83 1647.9 935.871C1643.5 935.871 1639.53 932.698 1637.07 927.181C1628.1 906.588 1614.85 888.066 1598.16 872.807L1597.61 872.338C1550.51 830.187 1494.82 825.716 1458.11 822.759C1448.75 822.002 1445.08 818.577 1443.1 816.089C1439.47 810.787 1437.81 804.421 1438.4 798.06C1443.5 775.993 1449.85 748.517 1447.46 718.446C1443.43 667.569 1422.72 623.832 1402.68 581.428C1386.6 547.463 1368.39 509.026 1374.71 491.466C1385.98 460.276 1432.01 415.529 1451.28 397.717C1462.85 386.784 1478.32 380.739 1494.38 380.878C1502.09 380.934 1509.74 382.15 1517.07 384.484C1550.84 395.301 1598.64 419.676 1651.94 453.317V452.019C1598.82 418.522 1551.13 394.111 1517.4 383.511C1509.96 381.154 1502.2 379.938 1494.38 379.905C1477.95 379.753 1462.12 385.972 1450.33 397.212C1431.02 415.241 1384.84 459.952 1373.49 491.358C1367.03 509.386 1385.35 548.003 1401.5 582.114C1421.51 624.336 1442.18 667.966 1446.18 718.662C1448.53 748.553 1442.22 775.921 1437.11 797.988C1436.58 804.617 1438.35 811.228 1442.14 816.738Z" fill="#5D5D5D"/>
<path d="M1511.23 784.07C1519.6 788.541 1531.05 790.488 1542.18 792.327C1550.18 793.416 1558.08 795.165 1565.78 797.555C1570.66 799.434 1575.44 801.564 1580.1 803.937C1590.6 809.021 1602.53 814.754 1613.43 814.754C1615.44 814.764 1617.45 814.547 1619.41 814.105L1620.92 813.745C1636.48 809.165 1644.78 790.019 1651.94 772.387V769.467V769.791C1644.6 787.82 1636.45 808.084 1620.74 812.699L1619.34 813.06C1617.45 813.467 1615.52 813.673 1613.58 813.673C1602.97 813.673 1591.15 807.976 1580.72 802.856C1576.03 800.472 1571.21 798.329 1566.3 796.437C1558.53 794.026 1550.57 792.253 1542.51 791.137C1531.49 789.298 1520.11 787.531 1511.93 782.988C1493.79 773.216 1495.67 755.368 1497.69 736.438C1498.68 729.114 1499.02 721.718 1498.71 714.335C1493.98 654.372 1471.29 606.452 1449.34 560.119C1444.43 550.033 1441.71 539.054 1441.35 527.88C1441 516.706 1443.02 505.581 1447.28 495.216C1452.29 483.716 1459.65 473.347 1468.9 464.751C1478.15 456.155 1489.09 449.515 1501.06 445.24C1508.71 442.397 1516.82 440.931 1525 440.914C1560.42 440.914 1593.68 467.596 1623.01 491.141C1631.35 497.812 1639.2 504.086 1646.73 509.494L1652.09 513.352V512.018L1647.35 508.629C1640.01 503.256 1632.04 496.946 1623.71 490.312C1594.34 466.658 1560.83 439.832 1525 439.832C1516.68 439.835 1508.43 441.325 1500.66 444.231C1488.56 448.548 1477.49 455.254 1468.13 463.936C1458.78 472.618 1451.33 483.092 1446.25 494.711C1441.93 505.221 1439.89 516.5 1440.25 527.829C1440.61 539.159 1443.37 550.29 1448.35 560.515C1470.37 606.741 1492.91 654.552 1497.61 714.371C1497.92 721.67 1497.57 728.982 1496.58 736.222C1494.49 754.863 1492.47 773.902 1511.23 784.07Z" fill="#5D5D5D"/>
<path d="M1519.97 41.1838C1489.1 41.1838 1456.24 46.7006 1421.44 52.5058C1382.27 59.0682 1341.74 65.883 1298.61 65.883C1295.49 65.883 1292.4 65.883 1289.43 65.883C1276.35 65.3675 1263.34 63.7144 1250.56 60.9431C1241.98 59.0047 1233.24 57.858 1224.45 57.5177C1205.4 57.5177 1191.42 67.3613 1176.07 91.5557C1168.84 103.991 1162.82 117.065 1158.08 130.606C1148.87 154.439 1139.36 179.103 1118.29 193.706C1110.95 198.754 1097.18 202.612 1082.5 206.758C1056.8 213.97 1027.73 222.083 1023.76 239.21C1018.84 260.556 1063.45 289.69 1087.42 305.447C1091.9 308.368 1095.75 310.855 1098.43 312.658C1126.51 332.922 1149.82 346.408 1171.85 346.408C1174.84 346.417 1177.83 346.151 1180.77 345.615C1198.43 342.514 1214.43 330.29 1231.17 307.105C1279.51 239.598 1349.71 190.169 1430.32 166.879C1453.41 160.153 1477.35 156.622 1501.43 156.386C1564.75 156.386 1611.56 181.627 1651.94 209.499V208.165C1611.56 180.256 1564.75 155.305 1501.43 155.305C1477.23 155.469 1453.17 158.952 1429.96 165.653C1349.1 189.009 1278.68 238.576 1230.18 306.276C1213.63 329.209 1197.84 341.324 1180.51 344.389C1177.63 344.894 1174.71 345.148 1171.78 345.146C1149.97 345.146 1126.88 331.733 1098.94 311.613C1096.41 309.774 1092.56 307.25 1087.93 304.401C1064.18 288.861 1019.94 259.943 1024.72 239.318C1028.39 222.912 1057.28 214.871 1082.64 207.732C1097.33 203.585 1111.39 199.691 1118.77 194.571C1140.1 179.752 1149.68 154.908 1158.96 130.966C1163.69 117.496 1169.68 104.484 1176.84 92.0966C1191.93 68.2628 1205.7 58.5634 1224.31 58.5634C1233.03 58.967 1241.7 60.1742 1250.19 62.1691C1263.05 64.9413 1276.13 66.5943 1289.28 67.1089C1292.26 67.1089 1295.34 67.1089 1298.46 67.1089C1341.71 67.1089 1382.27 60.2941 1421.51 53.7317C1456.24 47.8904 1489.02 42.4097 1519.82 42.4097C1537.18 42.1969 1554.48 44.3817 1571.22 48.9C1599.09 57.2571 1626.13 68.1202 1651.98 81.3515V80.1616C1626.26 67.0569 1599.38 56.3026 1571.66 48.0347C1554.84 43.3748 1537.44 41.0684 1519.97 41.1838Z" fill="#5D5D5D"/>
<path d="M1487.48 803.469C1494.82 805.344 1502.16 807.074 1509.51 808.625C1547.9 817.351 1581.05 824.923 1614.2 854.381L1614.86 854.958C1622.46 861.737 1628.48 865.054 1633.22 865.054C1633.93 865.046 1634.65 864.961 1635.35 864.802C1642.69 863.179 1646.14 853.3 1650.03 840.572C1650.62 838.588 1651.28 836.641 1651.94 834.694V831.088C1650.91 834.117 1649.92 837.182 1648.97 840.211C1645.11 852.615 1641.62 862.206 1635.05 863.72C1630.28 864.802 1624.04 861.701 1615.49 854.129L1614.83 853.552C1581.46 823.877 1548.2 816.305 1509.65 807.543C1502.57 805.921 1495.23 804.226 1487.63 802.387C1460.68 795.752 1465.23 770.909 1469.64 746.859C1471.95 736.867 1473.03 726.636 1472.83 716.391C1468.46 660.971 1446.77 615.142 1425.77 570.792C1423.27 565.491 1420.59 560.335 1417.99 555.323C1404.48 529.326 1392.84 506.898 1409.51 479.279C1422.03 458.51 1440.79 441.491 1458.96 425.193C1462.22 422.2 1465.49 419.279 1468.68 416.323C1476.47 409.568 1486.65 406.073 1497.02 406.587C1542.25 406.587 1611.82 453.858 1651.83 482.307V480.973C1611.45 452.38 1542.32 405.47 1497.02 405.47C1486.36 404.958 1475.92 408.554 1467.91 415.493C1464.72 418.45 1461.45 421.371 1458.19 424.364C1439.83 440.842 1421.15 457.897 1408.55 478.846C1391.59 506.971 1403.93 530.732 1417 555.936C1419.6 560.912 1422.28 566.104 1424.78 571.369C1445.74 615.611 1467.4 661.331 1471.77 716.571C1471.92 726.72 1470.85 736.85 1468.57 746.751C1464.21 771.234 1459.54 796.582 1487.48 803.469Z" fill="#5D5D5D"/>
<path d="M714.922 1322.76C705.635 1336.5 694.108 1353.63 698.072 1365.46C699.109 1368.06 700.75 1370.4 702.866 1372.28C704.981 1374.16 707.513 1375.52 710.26 1376.27C711.533 1376.71 712.875 1376.93 714.225 1376.92C728.431 1376.92 750.935 1355.29 770.684 1336.43C783.313 1324.35 795.207 1312.92 802.365 1309.75C836.615 1294.5 883.787 1287.25 925.416 1280.9C941.862 1278.38 957.354 1276 971.707 1273.26C1002.58 1267.14 1033.97 1263.96 1065.46 1263.77C1162.12 1263.77 1243.32 1297.96 1306.76 1365.35C1313.84 1372.88 1324.19 1376.71 1337.48 1376.71C1378.89 1376.71 1449.93 1337.04 1499.96 1263.74C1529.88 1219.86 1573.38 1130.15 1528.15 1022.34C1510.02 979.067 1483.11 959.019 1443.46 959.019C1413.25 959.019 1378.82 969.836 1338.95 982.529C1289.91 998.069 1234.29 1015.67 1174.49 1015.67C1128.83 1015.89 1083.84 1004.8 1043.69 983.43C915.982 916.508 912.237 794.454 923.287 695.586C927.545 657.149 920.607 626.716 903.133 607.606C897.039 600.919 889.541 595.61 881.157 592.043C872.773 588.476 863.701 586.737 854.566 586.945C817.856 586.945 771.712 615.034 755.119 668.759C739.518 719.239 776.521 765.284 819.398 818.504C867.708 878.468 922.479 946.327 911.87 1037.12C906.584 1082.12 889.844 1125.28 867.121 1152.5C849.867 1173.24 834.633 1175.07 818.48 1177.02C806.146 1178.5 793.408 1180.05 778.467 1189.35C767.05 1196.56 763.489 1208.57 759.671 1221.37C757.584 1230.4 753.933 1239.01 748.879 1246.83C745.869 1250.94 740.619 1251.84 735.076 1252.78C727.734 1254 719.511 1255.45 715.106 1264.71C712.059 1271.17 716.097 1278.77 719.988 1286.13C723.219 1292.26 726.596 1298.57 725.605 1303.87C724.797 1308.16 720.208 1314.76 714.922 1322.76ZM721.86 1285.23C718.189 1278.02 714.518 1271.2 717.015 1265.65C720.943 1257.36 728.321 1256.09 735.37 1254.83C741.096 1253.86 747.007 1252.85 750.531 1248.05C755.676 1240.03 759.4 1231.2 761.544 1221.95C765.215 1209.54 768.665 1197.79 779.421 1191.12C794.105 1182.07 806.44 1180.55 818.554 1179.08C835.11 1177.09 850.785 1175.18 868.553 1153.84C891.57 1126.22 908.456 1082.66 913.779 1037.3C924.498 945.678 869.434 877.314 820.867 816.99C778.357 764.238 741.684 718.662 756.955 669.156C773.254 616.404 818.297 588.82 854.383 588.82C863.216 588.615 871.99 590.291 880.101 593.733C888.213 597.175 895.469 602.301 901.371 608.76C918.441 627.437 925.196 657.293 920.974 695.297C909.961 794.815 913.632 917.698 1042.52 985.197C1082.97 1006.72 1128.3 1017.88 1174.31 1017.65C1234.44 1017.65 1290.24 999.98 1339.5 984.404C1379.19 971.856 1413.47 961.003 1443.35 961.003C1482.56 961.003 1508.07 980.113 1526.06 1023.02C1570.88 1129.93 1527.79 1218.96 1498.09 1262.48C1450.37 1332.61 1378.82 1374.54 1337.37 1374.54C1324.71 1374.54 1314.87 1370.94 1308.19 1363.73C1244.35 1295.87 1162.63 1261.47 1065.35 1261.47C1033.73 1261.66 1002.2 1264.85 971.193 1270.99C956.913 1273.73 941.385 1276.11 924.975 1278.63C883.2 1285.05 835.881 1292.33 801.374 1307.69C794.032 1311.05 782.395 1322.12 769.106 1334.77C749.576 1353.48 727.44 1374.69 714.041 1374.69C712.932 1374.69 711.828 1374.52 710.774 1374.18C708.309 1373.59 706.024 1372.42 704.109 1370.78C702.193 1369.15 700.703 1367.09 699.761 1364.77C696.09 1353.95 707.323 1337.26 716.354 1323.88C721.787 1315.84 726.449 1308.92 727.367 1304.27C728.799 1298.32 725.274 1291.68 721.86 1285.23Z" fill="#5D5D5D"/>
<path d="M1602.16 1076.78C1608.81 1080.17 1616.26 1081.75 1623.75 1081.36C1633.32 1081.2 1642.82 1079.66 1651.94 1076.78V1074.15C1642.82 1077.04 1633.32 1078.57 1623.75 1078.69C1616.76 1079.06 1609.8 1077.62 1603.56 1074.51C1582.19 1061.03 1572.46 1037.12 1562.37 1011.88C1553.67 990.065 1544.67 967.493 1527.16 951.592V950.834H1526.39C1506.31 933.419 1479.22 924.945 1443.61 924.945C1408.88 924.945 1372.36 933.13 1343.03 939.693C1322.95 944.2 1305.66 948.094 1294.5 948.094C1287.96 948.094 1283.96 946.76 1282.31 944.02C1280.14 940.414 1281.79 933.635 1287.23 923.864C1312.59 878.359 1363.8 769.899 1360.28 725.044C1357.49 689.6 1340.16 652.93 1323.39 617.666C1299.12 566.429 1274.05 513.461 1292.29 462.873C1313.14 405.181 1404.96 301.985 1470.3 293.223C1474.35 292.691 1478.43 292.426 1482.52 292.43C1525 292.43 1587.18 317.31 1651.98 353.331V350.663C1587.15 314.605 1525.03 289.906 1482.52 289.906C1478.31 289.903 1474.11 290.168 1469.93 290.699C1403.85 299.57 1310.9 403.775 1289.87 462.043C1271.26 513.605 1296.59 567.042 1321.07 618.712C1337.74 653.904 1354.96 690.249 1357.78 725.225C1360.94 765.248 1316.26 866.677 1285.06 922.674C1278.97 933.491 1277.43 940.702 1280.18 945.318C1282.34 948.923 1287.04 950.618 1294.57 950.618C1306.02 950.618 1323.46 946.688 1343.65 942.181C1373.02 935.618 1409.25 927.469 1443.68 927.469C1478.85 927.469 1505.5 935.835 1525.14 953.034C1542.47 968.575 1551.43 991.038 1560.09 1012.74C1570.22 1038.45 1579.91 1062.68 1602.16 1076.78Z" fill="#5D5D5D"/>
<path d="M767.235 1284.87C771.154 1285.6 775.143 1285.9 779.129 1285.77C790.325 1285.77 831.771 1284.15 896.38 1263.2C953.899 1245.14 1013.93 1235.97 1074.31 1236.01C1174.24 1236.01 1240.64 1250.72 1326.14 1331.09C1332.72 1336.99 1341.4 1340.09 1350.3 1339.71C1387.48 1339.71 1443.69 1300.05 1478.27 1249.24C1505.28 1209.58 1544.53 1128.7 1503.96 1031.96C1486.45 990.245 1464.72 984.584 1443.47 984.584C1417.4 984.584 1384.73 994.896 1346.99 1006.87C1296.11 1022.98 1238.44 1041.23 1174.46 1041.23C1124.47 1041.48 1075.24 1029.35 1031.29 1005.97C888.12 930.931 886.175 791.209 897.151 692.629C900.565 662.088 895.719 637.93 883.568 624.589C879.911 620.616 875.414 617.476 870.392 615.389C865.37 613.303 859.944 612.32 854.494 612.51C827.292 612.51 793.005 634.144 780.12 676.043C768.483 713.722 801.559 754.791 839.847 802.243C888.781 862.999 949.683 938.575 937.825 1039.9C934.607 1068.3 926.683 1096 914.368 1121.89C896.338 1160.58 870.484 1195.26 838.379 1223.82C820.901 1238.65 802.117 1251.92 782.249 1263.49C768.557 1271.85 760.223 1276.86 760.884 1280.72C761.215 1282.6 763.197 1283.86 767.235 1284.87ZM782.983 1264.57C802.899 1253.01 821.731 1239.73 839.26 1224.9C871.466 1196.22 897.417 1161.42 915.542 1122.61C927.883 1096.61 935.831 1068.8 939.073 1040.29C950.784 938.359 889.846 862.566 840.655 801.666C802.55 754.359 769.658 713.506 781.111 676.367C793.85 635.154 827.623 613.591 854.531 613.591C859.828 613.4 865.103 614.349 869.986 616.374C874.87 618.398 879.242 621.449 882.797 625.31C894.728 638.399 899.464 662.269 896.086 692.485C885.073 791.389 887.019 931.58 1030.81 1006.9C1074.9 1030.39 1124.3 1042.57 1174.46 1042.31C1238.59 1042.31 1296.33 1024.03 1347.36 1007.88C1385.02 995.942 1417.51 985.666 1443.43 985.666C1464.13 985.666 1485.65 991.327 1502.86 1032.36C1543.24 1128.63 1504.11 1209.04 1477.17 1248.7C1443.32 1298.28 1386.35 1338.67 1350.11 1338.67C1341.51 1339.04 1333.1 1336.06 1326.73 1330.37C1285.28 1291.39 1246.7 1266.62 1205.37 1252.42C1169.76 1240.19 1130.51 1234.96 1074.13 1234.96C1013.63 1234.91 953.492 1244.1 895.866 1262.19C831.367 1283.1 790.069 1284.76 778.945 1284.76C775.045 1284.88 771.143 1284.57 767.308 1283.86C763.931 1282.99 762.132 1281.95 761.949 1280.72C761.582 1277.55 770.502 1272.1 782.91 1264.57H782.983Z" fill="#5D5D5D"/>
<path d="M854.568 637.389C834.891 637.389 813.269 656.932 806.184 674.492C801.485 686.139 805.046 706.006 815.729 727.712C825.824 748.157 839.223 763.77 849.135 766.798C850.601 767.223 852.121 767.442 853.65 767.447C855.326 767.456 856.991 767.175 858.569 766.618C871.344 762.255 871.05 754.539 870.426 737.772C869.64 723.064 870.057 708.317 871.674 693.674C874.611 667.461 870.426 647.485 864.773 641.319C863.512 639.916 861.928 638.827 860.154 638.143C858.379 637.46 856.464 637.201 854.568 637.389ZM870.022 693.386C868.405 708.113 867.988 722.944 868.774 737.736C869.398 754.683 869.655 760.993 858.128 764.923C855.449 765.808 852.548 765.808 849.869 764.923C840.398 762.111 827.439 746.895 817.564 726.775C807.102 705.537 803.541 686.175 808.056 674.997C814.921 658.014 835.809 638.94 854.751 638.94C856.378 638.76 858.026 638.956 859.562 639.514C861.098 640.071 862.481 640.973 863.598 642.149C868.774 648.279 872.702 667.677 870.022 693.386Z" fill="#5D5D5D"/>
<path d="M682.361 -139.21H679.645C673.721 -118.247 669.728 -96.8026 667.714 -75.1366C663.639 -34.4641 660.042 18.7923 668.522 70.1378C674.689 107.529 687.097 124.224 708.902 124.224C722.705 124.224 738.747 117.661 757.323 110.053C770.529 104.338 784.075 99.413 797.887 95.3057L801.998 94.1879C842.636 83.3707 888.45 82.0006 937.053 89.7168C950.22 92.0616 963.246 95.1069 976.076 98.8393C994.725 103.887 1014 109.116 1033.56 109.981C1041.54 110.829 1049.62 109.727 1057.06 106.772C1072.7 99.1277 1065.1 80.0535 1057.06 59.8975C1052.32 47.9265 1047.4 35.595 1046.6 24.4894C1042.3 -34.3199 1075.74 -87.973 1120.02 -139.174H1116.64C1072.77 -88.0451 1039.73 -34.392 1044.06 24.6696C1044.87 36.1358 1049.86 48.6837 1054.71 60.7268C1062.64 80.6664 1069.39 97.8657 1055.96 104.464C1048.89 107.191 1041.26 108.205 1033.71 107.421C1014.44 106.592 995.312 101.399 976.81 96.3874C963.885 92.6227 950.76 89.5533 937.494 87.1928C888.523 79.4045 842.342 80.9188 801.374 91.736L797.226 92.8538C783.262 96.9796 769.568 101.941 756.221 107.709C737.866 115.209 722.081 121.7 708.792 121.7C688.675 121.7 677.038 105.654 671.091 69.7051C662.685 18.6842 666.246 -34.3559 670.32 -74.8842C672.323 -96.6427 676.354 -118.175 682.361 -139.21Z" fill="#5D5D5D"/>
<path d="M649.434 869.814C647.679 867.955 645.286 866.799 642.716 866.569C637.576 866.569 633.979 872.987 628.546 882.686C621.373 896.385 612.387 909.091 601.821 920.474L597.893 924.585C582.585 940.522 575.574 947.805 577.299 951.7C578.07 953.466 580.456 954.26 584.971 954.26C591.319 954.041 597.645 953.427 603.914 952.421C607.818 951.886 611.755 951.621 615.697 951.627C647.525 951.627 674.066 969.151 693.449 981.952C704.792 989.451 713.749 995.365 720.173 995.365C721.439 995.395 722.693 995.126 723.83 994.58C724.968 994.034 725.955 993.227 726.708 992.228C747.045 966.591 675.938 893.431 649.434 869.814ZM725.276 991.146C724.684 991.92 723.912 992.543 723.024 992.963C722.136 993.384 721.159 993.589 720.173 993.562C714.3 993.562 705.489 987.793 694.477 980.473C674.91 967.529 648.075 949.825 615.697 949.825C611.669 949.811 607.644 950.088 603.657 950.654C597.472 951.632 591.232 952.234 584.971 952.457C581.3 952.457 579.428 951.988 578.988 950.978C577.739 948.166 586.33 939.26 599.215 925.738L603.143 921.736C613.833 910.268 622.92 897.451 630.161 883.624C635.3 874.465 638.678 868.407 642.716 868.407C644.834 868.645 646.791 869.632 648.222 871.184C681.114 900.498 743.301 968.394 725.276 991.146Z" fill="#5D5D5D"/>
<path d="M649.946 899.886C637.098 899.886 620.578 919.789 620.578 929.236C620.523 930.099 620.662 930.964 620.986 931.768C621.31 932.573 621.81 933.297 622.452 933.889C623.094 934.482 623.861 934.928 624.698 935.195C625.535 935.463 626.422 935.546 627.296 935.438C646.202 935.762 666.209 947.553 680.819 956.171C689.483 961.255 695.723 964.933 699.431 964.933C699.953 964.961 700.476 964.879 700.963 964.692C701.451 964.506 701.892 964.219 702.258 963.851C702.717 963.263 703.046 962.587 703.223 961.867C703.4 961.146 703.421 960.397 703.285 959.668C701.927 942.361 668.411 907.638 654.829 900.967C653.314 900.225 651.639 899.854 649.946 899.886ZM700.606 959.885C700.606 961.399 700.606 961.94 700.238 962.156C699.871 962.373 699.982 962.409 699.321 962.409C696.347 962.409 689.703 958.515 682.03 954.008C667.347 945.246 646.826 933.275 627.223 932.914C624.286 932.914 623.001 931.76 623.038 929.308C623.038 920.871 638.493 902.446 649.946 902.446C651.216 902.428 652.472 902.7 653.617 903.239C668.117 910.414 699.394 944.164 700.606 959.885Z" fill="#5D5D5D"/>
<path d="M604.537 572.847C607.694 572.847 610.19 568.448 612.687 558.424C621.901 521.646 652.333 472.896 699.579 447.007C747.301 420.794 779.312 413.979 796.419 410.337C804.936 408.498 809.194 407.597 810.222 405.397C810.409 404.906 810.473 404.378 810.409 403.857C810.345 403.336 810.155 402.838 809.855 402.405C806.551 396.455 747.448 363.896 662.061 357.153L658.39 356.864C650.718 356.251 644.073 355.711 637.723 355.711C615.513 355.711 597.562 361.804 555.713 396.527C549.105 402.008 542.351 407.092 535.816 412.032C515.589 427.284 498.115 440.409 499.107 455.301C499.988 466.767 511.514 478.125 535.486 491.105C561.99 505.528 578.143 533.941 588.825 552.763C595.837 564.95 600.315 572.847 604.537 572.847ZM536.22 490.42C512.946 477.8 501.236 466.37 500.428 455.445C499.327 441.022 516.58 428.113 536.551 413.078C543.122 408.138 549.876 403.054 556.521 397.537C598.076 363.03 615.844 356.973 637.796 356.973C644.11 356.973 650.718 357.513 658.39 358.126L662.061 358.415C745.319 365.013 805.817 397.465 808.9 403.09C809.561 404.208 809.414 404.784 809.267 405.109C808.46 406.84 803.871 407.813 796.235 409.436C779.055 413.042 747.044 419.928 699.101 446.25C651.158 472.572 620.873 521.501 611.585 558.352C609.346 567.366 607.033 571.765 604.537 571.765C600.866 571.765 596.13 563.256 589.853 552.475C579.281 533.545 563.018 504.915 536.22 490.42Z" fill="#5D5D5D"/>
<path d="M611.474 634.757C614.668 634.757 616.871 631.151 618.412 622.93C627.957 573.28 648.588 502.968 717.529 465.433C740.795 453.107 765.531 443.672 791.169 437.344C797.514 435.137 803.471 431.975 808.826 427.969C816.425 422.921 824.317 417.729 831.586 417.729C832.411 417.729 833.234 417.802 834.046 417.945C837.792 418.831 841.251 420.629 844.104 423.174C846.998 425.99 850.802 427.724 854.86 428.077C856.602 428.06 858.324 427.705 859.926 427.032C862.602 425.813 864.804 423.777 866.203 421.226C867.077 419.287 868.572 417.681 870.461 416.653C872.349 415.624 874.528 415.23 876.666 415.529C882.869 416.034 886.21 420.686 889.734 425.589C891.911 429.164 894.871 432.219 898.398 434.532C901.985 436.414 905.969 437.451 910.035 437.56C911.178 437.685 912.335 437.545 913.412 437.15C914.49 436.756 915.458 436.118 916.239 435.289C916.805 434.384 917.149 433.363 917.245 432.306C917.341 431.248 917.185 430.183 916.789 429.195C914.403 420.686 895.828 412.753 883.567 407.561C879.896 406.01 876.776 404.64 874.793 403.594C856.438 394.075 838.084 386.035 822.812 379.4C757.763 351.456 698.476 334.401 641.54 327.261C635.905 326.518 630.228 326.12 624.543 326.072C596.497 326.072 574.764 338.115 531.52 377.633C520.911 387.297 509.972 395.662 499.436 403.703C475.758 421.731 457.073 436.154 457.513 453.894C457.881 468.029 470.399 483.101 496.866 501.309C539.523 530.66 567.863 575.191 586.585 604.649C598.369 622.75 605.931 634.757 611.474 634.757ZM497.674 500.408C471.463 482.379 459.129 467.596 458.762 453.822C458.358 436.443 476.823 422.344 500.244 404.496C510.816 396.455 521.756 388.09 532.401 378.39C575.425 339.088 596.974 327.117 624.69 327.117C630.326 327.165 635.954 327.563 641.54 328.307C698.366 335.518 757.579 352.429 822.519 380.338C837.937 386.972 856.145 395.013 874.426 404.532C876.445 405.578 879.602 406.948 883.273 408.498C895.351 413.69 913.632 421.479 915.872 429.484C916.22 430.312 916.368 431.209 916.304 432.104C916.241 432.999 915.967 433.867 915.504 434.64C914.805 435.305 913.967 435.814 913.048 436.131C912.129 436.449 911.151 436.567 910.182 436.479C906.336 436.346 902.571 435.36 899.169 433.594C895.79 431.358 892.956 428.415 890.872 424.976C887.201 420.073 883.53 414.989 876.996 414.448C874.661 414.133 872.285 414.561 870.217 415.671C868.148 416.781 866.497 418.513 865.506 420.613C864.544 422.524 863.058 424.133 861.217 425.26C859.375 426.388 857.25 426.989 855.08 426.996C851.274 426.618 847.713 424.977 844.985 422.344C841.996 419.679 838.373 417.794 834.449 416.863C833.576 416.718 832.692 416.646 831.806 416.647C824.171 416.647 816.168 421.948 808.422 427.068C803.197 431.032 797.36 434.148 791.132 436.298C765.391 442.647 740.556 452.118 717.198 464.495C647.743 502.247 626.966 572.883 617.384 622.714C615.99 629.925 614.081 633.531 611.548 633.531C606.592 633.531 598.699 621.091 587.76 603.892C569.001 574.506 540.478 529.867 497.674 500.408Z" fill="#5D5D5D"/>
<path d="M747.081 1087.17C759.981 1085.39 772.233 1080.51 782.749 1072.96C793.266 1065.41 801.719 1055.43 807.359 1043.9C817.858 1022.52 823.548 986.206 790.95 934.897C776.963 912.83 761.582 890.583 746.898 869.057C704.682 807.471 664.815 749.347 648.332 691.006C629.72 625.022 644.661 570.575 695.394 519.699C739.446 475.637 797.374 450.361 854.678 450.361C897.738 450.361 936.173 465.252 962.861 492.259C992.229 521.934 1006.91 565.383 1005.26 617.846C1004.89 630.034 1004.31 642.618 1003.68 655.959C1001.44 703.338 998.947 756.919 1006.73 801.702C1015.69 853.083 1036.94 884.814 1071.67 898.732C1088.25 905.743 1106.05 909.551 1124.09 909.946C1138.26 910.098 1152.26 906.859 1164.87 900.508C1177.49 894.156 1188.34 884.884 1196.48 873.492C1226.99 832.927 1234.29 763.481 1214.65 700.634C1172.55 565.852 1071.49 485.408 921.673 399.268C808.02 334.004 712.17 313.74 625.132 301.553C619.053 300.675 612.92 300.217 606.777 300.183C570.544 300.183 553.254 318.211 531.411 341.288C523.005 350.086 514.341 359.316 503.585 368.511C493.399 377.133 482.439 384.832 470.84 391.515C455.532 400.746 442.317 408.715 427.78 430.061C398.926 472.428 437.545 498.569 478.403 525.937C500.025 540.359 522.454 555.54 534.312 573.316C609.493 685.093 579.171 804.55 525.685 878.936C510.413 900.21 488.094 920.294 464.453 941.532C435.562 967.529 405.717 994.427 388.611 1024.46C381.269 1037.37 379.176 1046.1 382.223 1051.25C384.462 1054.86 389.565 1056.81 397.311 1056.81C411.407 1056.81 433.8 1051.07 459.717 1044.44C496.097 1035.1 541.36 1023.53 581.373 1023.53C599.927 1023.05 618.371 1026.46 635.484 1033.51C649.39 1040.33 662.426 1048.75 674.323 1058.57C693.926 1073.57 712.464 1087.71 738.675 1087.71C741.485 1087.69 744.292 1087.51 747.081 1087.17ZM635.924 1032.47C618.705 1025.4 600.135 1022.07 581.484 1022.7C541.323 1022.7 495.987 1034.31 459.534 1043.65C433.653 1050.28 411.334 1055.98 397.384 1055.98C390.042 1055.98 385.27 1054.35 383.251 1050.97C380.388 1046.21 382.48 1037.8 389.638 1025.26C406.635 995.401 436.443 968.575 465.297 942.613C488.975 921.34 511.331 901.22 526.676 879.874C557.482 837.553 575.927 787.767 580.015 735.897C584.163 678.206 569.002 623.327 535.156 572.847C523.078 554.818 500.649 539.783 478.953 525.179C438.573 497.956 400.358 472.247 428.624 430.782C443.051 409.652 456.156 401.72 471.318 392.561C483.03 385.87 494.09 378.133 504.356 369.448C514.138 360.813 523.462 351.691 532.293 342.117C553.951 319.365 571.095 301.372 606.85 301.372C612.932 301.396 619.004 301.842 625.021 302.707C711.767 314.786 807.652 335.158 921.159 400.313C1070.6 486.31 1171.67 566.645 1213.7 701.066C1233.23 763.589 1226 832.639 1195.67 872.951C1187.63 884.213 1176.92 893.382 1164.46 899.664C1152 905.947 1138.17 909.154 1124.16 909.008C1106.27 908.619 1088.62 904.836 1072.18 897.866C1037.82 884.093 1016.79 852.651 1007.9 801.666C1000.12 757.099 1002.62 703.482 1004.86 656.139C1005.48 642.834 1006.07 630.214 1006.44 618.027C1008.05 565.275 993.294 521.538 963.742 491.826C936.834 464.603 898.142 449.604 854.751 449.604C797.154 449.604 738.822 474.844 694.697 519.266C667.752 546.309 651.085 574.181 643.817 604.541C637.319 631.62 638.457 660.105 647.488 691.619C664.007 750.104 703.911 808.336 746.2 869.958C760.884 891.592 776.229 913.768 790.252 935.799C822.593 986.711 816.977 1022.62 806.588 1043.75C801.023 1055.1 792.689 1064.93 782.327 1072.35C771.964 1079.77 759.895 1084.57 747.191 1086.3C744.438 1086.62 741.668 1086.77 738.895 1086.77C713.198 1086.77 694.843 1072.74 675.204 1057.92C663.182 1047.94 649.997 1039.4 635.924 1032.47Z" fill="#5D5D5D"/>
<path d="M771.161 1042.46C775.868 1039.14 779.797 1034.87 782.685 1029.94C785.572 1025.01 787.351 1019.53 787.901 1013.86C792.306 978.382 760.295 926.676 731.515 893.179C695.649 851.353 660.041 806.642 642.64 763.373C641.087 758.188 639.8 752.929 638.786 747.616C633.206 721.943 623.808 679.107 610.262 679.107C608.959 679.153 607.692 679.539 606.591 680.225C600.975 683.506 599.249 689.961 601.525 699.948C603.921 708.871 607.141 717.561 611.143 725.91C614.998 734.708 618.485 742.316 618.302 746.643C618.302 757.784 612.869 762.688 607.766 767.447C603.081 771.038 599.707 776.022 598.148 781.654C596.239 790.236 599.837 796.69 603.324 802.928C606.812 809.166 609.895 814.61 608.831 822.291C606.885 836.389 561.438 887.193 521.351 932.048C488.312 969.151 459.532 1001.21 460.046 1007.34C460.054 1007.54 460.104 1007.74 460.193 1007.93C460.281 1008.11 460.406 1008.28 460.56 1008.42C463.313 1010.65 468.269 1011.73 475.794 1011.73C491.728 1010.94 507.588 1009.08 523.26 1006.15C546.424 1002.54 572.671 998.358 595.468 998.358C613.272 998.358 626.598 1000.85 636.179 1005.97C641.429 1008.74 647.192 1012.06 653.359 1015.56C680.745 1031.21 714.812 1050.64 743.666 1050.64C753.487 1050.88 763.127 1048.01 771.161 1042.46ZM636.546 1005.06C626.782 999.836 613.309 997.312 595.321 997.312C572.451 997.312 546.13 1001.46 522.93 1005.1C507.321 1008.05 491.522 1009.91 475.648 1010.69C468.306 1010.69 463.643 1009.68 460.964 1007.62C460.964 1007.62 460.964 1007.62 460.964 1007.3C460.486 1001.6 490.331 968.178 522.012 932.806C562.209 887.842 607.729 836.894 609.712 822.471C610.85 814.466 607.436 808.336 604.132 802.423C600.828 796.51 597.23 790.091 599.029 781.906C600.539 776.495 603.799 771.711 608.317 768.277C613.603 763.373 619.073 758.289 619.33 746.643C619.33 742.063 615.989 734.383 611.988 725.441C608.037 717.153 604.843 708.538 602.443 699.696C600.351 690.213 601.819 684.119 607.032 681.091C608.005 680.501 609.12 680.178 610.262 680.153C622.927 680.153 632.545 724.251 637.721 747.905C638.735 753.28 640.034 758.599 641.612 763.842C659.086 807.11 694.768 851.893 730.67 893.648C759.304 927 791.168 978.382 786.836 1013.5C786.289 1019.02 784.549 1024.36 781.731 1029.17C778.914 1033.98 775.085 1038.14 770.5 1041.37C762.613 1046.82 753.154 1049.62 743.519 1049.38C714.958 1049.38 681.112 1030.02 653.763 1014.48C647.633 1011.16 641.796 1007.84 636.546 1005.06Z" fill="#5D5D5D"/>
<path d="M758.607 997.204C761.874 967.529 729.459 920.907 713.27 902.986C691.872 879.139 671.752 854.214 652.993 828.312C640.181 811.041 633.133 801.522 628.581 801.522C625.46 801.522 623.735 805.488 622.671 815.223C614.668 888.636 566.321 928.407 537.43 952.24C524.802 962.625 516.432 969.512 516.102 975.173C516.053 975.99 516.181 976.808 516.479 977.573C516.776 978.337 517.236 979.031 517.827 979.608C520.471 982.384 524.655 983.646 531.006 983.646C539.927 983.163 548.792 981.957 557.511 980.041C572.166 977.011 587.069 975.285 602.04 974.884C623.405 974.884 640.622 980.113 654.755 990.858C674.578 1006 703.983 1022.19 726.963 1022.19C734.503 1022.43 741.92 1020.26 748.108 1016.03C751.137 1013.82 753.644 1010.99 755.456 1007.74C757.268 1004.5 758.343 1000.9 758.607 997.204ZM726.853 1021.11C704.166 1021.11 675.019 1005.06 655.306 990.028C640.989 979.211 623.552 973.803 601.93 973.803C586.894 974.203 571.928 975.953 557.217 979.031C548.56 980.944 539.756 982.15 530.896 982.637C528.692 982.901 526.457 982.717 524.329 982.097C522.201 981.477 520.225 980.433 518.525 979.031C518.035 978.568 517.653 978.005 517.406 977.383C517.158 976.76 517.052 976.092 517.093 975.425C517.387 970.233 526.05 963.094 538.055 953.25C567.055 929.38 615.586 889.465 623.662 815.62C624.616 806.786 626.121 802.856 628.471 802.856C632.472 802.856 639.814 812.771 651.965 829.213C670.817 855.047 691.01 879.911 712.463 903.708C728.542 921.52 760.736 967.745 757.506 997.096C757.25 1000.63 756.219 1004.08 754.483 1007.19C752.747 1010.3 750.347 1013.01 747.447 1015.12C741.415 1019.24 734.194 1021.34 726.853 1021.11Z" fill="#5D5D5D"/>
<path d="M1072.26 700.525C1068.58 756.919 1084.96 795.716 1101.62 813.24C1109.26 821.281 1117.67 825.68 1125.23 825.68C1135.91 825.68 1143.95 817.423 1147.84 802.459C1172.91 705.898 1087.53 604.145 1077.06 595.635C1074.02 593.183 1071.96 592.895 1070.6 594.337C1068.14 596.969 1068.91 605.587 1070.31 621.2C1073.08 647.55 1073.73 674.074 1072.26 700.525ZM1071.93 595.563C1072 595.468 1072.09 595.393 1072.2 595.342C1072.31 595.292 1072.43 595.269 1072.55 595.275C1073.06 595.275 1074.05 595.563 1075.85 597.041C1086.24 605.479 1170.89 706.331 1146.04 801.99C1142.37 816.125 1135.03 823.877 1125.19 823.877C1118.14 823.877 1110.21 819.658 1102.94 812.014C1086.5 794.779 1070.27 756.45 1074.02 700.634C1075.5 674.099 1074.86 647.491 1072.11 621.055C1070.97 607.426 1070.09 597.582 1071.93 595.563Z" fill="#5D5D5D"/>
<path d="M1519.97 66.424C1491.26 66.424 1459.43 71.7604 1425.77 77.2411C1385.39 83.9838 1343.95 90.9789 1298.61 90.9789C1295.27 90.9789 1291.96 90.9789 1288.84 90.9789L1280.84 90.7626C1273.98 90.7626 1267.52 90.402 1261.28 90.402C1222.22 90.402 1198.06 98.2264 1182.09 139.44C1172.03 165.509 1160.62 195.076 1133.19 214.114C1125.45 219.523 1117.7 224.102 1110.84 228.176C1094.98 237.587 1082.46 245.015 1081.98 255.291C1081.58 264.738 1091.27 276.06 1113.52 292.106C1134.81 307.466 1152.36 314.93 1167.11 314.93C1168.44 314.93 1169.79 314.93 1171.08 314.75C1192.52 312.767 1206.91 295.387 1225.12 273.356C1234.07 262.145 1243.63 251.409 1253.75 241.193C1300.81 194.728 1359.1 160.737 1423.17 142.396C1448.59 135.088 1474.94 131.302 1501.43 131.147C1563.84 131.147 1612.07 153.322 1651.94 178.958V177.66C1612.07 152.096 1563.84 130.065 1501.43 130.065C1474.84 130.241 1448.4 134.051 1422.87 141.387C1358.62 159.765 1300.16 193.858 1252.98 240.472C1242.83 250.701 1233.24 261.462 1224.27 272.707C1206.21 294.522 1191.97 311.793 1170.97 313.704C1169.72 313.704 1168.4 313.704 1167.11 313.704C1152.61 313.704 1135.29 306.276 1114.14 291.06C1092.12 275.303 1082.68 264.234 1083.09 255.183C1083.53 245.484 1095.86 238.2 1111.43 228.97C1118.29 224.895 1126.11 220.28 1133.86 214.871C1161.53 195.617 1172.99 165.906 1183.12 139.692C1198.83 99.0557 1222.73 91.3395 1261.28 91.3395C1267.52 91.3395 1273.98 91.3395 1280.8 91.7001L1288.81 91.9164C1291.96 91.9164 1295.23 91.9164 1298.61 91.9164C1344.02 91.9164 1385.68 84.9213 1425.96 78.1786C1459.58 72.5537 1491.34 67.3615 1519.97 67.3615C1534.93 67.1568 1549.84 69.0138 1564.28 72.8782C1592.73 80.8829 1621.88 93.9717 1651.94 109.224V107.998C1621.99 92.8178 1592.95 79.8012 1564.57 71.9407C1550.04 68.0743 1535.03 66.2175 1519.97 66.424Z" fill="#5D5D5D"/>
<path d="M1043.84 697.28C1039.58 751.979 1050.6 796.257 1074.82 821.93C1087.49 835.379 1103.05 842.771 1118.66 842.771C1140.9 842.771 1158.71 827.591 1163.99 804.118C1179.45 735.609 1155.51 673.699 1132.72 634C1105.95 587.306 1071.67 554.314 1055.19 543.496C1049.13 539.566 1044.91 537.114 1042.3 537.114C1041.88 537.102 1041.46 537.179 1041.08 537.341C1040.69 537.503 1040.34 537.745 1040.06 538.052C1037.93 540.395 1038.81 547.066 1040.54 560.371C1046.75 605.75 1047.86 651.663 1043.84 697.28ZM1040.87 538.629C1041.05 538.432 1041.27 538.277 1041.52 538.178C1041.76 538.078 1042.03 538.034 1042.3 538.052C1044.61 538.052 1048.87 540.54 1054.56 544.254C1091.82 568.664 1190.79 679.865 1162.89 803.865C1157.72 826.834 1140.35 841.689 1118.84 841.689C1103.57 841.689 1088.26 834.478 1075.82 821.209C1051.77 795.716 1040.91 751.763 1045.13 697.352C1049.15 651.698 1048.03 605.748 1041.79 560.335C1040.06 548.076 1039.11 540.756 1040.87 538.773V538.629Z" fill="#5D5D5D"/>
<path d="M1022.73 700.814C1018.48 768.89 1031.76 822.687 1060.07 852.254C1074.75 867.542 1092.52 875.655 1111.46 875.655C1147.8 875.655 1178.57 846.809 1188.07 803.793C1202.06 740.368 1190.02 677.99 1152.32 618.279C1114.1 557.811 1061.24 518.725 1033.12 500.805C1018.81 491.682 1012.68 487.86 1010.33 490.636C1007.98 493.413 1009.67 499.507 1012.16 512.559C1017.67 540.864 1029.01 599.709 1022.73 700.814ZM1011.21 491.322C1011.37 491.144 1011.58 491.007 1011.81 490.919C1012.04 490.832 1012.28 490.797 1012.53 490.817C1015.5 490.817 1021.93 494.927 1032.57 501.634C1126.26 561.345 1216.12 672.04 1187.01 803.469C1177.65 845.944 1147.29 874.501 1111.5 874.501C1092.81 874.501 1075.3 866.533 1060.88 851.461C1032.76 822.11 1019.61 768.529 1023.84 700.814C1030.11 599.601 1018.77 540.612 1013.3 512.271C1010.99 500.444 1009.52 493.233 1011.21 491.322Z" fill="#5D5D5D"/>
<path d="M600.278 474.627C610.667 474.627 618.119 464.784 625.975 450C639.924 424.183 668.962 411.671 684.71 404.965C692.603 401.575 695.723 400.313 695.173 398.186C694.622 396.059 692.823 395.626 682.03 394.905C649.506 392.741 576.527 423.21 568.23 446.142C567.241 448.587 567.116 451.288 567.875 453.811C568.634 456.335 570.232 458.535 572.415 460.06C584.933 470.264 593.303 474.483 600.425 474.483L600.278 474.627ZM570.506 447.007C578.179 426.058 646.018 397.321 678.543 397.321C679.681 397.321 680.782 397.321 681.81 397.321C685.292 397.416 688.757 397.827 692.162 398.547C689.409 400.05 686.565 401.386 683.646 402.549C667.714 409.4 638.126 422.092 623.809 448.702C614.778 465.469 608.17 471.995 600.278 471.995C593.817 471.995 585.924 467.812 573.884 458.005C572.13 456.814 570.841 455.074 570.227 453.069C569.614 451.064 569.712 448.914 570.506 446.971V447.007Z" fill="#5D5D5D"/>
<path d="M632.217 473.293C657.216 428.546 702.92 412.933 739.923 404.316C743.594 403.486 743.814 401.684 743.594 400.71C742.75 393.499 708.096 379.472 656.372 379.472C650.535 379.472 644.551 379.472 638.604 380.013C615 381.419 559.274 413.799 539.231 437.705C534.018 443.943 531.668 449.099 532.219 453.101C533.614 463.053 542.645 467.524 553.07 472.572C564.083 477.98 576.675 484.11 582.768 498.389C586.439 506.718 590.991 510.937 596.608 510.937C606.299 510.973 618.23 498.281 632.217 473.293ZM584.494 497.74C578.143 482.848 565.295 476.538 553.951 470.985C543.966 466.118 535.339 461.899 534.091 452.957C533.614 449.531 535.89 444.7 540.699 438.967C560.486 415.277 615.477 383.258 638.788 381.888C644.661 381.528 650.608 381.347 656.408 381.347C707.251 381.347 741.134 395.157 741.832 400.998C741.832 401.9 740.4 402.405 739.446 402.621C702.075 411.347 655.931 427.14 630.565 472.5C609.383 510.107 593.708 519.23 584.53 497.74H584.494Z" fill="#5D5D5D"/>
<path d="M1115.21 782.483C1117.11 782.483 1118.88 781.185 1120.24 778.553C1127.39 765.392 1127.25 719.816 1108.3 692.016C1105.81 688.41 1102.25 688.879 1099.57 693.422C1092.45 705.465 1089.47 743.902 1108.86 777.183C1110.91 780.716 1113.04 782.483 1115.21 782.483ZM1101.84 694.756C1102.76 693.17 1103.79 692.196 1104.56 692.196C1105.33 692.196 1105.88 693.025 1106.18 693.494C1124.35 720.032 1124.71 764.996 1118 777.363C1117.11 779.058 1116.12 779.959 1115.24 779.959C1114.36 779.959 1112.6 778.517 1111.13 775.993C1092.48 743.902 1095.16 706.042 1101.84 694.756Z" fill="#5D5D5D"/>
<path d="M1354 893.143C1356.61 896.749 1363.03 898.407 1375.41 898.407C1383.11 898.407 1392.37 897.83 1403.05 897.109C1416.26 896.244 1431.28 895.27 1446.77 895.27C1495.89 895.27 1528.96 905.51 1551.03 927.722C1571.55 943.226 1582.89 968.502 1592.87 990.822C1604.99 1017.94 1615.49 1041.3 1638.65 1041.3C1641.24 1041.28 1643.83 1041 1646.36 1040.47C1648.12 1040.11 1650.03 1039.64 1651.94 1039.07V1037.12C1649.99 1037.74 1648 1038.24 1645.99 1038.63C1643.58 1039.15 1641.12 1039.42 1638.65 1039.43C1616.63 1039.43 1606.42 1016.49 1594.6 989.992C1584.5 967.493 1573.09 941.964 1552.31 926.279C1529.95 903.924 1496.44 893.503 1446.81 893.503C1431.24 893.503 1416.23 894.477 1402.97 895.342C1392.29 896.063 1383.11 896.64 1375.44 896.64C1364.03 896.64 1357.71 895.198 1355.55 892.133C1354.96 891.057 1354.65 889.856 1354.65 888.636C1354.65 887.416 1354.96 886.214 1355.55 885.138C1378.93 823.841 1398.46 746.21 1396.59 722.304C1393.28 680.441 1374.56 640.887 1356.43 602.63C1334.4 555.756 1313.33 511.694 1326.62 474.843C1344.97 423.642 1429.41 334.761 1475.29 328.632C1477.73 328.327 1480.18 328.182 1482.63 328.199C1518.24 328.199 1580.98 353.223 1652.09 394.616V392.525C1581.05 351.312 1518.35 326.396 1482.63 326.396C1480.11 326.382 1477.58 326.527 1475.07 326.829C1428.82 333.031 1343.58 422.633 1324.93 474.23C1311.38 511.766 1332.45 556.297 1354.77 603.387C1372.84 641.5 1391.48 680.91 1394.79 722.376C1396.44 743.325 1378.93 818.685 1353.89 884.453C1353.16 885.793 1352.79 887.293 1352.81 888.812C1352.83 890.331 1353.24 891.821 1354 893.143Z" fill="#5D5D5D"/>
<path d="M1519.97 91.3034C1493.43 91.3034 1462.63 96.4596 1430.03 102.121C1388.77 109.007 1346.07 116.183 1298.61 116.183C1295.12 116.183 1291.67 116.183 1288.26 116.183H1280.14C1273.5 116.183 1267.18 115.822 1261.27 115.822C1209.88 115.822 1207.31 143.586 1204.59 172.973C1203.13 189.126 1201.62 205.785 1192.55 219.847C1189.32 224.895 1180.66 231.313 1171.48 238.092C1151.92 252.515 1129.74 268.885 1140.39 284.209C1142.03 287.093 1144.4 289.518 1147.27 291.253C1150.13 292.988 1153.4 293.976 1156.76 294.125C1160.62 293.996 1164.4 292.97 1167.77 291.132C1185.14 282.334 1203.68 256.301 1218.58 235.388C1227.06 223.525 1234.37 213.285 1238.37 210.941C1242.32 208.866 1246.78 207.894 1251.25 208.129H1255.95C1257.53 208.129 1259.14 208.129 1260.76 208.129C1264.06 208.4 1267.38 208.023 1270.54 207.02C1273.69 206.017 1276.6 204.409 1279.11 202.287C1286.05 196.049 1286.93 187.864 1287.78 180.22C1288.55 173.225 1289.25 166.627 1293.98 161.038C1308.3 144.271 1358.52 132.517 1391.74 124.728C1401.54 122.457 1410.1 120.474 1416.26 118.707C1443.92 110.686 1472.59 106.499 1501.43 106.267C1562.81 106.267 1611.89 126.026 1651.94 149.536V147.444C1611.85 123.899 1562.77 104.176 1501.43 104.176C1472.4 104.348 1443.54 108.499 1415.67 116.507C1409.43 118.274 1400.99 120.113 1391.26 122.529C1355.8 130.822 1307.23 142.18 1292.51 159.415C1287.41 165.401 1286.64 172.612 1285.87 179.571C1285.02 187.36 1284.25 194.715 1277.79 200.485C1273.09 204.407 1266.99 206.339 1260.83 205.857C1259.24 205.857 1257.66 205.857 1256.1 205.857H1251.33C1246.51 205.596 1241.72 206.658 1237.49 208.922C1233.15 211.446 1226.11 221.362 1217.15 233.91C1203.16 253.561 1184.11 280.459 1167.04 289.041C1156.69 294.269 1148.5 292.25 1141.89 282.695C1132.24 268.813 1153.68 253.02 1172.58 239.066C1182.31 231.854 1190.72 225.688 1194.13 220.352C1203.38 205.929 1204.92 188.91 1206.43 172.576C1209.18 142.793 1211.53 117.048 1261.27 117.048C1267.18 117.048 1273.46 117.228 1280.11 117.409H1288.18C1291.63 117.409 1295.12 117.409 1298.61 117.409C1346.33 117.409 1388.99 110.197 1430.36 103.31C1462.85 97.8658 1493.57 92.7096 1519.97 92.7096C1532.51 92.5075 1545.01 94.0369 1557.12 97.2528C1587.11 105.654 1618.79 120.618 1651.94 137.889V135.834C1618.9 119.103 1587.51 104.32 1557.63 96.0269C1545.36 92.7327 1532.69 91.1427 1519.97 91.3034Z" fill="#5D5D5D"/>
<path d="M1409.43 846.016C1416.26 855.643 1430.69 856.833 1450.66 858.24L1457.34 858.744C1463.66 859.249 1470.26 859.501 1477.24 859.718C1509.69 860.799 1546.47 862.062 1579.69 891.773L1580.1 892.133C1598.45 907.962 1609.47 935.871 1619.16 960.642C1628.85 985.413 1637.29 1006.87 1650.69 1006.87C1651.1 1006.87 1651.54 1006.87 1651.94 1006.87V1005.79C1651.54 1005.79 1651.1 1005.79 1650.69 1005.79C1638.06 1005.79 1629.77 984.692 1620.19 960.245C1610.6 935.798 1599.44 907.313 1580.83 891.448L1580.43 891.088C1546.91 861.124 1509.91 859.862 1477.27 858.636C1470.3 858.42 1463.69 858.167 1457.41 857.663L1450.73 857.158C1431.06 855.679 1416.89 854.634 1410.35 845.403C1403.82 836.172 1405.03 820.163 1413.18 792.399C1420.44 769.065 1423.34 744.633 1421.73 720.285C1418.06 673.951 1398.35 632.341 1379.26 592.065C1359.36 550.059 1340.57 510.36 1350.41 483.101C1366.78 437.705 1445.85 357.586 1478.6 353.295C1479.89 353.151 1481.19 353.078 1482.49 353.078C1509.84 353.078 1571.69 375.47 1651.94 423.714V422.452C1571.77 374.244 1509.91 352.033 1482.49 352.033C1481.14 352.014 1479.79 352.086 1478.45 352.249C1445.41 356.648 1365.82 437.2 1349.34 482.848C1339.36 510.504 1358.26 550.383 1378.3 592.642C1397.32 632.81 1417 674.348 1420.63 720.501C1422.24 744.74 1419.36 769.065 1412.11 792.291C1403.78 820.776 1402.97 837.002 1409.43 846.016Z" fill="#5D5D5D"/>
<path d="M740.069 1172.23C794.73 1166.13 859.816 1102.31 877.253 1053.56C907.575 968.935 853.722 900.787 801.631 834.874C751.339 771.269 703.873 711.198 726.963 638.038C747.08 574.325 812.057 539.927 862.973 539.927C890.432 539.927 914.146 549.482 929.822 566.861C948.433 587.486 955.739 618.784 950.966 657.437C934.557 790.272 929.675 935.546 1080.41 978.346C1096.89 983.133 1113.98 985.621 1131.17 985.738C1194.61 985.738 1235.14 950.041 1257.93 920.077C1301.65 862.638 1316.85 776.75 1295.71 706.294C1277.79 646.584 1242.52 588.64 1187.93 529.218C1106.73 440.878 996.193 364.941 849.941 297.045L843.627 294.089C782.101 265.495 718.483 235.965 651.488 219.667C647.523 218.693 643.118 217.539 638.419 216.313C617.715 210.905 591.982 204.198 569.882 204.198C562.159 204.027 554.462 205.149 547.122 207.516C537.578 210.869 532.218 217.287 527.005 223.489C523.252 228.506 518.644 232.848 513.386 236.325C507.376 239.369 501.157 241.995 494.774 244.186C482.403 248.909 469.555 253.777 465.406 258.428C457.587 267.443 459.716 272.851 461.735 278.115C462.761 280.043 463.384 282.152 463.567 284.32C463.749 286.487 463.489 288.669 462.8 290.735L461.368 294.882C450.355 327.045 450.355 327.045 424.658 334.329C419.703 335.735 413.646 337.466 406.304 339.737C385.195 346.372 376.532 356.54 368.162 366.347C361.783 374.828 353.588 381.831 344.154 386.864H343.126C329.911 386.864 229.693 393.354 221.984 417.549C219.891 424.075 224.407 431.142 235.383 438.606C244.222 445.248 255.017 448.892 266.146 448.99C269.139 448.966 272.129 448.786 275.103 448.45C277.526 448.233 279.802 448.017 281.968 448.017C290.044 448.017 298.193 450.252 309.39 477.331C312.143 484.002 314.272 489.447 316.034 493.99C324.698 516.273 324.955 516.562 346.981 525.792C352.45 528.064 359.242 530.912 367.868 534.843C396.208 547.679 402.009 562.246 409.351 580.707C413.615 592.363 419.193 603.514 425.98 613.952C434.654 626.283 444.486 637.788 455.348 648.314C473.299 666.668 490.259 684.011 495.729 712.965C505.09 763.121 477.374 811.005 446.024 855.283C430.826 876.737 399.586 901.724 366.51 928.19C310.565 973.081 246.91 1024.03 246.69 1071.19C246.69 1098.13 253.591 1118.82 267.614 1132.49C282.885 1147.56 306.086 1154.88 338.574 1154.88C385.636 1154.88 443.527 1139.3 494.591 1125.53C534.971 1114.71 569.478 1105.34 591.688 1105.34C595.95 1105.24 600.203 1105.75 604.316 1106.85C625.718 1113.09 642.715 1126.43 659.124 1139.3C680.893 1156.4 701.487 1172.59 730.891 1172.59C733.955 1172.64 737.02 1172.52 740.069 1172.23ZM605.05 1104.55C600.695 1103.4 596.196 1102.87 591.688 1102.96C569.148 1102.96 534.274 1112.37 493.893 1123.26C442.977 1136.96 385.452 1152.5 338.574 1152.5C306.82 1152.5 284.17 1145.29 269.413 1130.87C255.904 1117.53 249.112 1097.44 249.259 1071.23C249.479 1025.22 312.62 974.704 368.346 930.101C401.384 903.527 432.918 878.431 448.3 856.689C479.98 811.942 507.953 763.517 498.445 712.46C492.902 682.749 475.685 665.153 457.477 646.548C446.628 636.127 436.796 624.731 428.109 612.51C421.43 602.228 415.939 591.247 411.737 579.77C404.174 560.768 398.227 545.768 368.933 532.535C360.27 528.605 353.478 525.72 348.008 523.448C326.79 514.542 326.79 514.542 318.42 493.052C316.658 488.509 314.529 483.028 311.776 476.358C301.093 450.505 292.76 445.457 281.968 445.457C279.587 445.494 277.21 445.651 274.846 445.926C272.093 446.178 269.229 446.43 266.146 446.43C255.512 446.358 245.195 442.862 236.778 436.479C226.866 429.736 222.681 423.606 224.37 418.45C231.088 397.393 324.478 389.604 343.053 389.604H343.97L344.264 388.414L344.815 389.532C354.741 384.359 363.359 377.065 370.034 368.186C378.551 358.198 386.59 348.751 407.001 342.369C414.343 340.098 420.437 338.367 425.356 336.961C452.044 329.389 452.374 328.992 463.828 295.928L465.296 291.745C466.084 289.386 466.39 286.897 466.194 284.422C465.999 281.947 465.307 279.534 464.158 277.322C462.213 272.382 460.487 268.092 467.315 260.231C470.986 256.012 484.018 251.073 495.545 246.71C502.081 244.459 508.447 241.76 514.597 238.633C520.096 235 524.914 230.463 528.841 225.22C534.054 219.018 538.973 213.14 547.82 210.04C554.926 207.766 562.374 206.693 569.846 206.866C591.615 206.866 617.165 213.537 637.722 218.91C642.421 220.136 646.826 221.289 650.827 222.263C717.566 238.489 781.074 267.983 842.489 296.505L848.803 299.461C994.724 367.213 1105.04 442.969 1185.98 531.057C1240.31 590.19 1275.41 647.81 1293.21 707.16C1314.14 776.858 1299.09 861.881 1255.84 918.707C1233.37 948.202 1193.43 983.358 1131.03 983.358C1114.08 983.265 1097.22 980.838 1080.96 976.146C932.171 933.887 937.09 789.731 953.353 657.978C958.235 618.567 950.709 586.585 931.584 565.383C915.431 547.354 891.019 537.619 862.826 537.619C810.992 537.619 744.841 572.63 724.357 637.497C700.863 711.919 750.972 775.308 799.465 836.641C851.116 902.013 904.529 969.62 874.684 1052.98C857.467 1101.05 793.408 1163.97 739.628 1169.99C736.679 1170.32 733.713 1170.49 730.744 1170.49C702.221 1170.49 681.994 1154.59 660.592 1137.75C644.109 1124.45 626.929 1110.96 605.05 1104.55Z" fill="#5D5D5D"/>
<path d="M1087.45 -139.21H1084.92C1080.86 -135.067 1077.05 -130.697 1073.5 -126.121C1033.12 -72.0357 1015.06 -22.1686 1018.62 26.4365C1019.98 45.3304 1017.63 57.8423 1011.28 64.6571C1009.05 66.9112 1006.34 68.6596 1003.35 69.7806C1000.35 70.9015 997.147 71.3679 993.953 71.1474C983.27 71.1474 970.091 67.145 956.178 62.9263C943.792 58.7223 931.036 55.6563 918.073 53.7678C908.638 52.7567 899.152 52.2632 889.66 52.2895C858.53 52.2895 828.979 57.1572 797.886 62.3134L782.027 64.8734H781.623C769.895 67.006 758.012 68.2117 746.088 68.4791C723.181 68.6955 708.497 61.2316 701.155 45.8713C686.031 13.8164 690.142 -24.8008 693.997 -58.6945C694.474 -63.2738 694.988 -67.817 695.429 -72.2881C697.452 -94.9479 701.919 -117.333 708.754 -139.066H706.809C700.135 -117.419 695.779 -95.1475 693.813 -72.6126C693.373 -68.1415 692.896 -63.6344 692.382 -59.019C688.711 -24.7287 684.342 14.1049 699.724 46.6285C707.323 62.6739 722.52 70.4983 746.198 70.4983C758.22 70.2348 770.201 69.029 782.027 66.8926H782.431L798.289 64.2965C829.493 59.1764 859.007 54.3087 890.064 54.3087C899.495 54.2832 908.919 54.7768 918.294 55.787C931.131 57.6515 943.764 60.6813 956.031 64.8373C970.091 69.1281 983.38 73.1666 994.356 73.1666C997.819 73.39 1001.29 72.8594 1004.52 71.6128C1007.75 70.3662 1010.66 68.4343 1013.04 65.9551C1019.65 58.7437 1022.15 45.7992 1020.71 26.2922C1017.04 -21.8441 1035.07 -71.3506 1075.26 -125.148C1079.03 -130.077 1083.1 -134.773 1087.45 -139.21Z" fill="#5D5D5D"/>
<path d="M1075.59 134.103C1063.15 142.721 1046.23 146.94 1023.5 146.94C996.926 146.94 967.228 141.098 941.017 135.942C925.599 132.913 910.988 130.029 899.094 128.731C885.531 127.379 871.906 126.705 858.273 126.711C822.518 126.711 776.631 131.471 761.249 154.151C754.531 163.995 754.274 176.398 760.405 190.965C763.305 197.816 770.794 201.53 778.026 205.136C783.709 207.401 788.811 210.873 792.966 215.304C796.79 221.348 799.626 227.942 801.373 234.847C804.346 244.222 807.393 253.921 814.332 259.654C822.582 266.663 833.199 270.392 844.103 270.111C852.325 269.825 860.5 268.762 868.515 266.938C876.408 265.133 884.461 264.082 892.56 263.801C899.563 263.668 906.494 265.215 912.75 268.308C927.434 275.7 933.491 285.652 939.438 295.279C947.184 307.791 954.489 319.653 978.571 325.17C1029.01 336.781 1042.81 348.896 1076.18 378.138C1080.48 381.744 1085.1 385.963 1090.17 390.326C1101.19 400.43 1111.04 411.7 1119.54 423.931C1127.19 434.771 1135.79 444.941 1145.23 454.327C1155.66 463.833 1167.78 471.363 1180.99 476.538C1196.19 483.317 1210.54 489.735 1223.57 511.73L1225.63 515.336C1242.04 543.172 1258.67 568.953 1268.8 568.953C1269.59 568.953 1270.38 568.785 1271.1 568.462C1271.82 568.138 1272.46 567.666 1272.98 567.078C1276.65 563.111 1277.65 552.655 1276.03 534.987C1275.08 524.638 1267.48 515.408 1260.1 506.466C1252.17 496.838 1244.68 487.716 1245.12 477.62C1245.67 465.577 1253.09 459.591 1260.94 453.353C1267.27 449.039 1272.48 443.319 1276.14 436.659C1284.51 418.955 1286.53 403.126 1288.51 387.802C1291.23 366.456 1293.8 346.3 1313.22 323.512C1349.33 281.984 1397.13 251.875 1450.62 236.974C1467.1 232.045 1484.2 229.435 1501.43 229.222C1556.49 229.222 1595.85 258.573 1637.62 289.69L1651.94 300.255V297.118C1647.64 293.981 1643.38 290.808 1639.16 287.671C1597.06 256.301 1557.26 226.698 1501.43 226.698C1484.02 226.848 1466.72 229.397 1450.03 234.27C1396.05 249.391 1347.83 279.849 1311.42 321.817C1291.49 345.182 1288.88 365.698 1286.09 387.405C1284.14 402.513 1282.16 418.162 1273.97 435.505C1270.44 441.804 1265.48 447.22 1259.47 451.334C1251.54 457.68 1243.29 464.279 1242.7 477.44C1242.22 488.473 1250.37 498.353 1258.26 507.944C1265.38 516.598 1272.73 525.54 1273.61 535.095C1275.52 555.864 1273.39 562.967 1271.26 565.275C1270.97 565.603 1270.62 565.866 1270.22 566.046C1269.82 566.227 1269.38 566.32 1268.95 566.321C1258.81 566.321 1237.23 529.614 1227.98 513.966L1225.96 510.36C1212.52 487.68 1197.77 481.081 1182.2 474.303C1169.26 469.277 1157.37 461.942 1147.14 452.668C1137.8 443.386 1129.27 433.337 1121.67 422.633C1113.06 410.226 1103.06 398.808 1091.86 388.595C1086.79 384.232 1082.17 380.193 1077.87 376.444C1044.13 346.877 1030.15 334.653 979.122 322.899C956.068 317.598 949.056 306.204 941.604 294.053C935.474 284.137 929.16 273.897 913.888 266.181C907.275 262.886 899.938 261.239 892.523 261.385C884.253 261.671 876.029 262.734 867.964 264.558C860.119 266.349 852.116 267.387 844.066 267.659C833.778 267.936 823.753 264.44 815.947 257.851C809.596 252.587 806.622 243.429 803.796 234.198C801.991 227.021 799.016 220.177 794.985 213.934C790.614 209.197 785.204 205.498 779.164 203.117C771.822 199.511 765.287 196.23 762.754 190.244C756.954 176.506 757.138 165.004 763.342 155.81C778.026 134.175 823.105 129.488 858.236 129.488C871.723 129.485 885.201 130.159 898.617 131.507C910.438 132.733 924.975 135.618 940.356 138.719C966.677 143.911 996.485 149.788 1023.32 149.788C1046.45 149.788 1063.99 145.425 1076.88 136.483C1109 114.164 1099.79 80.5222 1090.9 47.9987C1081.47 13.0953 1071.63 -22.9619 1111.2 -46.4711C1116.97 -49.5343 1123.48 -51.0047 1130.04 -50.7259C1153.71 -50.7259 1187.05 -38.0338 1219.28 -25.7383C1247.36 -14.9211 1273.86 -4.93327 1291.12 -4.53664C1293.61 -4.53664 1296.07 -4.53664 1298.46 -4.53664C1335.54 -4.53664 1373.02 -10.8106 1409.25 -16.9043C1445.48 -22.9979 1482.85 -29.2358 1519.82 -29.2358C1543.92 -29.4594 1567.93 -26.3521 1591.15 -20.0052C1611.91 -13.9622 1632.22 -6.51663 1651.94 2.27816V-0.462177C1632.49 -9.02269 1612.46 -16.2514 1591.99 -22.0965C1568.55 -28.5141 1544.3 -31.6579 1519.97 -31.4353C1482.78 -31.4353 1445.26 -25.1613 1408.99 -19.0677C1372.72 -12.974 1335.57 -6.73613 1298.61 -6.73613C1296.07 -6.73613 1293.65 -6.73613 1291.26 -6.73613C1274.45 -7.0967 1248.13 -17.1567 1220.3 -27.7575C1187.82 -40.1251 1154.23 -52.9975 1130.11 -52.9975C1123.09 -53.3108 1116.11 -51.7137 1109.96 -48.3822C1068.73 -23.9715 1078.83 12.915 1088.59 48.5756C1097.62 81.6039 1106.17 112.793 1075.59 134.103Z" fill="#5D5D5D"/>
<path d="M763.307 41.9411C773.535 41.7166 783.727 40.6553 793.776 38.7681C829.142 33.0321 864.941 30.2697 900.785 30.511C910.513 30.511 920.498 30.5109 931.364 30.9797C935.035 30.9797 938.413 30.9797 941.386 30.9797C959.337 30.9797 969.799 28.8523 977.508 23.588C986.759 17.314 992.192 6.35263 995.863 -13.1182C1004.16 -57.8291 1022.44 -98.0329 1053.28 -139.318H1051.92C1021.27 -97.9608 1003.06 -57.8291 994.799 -13.1182C991.128 6.06418 985.878 16.8453 976.921 22.9389C969.396 28.023 959.117 30.1504 941.423 30.1504C938.449 30.1504 935.182 30.1504 931.438 30.1504C920.425 29.8259 910.55 29.6816 900.822 29.6816C864.918 29.46 829.059 32.2222 793.629 37.9387C783.642 39.8241 773.511 40.8855 763.344 41.1117C741.318 41.1117 725.349 33.9003 719.806 -1.72417C714.52 -35.69 719.219 -71.6751 724.064 -95.8695C726.974 -110.664 731.313 -125.153 737.023 -139.138H735.848C730.172 -125.262 725.869 -110.881 723 -96.194C718.117 -71.8914 713.418 -35.7982 718.705 -1.65205C723.514 29.3211 736.435 41.9411 763.307 41.9411Z" fill="#5D5D5D"/>
<path d="M778.429 14.8982C782.12 14.8685 785.802 14.555 789.442 13.9607C820.147 9.0014 851.171 6.1819 882.281 5.52332C889.623 5.52332 896.965 5.52333 904.014 5.70361C908.676 5.70361 913.081 5.95601 917.376 5.95601C930.555 5.95601 944.247 4.9464 954.783 -2.33714C963.557 -8.3587 969.761 -18.3465 973.836 -32.9136C984.074 -70.6217 1000.33 -106.498 1022 -139.21H1020.68C999.164 -106.556 983.01 -70.7838 972.808 -33.2021C968.806 -18.7792 962.712 -9.07983 954.196 -3.20251C943.88 4.00893 930.408 4.87428 917.486 4.87428C913.191 4.87428 908.823 4.87428 904.16 4.62189C897.222 4.62189 889.954 4.26132 882.355 4.62189C851.164 5.23381 820.056 7.99294 789.259 12.879C772.482 15.6554 759.891 12.3381 752.219 3.03537C734.488 -18.1302 744.032 -65.6536 749.172 -91.146C752.37 -107.779 757.75 -123.935 765.177 -139.21H763.929C756.643 -124.016 751.351 -107.975 748.181 -91.4705C743.004 -65.7978 733.497 -17.9499 751.448 3.61229C754.757 7.40669 758.914 10.3993 763.594 12.3569C768.274 14.3144 773.351 15.1841 778.429 14.8982Z" fill="#5D5D5D"/>
</g>
</g>
<defs>
<linearGradient id="paint0_linear_500_211" x1="719" y1="0" x2="719" y2="1009" gradientUnits="userSpaceOnUse">
<stop stop-color="#34B861"/>
<stop offset="1" stop-color="#0E9E73"/>
</linearGradient>
<linearGradient id="paint1_linear_500_211" x1="720" y1="5" x2="720" y2="1004" gradientUnits="userSpaceOnUse">
<stop stop-color="#27ABF6"/>
<stop offset="1" stop-color="#1A4CFF"/>
</linearGradient>
</defs>
</svg>
