<svg width="1440" height="1018" viewBox="0 0 1440 1018" fill="none" xmlns="http://www.w3.org/2000/svg">
<rect y="1" width="1440" height="1017" fill="url(#paint0_linear_500_211)"/>
<g style="mix-blend-mode:overlay" opacity="0.6">
<mask id="mask0_500_211" style="mask-type:alpha" maskUnits="userSpaceOnUse" x="0" y="0" width="1440" height="1017">
<rect width="1440" height="1017" fill="url(#paint1_linear_500_211)"/>
</mask>
<g mask="url(#mask0_500_211)">
<path d="M11.6737 924.665C16.8865 811.424 89.0579 728.907 147.059 662.578L151.171 657.953C157.889 650.868 173.417 631.927 172.206 609.059C171.471 595.11 164.57 582.52 151.721 571.581C143.976 565.048 137.038 558.917 130.063 553.228C101.31 527.559 71.096 503.573 39.5731 481.393C26.1374 472.069 12.9463 463.259 0 454.964V456.285C12.7016 464.434 25.6968 473.134 38.9491 482.31C70.4276 504.414 100.616 528.3 129.365 553.852L150.987 572.205C163.615 582.924 170.37 595.257 171.104 608.912C172.316 631.377 157.008 650.024 150.363 657.035L146.215 661.77C88.1034 728.32 15.7852 811.02 10.5724 924.591C9.98506 936.705 5.28621 944.119 0 946.615V947.937C5.72672 945.588 11.0129 938.099 11.6737 924.665Z" fill="#5D5D5D"/>
<path d="M37.3338 925.913C42.1428 821.665 111.047 742.892 166.405 679.573L170.554 674.838C180.483 663.584 189.82 651.822 198.526 639.599C207.153 627.266 223.195 604.324 185.311 567.764C144.573 528.429 100.735 492.438 54.2203 460.139C35.4005 447.169 17.327 435.423 0 424.901V426.185C17.1312 436.635 34.9966 448.307 53.5963 461.204C100.07 493.455 143.861 529.41 184.54 568.718C221.727 604.617 206.052 627.045 197.645 639.085C188.953 651.215 179.628 662.88 169.709 674.03L165.561 678.765C110.129 742.378 41.0415 821.151 36.2325 925.913C33.9932 974.439 25.2196 1002.67 9.10402 1014.78C6.47445 1016.87 3.32936 1018.22 0 1018.67L0 1019.77C3.58133 1019.29 6.96023 1017.83 9.7648 1015.55C26.3209 1003.22 35.0578 974.733 37.3338 925.913Z" fill="#5D5D5D"/>
<path d="M485.413 180.176C478.255 152.022 420.694 144.497 354.066 135.761C337.583 133.595 320.55 131.393 304.03 128.75C230.941 117.224 164.056 80.5537 99.3733 44.948C66.9586 27.3287 33.8831 9.15884 0 -5.74414V-2.77088C33.4059 11.9119 66.0776 29.9716 98.1252 47.5175C162.991 83.0864 230.28 119.903 303.7 131.503C320.256 134.109 337.326 136.348 353.809 138.477C416.766 146.736 476.273 154.518 482.99 180.984C488.203 201.65 461.332 232.924 400.834 276.678C315.704 337.905 244.597 366.5 176.537 366.5C136.761 366.25 97.6238 356.47 62.4066 337.979C40.4879 326.245 19.6101 312.663 0 297.381L0 300.575C19.3049 315.525 39.8514 328.8 61.4154 340.255C96.9315 358.93 136.411 368.812 176.537 369.07V369.07C245.148 369.07 316.879 340.328 402.229 278.587C464.562 233.511 490.993 202.274 485.413 180.176Z" fill="#5D5D5D"/>
<path d="M9.50783 759.594C19.8746 742.51 31.6243 726.305 44.6391 711.141C62.5167 689.117 81.0185 666.358 91.0035 638.388C108.551 589.054 74.117 566.296 37.7009 542.179C34.3236 539.94 30.9463 537.701 27.569 535.388C21.5486 531.351 15.8953 527.496 10.3154 523.642C7.56221 521.733 4.18491 519.311 0 516.301V517.659C3.85453 520.449 7.08499 522.761 9.69138 524.56C15.2713 528.451 20.9246 532.268 26.9817 536.379L37.0769 543.133C73.1626 566.993 107.229 589.568 89.9389 638.057C80.064 665.845 61.599 688.529 43.7948 710.48C30.7347 725.686 18.9479 741.941 8.55338 759.08C5.29114 765.288 2.43405 771.701 0 778.278L0 781.251L0.881034 779.085C3.33698 772.41 6.21849 765.9 9.50783 759.594V759.594Z" fill="#5D5D5D"/>
<path d="M575.389 76.8096C569.075 76.8096 560.155 80.8473 553.62 100.045C546.278 121.629 560.448 126.621 575.463 131.943C578.106 132.861 580.859 133.815 583.465 134.88C588.097 136.983 593.073 138.226 598.149 138.55C599.937 138.713 601.735 138.397 603.361 137.636C604.986 136.875 606.38 135.696 607.4 134.219C613.017 125.299 604.023 105.624 599.875 97.5122C593.34 84.5547 584.126 76.8096 575.389 76.8096ZM606.005 133.044C603.068 137.706 595.653 137.706 583.979 133.044C581.299 131.98 578.546 130.989 575.903 130.071C561.219 124.859 548.371 120.344 555.162 100.485C560.081 86.0964 567.019 78.4614 575.206 78.4614C583.392 78.4614 591.835 85.8027 598.186 98.1362C606.703 114.691 609.382 127.538 606.005 133.044Z" fill="#5D5D5D"/>
<path d="M99.1164 678.765L104.072 672.892C127.713 645.068 152.162 616.364 124.373 581.969C102.897 555.394 70.4828 533.48 41.8858 514.135C35.9389 510.134 30.359 506.353 24.8525 502.499C21.1815 499.966 16.1156 496.296 10.1686 492.038L0 484.476V485.834L9.7648 492.955C15.6017 497.177 20.7777 500.847 24.4487 503.417C29.9919 507.087 35.4616 511.052 41.5188 515.053C70.0422 534.324 102.42 556.201 123.785 582.667C150.987 616.327 126.832 644.701 103.522 672.158L98.529 678.068C77.8614 702.515 51.6506 735.257 30.9096 771.744C18.3811 793.774 8.02898 816.972 0 841.01L0 844.68C8.1111 819.535 18.7887 795.291 31.8641 772.331C52.5317 735.881 78.7057 703.175 99.1164 678.765Z" fill="#5D5D5D"/>
<path d="M78.3019 307.255C106.201 321.534 129.916 328.215 152.896 328.215C176.978 328.215 198.38 320.873 223.159 312.614C237.219 307.842 253.151 302.483 271.248 297.932C278.564 296.142 286.074 295.279 293.605 295.362C297.276 295.362 300.469 295.362 303.7 295.619C306.93 295.876 309.684 295.876 312.584 295.876C327.268 295.876 339.272 292.205 352.23 274.843C358.759 266.056 363.806 256.261 367.171 245.845C371.503 233.805 374.917 224.298 393.932 210.679C399.797 207.021 406.052 204.029 412.581 201.76C423.594 197.502 432.845 193.794 433.249 187.554C433.542 182.452 427.632 176.799 414.637 169.714C399.072 161.272 376.826 160.134 357.113 160.134C348.339 160.134 339.125 160.391 330.204 160.648C321.284 160.905 311.849 161.198 303.076 161.198C287.968 161.7 272.86 160.207 258.143 156.757C194.268 139.395 134.358 106.579 81.5324 77.5803C53.7798 62.3836 26.8715 47.6275 0 34.9636V36.9825C26.5779 49.573 53.1925 64.1456 80.7615 79.1954C133.697 108.231 193.681 141.12 257.776 158.519C272.648 162.013 287.917 163.531 303.186 163.034C312.106 163.034 321.541 162.74 330.351 162.483C339.162 162.226 348.486 161.969 357.223 161.969C376.716 161.969 398.631 163.071 413.866 171.33C425.833 177.863 431.78 183.259 431.523 187.407C431.193 192.509 421.869 196.18 411.994 200.071C405.322 202.355 398.941 205.41 392.978 209.174C373.485 223.123 369.814 233.364 365.556 245.22C362.239 255.46 357.28 265.093 350.872 273.742C338.354 290.664 326.974 294.041 312.694 294.041C309.83 294.041 306.967 294.041 303.883 293.784C300.8 293.527 297.239 293.527 293.715 293.527C286.024 293.457 278.353 294.345 270.881 296.17C252.747 300.721 236.778 306.117 222.681 310.852C198.049 319.185 176.794 326.379 152.933 326.379C130.246 326.379 106.825 319.772 79.183 305.603C53.9266 292.682 31.2033 275.467 9.21415 258.802L0 251.864V254.177L8.07615 260.307C30.102 276.972 52.8988 294.224 78.3019 307.255Z" fill="#5D5D5D"/>
<path d="M95.2251 274.256C120.25 287.642 148.157 294.735 176.537 294.922C191.992 294.922 225.325 288.608 254.435 278.073C279.912 268.823 310.308 253.48 310.344 232.85C310.344 208.514 263.503 195.042 235.456 186.967C229.363 185.205 224.076 183.7 220.773 182.415C166.671 162.43 114.213 138.253 63.875 110.103C42.0327 98.2097 20.8511 86.6103 0 76.1855V77.3969C20.6676 87.7482 41.6656 99.421 63.1775 111.057C113.568 139.249 166.089 163.452 220.259 183.443C223.93 184.728 229.106 186.269 235.236 188.031C262.989 195.997 309.427 209.358 309.353 232.85C309.353 268.493 208.622 293.821 176.574 293.821C148.385 293.615 120.669 286.561 95.8125 273.265C73.3828 261.775 51.981 245.551 31.24 229.84C21.2182 222.242 10.9028 214.424 0.110129 206.825V208.183C10.6458 215.525 20.741 223.27 30.5792 230.721C51.3937 246.469 72.6853 262.73 95.2251 274.256Z" fill="#5D5D5D"/>
<path d="M106.936 251.387C128.389 262.915 152.33 269.038 176.684 269.227C197.021 269.227 223.636 263.17 233.841 249.919C236.028 247.117 237.504 243.827 238.143 240.331C238.783 236.834 238.566 233.235 237.512 229.841C232.887 212.038 195.59 199.447 168.388 190.271C159.577 187.297 151.978 184.728 147.316 182.562C115.856 167.879 84.9097 150.884 54.6241 134.403L51.3937 132.531C33.8097 123.024 16.7764 113.663 0 105V106.249C16.5928 114.691 33.4426 124.088 50.6595 133.522L54.0368 135.357C84.1388 151.875 115.305 168.944 146.766 183.553C151.501 185.756 159.137 188.325 167.947 191.298C193.424 199.888 231.896 212.882 236.374 230.134C237.346 233.382 237.52 236.816 236.881 240.146C236.242 243.475 234.809 246.601 232.703 249.258C222.681 262.216 196.471 268.126 176.317 268.126C152.262 267.91 128.618 261.864 107.413 250.506C87.0022 240.045 66.4814 224.518 46.6581 209.468C32.3046 198.456 16.8865 186.93 0 175.881V177.093C16.6295 188.105 31.8274 199.521 45.9973 210.129C65.8573 225.289 86.4148 240.889 106.936 251.387Z" fill="#5D5D5D"/>
<path d="M651.524 -124.821C653.359 -132.162 655.195 -139.504 656.847 -146.845H654.938C653.286 -139.724 651.524 -132.566 649.725 -125.298C646.348 -111.717 642.86 -97.6213 640.034 -83.2689C630.636 -35.3665 622.523 27.4389 643.705 88.409C652.221 113.149 673.439 133.412 692.161 151.251C708.864 167.145 723.255 180.874 721.933 192.4C721.346 197.685 717.491 202.421 710.112 206.825C704.688 209.249 698.749 210.295 692.822 209.872C664.629 209.872 614.924 197.428 578.141 185.095C538.127 171.697 488.863 150.334 481.227 124.712C478.768 116.563 480.787 108.304 487.174 100.229C495.165 90.3545 503.656 80.8962 512.614 71.891C529.317 54.5286 545.102 38.1206 555.528 13.784C570.406 -20.242 572.325 -58.5342 560.924 -93.8772C558.171 -102.76 555.418 -110.946 552.958 -118.177C549.287 -128.859 546.24 -138.219 544.074 -146.845H542.165C544.331 -138.036 547.562 -128.492 551.233 -117.48C553.656 -110.138 556.409 -102.1 559.162 -93.2165C570.461 -58.2756 568.567 -20.4063 553.839 13.2334C543.56 37.2764 527.885 53.611 511.292 70.7898C502.776 79.6728 493.965 88.8128 485.596 99.2743C478.841 107.864 476.712 116.673 479.355 125.41C487.211 151.802 537.026 173.496 577.443 187.04C614.373 199.411 664.299 211.891 692.712 211.891C699.01 212.341 705.321 211.205 711.067 208.587C718.996 203.852 723.144 198.713 723.805 192.803C725.2 180.36 710.516 166.338 693.483 150.113C674.908 132.384 653.836 112.342 645.467 87.9686C624.652 27.439 632.692 -35.0361 642.053 -82.7183C644.659 -97.1808 648.146 -111.24 651.524 -124.821Z" fill="#5D5D5D"/>
<path d="M347.384 733.679C345.548 736.725 343.713 739.589 342.318 741.718C323.743 767.89 301.937 791.088 277.048 816.563L266.806 826.804C246.395 847.433 225.25 868.76 212.622 893.977C207.74 903.778 206.235 911.377 208.254 916.002C208.652 917.034 209.278 917.963 210.085 918.719C210.892 919.476 211.86 920.04 212.916 920.37C213.934 920.642 214.983 920.778 216.036 920.774C222.271 920.173 228.249 917.987 233.4 914.423C246.944 905.826 259.951 896.412 272.349 886.232C282.591 878.194 293.164 869.898 304.03 862.667C348.081 833.558 377.045 814.287 390.591 759.887C393.418 748.655 395.07 722.997 386.37 711.875C385.031 710.04 383.246 708.578 381.184 707.627C379.121 706.677 376.85 706.269 374.586 706.442C363.426 707.14 354.175 722.483 347.384 733.679ZM375.577 707.654C377.531 707.615 379.466 708.049 381.218 708.918C382.969 709.787 384.484 711.066 385.635 712.646C394.115 723.474 392.463 748.655 389.674 759.741C376.201 813.626 347.31 832.787 303.589 861.749C292.576 869.09 282.077 877.313 271.835 885.388C259.461 895.543 246.479 904.933 232.96 913.506C224.737 918.461 217.725 920.553 213.357 919.305C212.441 919.047 211.598 918.581 210.891 917.945C210.185 917.308 209.634 916.518 209.282 915.635C207.41 911.34 208.951 903.852 213.613 894.528C226.168 869.457 247.24 848.167 267.614 827.612L277.819 817.224C302.598 791.712 324.624 768.477 343.236 742.231C344.741 740.102 346.503 737.203 348.338 734.156C354.983 723.144 364.05 708.094 374.769 707.543L375.577 707.654Z" fill="#5D5D5D"/>
<path d="M118.462 228.849C131.937 235.049 146.457 238.66 161.266 239.494C165.459 239.749 169.64 238.834 173.344 236.852C179.18 233.181 181.75 229.51 181.199 225.84C180.025 218.094 163.175 213.433 149.666 209.689C145.215 208.581 140.838 207.196 136.56 205.541C104.366 190.601 72.8322 173.312 42.3998 156.61L39.0225 154.738C25.6968 147.507 12.8117 140.386 0 133.595V135.688C12.518 142.331 25.2196 149.269 38.1414 156.353L41.5187 158.189C71.9879 174.927 103.522 192.216 135.789 207.192C140.158 208.902 144.634 210.325 149.188 211.45C161.486 214.864 178.556 219.563 179.401 226.133C179.804 228.813 177.418 231.823 172.352 235.126C168.966 236.905 165.156 237.717 161.339 237.476C146.838 236.669 132.612 233.184 119.38 227.198C101.025 217.801 81.4223 202.971 62.48 188.582C42.4774 172.945 21.6184 158.436 0 145.121L0 147.25C21.2099 160.405 41.6876 174.705 61.342 190.087C80.321 204.476 99.9607 219.342 118.462 228.849Z" fill="#5D5D5D"/>
<path d="M63.3611 927.05C67.7662 831.906 133.33 756.914 186.008 696.642L190.157 691.906C252.82 620.181 250.287 595.147 220.883 566.149C174.096 519.368 123.304 476.772 69.0878 438.849C45.5935 422.588 22.393 407.722 0 394.471V396.6C22.0259 409.704 44.9328 424.35 68.0232 440.391C122.155 478.239 172.874 520.748 219.598 567.433C248.158 595.624 250.471 620.108 188.798 690.695L184.65 695.467C131.751 755.923 65.9307 831.282 61.5256 926.94C57.3774 1016.87 23.531 1043.37 0 1050.72V1052.62C24.0816 1045.25 59.1394 1018.74 63.3611 927.05Z" fill="#5D5D5D"/>
<path d="M468.563 -115.057C493.71 -36.7248 503.952 5.85517 441.508 41.938C430.731 48.0482 419.062 52.4328 406.928 54.9322C395.344 57.2968 383.546 58.4531 371.723 58.3827C255.684 58.3827 96.3999 -38.5968 10.6091 -90.6839L7.67234 -92.4825L0 -97.1443V-94.9786L6.71789 -90.8674L9.65467 -89.1055C95.4454 -36.945 255.17 60.218 371.723 60.218C383.676 60.2362 395.598 59.006 407.295 56.5474C419.624 54.0065 431.479 49.5475 442.426 43.3329C506.081 6.62601 495.765 -36.5412 470.289 -115.828C467.058 -125.849 463.718 -136.31 460.671 -146.992H458.872C461.846 -135.943 465.26 -125.298 468.563 -115.057Z" fill="#5D5D5D"/>
<path d="M433.946 -103.972C444.151 -72.257 453.88 -32.4667 438.645 -6.18463C431.303 6.8463 417.904 15.4357 399.366 19.5102C390.28 21.3453 381.028 22.2311 371.76 22.1531C265.852 22.0429 112.112 -71.4861 29.3678 -121.738L14.2434 -130.988C9.58125 -133.814 4.80898 -136.457 0 -138.953V-137.705C4.62543 -135.319 9.17744 -132.787 13.6927 -130.07L28.9273 -120.82C111.598 -70.495 265.558 23.1441 371.76 23.1441C381.103 23.2103 390.427 22.3123 399.586 20.4646C418.418 16.4635 431.89 7.65386 439.599 -5.63402C455.201 -32.1364 445.253 -72.5139 435.011 -104.302C430.606 -117.994 426.237 -132.199 422.529 -146.809H421.355C425.136 -132.089 429.504 -117.773 433.946 -103.972Z" fill="#5D5D5D"/>
<path d="M369.519 672.635C353.404 676.6 339.344 698.917 328 716.684C324.073 722.924 320.328 728.87 316.988 733.091C298.649 755.908 279.04 777.673 258.252 798.283C253.076 803.605 246.541 809.625 239.64 816.012C219.156 834.99 193.679 858.629 185.934 880.249C179.436 898.603 183.254 915.781 186.962 932.52C190.008 946.285 193.165 960.527 190.633 975.32C189.091 984.46 183.548 993.49 177.674 1003.07C170.626 1014.52 163.357 1026.34 162.99 1039.04C162.837 1043.36 163.51 1047.67 164.972 1051.74C169.818 1065.36 174.884 1071.71 180.904 1071.71C186.925 1071.71 193.349 1065.51 202.93 1050.31C212.108 1035.85 215.705 1019.04 219.193 1002.81C222.68 986.589 226.314 969.777 235.565 955.095C253.186 927.308 284.242 906.862 311.628 888.802L318.493 884.287C364.013 854.151 399.915 830.328 415.957 766.238C420.215 749.243 419.077 706.039 401.824 683.941C398.297 678.917 393.283 675.124 387.489 673.096C381.694 671.068 375.41 670.907 369.519 672.635V672.635ZM400.466 685.226C415.92 705.011 418.82 746.93 414.268 765.981C398.41 829.41 362.875 853.049 317.538 883.002L310.71 887.517C283.141 905.65 251.975 926.206 234.097 954.324C224.662 969.19 221.028 986.185 217.467 1002.67C213.907 1019.15 210.456 1035.34 201.462 1049.58C195.038 1059.71 187.586 1070.1 180.978 1070.1C175.912 1070.1 171.25 1063.97 166.771 1051.38C165.368 1047.52 164.732 1043.43 164.899 1039.34C165.303 1027.11 172.461 1015.48 179.363 1004.25C185.346 994.518 191 985.341 192.615 975.834C195.148 960.711 191.954 946.285 188.944 932.373C185.273 915.084 181.602 898.786 187.843 880.983C195.441 859.804 220.881 836.311 241.072 817.481C248.01 811.057 254.544 805.037 259.757 799.641C280.551 778.999 300.161 757.197 318.493 734.34C321.833 730.008 325.578 724.062 329.506 717.748C340.518 700.129 354.505 678.178 369.886 674.397C372.525 673.715 375.237 673.358 377.962 673.333C382.386 673.375 386.736 674.473 390.65 676.535C394.564 678.598 397.929 681.564 400.466 685.189V685.226Z" fill="#5D5D5D"/>
<path d="M386.407 592.908C383.818 588.578 380.278 584.893 376.055 582.133C371.832 579.373 367.036 577.61 362.031 576.977C355.562 576.025 349.425 573.504 344.154 569.636L343.603 569.048C324.881 548.089 262.107 479.741 240.816 479.741C239.708 479.683 238.602 479.892 237.592 480.352C236.582 480.813 235.699 481.509 235.015 482.384C232.189 486.054 232.336 493.396 235.456 505.179C237.328 512.079 255.096 521.623 273.928 531.718C289.603 540.16 305.829 548.86 311.335 555.394C316.254 561.23 322.752 569.342 322.348 572.169C322.348 572.903 321.357 573.38 319.925 574.077C316.621 575.729 311.665 578.188 314.309 589.751C316.892 598.209 320.808 606.202 325.909 613.427C330.321 619.744 333.818 626.652 336.298 633.946C340.997 651.969 311.408 685.336 291.842 707.066C285.381 714.408 279.801 720.538 276.24 725.42C261.144 744.366 244.704 762.202 227.049 778.792C193.607 811.828 159.026 845.781 146.875 892.84C128.484 962.95 124.813 1025.02 135.826 1077.14C141.699 1104.97 161.963 1143.73 181.603 1143.73C193.827 1143.73 202.748 1129.05 208.07 1100.05C228.628 988.388 284.72 951.24 338.941 915.304C386.994 883.479 432.367 853.417 451.897 775.304C459.239 745.939 447.932 700.569 433.211 675.462C427.324 666.102 419.547 658.076 410.378 651.896C403.035 646.989 396.663 640.766 391.583 633.542C387.912 627.816 388.609 621.172 389.27 614.161C389.931 607.15 390.848 599.222 386.407 592.908ZM389.527 634.827C394.737 642.368 401.326 648.857 408.946 653.951C417.792 659.953 425.293 667.728 430.972 676.783C445.436 701.413 456.669 745.865 449.327 774.68C430.054 851.765 385.085 881.607 337.436 913.175C282.958 949.405 226.425 986.846 205.574 1099.61C200.582 1126.81 192.285 1141.2 181.639 1141.2C164.936 1141.2 144.673 1106.47 138.359 1076.63C127.346 1024.87 131.017 963.207 149.115 893.317C161.082 846.956 195.406 813.112 228.591 780.443C246.34 763.764 262.865 745.829 278.039 726.778C281.527 722.153 287.07 715.949 293.494 708.755C314.639 685.079 343.566 652.63 338.537 633.249C336 625.699 332.39 618.553 327.818 612.032C322.893 605.043 319.091 597.327 316.548 589.164C314.382 579.547 317.796 577.858 320.806 576.353C322.458 575.509 324.183 574.665 324.477 572.682C325.064 570.003 323.339 565.892 313.097 553.742C307.297 546.841 290.851 537.994 274.956 529.478C258.253 520.522 239.347 510.354 237.769 504.518C234.098 491.23 235.309 485.981 236.888 483.925C237.326 483.382 237.888 482.953 238.527 482.672C239.165 482.391 239.862 482.267 240.559 482.31C256.601 482.31 303.185 527.974 341.437 570.737C341.665 571.033 341.923 571.304 342.208 571.545C347.803 575.709 354.331 578.444 361.224 579.51C365.917 580.077 370.418 581.717 374.377 584.301C378.336 586.885 381.648 590.345 384.057 594.413C387.728 599.992 387.288 606.746 386.59 613.868C385.893 620.989 385.452 628.587 389.527 634.827Z" fill="#5D5D5D"/>
<path d="M0 354.607C123.785 424.68 257.189 536.122 281.49 591.513C296.174 624.769 260.713 664.523 215.964 714.848C165.084 772.037 101.759 843.322 97.8315 928.629C93.0225 1032.77 41.4086 1075.46 0 1088.45V1091.09C42.3631 1078.21 95.4454 1034.86 100.401 928.702C104.292 844.276 167.286 773.395 217.872 716.5C263.246 665.514 299.074 625.21 283.95 590.449C259.354 534.654 124.813 422.258 0 351.891V354.607Z" fill="#5D5D5D"/>
<path d="M623.589 -146.625H622.084C619.477 -144.114 617.36 -141.139 615.843 -137.852C611.291 -127.134 612.576 -115.828 613.824 -105.183C614.698 -99.1059 615.078 -92.968 614.962 -86.8295C614.305 -77.0756 612.931 -67.3833 610.85 -57.8311C609.309 -49.9024 607.693 -41.6801 606.923 -33.7147C602.224 14.8485 606.482 58.7499 619.551 96.7782C622.267 104.67 632.913 116.82 644.183 129.814C658.573 146.259 673.551 163.254 674.065 173.569C674.185 174.568 674.086 175.581 673.776 176.538C673.465 177.495 672.95 178.374 672.266 179.112C668.375 183.26 657.949 183.994 641.246 181.351C629.111 178.876 617.334 174.893 606.188 169.494C599.617 166.631 592.789 163.658 585.998 161.382L580.051 159.4C555.639 151.361 522.196 140.313 517.424 121.005C515.148 111.791 519.627 101.256 530.75 89.6938C548.26 71.3403 566.358 52.6565 578.472 24.0619C590.22 -3.35813 603.729 -56.6932 598.553 -85.5815C597.538 -90.5236 595.527 -95.2071 592.642 -99.3466C590.589 -102.001 589.101 -105.047 588.267 -108.298C587.434 -111.549 587.274 -114.936 587.797 -118.251C588.612 -123.211 590.601 -127.905 593.597 -131.942C595.259 -133.98 596.501 -136.326 597.251 -138.846C598.001 -141.367 598.244 -144.01 597.965 -146.625H596.864C597.141 -144.132 596.913 -141.609 596.194 -139.207C595.475 -136.804 594.28 -134.571 592.679 -132.64C589.579 -128.467 587.539 -123.605 586.732 -118.471C586.165 -115.033 586.312 -111.514 587.165 -108.136C588.017 -104.757 589.557 -101.59 591.688 -98.8327C594.516 -94.8095 596.49 -90.2498 597.488 -85.4347C602.627 -56.8033 589.155 -3.7252 577.445 23.548C565.257 51.9591 547.196 70.7163 529.722 88.8495C518.305 100.706 513.753 111.571 516.139 121.188C521.058 141.083 554.831 152.242 579.464 160.391L585.447 162.337C592.165 164.612 598.956 167.549 605.528 170.412C616.754 175.858 628.618 179.878 640.842 182.379C646.411 183.327 652.044 183.854 657.692 183.957C665.254 183.957 670.21 182.599 672.853 179.809C673.627 178.956 674.214 177.95 674.574 176.856C674.935 175.762 675.061 174.605 674.946 173.459C674.322 162.74 659.307 145.598 644.77 129.007C633.757 116.27 623.038 104.193 620.395 96.4845C607.326 58.6031 603.105 14.8485 607.804 -33.5312C608.574 -41.4599 610.153 -49.6455 611.732 -57.5374C613.867 -67.21 615.303 -77.0239 616.027 -86.9029C616.137 -93.0413 615.757 -99.1787 614.889 -105.256C613.604 -116.268 612.392 -126.95 616.834 -137.375C618.477 -140.86 620.769 -143.999 623.589 -146.625V-146.625Z" fill="#5D5D5D"/>
<path d="M503.144 -126.179C526.381 -53.8301 550.39 20.9418 459.68 73.3959C445.605 81.4193 430.355 87.1792 414.49 90.4646C400.422 93.3728 386.088 94.7999 371.723 94.7225C249.076 94.7225 95.6656 3.50601 0 -54.601V-51.591C95.996 6.69951 248.966 97.292 371.723 97.292C386.261 97.3771 400.767 95.9376 415.004 92.9973C431.146 89.6571 446.658 83.7849 460.965 75.5983C553.473 22.1531 529.135 -53.6466 505.604 -126.95C503.474 -133.631 501.345 -140.275 499.326 -146.809H496.61C498.702 -139.981 500.941 -133.117 503.144 -126.179Z" fill="#5D5D5D"/>
<path d="M34.2865 617.355C32.4877 605.535 24.3382 594.927 9.32388 585.016C6.27697 582.997 3.15664 580.868 -0.000399612 578.776V580.097L8.73652 585.934C23.4204 595.661 31.4599 606.012 33.2219 617.502C36.122 636.552 21.6584 656.191 3.85413 678.031C2.67941 679.499 1.35786 681.335 -0.0371094 683.28V685.189C1.68825 682.73 3.26677 680.491 4.73516 678.729C22.6862 656.668 37.2967 636.846 34.2865 617.355Z" fill="#5D5D5D"/>
<path d="M66.7751 629.762C76.3196 602.966 66.7751 592.211 23.4942 563.689L13.1054 556.642C8.59008 553.595 4.25833 550.658 0 547.832V549.153L12.518 557.706L22.9069 564.607C65.5269 592.835 75.0348 603.443 65.7472 629.505C57.3407 653.144 41.0782 673.149 23.8613 694.366C15.8219 704.203 7.67234 714.298 0 725.053V726.961C7.8926 715.729 16.3726 705.268 24.7057 695.027C41.996 673.663 58.2951 653.585 66.7751 629.762Z" fill="#5D5D5D"/>
<path d="M356.341 768.073H356.084C350.871 768.073 345.585 774.68 341.73 779.526C340.886 780.59 340.152 781.508 339.491 782.242C335.82 786.39 332.369 790.795 328.955 795.016C326.789 797.732 324.587 800.485 322.347 803.165L322.054 803.495C314.712 812.195 311.738 817.848 312.913 820.821C313.201 821.411 313.643 821.914 314.192 822.275C314.741 822.637 315.377 822.845 316.033 822.876H317.098C331.782 822.546 343.676 809.258 349.476 801.366C354.614 794.746 358.36 787.154 360.489 779.048C361.33 775.887 361.017 772.53 359.608 769.578C359.211 769.098 358.711 768.714 358.146 768.453C357.58 768.193 356.963 768.063 356.341 768.073V768.073ZM358.506 778.718C356.49 786.551 352.906 793.893 347.971 800.302C342.391 807.937 330.974 820.784 317.061 821.078V821.996V821.078H316.4C315.079 821.078 314.859 820.344 314.785 820.16C314.381 819.169 314.418 815.609 323.632 804.707L323.889 804.376C326.165 801.697 328.331 798.944 330.534 796.191C333.911 791.969 337.398 787.601 341.033 783.49C341.693 782.756 342.464 781.765 343.309 780.7C346.723 776.442 351.899 769.945 356.414 769.945C356.742 769.941 357.067 770.015 357.361 770.162C357.655 770.309 357.909 770.524 358.103 770.789C359.196 773.321 359.34 776.163 358.506 778.792V778.718Z" fill="#5D5D5D"/>
<path d="M743.63 1139.99C792.344 1134.44 844.582 1078.06 845.242 1030.27C846.27 956.856 804.164 898.456 763.416 841.854C756.478 832.237 749.32 822.326 742.565 812.488L738.527 806.652C719.328 779.049 697.596 747.921 690.547 713.931C684.564 685.226 675.423 618.493 685.371 595.514C692.713 578.666 713.454 568.975 733.535 559.652C747.411 553.191 760.553 547.098 769.767 538.765L770.171 538.362C801.668 509.84 801.668 509.84 823.143 508.996C829.641 508.776 837.827 508.482 849.134 507.418C859.576 506.505 869.926 504.737 880.08 502.132C883.318 501.16 886.655 500.556 890.028 500.333C896.636 500.333 902.179 505.032 920.497 520.522C974.644 566.369 973.616 646.133 972.625 723.217C971.377 820.27 970.092 920.59 1079.93 952.378C1094.77 956.791 1110.15 959.102 1125.63 959.242C1166.93 959.242 1202.06 940.889 1227.28 905.907C1264.28 854.701 1274.12 774.827 1251.77 707.103C1200.12 550.769 1076.7 461.424 943.918 376.264C823.29 298.849 708.352 277.523 610.116 263.611C603.456 262.62 596.733 262.104 589.999 262.069C550.169 262.069 531.264 282.331 507.255 307.989C497.627 318.625 487.458 328.757 476.786 338.346C463.277 350.202 446.097 358.314 429.504 366.17C402.412 378.98 376.826 391.094 366.253 418C343.824 475.042 398.925 519.531 447.565 558.771C470.068 576.941 491.323 594.083 503.768 611.225C553.179 679.243 538.385 793.878 493.599 858.262C479.613 878.377 452.815 903.265 424.475 929.583C377.486 973.191 324.221 1022.64 314.823 1064.15C310.381 1083.68 311.556 1097.19 318.494 1105.85C324.184 1112.93 333.765 1116.38 347.862 1116.38C370.952 1116.38 404.028 1106.88 439.012 1096.82C481.779 1084.52 530.273 1070.57 571.608 1070.57C588.642 1070.14 605.57 1073.39 621.239 1080.08C636.443 1087.68 650.699 1097.05 663.713 1107.98C685.261 1124.72 705.598 1140.54 734.379 1140.54C737.471 1140.53 740.559 1140.35 743.63 1139.99V1139.99ZM622.01 1078.43C606.009 1071.63 588.728 1068.38 571.351 1068.89C529.722 1068.89 481.118 1082.87 438.241 1095.2C403.367 1105.23 370.438 1114.7 347.605 1114.7C334.206 1114.7 325.102 1111.47 319.779 1104.86C313.355 1096.78 312.437 1083.68 316.585 1064.7C325.873 1023.74 378.992 974.513 425.723 931.088C454.136 904.659 481.008 879.699 495.105 859.473C540.258 794.539 555.125 678.912 505.273 610.307C492.682 592.981 471.317 575.729 448.703 557.486C400.577 518.65 345.916 474.639 367.942 418.807C378.257 392.599 403.514 380.632 430.349 367.968C447.088 360.076 464.378 351.891 478.071 339.888C488.771 330.241 498.977 320.06 508.65 309.384C532.328 284.056 551.05 264.051 590.073 264.051C596.72 264.091 603.356 264.594 609.933 265.556C707.984 279.468 822.849 300.758 943.037 377.953C1075.49 462.929 1198.65 552.09 1250.08 707.8C1272.29 775.011 1262.56 854.261 1225.89 904.99C1201.03 939.384 1166.38 957.554 1125.7 957.554C1110.4 957.417 1095.19 955.131 1080.52 950.763C1031.84 936.668 1001.08 907.779 986.391 862.373C973.286 821.739 973.91 771.744 974.534 723.401C975.525 645.876 976.553 565.561 921.745 519.274C895.535 497.25 894.837 496.773 879.713 500.48C869.657 503.069 859.405 504.824 849.06 505.729C837.68 506.794 829.641 507.087 823.18 507.308C801.154 508.078 801.154 508.078 769.033 537.04L768.592 537.444C759.598 545.593 746.566 551.65 732.837 558.037C712.426 567.507 691.318 577.308 683.756 594.743C673.624 618.199 682.802 685.409 688.822 714.261C695.944 748.435 717.786 779.893 737.095 807.643L741.133 813.516C747.888 823.28 755.046 833.228 761.985 842.882C802.365 899.263 844.508 957.554 843.48 1030.09C842.82 1077.11 791.426 1132.57 743.483 1138.04C740.484 1138.37 737.469 1138.55 734.452 1138.56C706.296 1138.56 686.179 1122.92 664.924 1106.4C651.776 1095.41 637.371 1086.02 622.01 1078.43V1078.43Z" fill="#5D5D5D"/>
<path d="M1519.97 -0.238198H1505.84H1492.73C1467.69 -0.238198 1447.8 1.11996 1425.81 7.7639C1414.53 11.5573 1403.61 16.3353 1393.17 22.0429C1375.77 30.8892 1359.36 39.2584 1339.72 39.2584C1336.44 39.2526 1333.17 39.0073 1329.92 38.5243C1315.42 36.432 1304.56 27.916 1294.06 19.6569C1282.27 10.3701 1271.15 1.59714 1255.51 1.59714C1254.06 1.59825 1252.62 1.67176 1251.18 1.81739C1241.56 2.80848 1226.11 11.4713 1211.2 19.8772C1203.12 24.7071 1194.74 28.9988 1186.09 32.7246C1179.08 35.2929 1171.91 37.4018 1164.62 39.0381C1149.16 42.7088 1147.22 44.067 1139.73 72.4781C1137.67 80.3334 1136.06 87.6747 1134.7 94.7959C1129.3 121.115 1125.04 141.927 1096.96 161.823C1077.98 175.221 1053.94 181.718 1023.54 181.718C993.146 181.718 961.686 175.367 933.787 169.788C919.103 166.888 905.41 164.098 895.205 163.034C889.258 162.373 880.08 162.006 870.683 162.006C843.738 162.006 812.167 171.88 809.965 186.049C808.9 192.73 814.15 202.787 845.059 212.662L848.473 213.763C966.201 251.534 1048.32 300.795 1131.91 383.862C1154.93 406.767 1172.55 417.412 1187.3 417.412C1190.74 417.424 1194.15 416.815 1197.36 415.614C1213.04 409.777 1224.45 389.919 1237.74 367.087C1244.57 355.268 1252.43 341.87 1261.49 328.949C1304.96 267.103 1368.11 221.815 1440.64 200.475C1460.43 194.635 1480.94 191.584 1501.58 191.408C1564.97 191.408 1609.72 222.426 1652.09 254.361V252.085C1609.8 220.26 1565.05 189.683 1501.58 189.683C1480.77 189.846 1460.08 192.923 1440.12 198.823C1367.21 220.155 1303.67 265.541 1259.84 327.591C1250.63 340.585 1242.85 354.02 1236.02 365.876C1222.95 388.487 1211.68 407.979 1196.63 413.595C1193.61 414.723 1190.42 415.295 1187.19 415.283C1172.95 415.283 1155.77 404.785 1133.08 382.247C1049.28 298.996 966.972 249.589 848.95 211.744L845.5 210.643C822.373 203.301 810.332 194.492 811.653 186.012C813.489 174.266 841.572 163.548 870.572 163.548C879.897 163.548 888.927 163.915 894.874 164.539C905.043 165.64 918.772 168.21 933.31 171.293C961.282 176.909 993 183.259 1023.43 183.259C1053.86 183.259 1078.75 176.652 1098.03 163.034C1126.7 142.735 1131.07 121.592 1136.5 94.8693C1137.97 87.7848 1139.43 80.4802 1141.53 72.8452C1148.87 44.5442 1150.48 44.1771 1165.02 40.7267C1172.39 39.0773 1179.63 36.9437 1186.72 34.3397C1195.46 30.5865 1203.93 26.2451 1212.08 21.3454C1226.18 13.4535 1242.11 4.46029 1251.36 3.54262C1252.74 3.39704 1254.13 3.32352 1255.51 3.32237C1270.49 3.32237 1281.39 11.8751 1292.96 20.9784C1303.64 29.3842 1314.65 38.0838 1329.66 40.2495C1333.01 40.7299 1336.38 40.9752 1339.76 40.9836C1359.84 40.9836 1377.2 32.1373 1394.02 23.5846C1404.37 17.9185 1415.21 13.1772 1426.4 9.41571C1448.13 2.80848 1467.91 1.48703 1492.77 1.48703H1505.84H1520.01C1540.73 1.25562 1561.38 3.94955 1581.35 9.48913C1605.59 16.7202 1629.2 25.9151 1651.94 36.9826V34.9637C1629.34 24.0421 1605.89 14.9703 1581.82 7.83731C1561.69 2.25864 1540.86 -0.459829 1519.97 -0.238198V-0.238198Z" fill="#5D5D5D"/>
<path d="M1442.14 826.364C1444.2 829.08 1448.13 832.787 1457.93 833.705C1494.64 836.715 1550.07 841.046 1596.87 883.883L1597.42 884.36C1614 899.819 1627.15 918.574 1636.04 939.421C1638.72 945.477 1643.05 948.928 1647.9 948.928C1649.3 948.872 1650.67 948.535 1651.94 947.937V946.615C1650.68 947.251 1649.31 947.602 1647.9 947.643C1643.5 947.643 1639.53 944.413 1637.07 938.797C1628.1 917.833 1614.85 898.978 1598.16 883.443L1597.61 882.966C1550.51 840.055 1494.82 835.504 1458.11 832.494C1448.75 831.723 1445.08 828.236 1443.1 825.703C1439.47 820.305 1437.81 813.825 1438.4 807.349C1443.5 784.885 1449.85 756.914 1447.46 726.301C1443.43 674.507 1422.72 629.982 1402.68 586.815C1386.6 552.237 1368.39 513.107 1374.71 495.231C1385.98 463.48 1432.01 417.926 1451.28 399.793C1462.85 388.663 1478.32 382.509 1494.38 382.651C1502.09 382.707 1509.74 383.945 1517.07 386.322C1550.84 397.334 1598.64 422.148 1651.94 456.395V455.074C1598.82 420.973 1551.13 396.123 1517.4 385.331C1509.96 382.931 1502.2 381.693 1494.38 381.66C1477.95 381.505 1462.12 387.836 1450.33 399.279C1431.02 417.633 1384.84 463.149 1373.49 495.121C1367.03 513.474 1385.35 552.787 1401.5 587.512C1421.51 630.496 1442.18 674.911 1446.18 726.521C1448.53 756.951 1442.22 784.811 1437.11 807.276C1436.58 814.024 1438.35 820.754 1442.14 826.364V826.364Z" fill="#5D5D5D"/>
<path d="M1511.23 793.107C1519.6 797.659 1531.05 799.641 1542.18 801.513C1550.18 802.621 1558.08 804.402 1565.78 806.835C1570.66 808.748 1575.44 810.917 1580.1 813.333C1590.6 818.508 1602.53 824.345 1613.43 824.345C1615.44 824.355 1617.45 824.133 1619.41 823.684L1620.92 823.317C1636.48 818.655 1644.78 799.164 1651.94 781.214V778.241V778.571C1644.6 796.925 1636.45 817.554 1620.74 822.252L1619.34 822.619C1617.45 823.034 1615.52 823.244 1613.58 823.243C1602.97 823.243 1591.15 817.444 1580.72 812.231C1576.03 809.805 1571.21 807.624 1566.3 805.698C1558.53 803.242 1550.57 801.437 1542.51 800.302C1531.49 798.43 1520.11 796.631 1511.93 792.006C1493.79 782.058 1495.67 763.888 1497.69 744.617C1498.68 737.161 1499.02 729.632 1498.71 722.116C1493.98 661.073 1471.29 612.289 1449.34 565.121C1444.43 554.854 1441.71 543.677 1441.35 532.301C1441 520.925 1443.02 509.601 1447.28 499.048C1452.29 487.341 1459.65 476.786 1468.9 468.035C1478.15 459.284 1489.09 452.524 1501.06 448.173C1508.71 445.278 1516.82 443.786 1525 443.768C1560.42 443.768 1593.68 470.931 1623.01 494.901C1631.35 501.691 1639.2 508.078 1646.73 513.584L1652.09 517.512V516.154L1647.35 512.703C1640.01 507.234 1632.04 500.81 1623.71 494.056C1594.34 469.977 1560.83 442.667 1525 442.667C1516.68 442.67 1508.43 444.187 1500.66 447.145C1488.56 451.539 1477.49 458.367 1468.13 467.205C1458.78 476.044 1451.33 486.706 1446.25 498.535C1441.93 509.234 1439.89 520.716 1440.25 532.25C1440.61 543.783 1443.37 555.116 1448.35 565.525C1470.37 612.583 1492.91 661.256 1497.61 722.153C1497.92 729.583 1497.57 737.026 1496.58 744.397C1494.49 763.374 1492.47 782.756 1511.23 793.107Z" fill="#5D5D5D"/>
<path d="M1519.97 36.8357C1489.1 36.8357 1456.24 42.4519 1421.44 48.3617C1382.27 55.0423 1341.74 61.9799 1298.61 61.9799C1295.49 61.9799 1292.4 61.9799 1289.43 61.9799C1276.35 61.4552 1263.34 59.7723 1250.56 56.9511C1241.98 54.9778 1233.24 53.8103 1224.45 53.4639C1205.4 53.4639 1191.42 63.4849 1176.07 88.1152C1168.84 100.774 1162.82 114.084 1158.08 127.869C1148.87 152.132 1139.36 177.239 1118.29 192.106C1110.95 197.245 1097.18 201.172 1082.5 205.394C1056.8 212.735 1027.73 220.994 1023.76 238.43C1018.84 260.16 1063.45 289.819 1087.42 305.86C1091.9 308.834 1095.75 311.366 1098.43 313.202C1126.51 333.831 1149.82 347.559 1171.85 347.559C1174.84 347.569 1177.83 347.298 1180.77 346.752C1198.43 343.595 1214.43 331.151 1231.17 307.549C1279.51 238.825 1349.71 188.506 1430.32 164.796C1453.41 157.949 1477.35 154.354 1501.43 154.114C1564.75 154.114 1611.56 179.809 1651.94 208.183V206.825C1611.56 178.414 1564.75 153.013 1501.43 153.013C1477.23 153.18 1453.17 156.726 1429.96 163.548C1349.1 187.324 1278.68 237.785 1230.18 306.705C1213.63 330.05 1197.84 342.384 1180.51 345.504C1177.63 346.018 1174.71 346.276 1171.78 346.275C1149.97 346.275 1126.88 332.62 1098.94 312.137C1096.41 310.265 1092.56 307.696 1087.93 304.796C1064.18 288.975 1019.94 259.536 1024.72 238.54C1028.39 221.838 1057.28 213.653 1082.64 206.385C1097.33 202.163 1111.39 198.199 1118.77 192.987C1140.1 177.9 1149.68 152.609 1158.96 128.236C1163.69 114.523 1169.68 101.276 1176.84 88.6658C1191.93 64.4026 1205.7 54.5284 1224.31 54.5284C1233.03 54.9393 1241.7 56.1683 1250.19 58.1991C1263.05 61.0213 1276.13 62.7041 1289.28 63.228C1292.26 63.228 1295.34 63.228 1298.46 63.228C1341.71 63.228 1382.27 56.2904 1421.51 49.6097C1456.24 43.6632 1489.02 38.0838 1519.82 38.0838C1537.18 37.8671 1554.48 40.0913 1571.22 44.691C1599.09 53.1986 1626.13 64.2575 1651.98 77.7272V76.5158C1626.26 63.175 1599.38 52.227 1571.66 43.81C1554.84 39.0662 1537.44 36.7183 1519.97 36.8357V36.8357Z" fill="#5D5D5D"/>
<path d="M1487.48 812.856C1494.82 814.764 1502.16 816.526 1509.51 818.105C1547.9 826.988 1581.05 834.696 1614.2 864.686L1614.86 865.273C1622.46 872.174 1628.48 875.551 1633.22 875.551C1633.93 875.542 1634.65 875.456 1635.35 875.294C1642.69 873.642 1646.14 863.584 1650.03 850.627C1650.62 848.608 1651.28 846.626 1651.94 844.644V840.973C1650.91 844.056 1649.92 847.176 1648.97 850.26C1645.11 862.887 1641.62 872.651 1635.05 874.193C1630.28 875.294 1624.04 872.137 1615.49 864.429L1614.83 863.841C1581.46 833.632 1548.2 825.923 1509.65 817.003C1502.57 815.351 1495.23 813.626 1487.63 811.754C1460.68 805 1465.23 779.709 1469.64 755.226C1471.95 745.054 1473.03 734.639 1472.83 724.208C1468.46 667.79 1446.77 621.136 1425.77 575.986C1423.27 570.59 1420.59 565.341 1417.99 560.239C1404.48 533.773 1392.84 510.942 1409.51 482.824C1422.03 461.681 1440.79 444.355 1458.96 427.764C1462.22 424.717 1465.49 421.744 1468.68 418.734C1476.47 411.857 1486.65 408.3 1497.02 408.823C1542.25 408.823 1611.82 456.946 1651.83 485.908V484.549C1611.45 455.441 1542.32 407.685 1497.02 407.685C1486.36 407.164 1475.92 410.826 1467.91 417.89C1464.72 420.9 1461.45 423.873 1458.19 426.92C1439.83 443.695 1421.15 461.057 1408.55 482.384C1391.59 511.015 1403.93 535.205 1417 560.863C1419.6 565.928 1422.28 571.214 1424.78 576.573C1445.74 621.613 1467.4 668.157 1471.77 724.392C1471.92 734.723 1470.85 745.037 1468.57 755.116C1464.21 780.04 1459.54 805.844 1487.48 812.856Z" fill="#5D5D5D"/>
<path d="M714.922 1341.51C705.635 1355.49 694.108 1372.93 698.072 1384.97C699.109 1387.62 700.75 1390 702.866 1391.91C704.981 1393.83 707.513 1395.22 710.26 1395.98C711.533 1396.43 712.875 1396.65 714.225 1396.64C728.431 1396.64 750.935 1374.62 770.684 1355.42C783.313 1343.12 795.207 1331.49 802.365 1328.26C836.615 1312.73 883.787 1305.35 925.416 1298.89C941.862 1296.32 957.354 1293.9 971.707 1291.11C1002.58 1284.88 1033.97 1281.64 1065.46 1281.46C1162.12 1281.46 1243.32 1316.25 1306.76 1384.86C1313.84 1392.53 1324.19 1396.42 1337.48 1396.42C1378.89 1396.42 1449.93 1356.04 1499.96 1281.42C1529.88 1236.75 1573.38 1145.42 1528.15 1035.67C1510.02 991.618 1483.11 971.209 1443.46 971.209C1413.25 971.209 1378.82 982.221 1338.95 995.142C1289.91 1010.96 1234.29 1028.88 1174.49 1028.88C1128.83 1029.1 1083.84 1017.82 1043.69 996.059C915.982 927.931 912.237 803.679 923.287 703.029C927.545 663.899 920.607 632.918 903.133 613.464C897.039 606.657 889.541 601.251 881.157 597.62C872.773 593.989 863.701 592.219 854.566 592.431C817.856 592.431 771.712 621.025 755.119 675.719C739.518 727.108 776.521 773.983 819.398 828.162C867.708 889.206 922.479 958.288 911.87 1050.72C906.584 1096.53 889.844 1140.46 867.121 1168.18C849.867 1189.28 834.633 1191.16 818.48 1193.14C806.146 1194.64 793.408 1196.22 778.467 1205.69C767.05 1213.03 763.489 1225.26 759.671 1238.29C757.584 1247.48 753.933 1256.25 748.879 1264.2C745.869 1268.39 740.619 1269.31 735.076 1270.26C727.734 1271.51 719.511 1272.98 715.106 1282.41C712.059 1288.98 716.097 1296.73 719.988 1304.21C723.219 1310.45 726.596 1316.88 725.605 1322.27C724.797 1326.64 720.208 1333.36 714.922 1341.51ZM721.86 1303.3C718.189 1295.95 714.518 1289.02 717.015 1283.36C720.943 1274.92 728.321 1273.64 735.37 1272.35C741.096 1271.36 747.007 1270.33 750.531 1265.45C755.676 1257.28 759.4 1248.29 761.544 1238.88C765.215 1226.25 768.665 1214.28 779.421 1207.49C794.105 1198.28 806.44 1196.74 818.554 1195.23C835.11 1193.21 850.785 1191.27 868.553 1169.54C891.57 1141.42 908.456 1097.08 913.779 1050.9C924.498 957.627 869.434 888.031 820.867 826.621C778.357 772.918 741.684 726.521 756.955 676.122C773.254 622.42 818.297 594.34 854.383 594.34C863.216 594.13 871.99 595.836 880.101 599.34C888.213 602.845 895.469 608.063 901.371 614.638C918.441 633.653 925.196 664.046 920.974 702.735C909.961 804.046 913.632 929.143 1042.52 997.858C1082.97 1019.77 1128.3 1031.13 1174.31 1030.89C1234.44 1030.89 1290.24 1012.91 1339.5 997.05C1379.19 984.276 1413.47 973.228 1443.35 973.228C1482.56 973.228 1508.07 992.682 1526.06 1036.36C1570.88 1145.2 1527.79 1235.83 1498.09 1280.13C1450.37 1351.53 1378.82 1394.22 1337.37 1394.22C1324.71 1394.22 1314.87 1390.55 1308.19 1383.21C1244.35 1314.12 1162.63 1279.11 1065.35 1279.11C1033.73 1279.3 1002.2 1282.55 971.193 1288.8C956.913 1291.59 941.385 1294.01 924.975 1296.58C883.2 1303.11 835.881 1310.53 801.374 1326.16C794.032 1329.58 782.395 1340.85 769.106 1353.73C749.576 1372.78 727.44 1394.37 714.041 1394.37C712.932 1394.37 711.828 1394.2 710.774 1393.85C708.309 1393.25 706.024 1392.06 704.109 1390.39C702.193 1388.73 700.703 1386.63 699.761 1384.27C696.09 1373.26 707.323 1356.26 716.354 1342.65C721.787 1334.46 726.449 1327.41 727.367 1322.68C728.799 1316.62 725.274 1309.87 721.86 1303.3Z" fill="#5D5D5D"/>
<path d="M1602.16 1091.09C1608.81 1094.55 1616.26 1096.15 1623.75 1095.76C1633.32 1095.59 1642.82 1094.02 1651.94 1091.09V1088.41C1642.82 1091.36 1633.32 1092.92 1623.75 1093.04C1616.76 1093.41 1609.8 1091.94 1603.56 1088.78C1582.19 1075.05 1572.46 1050.72 1562.37 1025.02C1553.67 1002.81 1544.67 979.835 1527.16 963.647V962.877H1526.39C1506.31 945.147 1479.22 936.521 1443.61 936.521C1408.88 936.521 1372.36 944.854 1343.03 951.534C1322.95 956.123 1305.66 960.087 1294.5 960.087C1287.96 960.087 1283.96 958.729 1282.31 955.939C1280.14 952.268 1281.79 945.367 1287.23 935.42C1312.59 889.096 1363.8 778.682 1360.28 733.018C1357.49 696.935 1340.16 659.604 1323.39 623.705C1299.12 571.545 1274.05 517.622 1292.29 466.123C1313.14 407.392 1404.96 302.337 1470.3 293.417C1474.35 292.875 1478.43 292.605 1482.52 292.609C1525 292.609 1587.18 317.937 1651.98 354.607V351.891C1587.15 315.184 1525.03 290.04 1482.52 290.04C1478.31 290.036 1474.11 290.306 1469.93 290.847C1403.85 299.877 1310.9 405.96 1289.87 465.278C1271.26 517.769 1296.59 572.169 1321.07 624.77C1337.74 660.596 1354.96 697.596 1357.78 733.202C1360.94 773.946 1316.26 877.203 1285.06 934.209C1278.97 945.221 1277.43 952.562 1280.18 957.26C1282.34 960.931 1287.04 962.656 1294.57 962.656C1306.02 962.656 1323.46 958.655 1343.65 954.067C1373.02 947.386 1409.25 939.09 1443.68 939.09C1478.85 939.09 1505.5 947.606 1525.14 965.116C1542.47 980.936 1551.43 1003.8 1560.09 1025.9C1570.22 1052.07 1579.91 1076.74 1602.16 1091.09Z" fill="#5D5D5D"/>
<path d="M767.235 1302.93C771.154 1303.67 775.143 1303.98 779.129 1303.85C790.325 1303.85 831.771 1302.19 896.38 1280.87C953.899 1262.48 1013.93 1253.15 1074.31 1253.19C1174.24 1253.19 1240.64 1268.17 1326.14 1349.99C1332.72 1355.99 1341.4 1359.14 1350.3 1358.76C1387.48 1358.76 1443.69 1318.38 1478.27 1266.66C1505.28 1226.28 1544.53 1143.95 1503.96 1045.47C1486.45 1003 1464.72 997.234 1443.47 997.234C1417.4 997.234 1384.73 1007.73 1346.99 1019.92C1296.11 1036.33 1238.44 1054.9 1174.46 1054.9C1124.47 1055.16 1075.24 1042.81 1031.29 1019C888.12 942.614 886.175 800.375 897.151 700.019C900.565 668.928 895.719 644.334 883.568 630.753C879.911 626.708 875.414 623.512 870.392 621.387C865.37 619.263 859.944 618.263 854.494 618.456C827.292 618.456 793.005 640.48 780.12 683.133C768.483 721.492 801.559 763.301 839.847 811.607C888.781 873.458 949.683 950.396 937.825 1053.54C934.607 1082.46 926.683 1110.65 914.368 1137.01C896.338 1176.4 870.484 1211.7 838.379 1240.78C820.901 1255.88 802.117 1269.39 782.249 1281.16C768.557 1289.68 760.223 1294.78 760.884 1298.71C761.215 1300.62 763.197 1301.9 767.235 1302.93ZM782.983 1282.26C802.899 1270.49 821.731 1256.98 839.26 1241.89C871.466 1212.69 897.417 1177.26 915.542 1137.75C927.883 1111.28 935.831 1082.97 939.073 1053.95C950.784 950.176 889.846 873.018 840.655 811.02C802.55 762.861 769.658 721.272 781.111 683.464C793.85 641.508 827.623 619.557 854.531 619.557C859.828 619.362 865.103 620.329 869.986 622.39C874.87 624.451 879.242 627.556 882.797 631.487C894.728 644.811 899.464 669.111 896.086 699.872C885.073 800.559 887.019 943.275 1030.81 1019.96C1074.9 1043.86 1124.3 1056.26 1174.46 1056C1238.59 1056 1296.33 1037.39 1347.36 1020.95C1385.02 1008.8 1417.51 998.335 1443.43 998.335C1464.13 998.335 1485.65 1004.1 1502.86 1045.87C1543.24 1143.88 1504.11 1225.73 1477.17 1266.11C1443.32 1316.58 1386.35 1357.7 1350.11 1357.7C1341.51 1358.08 1333.1 1355.04 1326.73 1349.25C1285.28 1309.57 1246.7 1284.36 1205.37 1269.89C1169.76 1257.45 1130.51 1252.13 1074.13 1252.13C1013.63 1252.08 953.492 1261.42 895.866 1279.84C831.367 1301.13 790.069 1302.82 778.945 1302.82C775.045 1302.94 771.143 1302.63 767.308 1301.9C763.931 1301.02 762.132 1299.96 761.949 1298.71C761.582 1295.48 770.502 1289.93 782.91 1282.26H782.983Z" fill="#5D5D5D"/>
<path d="M854.568 643.784C834.891 643.784 813.269 663.679 806.184 681.555C801.485 693.411 805.046 713.637 815.729 735.734C825.824 756.547 839.223 772.441 849.135 775.525C850.601 775.957 852.121 776.179 853.65 776.185C855.326 776.194 856.991 775.908 858.569 775.341C871.344 770.9 871.05 763.044 870.426 745.976C869.64 731.002 870.057 715.99 871.674 701.083C874.611 674.397 870.426 654.062 864.773 647.785C863.512 646.356 861.928 645.247 860.154 644.551C858.379 643.856 856.464 643.592 854.568 643.784V643.784ZM870.022 700.789C868.405 715.782 867.988 730.88 868.774 745.939C869.398 763.191 869.655 769.615 858.128 773.616C855.449 774.517 852.548 774.517 849.869 773.616C840.398 770.753 827.439 755.262 817.564 734.78C807.102 713.16 803.541 693.448 808.056 682.069C814.921 664.78 835.809 645.362 854.751 645.362C856.378 645.179 858.026 645.379 859.562 645.946C861.098 646.514 862.481 647.432 863.598 648.629C868.774 654.869 872.702 674.617 870.022 700.789Z" fill="#5D5D5D"/>
<path d="M682.361 -146.809H679.645C673.721 -125.467 669.728 -103.637 667.714 -81.5805C663.639 -40.1752 660.042 14.0408 668.522 66.3114C674.689 104.376 687.097 121.372 708.902 121.372C722.705 121.372 738.747 114.691 757.323 106.946C770.529 101.128 784.075 96.1141 797.887 91.9328L801.998 90.7949C842.636 79.7828 888.45 78.388 937.054 86.2432C950.22 88.6302 963.246 91.7304 976.076 95.5301C994.725 100.669 1014 105.992 1033.56 106.872C1041.54 107.736 1049.62 106.614 1057.06 103.606C1072.7 95.8237 1065.1 76.4058 1057.06 55.8867C1052.32 43.7 1047.4 31.1462 1046.6 19.8405C1042.3 -40.0283 1075.74 -94.6482 1120.02 -146.772H1116.64C1072.77 -94.7216 1039.73 -40.1018 1044.06 20.0241C1044.87 31.6968 1049.86 44.4708 1054.71 56.7309C1062.64 77.0298 1069.39 94.539 1055.96 101.256C1048.89 104.032 1041.26 105.065 1033.71 104.266C1014.44 103.422 995.312 98.1362 976.81 93.034C963.885 89.2015 950.76 86.0768 937.494 83.6738C888.523 75.7451 842.342 77.2867 801.374 88.2988L797.226 89.4367C783.262 93.6368 769.568 98.6873 756.221 104.56C737.866 112.195 722.081 118.802 708.792 118.802C688.675 118.802 677.038 102.468 671.091 65.8709C662.685 13.9307 666.246 -40.0651 670.32 -81.3236C672.323 -103.474 676.354 -125.394 682.361 -146.809V-146.809Z" fill="#5D5D5D"/>
<path d="M649.434 880.396C647.679 878.504 645.286 877.328 642.716 877.093C637.576 877.093 633.979 883.626 628.546 893.5C621.373 907.446 612.387 920.381 601.821 931.969L597.893 936.154C582.585 952.378 575.574 959.793 577.299 963.757C578.07 965.556 580.456 966.363 584.971 966.363C591.319 966.141 597.645 965.516 603.914 964.492C607.818 963.948 611.755 963.678 615.697 963.684C647.525 963.684 674.066 981.523 693.449 994.554C704.792 1002.19 713.749 1008.21 720.173 1008.21C721.439 1008.24 722.693 1007.97 723.83 1007.41C724.968 1006.85 725.955 1006.03 726.708 1005.02C747.045 978.917 675.938 904.439 649.434 880.396ZM725.276 1003.91C724.684 1004.7 723.912 1005.34 723.024 1005.76C722.136 1006.19 721.159 1006.4 720.173 1006.37C714.3 1006.37 705.489 1000.5 694.477 993.049C674.91 979.872 648.075 961.849 615.697 961.849C611.669 961.835 607.644 962.117 603.657 962.693C597.472 963.689 591.232 964.302 584.971 964.528C581.3 964.528 579.428 964.051 578.988 963.023C577.739 960.16 586.33 951.093 599.215 937.328L603.143 933.254C613.833 921.579 622.92 908.531 630.161 894.455C635.3 885.131 638.678 878.965 642.716 878.965C644.834 879.206 646.791 880.211 648.222 881.791C681.114 911.634 743.301 980.753 725.276 1003.91Z" fill="#5D5D5D"/>
<path d="M649.946 911.01C637.098 911.01 620.578 931.272 620.578 940.889C620.523 941.768 620.662 942.648 620.986 943.467C621.31 944.286 621.81 945.023 622.452 945.626C623.094 946.229 623.861 946.683 624.698 946.955C625.535 947.228 626.422 947.312 627.296 947.202C646.202 947.533 666.209 959.536 680.819 968.309C689.483 973.485 695.723 977.229 699.431 977.229C699.953 977.257 700.476 977.174 700.963 976.984C701.451 976.794 701.892 976.502 702.258 976.128C702.717 975.529 703.046 974.841 703.223 974.108C703.4 973.374 703.421 972.612 703.285 971.87C701.927 954.25 668.411 918.901 654.829 912.111C653.314 911.355 651.639 910.978 649.946 911.01V911.01ZM700.606 972.09C700.606 973.631 700.606 974.182 700.238 974.402C699.871 974.623 699.982 974.659 699.321 974.659C696.347 974.659 689.703 970.695 682.03 966.107C667.347 957.187 646.826 945 627.223 944.633C624.286 944.633 623.001 943.458 623.038 940.962C623.038 932.373 638.493 913.616 649.946 913.616C651.216 913.598 652.472 913.874 653.617 914.423C668.117 921.728 699.394 956.086 700.606 972.09V972.09Z" fill="#5D5D5D"/>
<path d="M604.537 578.078C607.694 578.078 610.19 573.6 612.687 563.396C621.901 525.955 652.333 476.327 699.579 449.971C747.301 423.286 779.312 416.348 796.419 412.641C804.936 410.769 809.194 409.851 810.222 407.612C810.409 407.112 810.473 406.574 810.409 406.044C810.345 405.514 810.155 405.007 809.855 404.565C806.551 398.509 747.448 365.362 662.061 358.498L658.39 358.204C650.718 357.58 644.073 357.03 637.723 357.03C615.513 357.03 597.562 363.233 555.713 398.582C549.105 404.161 542.351 409.337 535.816 414.366C515.589 429.893 498.115 443.254 499.107 458.414C499.988 470.087 511.514 481.65 535.486 494.864C561.99 509.547 578.143 538.472 588.825 557.633C595.837 570.04 600.315 578.078 604.537 578.078ZM536.22 494.167C512.946 481.319 501.236 469.683 500.428 458.561C499.327 443.878 516.58 430.737 536.551 415.43C543.122 410.401 549.876 405.226 556.521 399.61C598.076 364.481 615.844 358.314 637.796 358.314C644.11 358.314 650.718 358.865 658.39 359.489L662.061 359.783C745.319 366.5 805.817 399.536 808.9 405.263C809.561 406.4 809.414 406.988 809.267 407.318C808.46 409.08 803.871 410.071 796.235 411.723C779.055 415.394 747.044 422.405 699.101 449.201C651.158 475.997 620.873 525.808 611.585 563.322C609.346 572.499 607.033 576.977 604.537 576.977C600.866 576.977 596.13 568.314 589.853 557.339C579.281 538.068 563.018 508.923 536.22 494.167Z" fill="#5D5D5D"/>
<path d="M611.474 641.104C614.668 641.104 616.871 637.433 618.412 629.064C627.957 578.519 648.588 506.941 717.529 468.729C740.795 456.181 765.531 446.576 791.169 440.134C797.514 437.888 803.471 434.668 808.826 430.59C816.425 425.451 824.317 420.166 831.586 420.166C832.411 420.166 833.234 420.24 834.046 420.386C837.792 421.287 841.251 423.118 844.104 425.708C846.998 428.575 850.802 430.341 854.86 430.7C856.602 430.683 858.324 430.321 859.926 429.636C862.602 428.395 864.804 426.322 866.203 423.726C867.077 421.752 868.572 420.117 870.461 419.07C872.349 418.023 874.528 417.622 876.666 417.926C882.869 418.44 886.21 423.175 889.734 428.168C891.911 431.807 894.871 434.916 898.398 437.271C901.985 439.188 905.969 440.243 910.035 440.354C911.178 440.482 912.335 440.339 913.412 439.937C914.49 439.535 915.458 438.886 916.239 438.042C916.805 437.121 917.149 436.082 917.245 435.005C917.341 433.928 917.185 432.844 916.789 431.838C914.403 423.175 895.828 415.1 883.567 409.814C879.896 408.236 876.776 406.841 874.793 405.776C856.438 396.086 838.084 387.9 822.812 381.146C757.763 352.698 698.476 335.336 641.54 328.068C635.905 327.311 630.228 326.906 624.543 326.857C596.497 326.857 574.764 339.117 531.52 379.348C520.911 389.185 509.972 397.701 499.436 405.887C475.758 424.24 457.073 438.923 457.513 456.982C457.881 471.372 470.399 486.715 496.866 505.252C539.523 535.131 567.863 580.464 586.585 610.454C598.369 628.881 605.931 641.104 611.474 641.104ZM497.674 504.334C471.463 485.981 459.129 470.931 458.762 456.909C458.358 439.216 476.823 424.864 500.244 406.694C510.816 398.508 521.756 389.992 532.401 380.118C575.425 340.108 596.974 327.921 624.69 327.921C630.326 327.97 635.954 328.375 641.54 329.132C698.366 336.474 757.579 353.689 822.519 382.101C837.937 388.855 856.145 397.04 874.426 406.731C876.445 407.795 879.602 409.19 883.273 410.769C895.351 416.054 913.632 423.983 915.872 432.132C916.22 432.976 916.368 433.889 916.304 434.8C916.241 435.71 915.967 436.594 915.504 437.381C914.805 438.058 913.967 438.576 913.048 438.899C912.129 439.223 911.151 439.343 910.182 439.253C906.336 439.118 902.571 438.114 899.169 436.317C895.79 434.04 892.956 431.044 890.872 427.544C887.201 422.551 883.53 417.376 876.996 416.825C874.661 416.504 872.285 416.941 870.217 418.071C868.148 419.201 866.497 420.964 865.506 423.102C864.544 425.047 863.058 426.685 861.217 427.833C859.375 428.98 857.25 429.592 855.08 429.599C851.274 429.215 847.713 427.545 844.985 424.864C841.996 422.151 838.373 420.232 834.449 419.285C833.576 419.137 832.692 419.063 831.806 419.064C824.171 419.064 816.168 424.46 808.422 429.673C803.197 433.708 797.36 436.88 791.132 439.07C765.391 445.532 740.556 455.175 717.198 467.774C647.743 506.206 626.966 578.115 617.384 628.844C615.99 636.185 614.081 639.856 611.548 639.856C606.592 639.856 598.699 627.192 587.76 609.683C569.001 579.767 540.478 534.324 497.674 504.334Z" fill="#5D5D5D"/>
<path d="M747.081 1101.67C759.981 1099.86 772.233 1094.89 782.749 1087.21C793.266 1079.52 801.719 1069.36 807.359 1057.62C817.858 1035.85 823.548 998.886 790.95 946.652C776.963 924.187 761.582 901.539 746.898 879.625C704.682 816.93 664.815 757.758 648.332 698.367C629.72 631.193 644.661 575.766 695.394 523.972C739.446 479.117 797.374 453.385 854.678 453.385C897.738 453.385 936.173 468.545 962.861 496.039C992.229 526.248 1006.91 570.48 1005.26 623.889C1004.89 636.295 1004.31 649.106 1003.68 662.688C1001.44 710.92 998.947 765.467 1006.73 811.057C1015.69 863.364 1036.94 895.666 1071.67 909.835C1088.25 916.973 1106.05 920.849 1124.09 921.251C1138.26 921.406 1152.26 918.109 1164.87 911.643C1177.49 905.177 1188.34 895.738 1196.48 884.14C1226.99 842.845 1234.29 772.148 1214.65 708.167C1172.55 570.957 1071.49 489.064 921.673 401.372C808.02 334.932 712.17 314.303 625.132 301.896C619.053 301.002 612.92 300.536 606.777 300.501C570.544 300.501 553.254 318.855 531.411 342.347C523.005 351.303 514.341 360.7 503.585 370.061C493.399 378.838 482.439 386.676 470.84 393.48C455.532 402.877 442.317 410.989 427.78 432.719C398.926 475.85 437.545 502.462 478.403 530.323C500.025 545.005 522.454 560.459 534.312 578.556C609.493 692.347 579.171 813.957 525.685 889.683C510.414 911.34 488.094 931.786 464.453 953.406C435.562 979.872 405.717 1007.25 388.611 1037.83C381.269 1050.97 379.176 1059.86 382.223 1065.11C384.462 1068.78 389.565 1070.76 397.311 1070.76C411.407 1070.76 433.8 1064.92 459.717 1058.17C496.097 1048.66 541.36 1036.88 581.373 1036.88C599.927 1036.39 618.371 1039.86 635.484 1047.05C649.39 1053.99 662.426 1062.55 674.323 1072.56C693.926 1087.83 712.464 1102.22 738.675 1102.22C741.485 1102.19 744.292 1102.01 747.081 1101.67V1101.67ZM635.924 1045.98C618.705 1038.79 600.135 1035.39 581.484 1036.03C541.323 1036.03 495.987 1047.85 459.534 1057.36C433.653 1064.11 411.334 1069.91 397.384 1069.91C390.042 1069.91 385.27 1068.26 383.251 1064.81C380.388 1059.97 382.48 1051.41 389.638 1038.64C406.635 1008.25 436.443 980.936 465.297 954.507C488.975 932.85 511.331 912.368 526.676 890.637C557.482 847.554 575.927 796.871 580.015 744.067C584.163 685.336 569.002 629.468 535.156 578.078C523.078 559.725 500.649 544.418 478.953 529.552C438.573 501.838 400.358 475.666 428.624 433.453C443.051 411.943 456.156 403.868 471.318 394.544C483.03 387.733 494.09 379.856 504.356 371.015C514.138 362.224 523.462 352.937 532.293 343.191C553.951 320.029 571.095 301.712 606.85 301.712C612.932 301.736 619.004 302.19 625.021 303.071C711.767 315.367 807.652 336.107 921.159 402.436C1070.6 489.982 1171.67 571.765 1213.7 708.608C1233.23 772.258 1226 842.551 1195.67 883.59C1187.63 895.055 1176.92 904.389 1164.46 910.784C1152 917.18 1138.17 920.445 1124.16 920.296C1106.27 919.901 1088.62 916.049 1072.18 908.954C1037.82 894.932 1016.79 862.924 1007.9 811.02C1000.12 765.65 1002.62 711.067 1004.86 662.871C1005.48 649.326 1006.07 636.479 1006.44 624.072C1008.05 570.37 993.294 525.845 963.742 495.598C936.834 467.884 898.142 452.614 854.751 452.614C797.154 452.614 738.822 478.309 694.697 523.532C667.752 551.062 651.085 579.437 643.817 610.344C637.319 637.911 638.457 666.909 647.488 698.991C664.007 758.529 703.911 817.811 746.2 880.543C760.884 902.567 776.229 925.142 790.252 947.57C822.593 999.4 816.977 1035.96 806.588 1057.47C801.023 1069.02 792.689 1079.02 782.327 1086.58C771.964 1094.14 759.895 1099.02 747.191 1100.78C744.438 1101.11 741.668 1101.26 738.895 1101.26C713.198 1101.26 694.843 1086.98 675.204 1071.9C663.182 1061.73 649.997 1053.03 635.924 1045.98V1045.98Z" fill="#5D5D5D"/>
<path d="M771.161 1056.15C775.868 1052.77 779.797 1048.43 782.685 1043.41C785.572 1038.39 787.351 1032.81 787.901 1027.04C792.306 990.92 760.295 938.283 731.515 904.182C695.649 861.602 660.041 816.085 642.64 772.037C641.087 766.758 639.8 761.405 638.786 755.996C633.206 729.861 623.808 686.253 610.262 686.253C608.959 686.3 607.692 686.693 606.591 687.391C600.975 690.732 599.249 697.302 601.525 707.47C603.921 716.554 607.141 725.4 611.143 733.899C614.998 742.855 618.485 750.601 618.302 755.005C618.302 766.348 612.869 771.34 607.766 776.185C603.081 779.84 599.707 784.914 598.148 790.648C596.239 799.384 599.837 805.954 603.324 812.305C606.812 818.655 609.895 824.198 608.831 832.016C606.885 846.369 561.438 898.089 521.351 943.752C488.312 981.523 459.532 1014.16 460.046 1020.4C460.054 1020.6 460.104 1020.81 460.193 1021C460.281 1021.19 460.406 1021.36 460.56 1021.5C463.313 1023.77 468.269 1024.87 475.794 1024.87C491.728 1024.07 507.588 1022.17 523.26 1019.18C546.424 1015.51 572.671 1011.26 595.468 1011.26C613.272 1011.26 626.598 1013.79 636.179 1019C641.429 1021.83 647.192 1025.2 653.359 1028.77C680.745 1044.7 714.812 1064.48 743.666 1064.48C753.487 1064.72 763.127 1061.8 771.161 1056.15V1056.15ZM636.546 1018.08C626.782 1012.76 613.309 1010.19 595.321 1010.19C572.451 1010.19 546.13 1014.41 522.93 1018.12C507.321 1021.12 491.522 1023.02 475.648 1023.81V1023.81C468.306 1023.81 463.643 1022.78 460.964 1020.69C460.964 1020.69 460.964 1020.69 460.964 1020.36C460.486 1014.56 490.331 980.532 522.012 944.523C562.209 898.749 607.729 846.883 609.712 832.2C610.85 824.051 607.436 817.811 604.132 811.791C600.828 805.771 597.23 799.237 599.029 790.905C600.539 785.395 603.799 780.526 608.317 777.029C613.603 772.037 619.073 766.862 619.33 755.005C619.33 750.344 615.989 742.525 611.988 733.422C608.037 724.985 604.843 716.214 602.443 707.213C600.351 697.559 601.819 691.356 607.032 688.272C608.005 687.672 609.12 687.343 610.262 687.318C622.927 687.318 632.545 732.21 637.721 756.29C638.735 761.762 640.034 767.178 641.612 772.514C659.086 816.563 694.768 862.153 730.67 904.659C759.304 938.613 791.168 990.92 786.836 1026.67C786.289 1032.29 784.549 1037.73 781.731 1042.62C778.914 1047.52 775.085 1051.75 770.5 1055.05C762.613 1060.59 753.154 1063.44 743.519 1063.2C714.958 1063.2 681.112 1043.48 653.763 1027.66C647.633 1024.29 641.796 1020.91 636.546 1018.08Z" fill="#5D5D5D"/>
<path d="M758.607 1010.08C761.874 979.872 729.459 932.41 713.27 914.166C691.872 889.889 671.752 864.515 652.993 838.146C640.181 820.564 633.133 810.873 628.581 810.873C625.46 810.873 623.735 814.911 622.671 824.822C614.668 899.557 566.321 940.045 537.43 964.308C524.802 974.879 516.432 981.89 516.102 987.653C516.053 988.485 516.181 989.318 516.479 990.097C516.776 990.875 517.236 991.581 517.827 992.168C520.471 994.995 524.655 996.28 531.006 996.28C539.927 995.787 548.792 994.56 557.511 992.609C572.166 989.524 587.069 987.768 602.04 987.36C623.405 987.36 640.622 992.682 654.755 1003.62C674.578 1019.04 703.983 1035.52 726.963 1035.52C734.503 1035.76 741.92 1033.56 748.108 1029.24C751.137 1027 753.644 1024.12 755.456 1020.81C757.268 1017.5 758.343 1013.84 758.607 1010.08V1010.08ZM726.853 1034.42C704.166 1034.42 675.019 1018.08 655.306 1002.78C640.989 991.765 623.552 986.259 601.93 986.259C586.894 986.666 571.928 988.447 557.217 991.581C548.56 993.528 539.756 994.756 530.896 995.252C528.692 995.521 526.457 995.334 524.329 994.702C522.201 994.071 520.225 993.008 518.525 991.581C518.035 991.109 517.653 990.537 517.406 989.903C517.158 989.269 517.052 988.589 517.093 987.91C517.387 982.625 526.05 975.357 538.055 965.336C567.055 941.036 615.586 900.401 623.662 825.226C624.616 816.233 626.121 812.231 628.471 812.231C632.472 812.231 639.814 822.326 651.965 839.064C670.817 865.363 691.01 890.676 712.463 914.9C728.542 933.034 760.736 980.092 757.506 1009.97C757.25 1013.57 756.219 1017.08 754.483 1020.25C752.747 1023.42 750.347 1026.17 747.447 1028.32C741.415 1032.52 734.194 1034.65 726.853 1034.42Z" fill="#5D5D5D"/>
<path d="M1072.26 708.057C1068.58 765.467 1084.96 804.963 1101.62 822.803C1109.26 830.989 1117.67 835.467 1125.23 835.467C1135.91 835.467 1143.95 827.061 1147.84 811.828C1172.91 713.527 1087.53 609.94 1077.06 601.277C1074.02 598.781 1071.96 598.487 1070.6 599.956C1068.14 602.635 1068.91 611.408 1070.31 627.302C1073.08 654.128 1073.73 681.13 1072.26 708.057V708.057ZM1071.93 601.204C1072 601.107 1072.09 601.03 1072.2 600.979C1072.31 600.928 1072.43 600.904 1072.55 600.91C1073.06 600.91 1074.05 601.204 1075.85 602.709C1086.24 611.298 1170.89 713.967 1146.04 811.35C1142.37 825.74 1135.03 833.631 1125.19 833.631C1118.14 833.631 1110.21 829.337 1102.94 821.555C1086.5 804.009 1070.27 764.99 1074.02 708.167C1075.5 681.155 1074.86 654.068 1072.11 627.155C1070.97 613.28 1070.09 603.259 1071.93 601.204Z" fill="#5D5D5D"/>
<path d="M1519.97 62.5307C1491.26 62.5307 1459.43 67.9633 1425.77 73.5427C1385.39 80.4069 1343.95 87.528 1298.61 87.528C1295.27 87.528 1291.96 87.528 1288.84 87.528L1280.84 87.3078C1273.98 87.3078 1267.52 86.9407 1261.28 86.9407C1222.22 86.9407 1198.06 94.9061 1182.09 136.862C1172.03 163.401 1160.62 193.501 1133.19 212.882C1125.45 218.388 1117.7 223.05 1110.84 227.198C1094.98 236.778 1082.46 244.34 1081.98 254.801C1081.58 264.418 1091.27 275.944 1113.52 292.279C1134.81 307.916 1152.36 315.514 1167.11 315.514C1168.44 315.514 1169.79 315.514 1171.08 315.331C1192.52 313.312 1206.91 295.619 1225.12 273.191C1234.07 261.778 1243.63 250.848 1253.75 240.449C1300.81 193.146 1359.1 158.543 1423.17 139.872C1448.59 132.432 1474.94 128.577 1501.43 128.419C1563.84 128.419 1612.07 150.994 1651.94 177.093V175.771C1612.07 149.746 1563.84 127.318 1501.43 127.318C1474.84 127.497 1448.4 131.377 1422.87 138.844C1358.62 157.554 1300.16 192.26 1252.98 239.715C1242.83 250.128 1233.24 261.083 1224.27 272.531C1206.21 294.738 1191.97 312.321 1170.97 314.266C1169.72 314.266 1168.4 314.266 1167.11 314.266C1152.61 314.266 1135.29 306.705 1114.14 291.214C1092.12 275.173 1082.68 263.904 1083.09 254.691C1083.53 244.817 1095.86 237.402 1111.43 228.005C1118.29 223.857 1126.11 219.159 1133.86 213.653C1161.53 194.051 1172.99 163.805 1183.12 137.119C1198.83 95.7504 1222.73 87.8951 1261.28 87.8951C1267.52 87.8951 1273.98 87.8951 1280.8 88.2622L1288.81 88.4824C1291.96 88.4824 1295.23 88.4824 1298.61 88.4824C1344.02 88.4824 1385.68 81.3613 1425.96 74.4971C1459.58 68.7709 1491.34 63.4851 1519.97 63.4851C1534.93 63.2767 1549.84 65.1672 1564.28 69.1012C1592.73 77.2501 1621.88 90.5747 1651.94 106.102V104.854C1621.99 89.4001 1592.95 76.1489 1564.57 68.1468C1550.04 64.2107 1535.03 62.3205 1519.97 62.5307V62.5307Z" fill="#5D5D5D"/>
<path d="M1043.84 704.754C1039.58 760.438 1050.6 805.514 1074.82 831.649C1087.49 845.341 1103.05 852.866 1118.66 852.866C1140.9 852.866 1158.71 837.412 1163.99 813.516C1179.45 743.773 1155.51 680.747 1132.72 640.333C1105.95 592.798 1071.67 559.211 1055.19 548.199C1049.13 544.198 1044.91 541.702 1042.3 541.702C1041.88 541.689 1041.46 541.768 1041.08 541.933C1040.69 542.098 1040.34 542.344 1040.06 542.656C1037.93 545.042 1038.81 551.833 1040.54 565.378C1046.75 611.574 1047.86 658.315 1043.84 704.754V704.754ZM1040.87 543.244C1041.05 543.043 1041.27 542.886 1041.52 542.784C1041.76 542.683 1042.03 542.639 1042.3 542.656C1044.61 542.656 1048.87 545.189 1054.56 548.97C1091.82 573.82 1190.79 687.024 1162.89 813.259C1157.72 836.642 1140.35 851.765 1118.84 851.765C1103.57 851.765 1088.26 844.423 1075.82 830.915C1051.77 804.963 1040.91 760.218 1045.13 704.827C1049.15 658.35 1048.03 611.572 1041.79 565.341C1040.06 552.861 1039.11 545.409 1040.87 543.39V543.244Z" fill="#5D5D5D"/>
<path d="M1022.73 708.351C1018.48 777.653 1031.76 832.42 1060.07 862.52C1074.75 878.084 1092.52 886.343 1111.46 886.343C1147.8 886.343 1178.57 856.977 1188.07 813.186C1202.06 748.618 1190.02 685.116 1152.32 624.329C1114.1 562.772 1061.24 522.981 1033.12 504.738C1018.81 495.451 1012.68 491.56 1010.33 494.387C1007.98 497.213 1009.67 503.417 1012.16 516.704C1017.67 545.519 1029.01 605.425 1022.73 708.351ZM1011.21 495.084C1011.37 494.904 1011.58 494.763 1011.81 494.674C1012.04 494.585 1012.28 494.55 1012.53 494.57C1015.5 494.57 1021.93 498.755 1032.57 505.582C1126.26 566.369 1216.12 679.059 1187.01 812.855C1177.65 856.096 1147.29 885.168 1111.5 885.168C1092.81 885.168 1075.3 877.056 1060.88 861.712C1032.76 831.833 1019.61 777.286 1023.84 708.351C1030.11 605.315 1018.77 545.262 1013.3 516.411C1010.99 504.371 1009.52 497.03 1011.21 495.084V495.084Z" fill="#5D5D5D"/>
<path d="M600.278 478.089C610.667 478.089 618.119 468.068 625.975 453.018C639.924 426.736 668.962 413.999 684.71 407.171C692.603 403.721 695.723 402.436 695.173 400.27C694.622 398.105 692.823 397.664 682.03 396.93C649.506 394.728 576.527 425.745 568.23 449.091C567.241 451.58 567.116 454.329 567.875 456.898C568.634 459.467 570.232 461.707 572.415 463.259C584.933 473.647 593.303 477.942 600.425 477.942L600.278 478.089ZM570.506 449.971C578.179 428.645 646.018 399.389 678.543 399.389C679.681 399.389 680.782 399.389 681.81 399.389C685.292 399.487 688.757 399.905 692.162 400.638C689.409 402.168 686.565 403.528 683.646 404.712C667.714 411.686 638.126 424.607 623.809 451.697C614.778 468.765 608.17 475.409 600.278 475.409C593.817 475.409 585.924 471.151 573.884 461.167C572.13 459.955 570.841 458.184 570.227 456.143C569.614 454.102 569.712 451.913 570.506 449.935V449.971Z" fill="#5D5D5D"/>
<path d="M632.217 476.731C657.216 431.178 702.92 415.284 739.923 406.511C743.594 405.666 743.814 403.831 743.594 402.84C742.75 395.499 708.096 381.22 656.372 381.22C650.535 381.22 644.551 381.22 638.604 381.77C615 383.202 559.274 416.164 539.231 440.501C534.018 446.851 531.668 452.101 532.219 456.175C533.614 466.306 542.645 470.858 553.07 475.997C564.083 481.503 576.675 487.743 582.768 502.279C586.439 510.758 590.991 515.053 596.608 515.053C606.299 515.089 618.23 502.169 632.217 476.731ZM584.494 501.618C578.143 486.458 565.295 480.034 553.951 474.382C543.966 469.426 535.339 465.131 534.091 456.028C533.614 452.541 535.89 447.622 540.699 441.786C560.486 417.669 615.477 385.074 638.788 383.679C644.661 383.312 650.608 383.128 656.408 383.128C707.251 383.128 741.134 397.187 741.832 403.134C741.832 404.051 740.4 404.565 739.446 404.785C702.075 413.668 655.931 429.746 630.565 475.923C609.383 514.209 593.708 523.495 584.53 501.618H584.494Z" fill="#5D5D5D"/>
<path d="M1115.21 791.492C1117.11 791.492 1118.88 790.171 1120.24 787.491C1127.39 774.093 1127.25 727.696 1108.3 699.395C1105.81 695.724 1102.25 696.201 1099.57 700.826C1092.45 713.086 1089.47 752.216 1108.86 786.096C1110.91 789.693 1113.04 791.492 1115.21 791.492ZM1101.84 702.184C1102.76 700.569 1103.79 699.578 1104.56 699.578C1105.33 699.578 1105.88 700.422 1106.18 700.9C1124.35 727.916 1124.71 773.689 1118 786.28C1117.11 788.005 1116.12 788.922 1115.24 788.922C1114.36 788.922 1112.6 787.454 1111.13 784.885C1092.48 752.216 1095.16 713.674 1101.84 702.184V702.184Z" fill="#5D5D5D"/>
<path d="M1354 904.145C1356.61 907.816 1363.03 909.505 1375.41 909.505C1383.11 909.505 1392.37 908.917 1403.05 908.183C1416.26 907.302 1431.28 906.311 1446.77 906.311C1495.89 906.311 1528.96 916.736 1551.03 939.347C1571.55 955.131 1582.89 980.863 1592.87 1003.58C1604.99 1031.19 1615.49 1054.97 1638.65 1054.97C1641.24 1054.95 1643.83 1054.67 1646.36 1054.13C1648.12 1053.76 1650.03 1053.29 1651.94 1052.7V1050.72C1649.99 1051.34 1648 1051.86 1645.99 1052.26C1643.58 1052.78 1641.12 1053.05 1638.65 1053.07C1616.63 1053.07 1606.42 1029.72 1594.6 1002.74C1584.5 979.835 1573.09 953.846 1552.31 937.879C1529.95 915.121 1496.44 904.512 1446.81 904.512C1431.24 904.512 1416.23 905.503 1402.97 906.384C1392.29 907.119 1383.11 907.706 1375.44 907.706C1364.03 907.706 1357.71 906.238 1355.55 903.118C1354.96 902.022 1354.65 900.799 1354.65 899.557C1354.65 898.315 1354.96 897.092 1355.55 895.996C1378.93 833.595 1398.46 754.565 1396.59 730.228C1393.28 687.612 1374.56 647.344 1356.43 608.398C1334.4 560.679 1313.33 515.823 1326.62 478.309C1344.97 426.185 1429.41 335.703 1475.29 329.463C1477.73 329.152 1480.18 329.005 1482.63 329.022C1518.24 329.022 1580.98 354.497 1652.09 396.636V394.507C1581.05 352.551 1518.35 327.187 1482.63 327.187C1480.11 327.173 1477.58 327.32 1475.07 327.627C1428.82 333.941 1343.58 425.158 1324.93 477.685C1311.38 515.897 1332.45 561.23 1354.77 609.169C1372.84 647.968 1391.48 688.089 1394.79 730.302C1396.44 751.628 1378.93 828.346 1353.89 895.299C1353.16 896.663 1352.79 898.19 1352.81 899.736C1352.83 901.283 1353.24 902.8 1354 904.145V904.145Z" fill="#5D5D5D"/>
<path d="M1519.97 87.8584C1493.43 87.8584 1462.63 93.1075 1430.03 98.8705C1388.77 105.881 1346.07 113.186 1298.61 113.186C1295.12 113.186 1291.67 113.186 1288.26 113.186H1280.14C1273.5 113.186 1267.18 112.819 1261.27 112.819C1209.88 112.819 1207.31 141.083 1204.59 170.999C1203.13 187.444 1201.62 204.403 1192.55 218.718C1189.32 223.857 1180.66 230.391 1171.48 237.292C1151.92 251.975 1129.74 268.64 1140.39 284.24C1142.03 287.176 1144.4 289.644 1147.27 291.41C1150.13 293.177 1153.4 294.183 1156.76 294.335C1160.62 294.203 1164.4 293.159 1167.77 291.288C1185.14 282.331 1203.68 255.829 1218.58 234.539C1227.06 222.462 1234.37 212.038 1238.37 209.652C1242.32 207.54 1246.78 206.549 1251.25 206.789H1255.95C1257.53 206.789 1259.14 206.789 1260.76 206.789C1264.06 207.065 1267.38 206.681 1270.54 205.66C1273.69 204.639 1276.6 203.001 1279.11 200.842C1286.05 194.492 1286.93 186.159 1287.78 178.378C1288.55 171.256 1289.25 164.539 1293.98 158.849C1308.3 141.781 1358.52 129.814 1391.74 121.886C1401.54 119.573 1410.1 117.554 1416.26 115.756C1443.92 107.59 1472.59 103.327 1501.43 103.092C1562.81 103.092 1611.89 123.207 1651.94 147.14V145.011C1611.85 121.041 1562.77 100.963 1501.43 100.963C1472.4 101.138 1443.54 105.364 1415.67 113.517C1409.43 115.315 1400.99 117.187 1391.26 119.647C1355.8 128.089 1307.23 139.652 1292.51 157.198C1287.41 163.291 1286.64 170.632 1285.87 177.717C1285.02 185.645 1284.25 193.134 1277.79 199.007C1273.09 203 1266.99 204.967 1260.83 204.476C1259.24 204.476 1257.66 204.476 1256.1 204.476H1251.33C1246.51 204.211 1241.72 205.291 1237.49 207.596C1233.15 210.166 1226.11 220.26 1217.15 233.034C1203.16 253.039 1184.11 280.423 1167.04 289.159C1156.69 294.481 1148.5 292.426 1141.89 282.698C1132.24 268.566 1153.68 252.489 1172.58 238.283C1182.31 230.942 1190.72 224.665 1194.13 219.232C1203.38 204.55 1204.92 187.224 1206.43 170.596C1209.18 140.276 1211.53 114.067 1261.27 114.067C1267.18 114.067 1273.46 114.251 1280.11 114.434H1288.18C1291.63 114.434 1295.12 114.434 1298.61 114.434C1346.33 114.434 1388.99 107.093 1430.36 100.082C1462.85 94.5391 1493.57 89.29 1519.97 89.29C1532.51 89.0843 1545.01 90.6412 1557.12 93.915C1587.11 102.468 1618.79 117.701 1651.94 135.284V133.191C1618.9 116.159 1587.51 101.11 1557.63 92.667C1545.36 89.3135 1532.69 87.6949 1519.97 87.8584Z" fill="#5D5D5D"/>
<path d="M1409.43 856.17C1416.26 865.97 1430.69 867.182 1450.66 868.613L1457.34 869.127C1463.66 869.641 1470.26 869.898 1477.24 870.118C1509.69 871.219 1546.47 872.504 1579.69 902.751L1580.1 903.118C1598.45 919.232 1609.47 947.643 1619.16 972.861C1628.85 998.078 1637.29 1019.92 1650.69 1019.92C1651.1 1019.92 1651.54 1019.92 1651.94 1019.92V1018.82C1651.54 1018.82 1651.1 1018.82 1650.69 1018.82C1638.06 1018.82 1629.77 997.344 1620.19 972.457C1610.6 947.57 1599.44 918.571 1580.83 902.42L1580.43 902.053C1546.91 871.55 1509.91 870.265 1477.27 869.017C1470.3 868.797 1463.69 868.54 1457.41 868.026L1450.73 867.512C1431.06 866.007 1416.89 864.942 1410.35 855.545C1403.82 846.148 1405.03 829.851 1413.18 801.586C1420.44 777.832 1423.34 752.96 1421.73 728.173C1418.06 681.004 1398.35 638.645 1379.26 597.643C1359.36 554.88 1340.57 514.465 1350.41 486.715C1366.78 440.501 1445.85 358.938 1478.6 354.57C1479.89 354.423 1481.19 354.35 1482.49 354.35C1509.84 354.35 1571.69 377.145 1651.94 426.259V424.974C1571.77 375.897 1509.91 353.286 1482.49 353.286C1481.14 353.266 1479.79 353.34 1478.45 353.506C1445.41 357.984 1365.82 439.987 1349.34 486.458C1339.36 514.612 1358.26 555.21 1378.3 598.23C1397.32 639.122 1417 681.408 1420.63 728.393C1422.24 753.069 1419.36 777.832 1412.11 801.476C1403.78 830.475 1402.97 846.993 1409.43 856.17Z" fill="#5D5D5D"/>
<path d="M740.069 1188.26C794.73 1182.05 859.816 1117.08 877.253 1067.45C907.575 981.303 853.722 911.927 801.631 844.827C751.339 780.076 703.873 718.922 726.963 644.444C747.08 579.583 812.057 544.565 862.973 544.565C890.432 544.565 914.146 554.292 929.822 571.985C948.433 592.981 955.739 624.843 950.966 664.192C934.557 799.421 929.675 947.313 1080.41 990.884C1096.89 995.757 1113.98 998.29 1131.17 998.408C1194.61 998.408 1235.14 962.069 1257.93 931.565C1301.65 873.091 1316.85 785.655 1295.71 713.93C1277.79 653.144 1242.52 594.156 1187.93 533.663C1106.73 443.731 996.193 366.426 849.941 297.307L843.627 294.297C782.101 265.189 718.483 235.126 651.488 218.535C647.523 217.543 643.118 216.369 638.419 215.121C617.715 209.615 591.982 202.787 569.882 202.787C562.159 202.613 554.462 203.755 547.122 206.164C537.578 209.578 532.218 216.112 527.005 222.425C523.252 227.533 518.644 231.954 513.386 235.493C507.376 238.591 501.157 241.265 494.774 243.495C482.403 248.304 469.555 253.259 465.406 257.994C457.587 267.171 459.716 272.677 461.735 278.036C462.761 279.998 463.384 282.146 463.567 284.352C463.749 286.559 463.489 288.78 462.8 290.884L461.368 295.105C450.355 327.848 450.355 327.848 424.658 335.262C419.703 336.694 413.646 338.456 406.304 340.768C385.195 347.522 376.532 357.874 368.162 367.858C361.783 376.491 353.588 383.621 344.154 388.744H343.126C329.911 388.744 229.693 395.351 221.984 419.982C219.891 426.626 224.407 433.82 235.383 441.419C244.222 448.18 255.017 451.89 266.146 451.99C269.139 451.966 272.129 451.782 275.103 451.44C277.526 451.219 279.802 450.999 281.968 450.999C290.044 450.999 298.193 453.275 309.39 480.842C312.143 487.632 314.272 493.175 316.034 497.8C324.698 520.485 324.955 520.779 346.981 530.176C352.45 532.488 359.242 535.388 367.868 539.389C396.208 552.457 402.009 567.286 409.351 586.08C413.615 597.946 419.193 609.298 425.98 619.924C434.654 632.477 444.486 644.189 455.348 654.906C473.299 673.589 490.259 691.245 495.729 720.721C505.09 771.78 477.374 820.527 446.024 865.603C430.826 887.444 399.586 912.881 366.51 939.824C310.565 985.524 246.91 1037.39 246.69 1085.4C246.69 1112.82 253.591 1133.89 267.614 1147.81C282.885 1163.15 306.086 1170.6 338.574 1170.6C385.636 1170.6 443.527 1154.74 494.591 1140.72C534.971 1129.71 569.478 1120.17 591.688 1120.17C595.95 1120.07 600.203 1120.58 604.316 1121.71C625.718 1128.06 642.715 1141.64 659.124 1154.74C680.893 1172.14 701.487 1188.62 730.891 1188.62C733.955 1188.68 737.02 1188.56 740.069 1188.26V1188.26ZM605.05 1119.36C600.695 1118.19 596.196 1117.65 591.688 1117.74C569.148 1117.74 534.274 1127.32 493.893 1138.41C442.977 1152.36 385.452 1168.18 338.574 1168.18C306.82 1168.18 284.17 1160.84 269.413 1146.15C255.904 1132.57 249.112 1112.13 249.259 1085.44C249.479 1038.6 312.62 987.176 368.346 941.77C401.384 914.717 432.918 889.169 448.3 867.035C479.98 821.481 507.953 772.184 498.445 720.207C492.902 689.961 475.685 672.048 457.477 653.107C446.628 642.498 436.796 630.897 428.109 618.456C421.43 607.988 415.939 596.809 411.737 585.126C404.174 565.781 398.227 550.511 368.933 537.04C360.27 533.039 353.478 530.102 348.008 527.79C326.79 518.723 326.79 518.723 318.42 496.846C316.658 492.221 314.529 486.641 311.776 479.851C301.093 453.532 292.76 448.393 281.968 448.393C279.587 448.431 277.21 448.59 274.846 448.87C272.093 449.127 269.229 449.384 266.146 449.384C255.512 449.31 245.195 445.751 236.778 439.253C226.866 432.389 222.681 426.149 224.37 420.899C231.088 399.463 324.478 391.534 343.053 391.534H343.97L344.264 390.323L344.815 391.461C354.741 386.195 363.359 378.769 370.034 369.73C378.551 359.562 386.59 349.945 407.001 343.448C414.343 341.135 420.437 339.374 425.356 337.942C452.044 330.234 452.374 329.83 463.828 296.17L465.296 291.912C466.084 289.51 466.39 286.976 466.194 284.456C465.999 281.937 465.307 279.48 464.158 277.229C462.213 272.2 460.487 267.832 467.315 259.83C470.986 255.535 484.018 250.506 495.545 246.065C502.081 243.774 508.447 241.026 514.597 237.842C520.096 234.144 524.914 229.525 528.841 224.187C534.054 217.874 538.973 211.891 547.82 208.734C554.926 206.419 562.374 205.327 569.846 205.504C591.614 205.504 617.165 212.294 637.722 217.764C642.421 219.012 646.826 220.186 650.827 221.177C717.566 237.696 781.074 267.722 842.489 296.757L848.803 299.767C994.724 368.739 1105.04 445.86 1185.98 535.535C1240.31 595.734 1275.41 654.392 1293.21 714.811C1314.14 785.766 1299.09 872.32 1255.84 930.17C1233.37 960.197 1193.43 995.986 1131.03 995.986C1114.08 995.892 1097.22 993.421 1080.96 988.644C932.171 945.624 937.09 798.87 953.353 664.743C958.235 624.623 950.709 592.063 931.584 570.48C915.431 552.126 891.019 542.216 862.826 542.216C810.992 542.216 744.841 577.858 724.357 643.894C700.863 719.657 750.972 784.187 799.465 846.626C851.116 913.175 904.529 982 874.684 1066.87C857.467 1115.8 793.408 1179.85 739.628 1185.98C736.679 1186.31 733.713 1186.49 730.744 1186.49C702.221 1186.49 681.994 1170.31 660.592 1153.16C644.109 1139.62 626.929 1125.89 605.05 1119.36Z" fill="#5D5D5D"/>
<path d="M1087.45 -146.809H1084.92C1080.86 -142.591 1077.05 -138.142 1073.5 -133.484C1033.12 -78.4237 1015.06 -27.6581 1018.62 21.8227C1019.98 41.0571 1017.63 53.7944 1011.28 60.732C1009.05 63.0267 1006.34 64.8067 1003.35 65.9478C1000.35 67.0889 997.147 67.5637 993.953 67.3392C983.27 67.3392 970.091 63.2647 956.178 58.97C943.792 54.6902 931.036 51.569 918.073 49.6465C908.638 48.6172 899.152 48.1148 889.66 48.1415C858.53 48.1415 828.979 53.0969 797.886 58.346L782.027 60.9522H781.623C769.895 63.1232 758.012 64.3507 746.088 64.6229C723.181 64.8431 708.497 57.2448 701.155 41.6077C686.031 8.97528 690.142 -30.3377 693.997 -64.8422C694.474 -69.504 694.988 -74.129 695.429 -78.6807C697.452 -101.749 701.919 -124.537 708.754 -146.662H706.809C700.135 -124.625 695.779 -101.952 693.813 -79.011C693.373 -74.4594 692.896 -69.871 692.382 -65.1725C688.711 -30.2643 684.342 9.26896 699.724 42.3785C707.323 58.7131 722.52 66.6785 746.198 66.6785C758.22 66.4101 770.201 65.1827 782.027 63.0078H782.431L798.289 60.3649C829.493 55.1525 859.007 50.1971 890.064 50.1971C899.495 50.1712 908.919 50.6736 918.294 51.7021C931.131 53.6002 943.764 56.6846 956.031 60.9155C970.091 65.2836 983.38 69.3948 994.356 69.3948C997.819 69.6222 1001.29 69.0821 1004.52 67.813C1007.75 66.544 1010.66 64.5773 1013.04 62.0534C1019.65 54.712 1022.15 41.5343 1020.71 21.6759C1017.04 -27.3278 1035.07 -77.7263 1075.26 -132.493C1079.03 -137.511 1083.1 -142.292 1087.45 -146.809V-146.809Z" fill="#5D5D5D"/>
<path d="M1075.59 131.429C1063.15 140.202 1046.23 144.497 1023.5 144.497C996.926 144.497 967.228 138.551 941.017 133.301C925.599 130.218 910.988 127.282 899.094 125.96C885.531 124.584 871.906 123.898 858.273 123.905C822.518 123.905 776.631 128.75 761.249 151.838C754.531 161.859 754.274 174.487 760.405 189.316C763.305 196.29 770.794 200.071 778.026 203.742C783.709 206.048 788.811 209.583 792.966 214.093C796.79 220.246 799.626 226.959 801.373 233.988C804.346 243.532 807.393 253.406 814.332 259.243C822.582 266.377 833.199 270.174 844.103 269.888C852.325 269.596 860.5 268.515 868.515 266.657C876.408 264.82 884.461 263.75 892.56 263.464C899.563 263.329 906.494 264.904 912.75 268.052C927.434 275.577 933.491 285.708 939.438 295.509C947.184 308.246 954.489 320.323 978.571 325.939C1029.01 337.759 1042.81 350.092 1076.18 379.861C1080.48 383.532 1085.1 387.827 1090.17 392.268C1101.19 402.555 1111.04 414.028 1119.54 426.479C1127.19 437.515 1135.79 447.868 1145.23 457.423C1155.66 467.1 1167.78 474.766 1180.99 480.034C1196.19 486.935 1210.54 493.469 1223.57 515.86L1225.63 519.531C1242.04 547.869 1258.67 574.114 1268.8 574.114C1269.59 574.114 1270.38 573.944 1271.1 573.614C1271.82 573.285 1272.46 572.805 1272.98 572.205C1276.65 568.168 1277.65 557.523 1276.03 539.536C1275.08 529.001 1267.48 519.604 1260.1 510.501C1252.17 500.7 1244.68 491.414 1245.12 481.136C1245.67 468.876 1253.09 462.782 1260.94 456.432C1267.27 452.039 1272.48 446.217 1276.14 439.437C1284.51 421.414 1286.53 405.299 1288.51 389.699C1291.23 367.968 1293.8 347.449 1313.22 324.251C1349.33 281.975 1397.13 251.324 1450.62 236.154C1467.1 231.136 1484.2 228.479 1501.43 228.262C1556.49 228.262 1595.85 258.142 1637.62 289.82L1651.94 300.575V297.381C1647.64 294.188 1643.38 290.957 1639.16 287.764C1597.06 255.829 1557.26 225.693 1501.43 225.693C1484.02 225.845 1466.72 228.44 1450.03 233.401C1396.05 248.794 1347.83 279.802 1311.42 322.525C1291.49 346.311 1288.88 367.198 1286.09 389.295C1284.14 404.675 1282.16 420.606 1273.97 438.262C1270.44 444.675 1265.48 450.188 1259.47 454.376C1251.54 460.837 1243.29 467.554 1242.7 480.952C1242.22 492.184 1250.37 502.242 1258.26 512.006C1265.38 520.816 1272.73 529.919 1273.61 539.646C1275.52 560.79 1273.39 568.021 1271.26 570.37C1270.97 570.704 1270.62 570.972 1270.22 571.155C1269.82 571.339 1269.38 571.434 1268.95 571.434C1258.81 571.434 1237.23 534.067 1227.98 518.136L1225.96 514.465C1212.52 491.377 1197.77 484.66 1182.2 477.759C1169.26 472.642 1157.37 465.175 1147.14 455.735C1137.8 446.285 1129.27 436.055 1121.67 425.158C1113.06 412.527 1103.06 400.904 1091.86 390.506C1086.79 386.065 1082.17 381.954 1077.87 378.136C1044.13 348.037 1030.15 335.593 979.122 323.627C956.068 318.231 949.056 306.631 941.604 294.261C935.474 284.167 929.16 273.742 913.888 265.887C907.275 262.532 899.938 260.856 892.523 261.005C884.253 261.296 876.029 262.378 867.964 264.235C860.119 266.058 852.116 267.115 844.066 267.392C833.778 267.674 823.753 264.114 815.947 257.407C809.596 252.048 806.622 242.725 803.796 233.328C801.991 226.021 799.016 219.054 794.985 212.698C790.614 207.876 785.204 204.111 779.164 201.686C771.822 198.016 765.287 194.675 762.754 188.582C756.954 174.597 757.138 162.887 763.342 153.527C778.026 131.503 823.105 126.731 858.236 126.731C871.723 126.728 885.201 127.415 898.617 128.787C910.438 130.035 924.975 132.971 940.356 136.128C966.677 141.414 996.485 147.397 1023.32 147.397C1046.45 147.397 1063.99 142.955 1076.88 133.852C1109 111.131 1099.79 76.883 1090.9 43.7735C1081.47 8.24122 1071.63 -28.4656 1111.2 -52.3985C1116.97 -55.5169 1123.48 -57.0137 1130.04 -56.7299C1153.71 -56.7299 1187.05 -43.8091 1219.28 -31.2921C1247.36 -20.28 1273.86 -10.1122 1291.12 -9.70843C1293.61 -9.70843 1296.07 -9.70843 1298.46 -9.70843C1335.54 -9.70843 1373.02 -16.0954 1409.25 -22.2989C1445.48 -28.5023 1482.85 -34.8526 1519.82 -34.8526C1543.92 -35.0803 1567.93 -31.9169 1591.15 -25.4557C1611.91 -19.3038 1632.22 -11.7241 1651.94 -2.77083V-5.56055C1632.49 -14.2753 1612.46 -21.6342 1591.99 -27.5847C1568.55 -34.1179 1544.3 -37.3183 1519.97 -37.0917C1482.78 -37.0917 1445.26 -30.7047 1408.99 -24.5013C1372.72 -18.2978 1335.57 -11.9475 1298.61 -11.9475C1296.07 -11.9475 1293.65 -11.9475 1291.26 -11.9475C1274.45 -12.3146 1248.13 -22.5558 1220.3 -33.3477C1187.82 -45.9381 1154.23 -59.0425 1130.11 -59.0425C1123.09 -59.3614 1116.11 -57.7355 1109.96 -54.344C1068.73 -29.4934 1078.83 8.05767 1088.59 44.3608C1097.62 77.9842 1106.17 109.736 1075.59 131.429Z" fill="#5D5D5D"/>
<path d="M763.307 37.6067C773.535 37.3782 783.727 36.2977 793.776 34.3765C829.142 28.5371 864.941 25.725 900.785 25.9706C910.513 25.9706 920.498 25.9706 931.364 26.4478C935.035 26.4478 938.413 26.4478 941.386 26.4478C959.337 26.4478 969.799 24.2821 977.508 18.9229C986.759 12.5359 992.192 1.377 995.863 -18.4447C1004.16 -63.9612 1022.44 -104.889 1053.28 -146.919H1051.92C1021.27 -104.816 1003.06 -63.9612 994.799 -18.4447C991.128 1.08335 985.878 12.0587 976.921 18.2622C969.396 23.4378 959.117 25.6035 941.423 25.6035C938.449 25.6035 935.182 25.6035 931.438 25.6035C920.425 25.2732 910.55 25.1263 900.822 25.1263C864.918 24.9008 829.059 27.7127 793.629 33.5322C783.642 35.4516 773.511 36.5321 763.344 36.7624C741.318 36.7624 725.349 29.421 719.806 -6.84533C714.52 -41.4232 719.219 -78.0566 724.064 -102.687C726.974 -117.748 731.313 -132.498 737.023 -146.735H735.848C730.172 -132.609 725.869 -117.968 723 -103.017C718.117 -78.2769 713.418 -41.5333 718.705 -6.77192C723.514 24.7593 736.435 37.6067 763.307 37.6067Z" fill="#5D5D5D"/>
<path d="M778.429 10.0765C782.12 10.0463 785.802 9.72719 789.442 9.12216C820.147 4.0735 851.171 1.20318 882.281 0.53274C889.623 0.53274 896.965 0.532752 904.014 0.716286C908.676 0.716286 913.081 0.973233 917.376 0.973233C930.555 0.973233 944.247 -0.0545706 954.783 -7.46936C963.557 -13.5994 969.761 -23.7672 973.836 -38.5968C984.074 -76.9842 1000.33 -113.507 1022 -146.809H1020.68C999.164 -113.567 983.01 -77.1493 972.808 -38.8904C968.806 -24.2077 962.712 -14.3335 954.196 -8.35031C943.88 -1.00894 930.408 -0.127984 917.486 -0.127984C913.191 -0.127984 908.823 -0.127983 904.16 -0.384931C897.222 -0.384931 889.954 -0.752 882.355 -0.384931C851.164 0.23801 820.056 3.04686 789.259 8.02094C772.482 10.8474 759.891 7.47033 752.219 -2.00004C734.488 -23.547 744.032 -71.9266 749.172 -97.8783C752.37 -114.811 757.75 -131.259 765.177 -146.809H763.929C756.643 -131.341 751.351 -115.01 748.181 -98.2087C743.004 -72.0734 733.497 -23.3634 751.448 -1.41272C754.757 2.45004 758.914 5.49655 763.594 7.48941C768.274 9.48226 773.351 10.3676 778.429 10.0765V10.0765Z" fill="#5D5D5D"/>
</g>
</g>
<defs>
<linearGradient id="paint0_linear_500_211" x1="720" y1="1" x2="720" y2="1018" gradientUnits="userSpaceOnUse">
<stop stop-color="#27ABF6"/>
<stop offset="1" stop-color="#1A4CFF"/>
</linearGradient>
<linearGradient id="paint1_linear_500_211" x1="720" y1="0" x2="720" y2="1017" gradientUnits="userSpaceOnUse">
<stop stop-color="#27ABF6"/>
<stop offset="1" stop-color="#1A4CFF"/>
</linearGradient>
</defs>
</svg>
